M48
;GenerationSoftware,Autodesk,EAGLE,9.6.2*%
;CreationDate,2022-03-28T17:57:17Z*%
FMAT,2
ICI,OFF
METRIC,TZ,000.000
T3C0.305
T2C0.381
T1C1.016
%
G90
M71
T1
X16510Y1270
X6350Y1270
X3810Y1270
X1270Y1270
X24130Y11430
X21590Y11430
X19050Y11430
X16510Y11430
X13970Y11430
X11430Y11430
X8890Y11430
X6350Y11430
X3810Y11430
X26670Y1270
X24130Y1270
X21590Y1270
X19050Y1270
X1270Y11430
X13970Y1270
X11430Y1270
X8890Y1270
T2
X19050Y6350
X25400Y10160
X25400Y3810
X18034Y4191
X12700Y3556
X11176Y4699
X12700Y9271
X11176Y8001
X11430Y6350
T3
X16510Y6350
X13970Y6350
X15240Y5588
X15240Y7112
M30