G04 EAGLE Gerber RS-274X export*
G75*
%MOMM*%
%FSLAX34Y34*%
%LPD*%
%INSoldermask Top*%
%IPPOS*%
%AMOC8*
5,1,8,0,0,1.08239X$1,22.5*%
G01*
%ADD10C,0.253525*%
%ADD11C,1.152400*%
%ADD12C,0.264288*%
%ADD13C,2.032000*%

G36*
X135444Y75865D02*
X135444Y75865D01*
X135451Y75872D01*
X135456Y75869D01*
X135959Y76070D01*
X135964Y76078D01*
X135970Y76076D01*
X136404Y76401D01*
X136407Y76410D01*
X136413Y76410D01*
X136748Y76835D01*
X136748Y76845D01*
X136755Y76846D01*
X136968Y77344D01*
X136966Y77354D01*
X136972Y77357D01*
X137049Y77893D01*
X137046Y77898D01*
X137049Y77900D01*
X136999Y85650D01*
X136963Y85698D01*
X136956Y85692D01*
X136950Y85699D01*
X132800Y85699D01*
X132753Y85663D01*
X132758Y85656D01*
X132751Y85650D01*
X132751Y77900D01*
X132754Y77896D01*
X132751Y77893D01*
X132828Y77357D01*
X132835Y77350D01*
X132832Y77344D01*
X133045Y76846D01*
X133053Y76842D01*
X133052Y76835D01*
X133387Y76410D01*
X133396Y76407D01*
X133396Y76401D01*
X133830Y76076D01*
X133839Y76076D01*
X133841Y76070D01*
X134344Y75869D01*
X134353Y75871D01*
X134356Y75865D01*
X134894Y75801D01*
X134902Y75805D01*
X134906Y75801D01*
X135444Y75865D01*
G37*
G36*
X139902Y75806D02*
X139902Y75806D01*
X139906Y75801D01*
X140437Y75871D01*
X140444Y75878D01*
X140449Y75874D01*
X140944Y76079D01*
X140949Y76087D01*
X140955Y76086D01*
X141380Y76411D01*
X141382Y76421D01*
X141389Y76420D01*
X141714Y76845D01*
X141714Y76855D01*
X141721Y76856D01*
X141926Y77351D01*
X141923Y77360D01*
X141925Y77360D01*
X141929Y77363D01*
X141999Y77894D01*
X141996Y77898D01*
X141999Y77900D01*
X141999Y85650D01*
X141963Y85697D01*
X141956Y85692D01*
X141950Y85699D01*
X137850Y85699D01*
X137803Y85663D01*
X137808Y85656D01*
X137801Y85650D01*
X137751Y77900D01*
X137754Y77896D01*
X137751Y77893D01*
X137828Y77357D01*
X137835Y77350D01*
X137832Y77344D01*
X138045Y76846D01*
X138053Y76842D01*
X138052Y76835D01*
X138387Y76410D01*
X138396Y76407D01*
X138396Y76401D01*
X138830Y76076D01*
X138839Y76076D01*
X138841Y76070D01*
X139344Y75869D01*
X139353Y75871D01*
X139356Y75865D01*
X139894Y75801D01*
X139902Y75806D01*
G37*
G36*
X146997Y41337D02*
X146997Y41337D01*
X146992Y41344D01*
X146999Y41350D01*
X146999Y49150D01*
X146996Y49154D01*
X146999Y49157D01*
X146923Y49680D01*
X146917Y49687D01*
X146920Y49693D01*
X146711Y50179D01*
X146703Y50183D01*
X146705Y50190D01*
X146378Y50605D01*
X146369Y50607D01*
X146369Y50614D01*
X145945Y50931D01*
X145936Y50931D01*
X145934Y50937D01*
X145443Y51133D01*
X145434Y51131D01*
X145431Y51136D01*
X144906Y51199D01*
X144898Y51194D01*
X144894Y51199D01*
X144363Y51129D01*
X144356Y51122D01*
X144351Y51126D01*
X143856Y50921D01*
X143851Y50913D01*
X143845Y50914D01*
X143420Y50589D01*
X143418Y50580D01*
X143411Y50580D01*
X143086Y50155D01*
X143086Y50146D01*
X143079Y50144D01*
X142874Y49649D01*
X142877Y49641D01*
X142872Y49637D01*
X142871Y49637D01*
X142801Y49106D01*
X142804Y49102D01*
X142801Y49100D01*
X142801Y41350D01*
X142837Y41303D01*
X142844Y41308D01*
X142850Y41301D01*
X146950Y41301D01*
X146997Y41337D01*
G37*
G36*
X141997Y41337D02*
X141997Y41337D01*
X141992Y41344D01*
X141999Y41350D01*
X141999Y49100D01*
X141996Y49104D01*
X141999Y49106D01*
X141929Y49637D01*
X141922Y49644D01*
X141926Y49649D01*
X141721Y50144D01*
X141713Y50149D01*
X141714Y50155D01*
X141389Y50580D01*
X141380Y50582D01*
X141380Y50589D01*
X140955Y50914D01*
X140946Y50914D01*
X140944Y50921D01*
X140449Y51126D01*
X140440Y51123D01*
X140437Y51129D01*
X139906Y51199D01*
X139898Y51194D01*
X139894Y51199D01*
X139363Y51129D01*
X139356Y51122D01*
X139351Y51126D01*
X138856Y50921D01*
X138851Y50913D01*
X138845Y50914D01*
X138420Y50589D01*
X138418Y50580D01*
X138411Y50580D01*
X138086Y50155D01*
X138086Y50146D01*
X138079Y50144D01*
X137874Y49649D01*
X137877Y49641D01*
X137872Y49637D01*
X137871Y49637D01*
X137801Y49106D01*
X137804Y49102D01*
X137801Y49100D01*
X137801Y41350D01*
X137837Y41303D01*
X137844Y41308D01*
X137850Y41301D01*
X141950Y41301D01*
X141997Y41337D01*
G37*
G36*
X171997Y41337D02*
X171997Y41337D01*
X171992Y41344D01*
X171999Y41350D01*
X171999Y49100D01*
X171996Y49104D01*
X171999Y49106D01*
X171929Y49637D01*
X171922Y49644D01*
X171926Y49649D01*
X171721Y50144D01*
X171713Y50149D01*
X171714Y50155D01*
X171389Y50580D01*
X171380Y50582D01*
X171380Y50589D01*
X170955Y50914D01*
X170946Y50914D01*
X170944Y50921D01*
X170449Y51126D01*
X170440Y51123D01*
X170437Y51129D01*
X169906Y51199D01*
X169898Y51194D01*
X169894Y51199D01*
X169363Y51129D01*
X169356Y51122D01*
X169351Y51126D01*
X168856Y50921D01*
X168851Y50913D01*
X168845Y50914D01*
X168420Y50589D01*
X168418Y50580D01*
X168411Y50580D01*
X168086Y50155D01*
X168086Y50146D01*
X168079Y50144D01*
X167874Y49649D01*
X167877Y49641D01*
X167872Y49637D01*
X167871Y49637D01*
X167801Y49106D01*
X167804Y49102D01*
X167801Y49100D01*
X167801Y41350D01*
X167837Y41303D01*
X167844Y41308D01*
X167850Y41301D01*
X171950Y41301D01*
X171997Y41337D01*
G37*
G36*
X166997Y41337D02*
X166997Y41337D01*
X166992Y41344D01*
X166999Y41350D01*
X166999Y49100D01*
X166996Y49104D01*
X166999Y49106D01*
X166929Y49637D01*
X166922Y49644D01*
X166926Y49649D01*
X166721Y50144D01*
X166713Y50149D01*
X166714Y50155D01*
X166389Y50580D01*
X166380Y50582D01*
X166380Y50589D01*
X165955Y50914D01*
X165946Y50914D01*
X165944Y50921D01*
X165449Y51126D01*
X165440Y51123D01*
X165437Y51129D01*
X164906Y51199D01*
X164898Y51194D01*
X164894Y51199D01*
X164363Y51129D01*
X164356Y51122D01*
X164351Y51126D01*
X163856Y50921D01*
X163851Y50913D01*
X163845Y50914D01*
X163420Y50589D01*
X163418Y50580D01*
X163411Y50580D01*
X163086Y50155D01*
X163086Y50146D01*
X163079Y50144D01*
X162874Y49649D01*
X162877Y49641D01*
X162872Y49637D01*
X162871Y49637D01*
X162801Y49106D01*
X162804Y49102D01*
X162801Y49100D01*
X162801Y41350D01*
X162837Y41303D01*
X162844Y41308D01*
X162850Y41301D01*
X166950Y41301D01*
X166997Y41337D01*
G37*
G36*
X151997Y41337D02*
X151997Y41337D01*
X151992Y41344D01*
X151999Y41350D01*
X151999Y49100D01*
X151996Y49104D01*
X151999Y49106D01*
X151929Y49637D01*
X151922Y49644D01*
X151926Y49649D01*
X151721Y50144D01*
X151713Y50149D01*
X151714Y50155D01*
X151389Y50580D01*
X151380Y50582D01*
X151380Y50589D01*
X150955Y50914D01*
X150946Y50914D01*
X150944Y50921D01*
X150449Y51126D01*
X150440Y51123D01*
X150437Y51129D01*
X149906Y51199D01*
X149898Y51194D01*
X149894Y51199D01*
X149363Y51129D01*
X149356Y51122D01*
X149351Y51126D01*
X148856Y50921D01*
X148851Y50913D01*
X148845Y50914D01*
X148420Y50589D01*
X148418Y50580D01*
X148411Y50580D01*
X148086Y50155D01*
X148086Y50146D01*
X148079Y50144D01*
X147874Y49649D01*
X147877Y49641D01*
X147872Y49637D01*
X147871Y49637D01*
X147801Y49106D01*
X147804Y49102D01*
X147801Y49100D01*
X147801Y41350D01*
X147837Y41303D01*
X147844Y41308D01*
X147850Y41301D01*
X151950Y41301D01*
X151997Y41337D01*
G37*
G36*
X161997Y41337D02*
X161997Y41337D01*
X161992Y41344D01*
X161999Y41350D01*
X161999Y49100D01*
X161996Y49104D01*
X161999Y49106D01*
X161929Y49637D01*
X161922Y49644D01*
X161926Y49649D01*
X161721Y50144D01*
X161713Y50149D01*
X161714Y50155D01*
X161389Y50580D01*
X161380Y50582D01*
X161380Y50589D01*
X160955Y50914D01*
X160946Y50914D01*
X160944Y50921D01*
X160449Y51126D01*
X160440Y51123D01*
X160437Y51129D01*
X159906Y51199D01*
X159898Y51194D01*
X159894Y51199D01*
X159363Y51129D01*
X159356Y51122D01*
X159351Y51126D01*
X158856Y50921D01*
X158851Y50913D01*
X158845Y50914D01*
X158420Y50589D01*
X158418Y50580D01*
X158411Y50580D01*
X158086Y50155D01*
X158086Y50146D01*
X158079Y50144D01*
X157874Y49649D01*
X157877Y49641D01*
X157872Y49637D01*
X157871Y49637D01*
X157801Y49106D01*
X157804Y49102D01*
X157801Y49100D01*
X157801Y41350D01*
X157837Y41303D01*
X157844Y41308D01*
X157850Y41301D01*
X161950Y41301D01*
X161997Y41337D01*
G37*
G36*
X156997Y41337D02*
X156997Y41337D01*
X156992Y41344D01*
X156999Y41350D01*
X156999Y49100D01*
X156996Y49104D01*
X156999Y49106D01*
X156929Y49637D01*
X156922Y49644D01*
X156926Y49649D01*
X156721Y50144D01*
X156713Y50149D01*
X156714Y50155D01*
X156389Y50580D01*
X156380Y50582D01*
X156380Y50589D01*
X155955Y50914D01*
X155946Y50914D01*
X155944Y50921D01*
X155449Y51126D01*
X155440Y51123D01*
X155437Y51129D01*
X154906Y51199D01*
X154898Y51194D01*
X154894Y51199D01*
X154363Y51129D01*
X154356Y51122D01*
X154351Y51126D01*
X153856Y50921D01*
X153851Y50913D01*
X153845Y50914D01*
X153420Y50589D01*
X153418Y50580D01*
X153411Y50580D01*
X153086Y50155D01*
X153086Y50146D01*
X153079Y50144D01*
X152874Y49649D01*
X152877Y49641D01*
X152872Y49637D01*
X152871Y49637D01*
X152801Y49106D01*
X152804Y49102D01*
X152801Y49100D01*
X152801Y41350D01*
X152837Y41303D01*
X152844Y41308D01*
X152850Y41301D01*
X156950Y41301D01*
X156997Y41337D01*
G37*
G36*
X155437Y75871D02*
X155437Y75871D01*
X155444Y75878D01*
X155449Y75874D01*
X155944Y76079D01*
X155949Y76087D01*
X155955Y76086D01*
X156380Y76411D01*
X156382Y76421D01*
X156389Y76420D01*
X156714Y76845D01*
X156714Y76855D01*
X156721Y76856D01*
X156926Y77351D01*
X156923Y77360D01*
X156925Y77360D01*
X156929Y77363D01*
X156999Y77894D01*
X156996Y77898D01*
X156999Y77900D01*
X156999Y85650D01*
X156963Y85697D01*
X156956Y85692D01*
X156950Y85699D01*
X152850Y85699D01*
X152803Y85663D01*
X152808Y85656D01*
X152801Y85650D01*
X152801Y77900D01*
X152804Y77896D01*
X152801Y77894D01*
X152871Y77363D01*
X152878Y77356D01*
X152874Y77351D01*
X153079Y76856D01*
X153087Y76851D01*
X153086Y76845D01*
X153411Y76420D01*
X153421Y76418D01*
X153420Y76411D01*
X153845Y76086D01*
X153855Y76086D01*
X153856Y76079D01*
X154351Y75874D01*
X154360Y75877D01*
X154363Y75871D01*
X154894Y75801D01*
X154902Y75806D01*
X154906Y75801D01*
X155437Y75871D01*
G37*
G36*
X170437Y75871D02*
X170437Y75871D01*
X170444Y75878D01*
X170449Y75874D01*
X170944Y76079D01*
X170949Y76087D01*
X170955Y76086D01*
X171380Y76411D01*
X171382Y76421D01*
X171389Y76420D01*
X171714Y76845D01*
X171714Y76855D01*
X171721Y76856D01*
X171926Y77351D01*
X171923Y77360D01*
X171925Y77360D01*
X171929Y77363D01*
X171999Y77894D01*
X171996Y77898D01*
X171999Y77900D01*
X171999Y85650D01*
X171963Y85697D01*
X171956Y85692D01*
X171950Y85699D01*
X167850Y85699D01*
X167803Y85663D01*
X167808Y85656D01*
X167801Y85650D01*
X167801Y77900D01*
X167804Y77896D01*
X167801Y77894D01*
X167871Y77363D01*
X167878Y77356D01*
X167874Y77351D01*
X168079Y76856D01*
X168087Y76851D01*
X168086Y76845D01*
X168411Y76420D01*
X168421Y76418D01*
X168420Y76411D01*
X168845Y76086D01*
X168855Y76086D01*
X168856Y76079D01*
X169351Y75874D01*
X169360Y75877D01*
X169363Y75871D01*
X169894Y75801D01*
X169902Y75806D01*
X169906Y75801D01*
X170437Y75871D01*
G37*
G36*
X160437Y75871D02*
X160437Y75871D01*
X160444Y75878D01*
X160449Y75874D01*
X160944Y76079D01*
X160949Y76087D01*
X160955Y76086D01*
X161380Y76411D01*
X161382Y76421D01*
X161389Y76420D01*
X161714Y76845D01*
X161714Y76855D01*
X161721Y76856D01*
X161926Y77351D01*
X161923Y77360D01*
X161925Y77360D01*
X161929Y77363D01*
X161999Y77894D01*
X161996Y77898D01*
X161999Y77900D01*
X161999Y85650D01*
X161963Y85697D01*
X161956Y85692D01*
X161950Y85699D01*
X157850Y85699D01*
X157803Y85663D01*
X157808Y85656D01*
X157801Y85650D01*
X157801Y77900D01*
X157804Y77896D01*
X157801Y77894D01*
X157871Y77363D01*
X157878Y77356D01*
X157874Y77351D01*
X158079Y76856D01*
X158087Y76851D01*
X158086Y76845D01*
X158411Y76420D01*
X158421Y76418D01*
X158420Y76411D01*
X158845Y76086D01*
X158855Y76086D01*
X158856Y76079D01*
X159351Y75874D01*
X159360Y75877D01*
X159363Y75871D01*
X159894Y75801D01*
X159902Y75806D01*
X159906Y75801D01*
X160437Y75871D01*
G37*
G36*
X165437Y75871D02*
X165437Y75871D01*
X165444Y75878D01*
X165449Y75874D01*
X165944Y76079D01*
X165949Y76087D01*
X165955Y76086D01*
X166380Y76411D01*
X166382Y76421D01*
X166389Y76420D01*
X166714Y76845D01*
X166714Y76855D01*
X166721Y76856D01*
X166926Y77351D01*
X166923Y77360D01*
X166925Y77360D01*
X166929Y77363D01*
X166999Y77894D01*
X166996Y77898D01*
X166999Y77900D01*
X166999Y85650D01*
X166963Y85697D01*
X166956Y85692D01*
X166950Y85699D01*
X162850Y85699D01*
X162803Y85663D01*
X162808Y85656D01*
X162801Y85650D01*
X162801Y77900D01*
X162804Y77896D01*
X162801Y77894D01*
X162871Y77363D01*
X162878Y77356D01*
X162874Y77351D01*
X163079Y76856D01*
X163087Y76851D01*
X163086Y76845D01*
X163411Y76420D01*
X163421Y76418D01*
X163420Y76411D01*
X163845Y76086D01*
X163855Y76086D01*
X163856Y76079D01*
X164351Y75874D01*
X164360Y75877D01*
X164363Y75871D01*
X164894Y75801D01*
X164902Y75806D01*
X164906Y75801D01*
X165437Y75871D01*
G37*
G36*
X145437Y75871D02*
X145437Y75871D01*
X145444Y75878D01*
X145449Y75874D01*
X145944Y76079D01*
X145949Y76087D01*
X145955Y76086D01*
X146380Y76411D01*
X146382Y76421D01*
X146389Y76420D01*
X146714Y76845D01*
X146714Y76855D01*
X146721Y76856D01*
X146926Y77351D01*
X146923Y77360D01*
X146925Y77360D01*
X146929Y77363D01*
X146999Y77894D01*
X146996Y77898D01*
X146999Y77900D01*
X146999Y85650D01*
X146963Y85697D01*
X146956Y85692D01*
X146950Y85699D01*
X142850Y85699D01*
X142803Y85663D01*
X142808Y85656D01*
X142801Y85650D01*
X142801Y77900D01*
X142804Y77896D01*
X142801Y77894D01*
X142871Y77363D01*
X142878Y77356D01*
X142874Y77351D01*
X143079Y76856D01*
X143087Y76851D01*
X143086Y76845D01*
X143411Y76420D01*
X143421Y76418D01*
X143420Y76411D01*
X143845Y76086D01*
X143855Y76086D01*
X143856Y76079D01*
X144351Y75874D01*
X144360Y75877D01*
X144363Y75871D01*
X144894Y75801D01*
X144902Y75806D01*
X144906Y75801D01*
X145437Y75871D01*
G37*
G36*
X150437Y75871D02*
X150437Y75871D01*
X150444Y75878D01*
X150449Y75874D01*
X150944Y76079D01*
X150949Y76087D01*
X150955Y76086D01*
X151380Y76411D01*
X151382Y76421D01*
X151389Y76420D01*
X151714Y76845D01*
X151714Y76855D01*
X151721Y76856D01*
X151926Y77351D01*
X151923Y77360D01*
X151925Y77360D01*
X151929Y77363D01*
X151999Y77894D01*
X151996Y77898D01*
X151999Y77900D01*
X151999Y85650D01*
X151963Y85697D01*
X151956Y85692D01*
X151950Y85699D01*
X147850Y85699D01*
X147803Y85663D01*
X147808Y85656D01*
X147801Y85650D01*
X147801Y77900D01*
X147804Y77896D01*
X147801Y77894D01*
X147871Y77363D01*
X147878Y77356D01*
X147874Y77351D01*
X148079Y76856D01*
X148087Y76851D01*
X148086Y76845D01*
X148411Y76420D01*
X148421Y76418D01*
X148420Y76411D01*
X148845Y76086D01*
X148855Y76086D01*
X148856Y76079D01*
X149351Y75874D01*
X149360Y75877D01*
X149363Y75871D01*
X149894Y75801D01*
X149902Y75806D01*
X149906Y75801D01*
X150437Y75871D01*
G37*
G36*
X133004Y68904D02*
X133004Y68904D01*
X133006Y68901D01*
X133537Y68971D01*
X133544Y68978D01*
X133549Y68974D01*
X134044Y69179D01*
X134049Y69187D01*
X134055Y69186D01*
X134480Y69511D01*
X134482Y69521D01*
X134489Y69520D01*
X134814Y69945D01*
X134814Y69955D01*
X134821Y69956D01*
X135026Y70451D01*
X135023Y70460D01*
X135025Y70460D01*
X135029Y70463D01*
X135099Y70994D01*
X135094Y71002D01*
X135099Y71006D01*
X135029Y71537D01*
X135022Y71544D01*
X135026Y71549D01*
X134821Y72044D01*
X134813Y72049D01*
X134814Y72055D01*
X134489Y72480D01*
X134480Y72482D01*
X134480Y72489D01*
X134055Y72814D01*
X134046Y72814D01*
X134044Y72821D01*
X133549Y73026D01*
X133540Y73023D01*
X133537Y73029D01*
X133006Y73099D01*
X133002Y73096D01*
X133000Y73099D01*
X125250Y73099D01*
X125203Y73063D01*
X125208Y73056D01*
X125201Y73050D01*
X125201Y68950D01*
X125237Y68903D01*
X125244Y68908D01*
X125250Y68901D01*
X133000Y68901D01*
X133004Y68904D01*
G37*
G36*
X133004Y53904D02*
X133004Y53904D01*
X133006Y53901D01*
X133537Y53971D01*
X133544Y53978D01*
X133549Y53974D01*
X134044Y54179D01*
X134049Y54187D01*
X134055Y54186D01*
X134480Y54511D01*
X134482Y54521D01*
X134489Y54520D01*
X134814Y54945D01*
X134814Y54955D01*
X134821Y54956D01*
X135026Y55451D01*
X135023Y55460D01*
X135025Y55460D01*
X135029Y55463D01*
X135099Y55994D01*
X135094Y56002D01*
X135099Y56006D01*
X135029Y56537D01*
X135022Y56544D01*
X135026Y56549D01*
X134821Y57044D01*
X134813Y57049D01*
X134814Y57055D01*
X134489Y57480D01*
X134480Y57482D01*
X134480Y57489D01*
X134055Y57814D01*
X134046Y57814D01*
X134044Y57821D01*
X133549Y58026D01*
X133540Y58023D01*
X133537Y58029D01*
X133006Y58099D01*
X133002Y58096D01*
X133000Y58099D01*
X125250Y58099D01*
X125203Y58063D01*
X125208Y58056D01*
X125201Y58050D01*
X125201Y53950D01*
X125237Y53903D01*
X125244Y53908D01*
X125250Y53901D01*
X133000Y53901D01*
X133004Y53904D01*
G37*
G36*
X179597Y68937D02*
X179597Y68937D01*
X179592Y68944D01*
X179599Y68950D01*
X179599Y73050D01*
X179563Y73097D01*
X179556Y73092D01*
X179550Y73099D01*
X171800Y73099D01*
X171796Y73096D01*
X171794Y73099D01*
X171263Y73029D01*
X171256Y73022D01*
X171251Y73026D01*
X170756Y72821D01*
X170751Y72813D01*
X170745Y72814D01*
X170320Y72489D01*
X170318Y72480D01*
X170311Y72480D01*
X169986Y72055D01*
X169986Y72046D01*
X169979Y72044D01*
X169774Y71549D01*
X169777Y71540D01*
X169771Y71537D01*
X169701Y71006D01*
X169706Y70998D01*
X169701Y70994D01*
X169771Y70463D01*
X169778Y70456D01*
X169774Y70451D01*
X169979Y69956D01*
X169987Y69951D01*
X169986Y69945D01*
X170311Y69520D01*
X170321Y69518D01*
X170320Y69511D01*
X170745Y69186D01*
X170755Y69186D01*
X170756Y69179D01*
X171251Y68974D01*
X171260Y68977D01*
X171263Y68971D01*
X171794Y68901D01*
X171798Y68904D01*
X171800Y68901D01*
X179550Y68901D01*
X179597Y68937D01*
G37*
G36*
X179597Y53937D02*
X179597Y53937D01*
X179592Y53944D01*
X179599Y53950D01*
X179599Y58050D01*
X179563Y58097D01*
X179556Y58092D01*
X179550Y58099D01*
X171800Y58099D01*
X171796Y58096D01*
X171794Y58099D01*
X171263Y58029D01*
X171256Y58022D01*
X171251Y58026D01*
X170756Y57821D01*
X170751Y57813D01*
X170745Y57814D01*
X170320Y57489D01*
X170318Y57480D01*
X170311Y57480D01*
X169986Y57055D01*
X169986Y57046D01*
X169979Y57044D01*
X169774Y56549D01*
X169777Y56540D01*
X169771Y56537D01*
X169701Y56006D01*
X169706Y55998D01*
X169701Y55994D01*
X169771Y55463D01*
X169778Y55456D01*
X169774Y55451D01*
X169979Y54956D01*
X169987Y54951D01*
X169986Y54945D01*
X170311Y54520D01*
X170321Y54518D01*
X170320Y54511D01*
X170745Y54186D01*
X170755Y54186D01*
X170756Y54179D01*
X171251Y53974D01*
X171260Y53977D01*
X171263Y53971D01*
X171794Y53901D01*
X171798Y53904D01*
X171800Y53901D01*
X179550Y53901D01*
X179597Y53937D01*
G37*
G36*
X136997Y41387D02*
X136997Y41387D01*
X136992Y41394D01*
X136999Y41400D01*
X136999Y49100D01*
X136996Y49104D01*
X136999Y49106D01*
X136929Y49637D01*
X136922Y49644D01*
X136926Y49649D01*
X136721Y50144D01*
X136713Y50149D01*
X136714Y50155D01*
X136389Y50580D01*
X136380Y50582D01*
X136380Y50589D01*
X135955Y50914D01*
X135946Y50914D01*
X135944Y50921D01*
X135449Y51126D01*
X135440Y51123D01*
X135437Y51129D01*
X134906Y51199D01*
X134898Y51194D01*
X134894Y51199D01*
X134363Y51129D01*
X134356Y51122D01*
X134351Y51126D01*
X133856Y50921D01*
X133851Y50913D01*
X133845Y50914D01*
X133420Y50589D01*
X133418Y50580D01*
X133411Y50580D01*
X133086Y50155D01*
X133086Y50146D01*
X133079Y50144D01*
X132874Y49649D01*
X132876Y49642D01*
X132872Y49638D01*
X132871Y49637D01*
X132801Y49106D01*
X132804Y49102D01*
X132801Y49100D01*
X132801Y41400D01*
X132837Y41353D01*
X132844Y41358D01*
X132850Y41351D01*
X136950Y41351D01*
X136997Y41387D01*
G37*
D10*
X106095Y43485D02*
X106095Y33495D01*
X97105Y33495D01*
X97105Y43485D01*
X106095Y43485D01*
X106095Y35903D02*
X97105Y35903D01*
X97105Y38311D02*
X106095Y38311D01*
X106095Y40719D02*
X97105Y40719D01*
X97105Y43127D02*
X106095Y43127D01*
X106095Y50495D02*
X106095Y60485D01*
X106095Y50495D02*
X97105Y50495D01*
X97105Y60485D01*
X106095Y60485D01*
X106095Y52903D02*
X97105Y52903D01*
X97105Y55311D02*
X106095Y55311D01*
X106095Y57719D02*
X97105Y57719D01*
X97105Y60127D02*
X106095Y60127D01*
X97105Y83515D02*
X97105Y93505D01*
X106095Y93505D01*
X106095Y83515D01*
X97105Y83515D01*
X97105Y85923D02*
X106095Y85923D01*
X106095Y88331D02*
X97105Y88331D01*
X97105Y90739D02*
X106095Y90739D01*
X106095Y93147D02*
X97105Y93147D01*
X97105Y76505D02*
X97105Y66515D01*
X97105Y76505D02*
X106095Y76505D01*
X106095Y66515D01*
X97105Y66515D01*
X97105Y68923D02*
X106095Y68923D01*
X106095Y71331D02*
X97105Y71331D01*
X97105Y73739D02*
X106095Y73739D01*
X106095Y76147D02*
X97105Y76147D01*
X198705Y60485D02*
X198705Y50495D01*
X198705Y60485D02*
X207695Y60485D01*
X207695Y50495D01*
X198705Y50495D01*
X198705Y52903D02*
X207695Y52903D01*
X207695Y55311D02*
X198705Y55311D01*
X198705Y57719D02*
X207695Y57719D01*
X207695Y60127D02*
X198705Y60127D01*
X198705Y43485D02*
X198705Y33495D01*
X198705Y43485D02*
X207695Y43485D01*
X207695Y33495D01*
X198705Y33495D01*
X198705Y35903D02*
X207695Y35903D01*
X207695Y38311D02*
X198705Y38311D01*
X198705Y40719D02*
X207695Y40719D01*
X207695Y43127D02*
X198705Y43127D01*
X80695Y43485D02*
X80695Y33495D01*
X71705Y33495D01*
X71705Y43485D01*
X80695Y43485D01*
X80695Y35903D02*
X71705Y35903D01*
X71705Y38311D02*
X80695Y38311D01*
X80695Y40719D02*
X71705Y40719D01*
X71705Y43127D02*
X80695Y43127D01*
X80695Y50495D02*
X80695Y60485D01*
X80695Y50495D02*
X71705Y50495D01*
X71705Y60485D01*
X80695Y60485D01*
X80695Y52903D02*
X71705Y52903D01*
X71705Y55311D02*
X80695Y55311D01*
X80695Y57719D02*
X71705Y57719D01*
X71705Y60127D02*
X80695Y60127D01*
X71705Y83515D02*
X71705Y93505D01*
X80695Y93505D01*
X80695Y83515D01*
X71705Y83515D01*
X71705Y85923D02*
X80695Y85923D01*
X80695Y88331D02*
X71705Y88331D01*
X71705Y90739D02*
X80695Y90739D01*
X80695Y93147D02*
X71705Y93147D01*
X71705Y76505D02*
X71705Y66515D01*
X71705Y76505D02*
X80695Y76505D01*
X80695Y66515D01*
X71705Y66515D01*
X71705Y68923D02*
X80695Y68923D01*
X80695Y71331D02*
X71705Y71331D01*
X71705Y73739D02*
X80695Y73739D01*
X80695Y76147D02*
X71705Y76147D01*
D11*
X266700Y114300D03*
X25400Y63500D03*
D12*
X137709Y53809D02*
X167091Y53809D01*
X137709Y53809D02*
X137709Y73191D01*
X167091Y73191D01*
X167091Y53809D01*
X167091Y56320D02*
X137709Y56320D01*
X137709Y58831D02*
X167091Y58831D01*
X167091Y61342D02*
X137709Y61342D01*
X137709Y63853D02*
X167091Y63853D01*
X167091Y66364D02*
X137709Y66364D01*
X137709Y68875D02*
X167091Y68875D01*
X167091Y71386D02*
X137709Y71386D01*
D13*
X266700Y12700D03*
X241300Y12700D03*
X215900Y12700D03*
X190500Y12700D03*
X165100Y12700D03*
X139700Y12700D03*
X114300Y12700D03*
X88900Y12700D03*
X63500Y12700D03*
X38100Y12700D03*
X12700Y12700D03*
X241300Y114300D03*
X215900Y114300D03*
X190500Y114300D03*
X165100Y114300D03*
X139700Y114300D03*
X114300Y114300D03*
X88900Y114300D03*
X63500Y114300D03*
X38100Y114300D03*
X12700Y114300D03*
M02*
