G04 EAGLE Gerber RS-274X export*
G75*
%MOMM*%
%FSLAX34Y34*%
%LPD*%
%INSilkscreen Bottom*%
%IPPOS*%
%AMOC8*
5,1,8,0,0,1.08239X$1,22.5*%
G01*

G36*
X19547Y69277D02*
X19547Y69277D01*
X19542Y69284D01*
X19549Y69290D01*
X19549Y106490D01*
X19546Y106495D01*
X19549Y106498D01*
X19449Y107098D01*
X19405Y107139D01*
X19403Y107136D01*
X19400Y107139D01*
X5900Y107139D01*
X5853Y107103D01*
X5858Y107096D01*
X5851Y107090D01*
X5851Y69890D01*
X5854Y69885D01*
X5851Y69882D01*
X5951Y69282D01*
X5995Y69241D01*
X5998Y69244D01*
X6000Y69241D01*
X19500Y69241D01*
X19547Y69277D01*
G37*
G36*
X19547Y19747D02*
X19547Y19747D01*
X19542Y19754D01*
X19549Y19760D01*
X19549Y56960D01*
X19546Y56965D01*
X19549Y56968D01*
X19449Y57568D01*
X19405Y57609D01*
X19403Y57606D01*
X19400Y57609D01*
X5900Y57609D01*
X5853Y57573D01*
X5858Y57566D01*
X5851Y57560D01*
X5851Y20360D01*
X5854Y20355D01*
X5851Y20352D01*
X5951Y19752D01*
X5995Y19711D01*
X5998Y19714D01*
X6000Y19711D01*
X19500Y19711D01*
X19547Y19747D01*
G37*
G36*
X230535Y47880D02*
X230535Y47880D01*
X230643Y47894D01*
X230655Y47900D01*
X230669Y47902D01*
X230765Y47954D01*
X230862Y48001D01*
X230872Y48011D01*
X230884Y48017D01*
X230958Y48097D01*
X231035Y48173D01*
X231041Y48185D01*
X231051Y48196D01*
X231096Y48294D01*
X231144Y48391D01*
X231148Y48409D01*
X231152Y48418D01*
X231154Y48439D01*
X231173Y48536D01*
X231616Y52887D01*
X232775Y53258D01*
X232793Y53268D01*
X232890Y53306D01*
X233972Y53863D01*
X237362Y51099D01*
X237456Y51045D01*
X237548Y50988D01*
X237561Y50985D01*
X237573Y50978D01*
X237680Y50957D01*
X237785Y50932D01*
X237799Y50934D01*
X237813Y50931D01*
X237920Y50946D01*
X238028Y50956D01*
X238041Y50962D01*
X238055Y50964D01*
X238152Y51012D01*
X238251Y51057D01*
X238264Y51068D01*
X238273Y51072D01*
X238288Y51088D01*
X238365Y51150D01*
X240950Y53735D01*
X241013Y53824D01*
X241079Y53909D01*
X241084Y53922D01*
X241092Y53934D01*
X241123Y54037D01*
X241159Y54140D01*
X241159Y54154D01*
X241163Y54167D01*
X241159Y54275D01*
X241160Y54384D01*
X241155Y54397D01*
X241155Y54411D01*
X241117Y54513D01*
X241082Y54615D01*
X241073Y54630D01*
X241069Y54639D01*
X241055Y54656D01*
X241001Y54738D01*
X238237Y58128D01*
X238794Y59210D01*
X238811Y59263D01*
X238837Y59312D01*
X238848Y59378D01*
X238869Y59442D01*
X238868Y59498D01*
X238877Y59552D01*
X238866Y59619D01*
X238865Y59686D01*
X238847Y59738D01*
X238838Y59793D01*
X238806Y59853D01*
X238783Y59916D01*
X238749Y59959D01*
X238723Y60009D01*
X238674Y60055D01*
X238632Y60107D01*
X238585Y60138D01*
X238545Y60176D01*
X238440Y60232D01*
X238427Y60240D01*
X238422Y60241D01*
X238415Y60245D01*
X233218Y62398D01*
X233119Y62421D01*
X233021Y62450D01*
X233000Y62449D01*
X232980Y62454D01*
X232879Y62444D01*
X232778Y62439D01*
X232758Y62432D01*
X232737Y62430D01*
X232645Y62388D01*
X232550Y62351D01*
X232534Y62338D01*
X232515Y62329D01*
X232441Y62260D01*
X232363Y62195D01*
X232347Y62172D01*
X232337Y62162D01*
X232325Y62141D01*
X232278Y62074D01*
X231772Y61175D01*
X231128Y60488D01*
X230340Y59973D01*
X229452Y59661D01*
X228515Y59569D01*
X227583Y59702D01*
X226709Y60053D01*
X225944Y60602D01*
X225331Y61316D01*
X224906Y62156D01*
X224692Y63073D01*
X224702Y64014D01*
X224936Y64926D01*
X225379Y65756D01*
X226008Y66457D01*
X226785Y66989D01*
X227666Y67320D01*
X228601Y67433D01*
X229518Y67325D01*
X230386Y67005D01*
X231155Y66491D01*
X231782Y65812D01*
X232277Y64928D01*
X232341Y64848D01*
X232401Y64765D01*
X232417Y64753D01*
X232430Y64737D01*
X232516Y64682D01*
X232599Y64622D01*
X232618Y64616D01*
X232635Y64606D01*
X232734Y64581D01*
X232833Y64551D01*
X232852Y64552D01*
X232872Y64547D01*
X232974Y64556D01*
X233076Y64559D01*
X233101Y64567D01*
X233115Y64568D01*
X233137Y64578D01*
X233218Y64602D01*
X238415Y66755D01*
X238462Y66784D01*
X238514Y66805D01*
X238565Y66848D01*
X238622Y66884D01*
X238657Y66927D01*
X238700Y66963D01*
X238734Y67020D01*
X238777Y67072D01*
X238796Y67124D01*
X238825Y67172D01*
X238839Y67238D01*
X238863Y67301D01*
X238865Y67356D01*
X238876Y67410D01*
X238869Y67477D01*
X238871Y67544D01*
X238855Y67598D01*
X238848Y67653D01*
X238804Y67764D01*
X238800Y67778D01*
X238797Y67782D01*
X238794Y67790D01*
X238237Y68872D01*
X241001Y72262D01*
X241055Y72356D01*
X241112Y72448D01*
X241115Y72461D01*
X241122Y72473D01*
X241143Y72580D01*
X241168Y72685D01*
X241166Y72699D01*
X241169Y72713D01*
X241154Y72820D01*
X241144Y72928D01*
X241138Y72941D01*
X241136Y72955D01*
X241088Y73052D01*
X241043Y73151D01*
X241032Y73164D01*
X241028Y73173D01*
X241012Y73188D01*
X240950Y73265D01*
X238365Y75850D01*
X238276Y75913D01*
X238191Y75979D01*
X238178Y75984D01*
X238166Y75992D01*
X238063Y76023D01*
X237960Y76059D01*
X237946Y76059D01*
X237933Y76063D01*
X237825Y76059D01*
X237716Y76060D01*
X237703Y76055D01*
X237689Y76055D01*
X237587Y76017D01*
X237485Y75982D01*
X237470Y75973D01*
X237461Y75969D01*
X237444Y75955D01*
X237362Y75901D01*
X233972Y73137D01*
X232890Y73694D01*
X232870Y73700D01*
X232775Y73742D01*
X231616Y74113D01*
X231173Y78464D01*
X231145Y78568D01*
X231120Y78674D01*
X231113Y78686D01*
X231110Y78699D01*
X231049Y78789D01*
X230992Y78882D01*
X230981Y78890D01*
X230973Y78902D01*
X230887Y78968D01*
X230803Y79037D01*
X230790Y79041D01*
X230779Y79050D01*
X230676Y79084D01*
X230575Y79123D01*
X230557Y79124D01*
X230548Y79128D01*
X230526Y79128D01*
X230428Y79137D01*
X226772Y79137D01*
X226665Y79120D01*
X226557Y79106D01*
X226545Y79100D01*
X226531Y79098D01*
X226435Y79046D01*
X226338Y78999D01*
X226328Y78989D01*
X226316Y78983D01*
X226242Y78903D01*
X226165Y78827D01*
X226159Y78815D01*
X226149Y78805D01*
X226104Y78706D01*
X226056Y78609D01*
X226052Y78591D01*
X226048Y78582D01*
X226046Y78561D01*
X226027Y78464D01*
X225584Y74113D01*
X224425Y73742D01*
X224407Y73732D01*
X224310Y73694D01*
X223228Y73137D01*
X219838Y75901D01*
X219744Y75955D01*
X219652Y76012D01*
X219639Y76015D01*
X219627Y76022D01*
X219520Y76043D01*
X219415Y76068D01*
X219401Y76066D01*
X219387Y76069D01*
X219280Y76054D01*
X219172Y76044D01*
X219159Y76038D01*
X219146Y76036D01*
X219048Y75988D01*
X218949Y75943D01*
X218936Y75932D01*
X218927Y75928D01*
X218912Y75912D01*
X218835Y75850D01*
X216250Y73265D01*
X216187Y73176D01*
X216121Y73091D01*
X216116Y73078D01*
X216108Y73066D01*
X216077Y72963D01*
X216041Y72860D01*
X216041Y72846D01*
X216037Y72833D01*
X216041Y72725D01*
X216040Y72616D01*
X216045Y72603D01*
X216045Y72589D01*
X216083Y72487D01*
X216118Y72385D01*
X216127Y72370D01*
X216131Y72361D01*
X216145Y72344D01*
X216199Y72262D01*
X218963Y68872D01*
X218406Y67790D01*
X218400Y67770D01*
X218358Y67675D01*
X217987Y66516D01*
X213636Y66073D01*
X213532Y66045D01*
X213426Y66020D01*
X213414Y66013D01*
X213401Y66010D01*
X213311Y65949D01*
X213218Y65892D01*
X213210Y65881D01*
X213198Y65873D01*
X213132Y65787D01*
X213064Y65703D01*
X213059Y65690D01*
X213050Y65679D01*
X213016Y65576D01*
X212977Y65475D01*
X212976Y65457D01*
X212972Y65448D01*
X212973Y65426D01*
X212963Y65328D01*
X212963Y61672D01*
X212980Y61565D01*
X212994Y61457D01*
X213000Y61445D01*
X213002Y61431D01*
X213054Y61335D01*
X213101Y61238D01*
X213111Y61228D01*
X213117Y61216D01*
X213197Y61142D01*
X213273Y61065D01*
X213285Y61059D01*
X213296Y61049D01*
X213394Y61004D01*
X213491Y60956D01*
X213509Y60952D01*
X213518Y60948D01*
X213539Y60946D01*
X213636Y60927D01*
X217987Y60484D01*
X218358Y59325D01*
X218368Y59307D01*
X218406Y59210D01*
X218963Y58128D01*
X216199Y54738D01*
X216145Y54644D01*
X216088Y54552D01*
X216085Y54539D01*
X216078Y54527D01*
X216057Y54420D01*
X216032Y54315D01*
X216034Y54301D01*
X216031Y54287D01*
X216046Y54180D01*
X216056Y54072D01*
X216062Y54059D01*
X216064Y54046D01*
X216112Y53948D01*
X216157Y53849D01*
X216168Y53836D01*
X216172Y53827D01*
X216188Y53812D01*
X216250Y53735D01*
X218835Y51150D01*
X218924Y51087D01*
X219009Y51021D01*
X219022Y51016D01*
X219034Y51008D01*
X219137Y50977D01*
X219240Y50941D01*
X219254Y50941D01*
X219267Y50937D01*
X219375Y50941D01*
X219484Y50940D01*
X219497Y50945D01*
X219511Y50945D01*
X219613Y50983D01*
X219715Y51018D01*
X219730Y51027D01*
X219739Y51031D01*
X219756Y51045D01*
X219838Y51099D01*
X223228Y53863D01*
X224310Y53306D01*
X224330Y53300D01*
X224425Y53258D01*
X225584Y52887D01*
X226027Y48536D01*
X226055Y48432D01*
X226080Y48326D01*
X226087Y48314D01*
X226090Y48301D01*
X226151Y48211D01*
X226208Y48118D01*
X226219Y48110D01*
X226227Y48098D01*
X226313Y48032D01*
X226397Y47964D01*
X226410Y47959D01*
X226421Y47950D01*
X226524Y47916D01*
X226625Y47877D01*
X226643Y47876D01*
X226652Y47872D01*
X226674Y47873D01*
X226772Y47863D01*
X230428Y47863D01*
X230535Y47880D01*
G37*
G36*
X44518Y19804D02*
X44518Y19804D01*
X44530Y19801D01*
X44930Y20101D01*
X44934Y20117D01*
X44941Y20122D01*
X44937Y20128D01*
X44939Y20132D01*
X44949Y20140D01*
X44949Y49940D01*
X44913Y49987D01*
X44906Y49982D01*
X44900Y49989D01*
X31300Y49989D01*
X31253Y49953D01*
X31257Y49948D01*
X31253Y49945D01*
X31254Y49943D01*
X31251Y49940D01*
X31251Y20140D01*
X31270Y20114D01*
X31270Y20101D01*
X31670Y19801D01*
X31692Y19801D01*
X31700Y19791D01*
X44500Y19791D01*
X44518Y19804D01*
G37*
G36*
X95105Y19554D02*
X95105Y19554D01*
X95108Y19551D01*
X95708Y19651D01*
X95749Y19695D01*
X95746Y19698D01*
X95749Y19700D01*
X95749Y44100D01*
X95748Y44102D01*
X95749Y44104D01*
X95747Y44105D01*
X95749Y44107D01*
X95549Y45507D01*
X95544Y45512D01*
X95547Y45516D01*
X95347Y46115D01*
X95147Y46814D01*
X95142Y46818D01*
X95144Y46822D01*
X94844Y47422D01*
X94837Y47425D01*
X94838Y47431D01*
X94440Y47929D01*
X94041Y48527D01*
X94034Y48530D01*
X94035Y48535D01*
X93535Y49035D01*
X93531Y49035D01*
X93531Y49038D01*
X92531Y49838D01*
X92523Y49839D01*
X92522Y49844D01*
X91922Y50144D01*
X91920Y50144D01*
X91919Y50145D01*
X91219Y50445D01*
X91216Y50445D01*
X91216Y50447D01*
X90616Y50647D01*
X90609Y50645D01*
X90607Y50649D01*
X89908Y50749D01*
X89308Y50849D01*
X89303Y50846D01*
X89300Y50849D01*
X88600Y50849D01*
X88596Y50846D01*
X88593Y50849D01*
X87193Y50649D01*
X87188Y50644D01*
X87184Y50647D01*
X86584Y50447D01*
X86581Y50442D01*
X86578Y50444D01*
X85378Y49844D01*
X85376Y49840D01*
X85373Y49841D01*
X84773Y49441D01*
X84772Y49438D01*
X84769Y49438D01*
X84269Y49038D01*
X84268Y49034D01*
X84265Y49035D01*
X83765Y48535D01*
X83765Y48531D01*
X83762Y48531D01*
X83362Y48031D01*
X83361Y48027D01*
X83359Y48027D01*
X82959Y47427D01*
X82959Y47423D01*
X82956Y47422D01*
X82656Y46822D01*
X82657Y46817D01*
X82653Y46816D01*
X82453Y46216D01*
X82454Y46214D01*
X82453Y46214D01*
X82423Y46110D01*
X82381Y45962D01*
X82367Y45913D01*
X82325Y45765D01*
X82282Y45617D01*
X82268Y45568D01*
X82253Y45514D01*
X82255Y45509D01*
X82251Y45507D01*
X82151Y44808D01*
X82051Y44208D01*
X82054Y44203D01*
X82051Y44200D01*
X82051Y20300D01*
X82054Y20296D01*
X82051Y20293D01*
X82151Y19593D01*
X82194Y19551D01*
X82197Y19555D01*
X82200Y19551D01*
X95100Y19551D01*
X95105Y19554D01*
G37*
G36*
X120606Y19755D02*
X120606Y19755D01*
X120610Y19752D01*
X121110Y19852D01*
X121138Y19884D01*
X121140Y19885D01*
X121140Y19886D01*
X121149Y19896D01*
X121147Y19898D01*
X121149Y19900D01*
X121149Y44300D01*
X121145Y44305D01*
X121148Y44312D01*
X121137Y44317D01*
X121113Y44347D01*
X121096Y44334D01*
X121090Y44337D01*
X121126Y44358D01*
X121143Y44402D01*
X121149Y44408D01*
X121049Y45008D01*
X120949Y45707D01*
X120944Y45712D01*
X120947Y45716D01*
X120747Y46316D01*
X120744Y46317D01*
X120745Y46319D01*
X120445Y47019D01*
X120443Y47021D01*
X120444Y47022D01*
X120144Y47622D01*
X120137Y47625D01*
X120138Y47631D01*
X119338Y48631D01*
X119334Y48632D01*
X119335Y48635D01*
X118835Y49135D01*
X118828Y49136D01*
X118827Y49141D01*
X118229Y49540D01*
X117731Y49938D01*
X117723Y49939D01*
X117722Y49944D01*
X117122Y50244D01*
X117120Y50244D01*
X117119Y50245D01*
X116419Y50545D01*
X116411Y50543D01*
X116408Y50549D01*
X115808Y50649D01*
X115807Y50648D01*
X115807Y50649D01*
X114407Y50849D01*
X114402Y50846D01*
X114400Y50849D01*
X113800Y50849D01*
X113796Y50846D01*
X113793Y50849D01*
X113093Y50749D01*
X113089Y50745D01*
X113086Y50747D01*
X112386Y50547D01*
X112385Y50546D01*
X112384Y50547D01*
X111784Y50347D01*
X111781Y50342D01*
X111778Y50344D01*
X110578Y49744D01*
X110576Y49740D01*
X110573Y49741D01*
X109973Y49341D01*
X109970Y49334D01*
X109965Y49335D01*
X109465Y48835D01*
X109465Y48831D01*
X109462Y48831D01*
X108662Y47831D01*
X108661Y47827D01*
X108659Y47827D01*
X108259Y47227D01*
X108259Y47223D01*
X108256Y47222D01*
X107956Y46622D01*
X107957Y46617D01*
X107953Y46616D01*
X107753Y46016D01*
X107754Y46015D01*
X107753Y46014D01*
X107754Y46012D01*
X107755Y46009D01*
X107751Y46007D01*
X107651Y45307D01*
X107551Y44608D01*
X107451Y44008D01*
X107454Y44003D01*
X107451Y44000D01*
X107451Y20300D01*
X107459Y20289D01*
X107454Y20282D01*
X107654Y19782D01*
X107695Y19757D01*
X107700Y19751D01*
X120600Y19751D01*
X120606Y19755D01*
G37*
G36*
X272905Y19654D02*
X272905Y19654D01*
X272908Y19651D01*
X273508Y19751D01*
X273549Y19795D01*
X273546Y19798D01*
X273549Y19800D01*
X273549Y46900D01*
X273542Y46909D01*
X273547Y46916D01*
X273347Y47516D01*
X273325Y47531D01*
X273322Y47544D01*
X266722Y50844D01*
X266690Y50838D01*
X266678Y50844D01*
X259978Y47444D01*
X259963Y47414D01*
X259951Y47408D01*
X259851Y46808D01*
X259854Y46803D01*
X259851Y46800D01*
X259851Y20300D01*
X259854Y20295D01*
X259851Y20292D01*
X259951Y19692D01*
X259995Y19651D01*
X259998Y19654D01*
X260000Y19651D01*
X272900Y19651D01*
X272905Y19654D01*
G37*
G36*
X146121Y19967D02*
X146121Y19967D01*
X146135Y19965D01*
X146535Y20365D01*
X146536Y20377D01*
X146541Y20381D01*
X146538Y20386D01*
X146539Y20392D01*
X146549Y20400D01*
X146549Y44000D01*
X146545Y44006D01*
X146547Y44014D01*
X146535Y44018D01*
X146513Y44047D01*
X146496Y44034D01*
X146494Y44034D01*
X146492Y44035D01*
X146527Y44059D01*
X146542Y44101D01*
X146549Y44108D01*
X146449Y44708D01*
X146349Y45407D01*
X146348Y45408D01*
X146349Y45408D01*
X146249Y46008D01*
X146242Y46014D01*
X146245Y46019D01*
X145945Y46719D01*
X145943Y46721D01*
X145944Y46722D01*
X145344Y47922D01*
X145337Y47925D01*
X145338Y47931D01*
X144938Y48431D01*
X144934Y48432D01*
X144935Y48435D01*
X144435Y48935D01*
X144431Y48935D01*
X144431Y48938D01*
X143431Y49738D01*
X143427Y49739D01*
X143427Y49741D01*
X142827Y50141D01*
X142816Y50140D01*
X142814Y50147D01*
X142118Y50346D01*
X141522Y50644D01*
X141511Y50642D01*
X141507Y50649D01*
X140808Y50749D01*
X140208Y50849D01*
X140203Y50846D01*
X140200Y50849D01*
X139500Y50849D01*
X139496Y50846D01*
X139493Y50849D01*
X138793Y50749D01*
X138792Y50748D01*
X138792Y50749D01*
X138192Y50649D01*
X138189Y50645D01*
X138186Y50647D01*
X137486Y50447D01*
X137485Y50446D01*
X137484Y50447D01*
X136884Y50247D01*
X136881Y50242D01*
X136878Y50244D01*
X136278Y49944D01*
X136276Y49940D01*
X136273Y49941D01*
X135673Y49541D01*
X135672Y49538D01*
X135669Y49538D01*
X135169Y49138D01*
X135168Y49134D01*
X135165Y49135D01*
X134665Y48635D01*
X134665Y48631D01*
X134662Y48631D01*
X134262Y48131D01*
X134261Y48127D01*
X134259Y48127D01*
X133859Y47527D01*
X133859Y47523D01*
X133856Y47522D01*
X133256Y46322D01*
X133257Y46317D01*
X133253Y46316D01*
X133053Y45716D01*
X133055Y45709D01*
X133051Y45707D01*
X132851Y44307D01*
X132854Y44302D01*
X132851Y44300D01*
X132851Y20400D01*
X132867Y20379D01*
X132865Y20365D01*
X133265Y19965D01*
X133292Y19962D01*
X133300Y19951D01*
X146100Y19951D01*
X146121Y19967D01*
G37*
G36*
X222538Y20080D02*
X222538Y20080D01*
X222546Y20082D01*
X222746Y20582D01*
X222742Y20595D01*
X222749Y20600D01*
X222749Y44300D01*
X222746Y44304D01*
X222749Y44307D01*
X222649Y45007D01*
X222648Y45008D01*
X222649Y45008D01*
X222549Y45608D01*
X222545Y45611D01*
X222547Y45614D01*
X222347Y46314D01*
X222342Y46318D01*
X222344Y46322D01*
X221744Y47522D01*
X221740Y47524D01*
X221741Y47527D01*
X221341Y48127D01*
X221338Y48128D01*
X221338Y48131D01*
X220938Y48631D01*
X220934Y48632D01*
X220935Y48635D01*
X220435Y49135D01*
X220431Y49135D01*
X220431Y49138D01*
X219931Y49538D01*
X219927Y49539D01*
X219927Y49541D01*
X219327Y49941D01*
X219323Y49941D01*
X219322Y49944D01*
X218722Y50244D01*
X218717Y50243D01*
X218716Y50247D01*
X218116Y50447D01*
X218114Y50446D01*
X218114Y50447D01*
X217414Y50647D01*
X217410Y50646D01*
X217408Y50649D01*
X216808Y50749D01*
X216807Y50748D01*
X216807Y50749D01*
X216107Y50849D01*
X216102Y50846D01*
X216100Y50849D01*
X215400Y50849D01*
X215395Y50846D01*
X215392Y50849D01*
X214792Y50749D01*
X214093Y50649D01*
X214086Y50642D01*
X214081Y50645D01*
X213382Y50346D01*
X212784Y50147D01*
X212779Y50139D01*
X212773Y50141D01*
X212173Y49741D01*
X212172Y49738D01*
X212169Y49738D01*
X211169Y48938D01*
X211168Y48934D01*
X211165Y48935D01*
X210665Y48435D01*
X210665Y48431D01*
X210662Y48431D01*
X210262Y47931D01*
X210261Y47923D01*
X210256Y47922D01*
X209656Y46722D01*
X209656Y46720D01*
X209655Y46719D01*
X209355Y46019D01*
X209357Y46011D01*
X209351Y46008D01*
X209251Y45408D01*
X209252Y45407D01*
X209251Y45407D01*
X209051Y44007D01*
X209054Y44002D01*
X209051Y44000D01*
X209051Y20300D01*
X209080Y20262D01*
X209082Y20254D01*
X209582Y20054D01*
X209595Y20058D01*
X209600Y20051D01*
X222500Y20051D01*
X222538Y20080D01*
G37*
G36*
X247826Y20070D02*
X247826Y20070D01*
X247839Y20070D01*
X248139Y20470D01*
X248139Y20478D01*
X248143Y20481D01*
X248139Y20485D01*
X248139Y20492D01*
X248149Y20500D01*
X248149Y44200D01*
X248148Y44202D01*
X248149Y44204D01*
X248148Y44205D01*
X248149Y44206D01*
X248148Y44206D01*
X248149Y44207D01*
X247949Y45607D01*
X247944Y45612D01*
X247947Y45616D01*
X247547Y46816D01*
X247542Y46819D01*
X247544Y46822D01*
X247244Y47422D01*
X247240Y47424D01*
X247241Y47427D01*
X246841Y48027D01*
X246838Y48028D01*
X246838Y48031D01*
X246438Y48531D01*
X246434Y48532D01*
X246435Y48535D01*
X245935Y49035D01*
X245931Y49035D01*
X245931Y49038D01*
X245431Y49438D01*
X245427Y49439D01*
X245427Y49441D01*
X244827Y49841D01*
X244823Y49841D01*
X244822Y49844D01*
X243622Y50444D01*
X243615Y50443D01*
X243614Y50447D01*
X242914Y50647D01*
X242910Y50646D01*
X242908Y50649D01*
X242308Y50749D01*
X242307Y50748D01*
X242307Y50749D01*
X241607Y50849D01*
X241602Y50846D01*
X241600Y50849D01*
X240900Y50849D01*
X240895Y50846D01*
X240892Y50849D01*
X240292Y50749D01*
X239593Y50649D01*
X239589Y50645D01*
X239586Y50647D01*
X238886Y50447D01*
X238882Y50442D01*
X238878Y50444D01*
X237678Y49844D01*
X237675Y49837D01*
X237669Y49838D01*
X236669Y49038D01*
X236668Y49034D01*
X236665Y49035D01*
X236165Y48535D01*
X236164Y48528D01*
X236159Y48527D01*
X235760Y47929D01*
X235362Y47431D01*
X235361Y47423D01*
X235356Y47422D01*
X235056Y46822D01*
X235057Y46815D01*
X235053Y46814D01*
X235051Y46807D01*
X235009Y46659D01*
X234966Y46511D01*
X234952Y46462D01*
X234910Y46314D01*
X234868Y46167D01*
X234854Y46117D01*
X234853Y46115D01*
X234653Y45516D01*
X234655Y45509D01*
X234651Y45507D01*
X234451Y44107D01*
X234454Y44102D01*
X234451Y44100D01*
X234451Y20300D01*
X234480Y20262D01*
X234482Y20254D01*
X234982Y20054D01*
X234995Y20058D01*
X235000Y20051D01*
X247800Y20051D01*
X247826Y20070D01*
G37*
G36*
X197347Y19117D02*
X197347Y19117D01*
X197342Y19124D01*
X197349Y19130D01*
X197349Y42730D01*
X197346Y42734D01*
X197349Y42737D01*
X197149Y44137D01*
X197148Y44138D01*
X197149Y44138D01*
X197049Y44738D01*
X197042Y44744D01*
X197045Y44749D01*
X196745Y45449D01*
X196743Y45451D01*
X196744Y45452D01*
X196144Y46652D01*
X196137Y46655D01*
X196138Y46661D01*
X195738Y47161D01*
X195734Y47162D01*
X195735Y47165D01*
X195235Y47665D01*
X195231Y47665D01*
X195231Y47668D01*
X194231Y48468D01*
X194227Y48469D01*
X194227Y48471D01*
X193627Y48871D01*
X193618Y48870D01*
X193616Y48877D01*
X193018Y49076D01*
X192319Y49375D01*
X192311Y49373D01*
X192308Y49379D01*
X191708Y49479D01*
X191707Y49478D01*
X191707Y49479D01*
X191007Y49579D01*
X191002Y49576D01*
X191000Y49579D01*
X190300Y49579D01*
X190296Y49576D01*
X190293Y49579D01*
X189593Y49479D01*
X189592Y49478D01*
X189592Y49479D01*
X188992Y49379D01*
X188989Y49375D01*
X188986Y49377D01*
X188286Y49177D01*
X188285Y49176D01*
X188284Y49177D01*
X187684Y48977D01*
X187681Y48972D01*
X187678Y48974D01*
X187078Y48674D01*
X187076Y48670D01*
X187073Y48671D01*
X186473Y48271D01*
X186472Y48268D01*
X186469Y48268D01*
X185969Y47868D01*
X185968Y47864D01*
X185965Y47865D01*
X185465Y47365D01*
X185465Y47361D01*
X185462Y47361D01*
X185062Y46861D01*
X185061Y46857D01*
X185059Y46857D01*
X184659Y46257D01*
X184659Y46253D01*
X184656Y46252D01*
X184056Y45052D01*
X184056Y45050D01*
X184055Y45049D01*
X184057Y45047D01*
X184053Y45046D01*
X183853Y44446D01*
X183855Y44439D01*
X183851Y44437D01*
X183651Y43037D01*
X183654Y43032D01*
X183651Y43030D01*
X183651Y19130D01*
X183687Y19083D01*
X183694Y19088D01*
X183700Y19081D01*
X197300Y19081D01*
X197347Y19117D01*
G37*
G36*
X171621Y19397D02*
X171621Y19397D01*
X171635Y19395D01*
X171935Y19695D01*
X171937Y19707D01*
X171943Y19712D01*
X171938Y19719D01*
X171939Y19722D01*
X171949Y19730D01*
X171949Y42830D01*
X171948Y42831D01*
X171949Y42832D01*
X171948Y42833D01*
X171949Y42834D01*
X171947Y42835D01*
X171949Y42837D01*
X171749Y44237D01*
X171744Y44242D01*
X171747Y44246D01*
X171347Y45446D01*
X171344Y45447D01*
X171345Y45449D01*
X171045Y46149D01*
X171037Y46154D01*
X171038Y46161D01*
X170640Y46659D01*
X170241Y47257D01*
X170234Y47260D01*
X170235Y47265D01*
X169835Y47665D01*
X169831Y47665D01*
X169832Y47668D01*
X169232Y48168D01*
X169231Y48168D01*
X168731Y48568D01*
X168723Y48569D01*
X168722Y48574D01*
X167522Y49174D01*
X167515Y49173D01*
X167514Y49177D01*
X166814Y49377D01*
X166810Y49376D01*
X166808Y49379D01*
X166208Y49479D01*
X166207Y49478D01*
X166207Y49479D01*
X165507Y49579D01*
X165502Y49576D01*
X165500Y49579D01*
X164800Y49579D01*
X164796Y49576D01*
X164793Y49579D01*
X164093Y49479D01*
X164092Y49478D01*
X164092Y49479D01*
X163492Y49379D01*
X163489Y49375D01*
X163486Y49377D01*
X162786Y49177D01*
X162782Y49172D01*
X162778Y49174D01*
X161578Y48574D01*
X161576Y48570D01*
X161573Y48571D01*
X160973Y48171D01*
X160972Y48168D01*
X160969Y48168D01*
X160469Y47768D01*
X160468Y47764D01*
X160465Y47765D01*
X159965Y47265D01*
X159965Y47261D01*
X159962Y47261D01*
X159562Y46761D01*
X159561Y46757D01*
X159559Y46757D01*
X159159Y46157D01*
X159159Y46153D01*
X159156Y46152D01*
X158856Y45552D01*
X158857Y45548D01*
X158854Y45546D01*
X158853Y45546D01*
X158653Y44946D01*
X158654Y44944D01*
X158653Y44944D01*
X158642Y44906D01*
X158628Y44856D01*
X158586Y44709D01*
X158543Y44561D01*
X158529Y44512D01*
X158487Y44364D01*
X158453Y44244D01*
X158454Y44240D01*
X158451Y44238D01*
X158351Y43638D01*
X158352Y43637D01*
X158351Y43637D01*
X158251Y42937D01*
X158254Y42932D01*
X158251Y42930D01*
X158251Y19730D01*
X158270Y19704D01*
X158270Y19691D01*
X158670Y19391D01*
X158692Y19391D01*
X158700Y19381D01*
X171600Y19381D01*
X171621Y19397D01*
G37*
G36*
X44521Y78957D02*
X44521Y78957D01*
X44535Y78955D01*
X44935Y79355D01*
X44936Y79367D01*
X44941Y79371D01*
X44938Y79376D01*
X44939Y79382D01*
X44949Y79390D01*
X44949Y107090D01*
X44913Y107137D01*
X44906Y107132D01*
X44900Y107139D01*
X31300Y107139D01*
X31253Y107103D01*
X31258Y107096D01*
X31251Y107090D01*
X31251Y79290D01*
X31270Y79264D01*
X31270Y79251D01*
X31670Y78951D01*
X31692Y78951D01*
X31700Y78941D01*
X44500Y78941D01*
X44521Y78957D01*
G37*
G36*
X89104Y77944D02*
X89104Y77944D01*
X89107Y77941D01*
X90507Y78141D01*
X90512Y78146D01*
X90516Y78143D01*
X91115Y78343D01*
X91814Y78543D01*
X91818Y78548D01*
X91822Y78546D01*
X92422Y78846D01*
X92425Y78853D01*
X92431Y78852D01*
X92929Y79250D01*
X93527Y79649D01*
X93531Y79659D01*
X93538Y79659D01*
X93938Y80159D01*
X94438Y80758D01*
X94438Y80764D01*
X94442Y80765D01*
X94742Y81265D01*
X94742Y81268D01*
X94744Y81268D01*
X95044Y81868D01*
X95044Y81870D01*
X95045Y81871D01*
X95345Y82571D01*
X95345Y82574D01*
X95347Y82574D01*
X95547Y83174D01*
X95545Y83181D01*
X95549Y83183D01*
X95649Y83882D01*
X95749Y84482D01*
X95746Y84487D01*
X95749Y84490D01*
X95749Y106890D01*
X95720Y106928D01*
X95718Y106936D01*
X95218Y107136D01*
X95205Y107132D01*
X95200Y107139D01*
X82300Y107139D01*
X82262Y107110D01*
X82254Y107108D01*
X82054Y106608D01*
X82058Y106595D01*
X82051Y106590D01*
X82051Y84690D01*
X82054Y84685D01*
X82051Y84682D01*
X82151Y84082D01*
X82251Y83383D01*
X82351Y82683D01*
X82359Y82675D01*
X82356Y82668D01*
X83256Y80868D01*
X83263Y80865D01*
X83262Y80859D01*
X83662Y80359D01*
X83666Y80358D01*
X83665Y80355D01*
X84665Y79355D01*
X84672Y79354D01*
X84673Y79349D01*
X85273Y78949D01*
X85277Y78949D01*
X85278Y78946D01*
X86478Y78346D01*
X86483Y78347D01*
X86484Y78343D01*
X87084Y78143D01*
X87091Y78145D01*
X87093Y78141D01*
X88493Y77941D01*
X88498Y77944D01*
X88500Y77941D01*
X89100Y77941D01*
X89104Y77944D01*
G37*
G36*
X114705Y78044D02*
X114705Y78044D01*
X114708Y78041D01*
X115308Y78141D01*
X116007Y78241D01*
X116012Y78246D01*
X116016Y78243D01*
X116616Y78443D01*
X116617Y78446D01*
X116619Y78445D01*
X117319Y78745D01*
X117321Y78747D01*
X117322Y78746D01*
X117922Y79046D01*
X117925Y79053D01*
X117931Y79052D01*
X118431Y79452D01*
X118432Y79456D01*
X118435Y79455D01*
X118933Y79953D01*
X119431Y80352D01*
X119433Y80362D01*
X119441Y80363D01*
X119840Y80961D01*
X120238Y81459D01*
X120239Y81469D01*
X120245Y81471D01*
X120545Y82171D01*
X120545Y82174D01*
X120547Y82174D01*
X120947Y83374D01*
X120945Y83381D01*
X120949Y83383D01*
X121149Y84783D01*
X121146Y84788D01*
X121149Y84790D01*
X121149Y106490D01*
X121146Y106495D01*
X121149Y106498D01*
X121049Y107098D01*
X121005Y107139D01*
X121003Y107136D01*
X121000Y107139D01*
X107500Y107139D01*
X107453Y107103D01*
X107458Y107096D01*
X107451Y107090D01*
X107451Y84690D01*
X107454Y84685D01*
X107451Y84682D01*
X107551Y84082D01*
X107651Y83383D01*
X107655Y83379D01*
X107653Y83376D01*
X107853Y82676D01*
X107854Y82675D01*
X107853Y82674D01*
X108053Y82074D01*
X108058Y82071D01*
X108056Y82068D01*
X108356Y81468D01*
X108360Y81466D01*
X108359Y81463D01*
X108759Y80863D01*
X108762Y80862D01*
X108762Y80859D01*
X109162Y80359D01*
X109166Y80358D01*
X109165Y80355D01*
X109665Y79855D01*
X109669Y79855D01*
X109669Y79852D01*
X110169Y79452D01*
X110173Y79451D01*
X110173Y79449D01*
X110773Y79049D01*
X110777Y79049D01*
X110778Y79046D01*
X111978Y78446D01*
X111983Y78447D01*
X111984Y78443D01*
X112584Y78243D01*
X112591Y78245D01*
X112593Y78241D01*
X113993Y78041D01*
X113998Y78044D01*
X114000Y78041D01*
X114700Y78041D01*
X114705Y78044D01*
G37*
G36*
X140305Y78344D02*
X140305Y78344D01*
X140308Y78341D01*
X140908Y78441D01*
X140911Y78445D01*
X140914Y78443D01*
X141614Y78643D01*
X141615Y78644D01*
X141616Y78643D01*
X142216Y78843D01*
X142219Y78848D01*
X142222Y78846D01*
X143422Y79446D01*
X143424Y79450D01*
X143427Y79449D01*
X144027Y79849D01*
X144030Y79856D01*
X144035Y79855D01*
X144535Y80355D01*
X144535Y80359D01*
X144538Y80359D01*
X145338Y81359D01*
X145339Y81363D01*
X145341Y81363D01*
X145741Y81963D01*
X145741Y81967D01*
X145744Y81968D01*
X146044Y82568D01*
X146043Y82573D01*
X146047Y82574D01*
X146247Y83174D01*
X146245Y83181D01*
X146249Y83183D01*
X146349Y83882D01*
X146449Y84482D01*
X146448Y84483D01*
X146449Y84483D01*
X146549Y85183D01*
X146546Y85188D01*
X146549Y85190D01*
X146549Y106890D01*
X146524Y106923D01*
X146522Y106934D01*
X146122Y107134D01*
X146106Y107131D01*
X146100Y107139D01*
X133200Y107139D01*
X133174Y107120D01*
X133161Y107120D01*
X132861Y106720D01*
X132861Y106698D01*
X132851Y106690D01*
X132851Y84790D01*
X132854Y84786D01*
X132851Y84783D01*
X132951Y84083D01*
X132952Y84082D01*
X132951Y84082D01*
X133051Y83482D01*
X133055Y83479D01*
X133053Y83476D01*
X133253Y82776D01*
X133258Y82772D01*
X133256Y82768D01*
X133856Y81568D01*
X133860Y81566D01*
X133859Y81563D01*
X134259Y80963D01*
X134266Y80960D01*
X134265Y80955D01*
X135165Y80055D01*
X135169Y80055D01*
X135168Y80052D01*
X135768Y79552D01*
X135774Y79552D01*
X135775Y79548D01*
X136275Y79248D01*
X136280Y79248D01*
X136281Y79245D01*
X136979Y78945D01*
X137578Y78646D01*
X137589Y78648D01*
X137592Y78641D01*
X138189Y78542D01*
X138886Y78343D01*
X138896Y78346D01*
X138900Y78341D01*
X140300Y78341D01*
X140305Y78344D01*
G37*
G36*
X241904Y78444D02*
X241904Y78444D01*
X241907Y78441D01*
X242607Y78541D01*
X242611Y78545D01*
X242614Y78543D01*
X243314Y78743D01*
X243315Y78744D01*
X243316Y78743D01*
X243916Y78943D01*
X243919Y78948D01*
X243922Y78946D01*
X245122Y79546D01*
X245125Y79553D01*
X245131Y79552D01*
X245631Y79952D01*
X245632Y79956D01*
X245635Y79955D01*
X246635Y80955D01*
X246635Y80959D01*
X246638Y80959D01*
X247038Y81459D01*
X247039Y81467D01*
X247044Y81468D01*
X247644Y82668D01*
X247643Y82675D01*
X247647Y82676D01*
X247686Y82811D01*
X247700Y82860D01*
X247742Y83008D01*
X247784Y83155D01*
X247798Y83205D01*
X247840Y83352D01*
X247841Y83352D01*
X247840Y83352D01*
X247847Y83375D01*
X248047Y83974D01*
X248045Y83981D01*
X248049Y83983D01*
X248149Y84683D01*
X248146Y84688D01*
X248149Y84690D01*
X248149Y106990D01*
X248113Y107037D01*
X248110Y107035D01*
X248108Y107039D01*
X247508Y107139D01*
X247503Y107136D01*
X247500Y107139D01*
X234600Y107139D01*
X234553Y107103D01*
X234555Y107100D01*
X234551Y107098D01*
X234451Y106498D01*
X234454Y106493D01*
X234451Y106490D01*
X234451Y84790D01*
X234454Y84786D01*
X234451Y84783D01*
X234551Y84083D01*
X234556Y84078D01*
X234553Y84074D01*
X234753Y83475D01*
X234953Y82776D01*
X234954Y82775D01*
X234953Y82774D01*
X235153Y82174D01*
X235161Y82169D01*
X235159Y82163D01*
X235559Y81563D01*
X235562Y81562D01*
X235562Y81559D01*
X235960Y81061D01*
X236359Y80463D01*
X236369Y80459D01*
X236369Y80452D01*
X237369Y79652D01*
X237373Y79651D01*
X237373Y79649D01*
X237973Y79249D01*
X237977Y79249D01*
X237978Y79246D01*
X238578Y78946D01*
X238585Y78947D01*
X238586Y78943D01*
X239285Y78743D01*
X239884Y78543D01*
X239891Y78545D01*
X239893Y78541D01*
X240593Y78441D01*
X240598Y78444D01*
X240600Y78441D01*
X241900Y78441D01*
X241904Y78444D01*
G37*
G36*
X216605Y78444D02*
X216605Y78444D01*
X216608Y78441D01*
X217208Y78541D01*
X217211Y78545D01*
X217214Y78543D01*
X217914Y78743D01*
X217915Y78744D01*
X217916Y78743D01*
X218516Y78943D01*
X218519Y78948D01*
X218522Y78946D01*
X219722Y79546D01*
X219726Y79554D01*
X219732Y79552D01*
X220331Y80052D01*
X220831Y80452D01*
X220833Y80459D01*
X220838Y80459D01*
X221238Y80959D01*
X221239Y80963D01*
X221241Y80963D01*
X221641Y81563D01*
X221641Y81567D01*
X221644Y81568D01*
X222244Y82768D01*
X222243Y82773D01*
X222247Y82774D01*
X222447Y83374D01*
X222446Y83376D01*
X222447Y83376D01*
X222483Y83500D01*
X222497Y83549D01*
X222539Y83697D01*
X222581Y83845D01*
X222595Y83894D01*
X222637Y84042D01*
X222638Y84042D01*
X222637Y84042D01*
X222647Y84076D01*
X222646Y84081D01*
X222649Y84083D01*
X222749Y84783D01*
X222746Y84788D01*
X222749Y84790D01*
X222749Y107090D01*
X222713Y107137D01*
X222706Y107132D01*
X222700Y107139D01*
X209100Y107139D01*
X209053Y107103D01*
X209058Y107096D01*
X209051Y107090D01*
X209051Y84790D01*
X209054Y84786D01*
X209051Y84783D01*
X209151Y84083D01*
X209155Y84079D01*
X209153Y84076D01*
X209353Y83376D01*
X209354Y83375D01*
X209353Y83374D01*
X209553Y82774D01*
X209558Y82771D01*
X209556Y82768D01*
X210156Y81568D01*
X210160Y81566D01*
X210159Y81563D01*
X210559Y80963D01*
X210562Y80962D01*
X210562Y80959D01*
X210962Y80459D01*
X210969Y80457D01*
X210969Y80452D01*
X211469Y80052D01*
X212068Y79552D01*
X212077Y79552D01*
X212078Y79546D01*
X213278Y78946D01*
X213283Y78947D01*
X213284Y78943D01*
X213884Y78743D01*
X213886Y78744D01*
X213886Y78743D01*
X214586Y78543D01*
X214590Y78544D01*
X214592Y78541D01*
X215192Y78441D01*
X215197Y78444D01*
X215200Y78441D01*
X216600Y78441D01*
X216605Y78444D01*
G37*
G36*
X190704Y78644D02*
X190704Y78644D01*
X190707Y78641D01*
X191407Y78741D01*
X191408Y78742D01*
X191408Y78741D01*
X192008Y78841D01*
X192011Y78845D01*
X192014Y78843D01*
X192714Y79043D01*
X192715Y79044D01*
X192716Y79043D01*
X193316Y79243D01*
X193321Y79251D01*
X193327Y79249D01*
X193925Y79647D01*
X194522Y79946D01*
X194527Y79956D01*
X194535Y79955D01*
X195033Y80453D01*
X195531Y80852D01*
X195533Y80859D01*
X195538Y80859D01*
X195938Y81359D01*
X195939Y81363D01*
X195941Y81363D01*
X196341Y81963D01*
X196341Y81967D01*
X196344Y81968D01*
X196944Y83168D01*
X196943Y83175D01*
X196947Y83176D01*
X196956Y83208D01*
X196998Y83355D01*
X196999Y83355D01*
X196998Y83355D01*
X197041Y83503D01*
X197055Y83552D01*
X197097Y83700D01*
X197139Y83848D01*
X197147Y83876D01*
X197146Y83880D01*
X197149Y83882D01*
X197249Y84482D01*
X197248Y84483D01*
X197249Y84483D01*
X197349Y85183D01*
X197346Y85188D01*
X197349Y85190D01*
X197349Y106790D01*
X197330Y106816D01*
X197330Y106829D01*
X196930Y107129D01*
X196908Y107129D01*
X196900Y107139D01*
X184000Y107139D01*
X183974Y107120D01*
X183961Y107120D01*
X183661Y106720D01*
X183661Y106698D01*
X183651Y106690D01*
X183651Y85490D01*
X183654Y85486D01*
X183651Y85483D01*
X183851Y84083D01*
X183852Y84082D01*
X183851Y84082D01*
X183951Y83482D01*
X183958Y83476D01*
X183955Y83471D01*
X184255Y82771D01*
X184257Y82769D01*
X184256Y82768D01*
X184556Y82168D01*
X184559Y82167D01*
X184558Y82165D01*
X184858Y81665D01*
X184859Y81664D01*
X184859Y81663D01*
X185259Y81063D01*
X185266Y81060D01*
X185265Y81055D01*
X185765Y80555D01*
X185769Y80555D01*
X185769Y80552D01*
X186269Y80152D01*
X186273Y80151D01*
X186273Y80149D01*
X186873Y79749D01*
X186875Y79749D01*
X186875Y79748D01*
X187375Y79448D01*
X187380Y79448D01*
X187381Y79445D01*
X188081Y79145D01*
X188084Y79146D01*
X188084Y79143D01*
X188684Y78943D01*
X188686Y78944D01*
X188686Y78943D01*
X189386Y78743D01*
X189390Y78744D01*
X189392Y78741D01*
X189992Y78641D01*
X189997Y78644D01*
X190000Y78641D01*
X190700Y78641D01*
X190704Y78644D01*
G37*
G36*
X69806Y19915D02*
X69806Y19915D01*
X69810Y19912D01*
X70310Y20012D01*
X70338Y20044D01*
X70340Y20045D01*
X70340Y20046D01*
X70349Y20056D01*
X70347Y20058D01*
X70349Y20060D01*
X70349Y41760D01*
X70345Y41765D01*
X70348Y41772D01*
X70337Y41777D01*
X70313Y41807D01*
X70296Y41794D01*
X70290Y41797D01*
X70326Y41818D01*
X70343Y41862D01*
X70345Y41863D01*
X70344Y41864D01*
X70349Y41868D01*
X70249Y42468D01*
X70149Y43167D01*
X70144Y43172D01*
X70147Y43176D01*
X69947Y43776D01*
X69944Y43777D01*
X69945Y43779D01*
X69645Y44479D01*
X69641Y44482D01*
X69642Y44485D01*
X69342Y44985D01*
X69341Y44986D01*
X69341Y44987D01*
X68941Y45587D01*
X68938Y45588D01*
X68938Y45591D01*
X68538Y46091D01*
X68534Y46092D01*
X68535Y46095D01*
X68035Y46595D01*
X68031Y46595D01*
X68031Y46598D01*
X67531Y46998D01*
X67527Y46999D01*
X67527Y47001D01*
X66927Y47401D01*
X66923Y47401D01*
X66922Y47404D01*
X66322Y47704D01*
X66317Y47703D01*
X66316Y47707D01*
X65716Y47907D01*
X65714Y47906D01*
X65714Y47907D01*
X65014Y48107D01*
X65009Y48106D01*
X65007Y48109D01*
X64308Y48209D01*
X63708Y48309D01*
X63703Y48306D01*
X63700Y48309D01*
X63000Y48309D01*
X62996Y48306D01*
X62993Y48309D01*
X62293Y48209D01*
X62289Y48205D01*
X62286Y48207D01*
X61586Y48007D01*
X61585Y48006D01*
X61584Y48007D01*
X60984Y47807D01*
X60981Y47802D01*
X60978Y47804D01*
X59778Y47204D01*
X59775Y47197D01*
X59769Y47198D01*
X58769Y46398D01*
X58768Y46394D01*
X58765Y46395D01*
X58265Y45895D01*
X58264Y45888D01*
X58259Y45887D01*
X57459Y44687D01*
X57459Y44683D01*
X57456Y44682D01*
X57156Y44082D01*
X57157Y44077D01*
X57153Y44076D01*
X56953Y43476D01*
X56955Y43469D01*
X56951Y43467D01*
X56851Y42768D01*
X56751Y42168D01*
X56752Y42167D01*
X56751Y42167D01*
X56651Y41467D01*
X56654Y41462D01*
X56651Y41460D01*
X56651Y20460D01*
X56659Y20449D01*
X56654Y20442D01*
X56854Y19942D01*
X56895Y19917D01*
X56900Y19911D01*
X69800Y19911D01*
X69806Y19915D01*
G37*
G36*
X165705Y78944D02*
X165705Y78944D01*
X165708Y78941D01*
X166308Y79041D01*
X166311Y79045D01*
X166314Y79043D01*
X167014Y79243D01*
X167015Y79244D01*
X167016Y79243D01*
X167616Y79443D01*
X167617Y79446D01*
X167619Y79445D01*
X168319Y79745D01*
X168322Y79749D01*
X168325Y79748D01*
X168825Y80048D01*
X168826Y80049D01*
X168827Y80049D01*
X169427Y80449D01*
X169430Y80456D01*
X169435Y80455D01*
X169935Y80955D01*
X169935Y80959D01*
X169938Y80959D01*
X170738Y81959D01*
X170739Y81963D01*
X170741Y81963D01*
X171141Y82563D01*
X171141Y82567D01*
X171144Y82568D01*
X171444Y83168D01*
X171443Y83175D01*
X171447Y83176D01*
X171486Y83311D01*
X171500Y83360D01*
X171542Y83508D01*
X171584Y83655D01*
X171598Y83705D01*
X171640Y83852D01*
X171641Y83852D01*
X171640Y83852D01*
X171647Y83875D01*
X171847Y84474D01*
X171843Y84485D01*
X171849Y84490D01*
X171849Y85187D01*
X171949Y85883D01*
X171946Y85888D01*
X171949Y85890D01*
X171949Y106890D01*
X171920Y106928D01*
X171918Y106936D01*
X171418Y107136D01*
X171405Y107132D01*
X171400Y107139D01*
X158500Y107139D01*
X158462Y107110D01*
X158454Y107108D01*
X158254Y106608D01*
X158258Y106595D01*
X158251Y106590D01*
X158251Y85390D01*
X158254Y85386D01*
X158251Y85383D01*
X158351Y84683D01*
X158352Y84682D01*
X158351Y84682D01*
X158451Y84082D01*
X158455Y84079D01*
X158453Y84076D01*
X158653Y83376D01*
X158658Y83372D01*
X158656Y83368D01*
X159256Y82168D01*
X159263Y82165D01*
X159262Y82159D01*
X159662Y81659D01*
X159662Y81658D01*
X160162Y81058D01*
X160169Y81057D01*
X160169Y81052D01*
X160667Y80653D01*
X161165Y80155D01*
X161177Y80154D01*
X161178Y80146D01*
X162978Y79246D01*
X162989Y79248D01*
X162993Y79241D01*
X163689Y79142D01*
X164284Y78943D01*
X164295Y78947D01*
X164300Y78941D01*
X165700Y78941D01*
X165705Y78944D01*
G37*
G36*
X63905Y80744D02*
X63905Y80744D01*
X63908Y80741D01*
X64508Y80841D01*
X65207Y80941D01*
X65212Y80946D01*
X65216Y80943D01*
X65816Y81143D01*
X65817Y81146D01*
X65819Y81145D01*
X66519Y81445D01*
X66521Y81447D01*
X66522Y81446D01*
X67122Y81746D01*
X67125Y81753D01*
X67131Y81752D01*
X67631Y82152D01*
X67632Y82156D01*
X67635Y82155D01*
X68133Y82653D01*
X68631Y83052D01*
X68633Y83062D01*
X68641Y83063D01*
X69441Y84263D01*
X69441Y84267D01*
X69444Y84268D01*
X69744Y84868D01*
X69743Y84873D01*
X69747Y84874D01*
X70147Y86074D01*
X70145Y86081D01*
X70149Y86083D01*
X70349Y87483D01*
X70346Y87488D01*
X70349Y87490D01*
X70349Y106490D01*
X70346Y106495D01*
X70349Y106498D01*
X70249Y107098D01*
X70205Y107139D01*
X70203Y107136D01*
X70200Y107139D01*
X56700Y107139D01*
X56653Y107103D01*
X56658Y107096D01*
X56651Y107090D01*
X56651Y87490D01*
X56654Y87486D01*
X56651Y87483D01*
X56851Y86083D01*
X56856Y86078D01*
X56853Y86074D01*
X57053Y85475D01*
X57253Y84776D01*
X57258Y84772D01*
X57256Y84768D01*
X57556Y84168D01*
X57563Y84165D01*
X57562Y84159D01*
X57960Y83661D01*
X58359Y83063D01*
X58366Y83060D01*
X58365Y83055D01*
X58865Y82555D01*
X58869Y82555D01*
X58869Y82552D01*
X59369Y82152D01*
X59373Y82151D01*
X59373Y82149D01*
X59973Y81749D01*
X59977Y81749D01*
X59978Y81746D01*
X61178Y81146D01*
X61183Y81147D01*
X61184Y81143D01*
X61784Y80943D01*
X61791Y80945D01*
X61793Y80941D01*
X63193Y80741D01*
X63198Y80744D01*
X63200Y80741D01*
X63900Y80741D01*
X63905Y80744D01*
G37*
G36*
X211505Y50222D02*
X211505Y50222D01*
X211531Y50223D01*
X211585Y50253D01*
X211643Y50275D01*
X211660Y50294D01*
X211683Y50306D01*
X211718Y50357D01*
X211760Y50402D01*
X211768Y50427D01*
X211783Y50448D01*
X211799Y50532D01*
X211810Y50568D01*
X211808Y50578D01*
X211810Y50590D01*
X211810Y64290D01*
X211806Y64310D01*
X211807Y64337D01*
X211707Y65137D01*
X211699Y65161D01*
X211696Y65194D01*
X211496Y65894D01*
X211477Y65928D01*
X211456Y65986D01*
X210856Y66986D01*
X210836Y67006D01*
X210768Y67087D01*
X210268Y67487D01*
X210263Y67489D01*
X210258Y67494D01*
X209858Y67794D01*
X209823Y67809D01*
X209771Y67843D01*
X209271Y68043D01*
X209242Y68047D01*
X209205Y68063D01*
X208705Y68163D01*
X208699Y68163D01*
X208693Y68165D01*
X208093Y68265D01*
X208066Y68263D01*
X208030Y68270D01*
X206830Y68270D01*
X206815Y68267D01*
X206800Y68269D01*
X206668Y68232D01*
X206661Y68231D01*
X206661Y68230D01*
X206660Y68230D01*
X206284Y68042D01*
X206260Y68030D01*
X206241Y68014D01*
X206217Y68005D01*
X206175Y67959D01*
X206127Y67919D01*
X206117Y67897D01*
X206100Y67878D01*
X206082Y67818D01*
X206056Y67761D01*
X206058Y67736D01*
X206050Y67712D01*
X206061Y67650D01*
X206064Y67588D01*
X206076Y67566D01*
X206080Y67541D01*
X206129Y67468D01*
X206147Y67436D01*
X206155Y67431D01*
X206161Y67421D01*
X206261Y67321D01*
X206293Y67301D01*
X206360Y67250D01*
X206760Y67050D01*
X206783Y67044D01*
X206810Y67029D01*
X207025Y66958D01*
X207498Y66485D01*
X207550Y66328D01*
X207550Y66052D01*
X207485Y65859D01*
X207335Y65632D01*
X206816Y65114D01*
X206421Y64956D01*
X205992Y64870D01*
X205277Y64870D01*
X204586Y65043D01*
X204090Y65374D01*
X203769Y65775D01*
X203610Y66252D01*
X203610Y66821D01*
X203857Y67479D01*
X204499Y68121D01*
X204504Y68130D01*
X204514Y68137D01*
X205314Y69037D01*
X205315Y69039D01*
X205316Y69040D01*
X206016Y69840D01*
X206032Y69869D01*
X206062Y69905D01*
X206562Y70805D01*
X206573Y70843D01*
X206601Y70908D01*
X206801Y71808D01*
X206801Y71810D01*
X206802Y71812D01*
X206801Y71841D01*
X206810Y71890D01*
X206810Y72690D01*
X206802Y72727D01*
X206791Y72810D01*
X206491Y73710D01*
X206472Y73741D01*
X206452Y73792D01*
X205952Y74592D01*
X205931Y74613D01*
X205863Y74690D01*
X204963Y75390D01*
X204939Y75401D01*
X204912Y75424D01*
X203812Y76024D01*
X203793Y76029D01*
X203779Y76039D01*
X203746Y76046D01*
X203698Y76064D01*
X202598Y76264D01*
X202569Y76263D01*
X202530Y76270D01*
X201530Y76270D01*
X201497Y76263D01*
X201448Y76261D01*
X200548Y76061D01*
X200515Y76045D01*
X200460Y76030D01*
X200454Y76027D01*
X199694Y75647D01*
X199060Y75330D01*
X199038Y75312D01*
X199002Y75294D01*
X198602Y74994D01*
X198587Y74976D01*
X198561Y74959D01*
X198461Y74859D01*
X198448Y74837D01*
X198428Y74821D01*
X198402Y74764D01*
X198370Y74712D01*
X198367Y74686D01*
X198357Y74662D01*
X198359Y74601D01*
X198353Y74539D01*
X198362Y74515D01*
X198363Y74489D01*
X198393Y74435D01*
X198415Y74377D01*
X198434Y74360D01*
X198446Y74337D01*
X198497Y74302D01*
X198542Y74260D01*
X198567Y74252D01*
X198588Y74237D01*
X198672Y74221D01*
X198708Y74210D01*
X198718Y74212D01*
X198730Y74210D01*
X198830Y74210D01*
X198845Y74213D01*
X198860Y74211D01*
X198992Y74248D01*
X198999Y74249D01*
X198999Y74250D01*
X199000Y74250D01*
X199120Y74310D01*
X199583Y74310D01*
X199938Y74221D01*
X199946Y74221D01*
X199955Y74217D01*
X200406Y74127D01*
X200729Y73965D01*
X201050Y73725D01*
X201201Y73499D01*
X201278Y73344D01*
X201350Y73128D01*
X201350Y72637D01*
X201277Y72346D01*
X200935Y71832D01*
X200380Y71278D01*
X200010Y71001D01*
X199739Y70820D01*
X199507Y70704D01*
X199397Y70649D01*
X198683Y70470D01*
X198492Y70470D01*
X198335Y70522D01*
X198143Y70715D01*
X198082Y70836D01*
X198010Y71052D01*
X198010Y71890D01*
X197998Y71941D01*
X197997Y71985D01*
X197989Y71999D01*
X197985Y72026D01*
X197975Y72041D01*
X197971Y72059D01*
X197929Y72110D01*
X197914Y72137D01*
X197906Y72142D01*
X197888Y72170D01*
X197872Y72179D01*
X197861Y72192D01*
X197797Y72221D01*
X197785Y72228D01*
X197772Y72237D01*
X197768Y72238D01*
X197737Y72255D01*
X197719Y72256D01*
X197702Y72263D01*
X197646Y72261D01*
X197630Y72264D01*
X197620Y72264D01*
X197610Y72262D01*
X197564Y72264D01*
X197545Y72257D01*
X197529Y72257D01*
X197495Y72238D01*
X197474Y72230D01*
X197452Y72225D01*
X197444Y72218D01*
X197428Y72212D01*
X196628Y71712D01*
X196601Y71685D01*
X196546Y71643D01*
X195746Y70743D01*
X195733Y70720D01*
X195709Y70694D01*
X195009Y69594D01*
X194997Y69560D01*
X194969Y69510D01*
X194469Y68010D01*
X194467Y67988D01*
X194456Y67960D01*
X194156Y66360D01*
X194158Y66324D01*
X194150Y66268D01*
X194250Y64568D01*
X194259Y64537D01*
X194262Y64493D01*
X194762Y62593D01*
X194780Y62561D01*
X194798Y62505D01*
X195798Y60705D01*
X195815Y60687D01*
X195830Y60657D01*
X196530Y59757D01*
X196546Y59743D01*
X196561Y59721D01*
X197361Y58921D01*
X197371Y58915D01*
X197380Y58904D01*
X198180Y58204D01*
X198205Y58190D01*
X198234Y58164D01*
X199234Y57564D01*
X199259Y57556D01*
X199289Y57537D01*
X200289Y57137D01*
X200308Y57134D01*
X200330Y57123D01*
X201430Y56823D01*
X201447Y56823D01*
X201468Y56815D01*
X202668Y56615D01*
X202694Y56617D01*
X202730Y56610D01*
X204599Y56610D01*
X205096Y56527D01*
X205994Y55988D01*
X206951Y55032D01*
X208141Y53643D01*
X208152Y53635D01*
X208161Y53621D01*
X209349Y52433D01*
X209838Y51847D01*
X209850Y51837D01*
X209861Y51821D01*
X210328Y51354D01*
X210604Y50894D01*
X210629Y50868D01*
X210661Y50821D01*
X211161Y50321D01*
X211183Y50308D01*
X211199Y50288D01*
X211256Y50262D01*
X211308Y50230D01*
X211334Y50227D01*
X211358Y50217D01*
X211419Y50219D01*
X211481Y50213D01*
X211505Y50222D01*
G37*
%LPC*%
G36*
X59703Y25209D02*
X59703Y25209D01*
X59030Y25305D01*
X58749Y25774D01*
X58749Y26448D01*
X59041Y27031D01*
X59335Y27325D01*
X59335Y27327D01*
X59337Y27327D01*
X61229Y29419D01*
X61702Y29608D01*
X62276Y29416D01*
X62854Y28934D01*
X62949Y28364D01*
X62753Y27776D01*
X62757Y27765D01*
X62751Y27760D01*
X62751Y27460D01*
X62787Y27413D01*
X62794Y27418D01*
X62800Y27411D01*
X66800Y27411D01*
X66847Y27447D01*
X66842Y27454D01*
X66849Y27460D01*
X66849Y31760D01*
X66824Y31793D01*
X66822Y31804D01*
X66222Y32104D01*
X59427Y35402D01*
X58938Y35793D01*
X58651Y36270D01*
X58747Y36940D01*
X59132Y37421D01*
X59722Y37716D01*
X66418Y41014D01*
X67102Y41209D01*
X67568Y41116D01*
X67955Y40440D01*
X68148Y39860D01*
X67960Y39295D01*
X67378Y39004D01*
X66178Y38404D01*
X66163Y38374D01*
X66151Y38368D01*
X66051Y37768D01*
X66054Y37763D01*
X66051Y37760D01*
X66051Y35060D01*
X66062Y35045D01*
X66058Y35035D01*
X66358Y34535D01*
X66377Y34527D01*
X66379Y34515D01*
X67671Y33919D01*
X68054Y33536D01*
X68149Y32965D01*
X67859Y32190D01*
X67383Y31809D01*
X66900Y31809D01*
X66853Y31773D01*
X66858Y31766D01*
X66851Y31760D01*
X66851Y27460D01*
X66887Y27413D01*
X66894Y27418D01*
X66900Y27411D01*
X67486Y27411D01*
X67959Y27127D01*
X68151Y26552D01*
X68151Y25680D01*
X67776Y25306D01*
X67196Y25209D01*
X59703Y25209D01*
G37*
%LPD*%
%LPC*%
G36*
X265708Y34349D02*
X265708Y34349D01*
X264516Y34747D01*
X264459Y34728D01*
X264460Y34725D01*
X264458Y34725D01*
X264440Y34696D01*
X264435Y34735D01*
X264426Y34734D01*
X264425Y34742D01*
X263929Y35040D01*
X263333Y35537D01*
X262837Y36033D01*
X262442Y36527D01*
X262146Y37119D01*
X261947Y37715D01*
X261749Y38407D01*
X261749Y39397D01*
X261848Y40089D01*
X262046Y40681D01*
X262343Y41275D01*
X262740Y41871D01*
X263135Y42365D01*
X263629Y42760D01*
X264221Y43155D01*
X264914Y43353D01*
X264915Y43354D01*
X264916Y43353D01*
X265511Y43552D01*
X266203Y43651D01*
X266897Y43651D01*
X267589Y43552D01*
X268184Y43353D01*
X268778Y43155D01*
X269371Y42760D01*
X269867Y42363D01*
X270362Y41869D01*
X270757Y41275D01*
X271054Y40681D01*
X271252Y40089D01*
X271351Y39397D01*
X271351Y38107D01*
X271330Y38034D01*
X271288Y37887D01*
X271274Y37837D01*
X271232Y37690D01*
X271189Y37542D01*
X271175Y37493D01*
X271154Y37418D01*
X270857Y36823D01*
X270560Y36329D01*
X270065Y35735D01*
X269571Y35340D01*
X268975Y34943D01*
X268381Y34646D01*
X267789Y34448D01*
X267097Y34349D01*
X265708Y34349D01*
G37*
%LPD*%
%LPC*%
G36*
X12303Y24609D02*
X12303Y24609D01*
X11610Y24708D01*
X10918Y24906D01*
X10327Y25202D01*
X9831Y25598D01*
X9335Y25995D01*
X8840Y26589D01*
X8543Y27083D01*
X8246Y27678D01*
X8048Y28371D01*
X7949Y28964D01*
X7949Y32244D01*
X8230Y32618D01*
X8808Y32811D01*
X16297Y32811D01*
X16973Y32714D01*
X17253Y32341D01*
X17351Y31657D01*
X17351Y28864D01*
X17252Y28271D01*
X17244Y28244D01*
X17230Y28195D01*
X17188Y28047D01*
X17146Y27900D01*
X17132Y27850D01*
X17090Y27703D01*
X17054Y27578D01*
X16758Y26987D01*
X16362Y26491D01*
X15965Y25995D01*
X15371Y25500D01*
X14877Y25203D01*
X14282Y24906D01*
X13589Y24708D01*
X12996Y24609D01*
X12303Y24609D01*
G37*
%LPD*%
%LPC*%
G36*
X12303Y74139D02*
X12303Y74139D01*
X11610Y74238D01*
X10918Y74436D01*
X10327Y74732D01*
X9831Y75128D01*
X9335Y75525D01*
X8840Y76119D01*
X8543Y76613D01*
X8246Y77208D01*
X8048Y77901D01*
X7949Y78494D01*
X7949Y81774D01*
X8230Y82148D01*
X8808Y82341D01*
X16297Y82341D01*
X16973Y82244D01*
X17253Y81871D01*
X17351Y81187D01*
X17351Y78394D01*
X17252Y77801D01*
X17244Y77774D01*
X17230Y77725D01*
X17188Y77577D01*
X17146Y77430D01*
X17132Y77380D01*
X17090Y77233D01*
X17054Y77108D01*
X16758Y76517D01*
X16362Y76021D01*
X15965Y75525D01*
X15371Y75030D01*
X14877Y74733D01*
X14282Y74436D01*
X13589Y74238D01*
X12996Y74139D01*
X12303Y74139D01*
G37*
%LPD*%
%LPC*%
G36*
X115407Y95739D02*
X115407Y95739D01*
X114721Y95935D01*
X114127Y96331D01*
X114107Y96330D01*
X114100Y96339D01*
X113700Y96339D01*
X113687Y96330D01*
X113678Y96334D01*
X113085Y96037D01*
X112499Y95940D01*
X111810Y96038D01*
X111120Y96236D01*
X110631Y96529D01*
X110138Y97021D01*
X109745Y97612D01*
X109549Y98198D01*
X109549Y102382D01*
X109739Y102951D01*
X110308Y103141D01*
X117797Y103141D01*
X118481Y103043D01*
X118854Y102763D01*
X118951Y102087D01*
X118951Y97998D01*
X118755Y97412D01*
X118362Y96821D01*
X117870Y96329D01*
X117378Y96034D01*
X116690Y95739D01*
X115407Y95739D01*
G37*
%LPD*%
%LPC*%
G36*
X64607Y95739D02*
X64607Y95739D01*
X63923Y95935D01*
X63431Y96328D01*
X63408Y96329D01*
X63400Y96339D01*
X63000Y96339D01*
X62989Y96331D01*
X62981Y96335D01*
X62286Y96038D01*
X61699Y95940D01*
X61011Y96038D01*
X60419Y96236D01*
X59829Y96531D01*
X59338Y97021D01*
X58945Y97612D01*
X58749Y98198D01*
X58749Y102382D01*
X58939Y102951D01*
X59508Y103141D01*
X66897Y103141D01*
X67587Y103042D01*
X68055Y102855D01*
X68151Y102087D01*
X68151Y97998D01*
X67955Y97412D01*
X67562Y96821D01*
X67070Y96329D01*
X66578Y96034D01*
X65890Y95739D01*
X64607Y95739D01*
G37*
%LPD*%
%LPC*%
G36*
X242604Y95739D02*
X242604Y95739D01*
X242015Y95837D01*
X241423Y96133D01*
X240925Y96432D01*
X240890Y96428D01*
X240878Y96434D01*
X240285Y96137D01*
X239696Y96039D01*
X239003Y96039D01*
X238315Y96138D01*
X237729Y96431D01*
X237237Y96923D01*
X236844Y97414D01*
X236648Y98001D01*
X236549Y98693D01*
X236549Y102087D01*
X236646Y102860D01*
X237114Y103141D01*
X245192Y103141D01*
X245761Y102951D01*
X245951Y102382D01*
X245951Y98194D01*
X245853Y97605D01*
X245559Y97019D01*
X245067Y96527D01*
X244573Y96132D01*
X243985Y95838D01*
X243297Y95739D01*
X242604Y95739D01*
G37*
%LPD*%
%LPC*%
G36*
X192049Y95693D02*
X192049Y95693D01*
X192011Y95738D01*
X192009Y95737D01*
X192008Y95739D01*
X191412Y95838D01*
X190822Y96035D01*
X190227Y96431D01*
X190193Y96429D01*
X190182Y96436D01*
X189683Y96236D01*
X189089Y96038D01*
X188400Y95940D01*
X187715Y96038D01*
X187127Y96332D01*
X186633Y96727D01*
X186141Y97219D01*
X185848Y97805D01*
X185749Y98493D01*
X185749Y101887D01*
X185847Y102671D01*
X186128Y103045D01*
X186704Y103141D01*
X194196Y103141D01*
X194776Y103044D01*
X195151Y102670D01*
X195151Y98493D01*
X195052Y97801D01*
X194856Y97214D01*
X194463Y96723D01*
X193971Y96231D01*
X193382Y95936D01*
X192693Y95739D01*
X192100Y95739D01*
X192053Y95703D01*
X192057Y95698D01*
X192053Y95695D01*
X192054Y95693D01*
X192051Y95690D01*
X192051Y95663D01*
X192049Y95693D01*
G37*
%LPD*%
%LPC*%
G36*
X141203Y95739D02*
X141203Y95739D01*
X140511Y95838D01*
X139924Y96034D01*
X139431Y96428D01*
X139392Y96429D01*
X139382Y96436D01*
X138884Y96237D01*
X138189Y96038D01*
X137603Y95940D01*
X136915Y96137D01*
X136322Y96335D01*
X135734Y96727D01*
X135342Y97217D01*
X135048Y97805D01*
X134949Y98493D01*
X134949Y101887D01*
X135047Y102671D01*
X135328Y103045D01*
X135904Y103141D01*
X143396Y103141D01*
X143973Y103045D01*
X144351Y102573D01*
X144351Y98493D01*
X144252Y97801D01*
X144056Y97214D01*
X143565Y96625D01*
X143072Y96230D01*
X142580Y95936D01*
X141893Y95739D01*
X141203Y95739D01*
G37*
%LPD*%
%LPC*%
G36*
X217008Y95739D02*
X217008Y95739D01*
X216419Y95936D01*
X215822Y96234D01*
X215814Y96233D01*
X215812Y96238D01*
X215412Y96338D01*
X215394Y96330D01*
X215384Y96337D01*
X214785Y96137D01*
X214097Y95940D01*
X213508Y96039D01*
X213455Y96011D01*
X213458Y96006D01*
X213453Y96004D01*
X213446Y95980D01*
X213426Y96032D01*
X213418Y96029D01*
X213416Y96037D01*
X212819Y96236D01*
X212229Y96531D01*
X211739Y97021D01*
X211446Y97510D01*
X211248Y98201D01*
X211149Y98794D01*
X211149Y102282D01*
X211347Y102874D01*
X211328Y102931D01*
X211319Y102928D01*
X211317Y102936D01*
X211292Y102945D01*
X211307Y102951D01*
X211318Y102944D01*
X211809Y103141D01*
X219986Y103141D01*
X220455Y102860D01*
X220551Y102187D01*
X220551Y98098D01*
X220354Y97509D01*
X220059Y96919D01*
X219569Y96428D01*
X218978Y96035D01*
X218389Y95838D01*
X217697Y95739D01*
X217008Y95739D01*
G37*
%LPD*%
%LPC*%
G36*
X90108Y95739D02*
X90108Y95739D01*
X89519Y95936D01*
X88522Y96434D01*
X88490Y96428D01*
X88478Y96434D01*
X87885Y96138D01*
X87197Y96039D01*
X86603Y96039D01*
X85915Y96138D01*
X85329Y96431D01*
X84837Y96923D01*
X84444Y97414D01*
X84248Y98001D01*
X84149Y98693D01*
X84149Y102187D01*
X84245Y102858D01*
X84283Y102844D01*
X84317Y102854D01*
X84330Y102851D01*
X84716Y103141D01*
X92891Y103141D01*
X93359Y102953D01*
X93551Y102283D01*
X93551Y98197D01*
X93522Y98097D01*
X93508Y98048D01*
X93466Y97900D01*
X93424Y97753D01*
X93410Y97703D01*
X93368Y97556D01*
X93354Y97510D01*
X93060Y97019D01*
X92565Y96425D01*
X92076Y96034D01*
X91489Y95838D01*
X90797Y95739D01*
X90108Y95739D01*
G37*
%LPD*%
%LPC*%
G36*
X39603Y83939D02*
X39603Y83939D01*
X38911Y84038D01*
X38324Y84234D01*
X37831Y84628D01*
X37792Y84629D01*
X37782Y84636D01*
X37283Y84436D01*
X36692Y84239D01*
X36004Y84239D01*
X35411Y84338D01*
X34723Y84535D01*
X34233Y84927D01*
X33741Y85419D01*
X33448Y86005D01*
X33349Y86693D01*
X33349Y90087D01*
X33447Y90871D01*
X33728Y91245D01*
X34304Y91341D01*
X41796Y91341D01*
X42376Y91244D01*
X42751Y90870D01*
X42751Y86693D01*
X42652Y86001D01*
X42456Y85414D01*
X42065Y84925D01*
X41471Y84430D01*
X40980Y84136D01*
X40293Y83939D01*
X39603Y83939D01*
G37*
%LPD*%
%LPC*%
G36*
X166407Y95739D02*
X166407Y95739D01*
X165718Y95936D01*
X165122Y96234D01*
X164722Y96434D01*
X164690Y96428D01*
X164678Y96434D01*
X164085Y96137D01*
X163496Y96039D01*
X162803Y96039D01*
X162115Y96138D01*
X161527Y96432D01*
X161037Y96824D01*
X160645Y97412D01*
X160448Y98001D01*
X160349Y98693D01*
X160349Y102087D01*
X160446Y102860D01*
X160914Y103141D01*
X169091Y103141D01*
X169561Y102953D01*
X169751Y102382D01*
X169751Y98198D01*
X169554Y97609D01*
X169258Y97017D01*
X168866Y96527D01*
X168275Y96133D01*
X167685Y95837D01*
X167096Y95739D01*
X166407Y95739D01*
G37*
%LPD*%
G36*
X151849Y58758D02*
X151849Y58758D01*
X151856Y58753D01*
X152456Y58953D01*
X152461Y58961D01*
X152467Y58959D01*
X153067Y59359D01*
X153068Y59362D01*
X153071Y59362D01*
X153571Y59762D01*
X153573Y59769D01*
X153578Y59769D01*
X153978Y60269D01*
X153979Y60279D01*
X153985Y60281D01*
X154285Y60981D01*
X154285Y60984D01*
X154287Y60984D01*
X154487Y61584D01*
X154485Y61590D01*
X154489Y61592D01*
X154589Y62192D01*
X154588Y62193D01*
X154589Y62193D01*
X154689Y62893D01*
X154686Y62898D01*
X154689Y62900D01*
X154689Y64400D01*
X154686Y64404D01*
X154689Y64407D01*
X154589Y65107D01*
X154588Y65108D01*
X154589Y65108D01*
X154489Y65708D01*
X154482Y65714D01*
X154485Y65719D01*
X154185Y66419D01*
X154183Y66421D01*
X154184Y66422D01*
X153884Y67022D01*
X153881Y67023D01*
X153882Y67025D01*
X153582Y67525D01*
X153579Y67527D01*
X153579Y67530D01*
X153279Y67930D01*
X153264Y67934D01*
X153262Y67944D01*
X152663Y68243D01*
X152165Y68542D01*
X152151Y68541D01*
X152147Y68549D01*
X151447Y68649D01*
X151442Y68646D01*
X151440Y68649D01*
X150640Y68649D01*
X150635Y68646D01*
X150632Y68649D01*
X150032Y68549D01*
X150028Y68544D01*
X150024Y68547D01*
X149424Y68347D01*
X149417Y68336D01*
X149408Y68338D01*
X148808Y67838D01*
X148808Y67834D01*
X148805Y67835D01*
X148405Y67435D01*
X148404Y67428D01*
X148399Y67427D01*
X147999Y66827D01*
X147999Y66823D01*
X147996Y66822D01*
X147696Y66222D01*
X147698Y66211D01*
X147691Y66207D01*
X147592Y65510D01*
X147564Y65413D01*
X147550Y65364D01*
X147508Y65216D01*
X147465Y65068D01*
X147451Y65019D01*
X147409Y64871D01*
X147393Y64814D01*
X147396Y64804D01*
X147391Y64800D01*
X147391Y62700D01*
X147394Y62696D01*
X147391Y62693D01*
X147491Y61993D01*
X147495Y61989D01*
X147493Y61986D01*
X147693Y61286D01*
X147694Y61285D01*
X147693Y61284D01*
X147893Y60684D01*
X147900Y60680D01*
X147898Y60675D01*
X148198Y60175D01*
X148202Y60173D01*
X148202Y60169D01*
X148602Y59669D01*
X148609Y59667D01*
X148609Y59662D01*
X149109Y59262D01*
X149117Y59261D01*
X149118Y59256D01*
X149718Y58956D01*
X149725Y58957D01*
X149726Y58953D01*
X150426Y58753D01*
X150436Y58756D01*
X150440Y58751D01*
X151840Y58751D01*
X151849Y58758D01*
G37*
G36*
X135948Y58757D02*
X135948Y58757D01*
X135954Y58753D01*
X136654Y58953D01*
X136660Y58962D01*
X136667Y58959D01*
X137267Y59359D01*
X137268Y59362D01*
X137271Y59362D01*
X137771Y59762D01*
X137774Y59774D01*
X137782Y59775D01*
X138082Y60275D01*
X138082Y60280D01*
X138085Y60281D01*
X138385Y60981D01*
X138385Y60984D01*
X138387Y60984D01*
X138587Y61584D01*
X138585Y61590D01*
X138589Y61592D01*
X138689Y62192D01*
X138688Y62193D01*
X138689Y62193D01*
X138789Y62893D01*
X138786Y62898D01*
X138789Y62900D01*
X138789Y64400D01*
X138786Y64404D01*
X138789Y64407D01*
X138689Y65107D01*
X138688Y65108D01*
X138689Y65108D01*
X138589Y65708D01*
X138585Y65711D01*
X138587Y65714D01*
X138387Y66414D01*
X138382Y66418D01*
X138384Y66422D01*
X138084Y67022D01*
X138081Y67023D01*
X138082Y67025D01*
X137782Y67525D01*
X137779Y67527D01*
X137779Y67530D01*
X137479Y67930D01*
X137464Y67934D01*
X137462Y67944D01*
X136262Y68544D01*
X136251Y68542D01*
X136247Y68549D01*
X135547Y68649D01*
X135542Y68646D01*
X135540Y68649D01*
X134840Y68649D01*
X134836Y68646D01*
X134833Y68649D01*
X134133Y68549D01*
X134128Y68544D01*
X134124Y68547D01*
X133524Y68347D01*
X133515Y68333D01*
X133505Y68335D01*
X133007Y67837D01*
X132509Y67438D01*
X132507Y67428D01*
X132499Y67427D01*
X132099Y66827D01*
X132100Y66818D01*
X132093Y66816D01*
X131893Y66216D01*
X131894Y66214D01*
X131893Y66214D01*
X131861Y66102D01*
X131847Y66053D01*
X131805Y65905D01*
X131762Y65758D01*
X131748Y65708D01*
X131706Y65561D01*
X131693Y65514D01*
X131693Y65512D01*
X131692Y65511D01*
X131694Y65509D01*
X131691Y65507D01*
X131591Y64808D01*
X131491Y64208D01*
X131494Y64203D01*
X131491Y64200D01*
X131491Y63400D01*
X131494Y63396D01*
X131491Y63393D01*
X131791Y61293D01*
X131799Y61285D01*
X131796Y61278D01*
X132096Y60678D01*
X132099Y60677D01*
X132098Y60675D01*
X132698Y59675D01*
X132712Y59669D01*
X132713Y59659D01*
X133313Y59259D01*
X133317Y59259D01*
X133318Y59256D01*
X133918Y58956D01*
X133923Y58957D01*
X133924Y58953D01*
X134524Y58753D01*
X134535Y58757D01*
X134540Y58751D01*
X135940Y58751D01*
X135948Y58757D01*
G37*
G36*
X126851Y58759D02*
X126851Y58759D01*
X126859Y58755D01*
X127559Y59055D01*
X127561Y59057D01*
X127562Y59056D01*
X128162Y59356D01*
X128165Y59363D01*
X128171Y59362D01*
X128671Y59762D01*
X128673Y59769D01*
X128678Y59769D01*
X129078Y60269D01*
X129079Y60277D01*
X129084Y60278D01*
X129384Y60878D01*
X129382Y60889D01*
X129389Y60893D01*
X129489Y61593D01*
X129486Y61598D01*
X129489Y61600D01*
X129489Y62300D01*
X129483Y62308D01*
X129487Y62314D01*
X129287Y63014D01*
X129282Y63018D01*
X129284Y63022D01*
X128984Y63622D01*
X128971Y63629D01*
X128971Y63638D01*
X128514Y64004D01*
X128875Y64365D01*
X128877Y64378D01*
X128885Y64381D01*
X129185Y65081D01*
X129184Y65087D01*
X129188Y65091D01*
X129187Y65092D01*
X129189Y65093D01*
X129289Y65793D01*
X129284Y65802D01*
X129289Y65807D01*
X129189Y66507D01*
X129184Y66512D01*
X129187Y66516D01*
X128987Y67116D01*
X128976Y67123D01*
X128978Y67131D01*
X128578Y67631D01*
X128574Y67632D01*
X128575Y67635D01*
X128075Y68135D01*
X128063Y68136D01*
X128062Y68144D01*
X127462Y68444D01*
X127457Y68443D01*
X127456Y68447D01*
X126856Y68647D01*
X126849Y68645D01*
X126847Y68649D01*
X126147Y68749D01*
X126146Y68748D01*
X126145Y68748D01*
X126141Y68748D01*
X126140Y68749D01*
X125440Y68749D01*
X125439Y68748D01*
X125437Y68748D01*
X125431Y68744D01*
X125426Y68747D01*
X124726Y68547D01*
X124722Y68542D01*
X124718Y68544D01*
X124118Y68244D01*
X124113Y68234D01*
X124105Y68235D01*
X123605Y67735D01*
X123605Y67731D01*
X123602Y67731D01*
X123202Y67231D01*
X123201Y67218D01*
X123193Y67216D01*
X122993Y66616D01*
X122994Y66614D01*
X122993Y66614D01*
X122987Y66595D01*
X122945Y66447D01*
X122903Y66299D01*
X122889Y66250D01*
X122847Y66102D01*
X122804Y65955D01*
X122793Y65914D01*
X122795Y65907D01*
X122794Y65905D01*
X122798Y65900D01*
X122791Y65893D01*
X122891Y65193D01*
X122899Y65185D01*
X122896Y65178D01*
X123196Y64578D01*
X123203Y64575D01*
X123202Y64569D01*
X123574Y64104D01*
X123205Y63735D01*
X123204Y63725D01*
X123197Y63724D01*
X122797Y63024D01*
X122798Y63017D01*
X122793Y63016D01*
X122593Y62416D01*
X122595Y62410D01*
X122593Y62409D01*
X122596Y62404D01*
X122591Y62400D01*
X122591Y61300D01*
X122598Y61291D01*
X122593Y61284D01*
X122793Y60684D01*
X122801Y60679D01*
X122799Y60673D01*
X123199Y60073D01*
X123206Y60070D01*
X123205Y60065D01*
X123705Y59565D01*
X123709Y59565D01*
X123709Y59562D01*
X124209Y59162D01*
X124217Y59161D01*
X124218Y59156D01*
X124818Y58856D01*
X124829Y58858D01*
X124833Y58851D01*
X125533Y58751D01*
X125538Y58754D01*
X125540Y58751D01*
X126840Y58751D01*
X126851Y58759D01*
G37*
%LPC*%
G36*
X242315Y87037D02*
X242315Y87037D01*
X241622Y87334D01*
X240625Y87932D01*
X240576Y87927D01*
X240569Y87928D01*
X240074Y87533D01*
X239390Y87239D01*
X238807Y87239D01*
X238115Y87437D01*
X237527Y87633D01*
X237037Y88123D01*
X236642Y88617D01*
X236346Y89209D01*
X236149Y89798D01*
X236149Y90487D01*
X236248Y91179D01*
X236445Y91768D01*
X236840Y92361D01*
X237234Y92853D01*
X237822Y93245D01*
X238411Y93442D01*
X239100Y93540D01*
X239782Y93443D01*
X240371Y93050D01*
X240770Y92751D01*
X240830Y92751D01*
X240830Y92756D01*
X240835Y92755D01*
X241329Y93249D01*
X241919Y93544D01*
X242516Y93743D01*
X242543Y93783D01*
X242549Y93787D01*
X242551Y93817D01*
X242551Y93790D01*
X242587Y93743D01*
X242594Y93748D01*
X242600Y93741D01*
X243296Y93741D01*
X243885Y93643D01*
X244473Y93348D01*
X244963Y92956D01*
X245359Y92363D01*
X245755Y91768D01*
X245951Y91182D01*
X245951Y89798D01*
X245753Y89206D01*
X245555Y88612D01*
X245162Y88021D01*
X244671Y87531D01*
X244081Y87236D01*
X243489Y87038D01*
X242801Y86940D01*
X242315Y87037D01*
G37*
%LPD*%
%LPC*%
G36*
X242312Y25348D02*
X242312Y25348D01*
X241622Y25545D01*
X240628Y26240D01*
X240570Y26238D01*
X240569Y26238D01*
X240074Y25843D01*
X239390Y25549D01*
X238803Y25549D01*
X238115Y25648D01*
X237527Y25942D01*
X237037Y26334D01*
X236643Y26925D01*
X236346Y27519D01*
X236149Y28108D01*
X236149Y28797D01*
X236248Y29489D01*
X236445Y30078D01*
X236840Y30671D01*
X237232Y31161D01*
X238412Y31751D01*
X239097Y31751D01*
X239785Y31652D01*
X240374Y31358D01*
X240770Y31061D01*
X240830Y31061D01*
X240830Y31062D01*
X240831Y31062D01*
X241329Y31460D01*
X241922Y31855D01*
X242508Y32051D01*
X243292Y32051D01*
X243881Y31854D01*
X244473Y31558D01*
X244965Y31165D01*
X245360Y30671D01*
X245755Y30078D01*
X245951Y29492D01*
X245951Y28108D01*
X245753Y27516D01*
X245555Y26922D01*
X245162Y26331D01*
X244671Y25841D01*
X244081Y25546D01*
X243489Y25348D01*
X242801Y25250D01*
X242312Y25348D01*
G37*
%LPD*%
%LPC*%
G36*
X16249Y84392D02*
X16249Y84392D01*
X16211Y84438D01*
X16205Y84433D01*
X16200Y84439D01*
X8714Y84439D01*
X8236Y84726D01*
X7949Y85204D01*
X7949Y85970D01*
X8620Y86641D01*
X13400Y86641D01*
X13411Y86649D01*
X13424Y86647D01*
X13426Y86660D01*
X13447Y86677D01*
X13431Y86698D01*
X13435Y86725D01*
X13235Y86925D01*
X13230Y86926D01*
X13230Y86929D01*
X12430Y87529D01*
X8731Y90329D01*
X8142Y90819D01*
X7949Y91398D01*
X7949Y92073D01*
X8329Y92548D01*
X8908Y92741D01*
X16396Y92741D01*
X16976Y92644D01*
X17351Y92270D01*
X17351Y91397D01*
X17342Y91367D01*
X17328Y91318D01*
X17286Y91170D01*
X17244Y91023D01*
X17230Y90973D01*
X17188Y90826D01*
X17159Y90727D01*
X16691Y90539D01*
X12000Y90539D01*
X11987Y90529D01*
X11970Y90529D01*
X11970Y90517D01*
X11953Y90503D01*
X11970Y90480D01*
X11970Y90451D01*
X16768Y86853D01*
X17351Y86270D01*
X17351Y85593D01*
X17254Y84913D01*
X16876Y84536D01*
X16292Y84439D01*
X16251Y84395D01*
X16254Y84393D01*
X16251Y84390D01*
X16251Y84361D01*
X16249Y84392D01*
G37*
%LPD*%
%LPC*%
G36*
X16249Y34862D02*
X16249Y34862D01*
X16211Y34908D01*
X16205Y34903D01*
X16200Y34909D01*
X8714Y34909D01*
X8236Y35196D01*
X7949Y35674D01*
X7949Y36440D01*
X8620Y37111D01*
X13400Y37111D01*
X13411Y37119D01*
X13424Y37117D01*
X13426Y37130D01*
X13447Y37147D01*
X13431Y37168D01*
X13435Y37195D01*
X13235Y37395D01*
X13230Y37396D01*
X13230Y37399D01*
X12430Y37999D01*
X8731Y40799D01*
X8142Y41289D01*
X7949Y41868D01*
X7949Y42543D01*
X8329Y43018D01*
X8908Y43211D01*
X16396Y43211D01*
X16976Y43114D01*
X17351Y42740D01*
X17351Y41867D01*
X17342Y41837D01*
X17328Y41788D01*
X17286Y41640D01*
X17244Y41493D01*
X17230Y41443D01*
X17188Y41296D01*
X17159Y41197D01*
X16691Y41009D01*
X12000Y41009D01*
X11987Y40999D01*
X11970Y40999D01*
X11970Y40987D01*
X11953Y40973D01*
X11970Y40950D01*
X11970Y40921D01*
X16768Y37323D01*
X17351Y36740D01*
X17351Y36063D01*
X17254Y35383D01*
X16876Y35006D01*
X16292Y34909D01*
X16251Y34865D01*
X16254Y34863D01*
X16251Y34860D01*
X16251Y34831D01*
X16249Y34862D01*
G37*
%LPD*%
G36*
X174156Y58953D02*
X174156Y58953D01*
X174163Y58964D01*
X174172Y58962D01*
X174772Y59462D01*
X174775Y59479D01*
X174786Y59482D01*
X174986Y59982D01*
X174979Y60005D01*
X174987Y60016D01*
X174787Y60616D01*
X174776Y60623D01*
X174778Y60632D01*
X174278Y61232D01*
X174276Y61232D01*
X174276Y61233D01*
X172005Y63702D01*
X172378Y64168D01*
X174676Y66667D01*
X174677Y66677D01*
X174684Y66678D01*
X174984Y67278D01*
X174980Y67300D01*
X174988Y67310D01*
X174888Y67810D01*
X174873Y67823D01*
X174875Y67835D01*
X174275Y68435D01*
X174259Y68437D01*
X174256Y68447D01*
X173656Y68647D01*
X173633Y68639D01*
X173622Y68646D01*
X173122Y68446D01*
X173116Y68436D01*
X173108Y68438D01*
X172508Y67938D01*
X172507Y67932D01*
X172502Y67932D01*
X170341Y65378D01*
X169978Y65831D01*
X169976Y65831D01*
X169977Y65833D01*
X168178Y67832D01*
X167678Y68432D01*
X167659Y68436D01*
X167656Y68447D01*
X167056Y68647D01*
X167033Y68639D01*
X167022Y68646D01*
X166522Y68446D01*
X166516Y68436D01*
X166508Y68438D01*
X165908Y67938D01*
X165904Y67919D01*
X165893Y67916D01*
X165693Y67316D01*
X165702Y67290D01*
X165696Y67278D01*
X165996Y66678D01*
X166005Y66673D01*
X166004Y66666D01*
X168772Y63700D01*
X166404Y61234D01*
X166404Y61231D01*
X166402Y61231D01*
X166002Y60731D01*
X166001Y60723D01*
X165996Y60722D01*
X165696Y60122D01*
X165701Y60094D01*
X165700Y60094D01*
X165701Y60093D01*
X165694Y60082D01*
X165894Y59582D01*
X165906Y59574D01*
X165905Y59565D01*
X166505Y58965D01*
X166519Y58963D01*
X166522Y58954D01*
X167022Y58754D01*
X167045Y58761D01*
X167056Y58753D01*
X167656Y58953D01*
X167666Y58968D01*
X167677Y58968D01*
X170343Y62028D01*
X170704Y61667D01*
X172503Y59568D01*
X173002Y58968D01*
X173019Y58965D01*
X173022Y58954D01*
X173522Y58754D01*
X173545Y58761D01*
X173556Y58753D01*
X174156Y58953D01*
G37*
%LPC*%
G36*
X262230Y24745D02*
X262230Y24745D01*
X261949Y25214D01*
X261949Y31386D01*
X262230Y31855D01*
X262903Y31951D01*
X270976Y31951D01*
X271351Y31483D01*
X271351Y25309D01*
X271163Y24841D01*
X270496Y24650D01*
X269716Y24748D01*
X269245Y25030D01*
X269149Y25703D01*
X269149Y29700D01*
X269113Y29747D01*
X269106Y29742D01*
X269100Y29749D01*
X268400Y29749D01*
X268397Y29747D01*
X268392Y29747D01*
X268390Y29748D01*
X267890Y29648D01*
X267871Y29627D01*
X267853Y29613D01*
X267855Y29609D01*
X267851Y29604D01*
X267853Y29602D01*
X267851Y29600D01*
X267851Y27603D01*
X267752Y26911D01*
X267559Y26333D01*
X267089Y26051D01*
X266212Y26148D01*
X265740Y26337D01*
X265549Y26908D01*
X265549Y29700D01*
X265513Y29747D01*
X265506Y29742D01*
X265500Y29749D01*
X264300Y29749D01*
X264253Y29713D01*
X264254Y29712D01*
X264252Y29711D01*
X264254Y29709D01*
X264251Y29708D01*
X264151Y29108D01*
X264154Y29103D01*
X264151Y29100D01*
X264151Y25704D01*
X264053Y25120D01*
X263773Y24747D01*
X262901Y24650D01*
X262230Y24745D01*
G37*
%LPD*%
%LPC*%
G36*
X12803Y45509D02*
X12803Y45509D01*
X12120Y45607D01*
X11743Y45890D01*
X11549Y46567D01*
X11549Y48752D01*
X11739Y49321D01*
X12308Y49511D01*
X12980Y49511D01*
X13352Y49138D01*
X13451Y47757D01*
X13490Y47712D01*
X13496Y47717D01*
X13500Y47711D01*
X14800Y47711D01*
X14833Y47736D01*
X14844Y47738D01*
X15144Y48338D01*
X15141Y48354D01*
X15149Y48360D01*
X15149Y49060D01*
X15146Y49065D01*
X15149Y49068D01*
X15049Y49668D01*
X15044Y49672D01*
X15047Y49676D01*
X14847Y50276D01*
X14836Y50283D01*
X14838Y50292D01*
X14338Y50892D01*
X14331Y50893D01*
X14331Y50898D01*
X13831Y51298D01*
X13818Y51299D01*
X13816Y51307D01*
X13216Y51507D01*
X13209Y51505D01*
X13207Y51509D01*
X12507Y51609D01*
X12498Y51604D01*
X12493Y51609D01*
X11793Y51509D01*
X11789Y51505D01*
X11786Y51507D01*
X11086Y51307D01*
X11078Y51296D01*
X11069Y51298D01*
X10569Y50898D01*
X10567Y50888D01*
X10559Y50887D01*
X10159Y50287D01*
X10160Y50278D01*
X10153Y50276D01*
X9953Y49676D01*
X9955Y49670D01*
X9952Y49668D01*
X9951Y49667D01*
X9851Y48967D01*
X9856Y48958D01*
X9851Y48953D01*
X9951Y48253D01*
X9959Y48245D01*
X9956Y48238D01*
X10548Y47053D01*
X10455Y46584D01*
X9873Y46003D01*
X9300Y45812D01*
X8732Y46001D01*
X8343Y46585D01*
X8046Y47179D01*
X7848Y47771D01*
X7749Y48467D01*
X7748Y48468D01*
X7749Y48468D01*
X7650Y49061D01*
X7749Y49753D01*
X7848Y50445D01*
X8144Y51038D01*
X8442Y51633D01*
X8837Y52127D01*
X9333Y52623D01*
X9829Y53020D01*
X10422Y53415D01*
X11011Y53612D01*
X12403Y53811D01*
X13092Y53811D01*
X13684Y53613D01*
X13686Y53614D01*
X13686Y53613D01*
X14382Y53414D01*
X14977Y53117D01*
X15470Y52821D01*
X16462Y51829D01*
X16857Y51235D01*
X17153Y50645D01*
X17251Y50052D01*
X17351Y49357D01*
X17351Y48663D01*
X17251Y47867D01*
X17153Y47275D01*
X16857Y46683D01*
X16561Y46191D01*
X16073Y45703D01*
X15492Y45509D01*
X12803Y45509D01*
G37*
%LPD*%
%LPC*%
G36*
X12803Y95039D02*
X12803Y95039D01*
X12120Y95137D01*
X11743Y95420D01*
X11549Y96097D01*
X11549Y98282D01*
X11739Y98851D01*
X12308Y99041D01*
X12980Y99041D01*
X13352Y98668D01*
X13451Y97287D01*
X13490Y97242D01*
X13496Y97247D01*
X13500Y97241D01*
X14800Y97241D01*
X14833Y97266D01*
X14844Y97268D01*
X15144Y97868D01*
X15141Y97884D01*
X15149Y97890D01*
X15149Y98590D01*
X15146Y98595D01*
X15149Y98598D01*
X15049Y99198D01*
X15044Y99202D01*
X15047Y99206D01*
X14847Y99806D01*
X14836Y99813D01*
X14838Y99822D01*
X14338Y100422D01*
X14331Y100423D01*
X14331Y100428D01*
X13831Y100828D01*
X13818Y100829D01*
X13816Y100837D01*
X13216Y101037D01*
X13209Y101035D01*
X13207Y101039D01*
X12507Y101139D01*
X12498Y101134D01*
X12493Y101139D01*
X11793Y101039D01*
X11789Y101035D01*
X11786Y101037D01*
X11086Y100837D01*
X11078Y100826D01*
X11069Y100828D01*
X10569Y100428D01*
X10567Y100418D01*
X10559Y100417D01*
X10159Y99817D01*
X10160Y99808D01*
X10153Y99806D01*
X9953Y99206D01*
X9955Y99200D01*
X9952Y99198D01*
X9951Y99197D01*
X9851Y98497D01*
X9856Y98488D01*
X9851Y98483D01*
X9951Y97783D01*
X9959Y97775D01*
X9956Y97768D01*
X10548Y96583D01*
X10455Y96114D01*
X9873Y95533D01*
X9300Y95342D01*
X8732Y95531D01*
X8343Y96115D01*
X8046Y96709D01*
X7848Y97301D01*
X7749Y97997D01*
X7748Y97998D01*
X7749Y97998D01*
X7650Y98591D01*
X7749Y99283D01*
X7848Y99975D01*
X8144Y100568D01*
X8442Y101163D01*
X8837Y101657D01*
X9333Y102153D01*
X9829Y102550D01*
X10422Y102945D01*
X11011Y103142D01*
X12403Y103341D01*
X13092Y103341D01*
X13684Y103143D01*
X13686Y103144D01*
X13686Y103143D01*
X14382Y102944D01*
X14977Y102647D01*
X15470Y102351D01*
X16462Y101359D01*
X16857Y100765D01*
X17153Y100175D01*
X17251Y99582D01*
X17351Y98887D01*
X17351Y98193D01*
X17251Y97397D01*
X17153Y96805D01*
X16857Y96213D01*
X16561Y95721D01*
X16073Y95233D01*
X15492Y95039D01*
X12803Y95039D01*
G37*
%LPD*%
%LPC*%
G36*
X91920Y24847D02*
X91920Y24847D01*
X91446Y25226D01*
X91349Y25903D01*
X91349Y28200D01*
X91337Y28216D01*
X91333Y28236D01*
X91323Y28235D01*
X91313Y28247D01*
X91288Y28228D01*
X91256Y28222D01*
X90758Y27227D01*
X90362Y26731D01*
X89865Y26135D01*
X89372Y25741D01*
X88683Y25347D01*
X88092Y25249D01*
X87400Y25150D01*
X86711Y25248D01*
X86119Y25446D01*
X85529Y25741D01*
X84539Y26731D01*
X84246Y27220D01*
X84049Y27907D01*
X84049Y29293D01*
X84076Y29387D01*
X84090Y29437D01*
X84132Y29584D01*
X84133Y29584D01*
X84132Y29584D01*
X84175Y29732D01*
X84189Y29781D01*
X84231Y29929D01*
X84246Y29980D01*
X84540Y30472D01*
X84935Y30965D01*
X85527Y31458D01*
X86119Y31754D01*
X86711Y31952D01*
X87403Y32051D01*
X88084Y32051D01*
X88454Y31773D01*
X88550Y31000D01*
X88454Y30227D01*
X88081Y29947D01*
X87393Y29849D01*
X87388Y29844D01*
X87384Y29847D01*
X86784Y29647D01*
X86775Y29633D01*
X86765Y29635D01*
X86265Y29135D01*
X86264Y29123D01*
X86258Y29119D01*
X86262Y29113D01*
X86262Y29108D01*
X86251Y29100D01*
X86251Y28400D01*
X86260Y28387D01*
X86256Y28378D01*
X86556Y27778D01*
X86573Y27769D01*
X86575Y27758D01*
X87075Y27458D01*
X87093Y27460D01*
X87100Y27451D01*
X87700Y27451D01*
X87713Y27460D01*
X87722Y27456D01*
X88322Y27756D01*
X88327Y27766D01*
X88335Y27765D01*
X88835Y28265D01*
X88836Y28272D01*
X88841Y28273D01*
X89241Y28873D01*
X90341Y30573D01*
X90737Y31166D01*
X91229Y31560D01*
X91818Y31953D01*
X92397Y32050D01*
X93071Y31857D01*
X93454Y31379D01*
X93551Y30796D01*
X93551Y25314D01*
X93270Y24845D01*
X92600Y24750D01*
X91920Y24847D01*
G37*
%LPD*%
%LPC*%
G36*
X219310Y34349D02*
X219310Y34349D01*
X218620Y34645D01*
X211922Y37944D01*
X211337Y38237D01*
X211049Y38812D01*
X211049Y39382D01*
X211533Y39962D01*
X212024Y40257D01*
X218718Y43554D01*
X219402Y43749D01*
X219873Y43655D01*
X220356Y43076D01*
X220548Y42401D01*
X220360Y41835D01*
X219778Y41544D01*
X218578Y40944D01*
X218563Y40914D01*
X218551Y40908D01*
X218451Y40308D01*
X218454Y40303D01*
X218451Y40300D01*
X218451Y37600D01*
X218462Y37585D01*
X218458Y37575D01*
X218758Y37075D01*
X218776Y37067D01*
X218778Y37056D01*
X219973Y36458D01*
X220455Y36073D01*
X220549Y35506D01*
X220258Y34828D01*
X219780Y34349D01*
X219310Y34349D01*
G37*
%LPD*%
%LPC*%
G36*
X117610Y34349D02*
X117610Y34349D01*
X116920Y34645D01*
X110227Y37942D01*
X109738Y38333D01*
X109451Y38810D01*
X109547Y39480D01*
X109932Y39961D01*
X110522Y40256D01*
X117218Y43554D01*
X117902Y43749D01*
X118368Y43656D01*
X118755Y42980D01*
X118947Y42404D01*
X118662Y41835D01*
X118177Y41544D01*
X116879Y40945D01*
X116859Y40906D01*
X116851Y40900D01*
X116851Y37500D01*
X116864Y37482D01*
X116861Y37470D01*
X117161Y37070D01*
X117177Y37066D01*
X117179Y37055D01*
X118474Y36458D01*
X118951Y36076D01*
X118951Y35509D01*
X118659Y34730D01*
X118183Y34349D01*
X117610Y34349D01*
G37*
%LPD*%
%LPC*%
G36*
X91917Y86539D02*
X91917Y86539D01*
X91446Y86916D01*
X91349Y87593D01*
X91349Y89890D01*
X91337Y89906D01*
X91335Y89925D01*
X91324Y89923D01*
X91313Y89937D01*
X91288Y89918D01*
X91257Y89914D01*
X90758Y89016D01*
X90361Y88420D01*
X89865Y87825D01*
X89374Y87433D01*
X88682Y87136D01*
X88092Y86939D01*
X86708Y86939D01*
X86122Y87135D01*
X85529Y87530D01*
X85033Y87927D01*
X84541Y88419D01*
X84246Y89009D01*
X84049Y89598D01*
X84049Y90983D01*
X84090Y91126D01*
X84104Y91176D01*
X84146Y91323D01*
X84147Y91323D01*
X84146Y91323D01*
X84189Y91471D01*
X84203Y91520D01*
X84245Y91668D01*
X84246Y91672D01*
X84542Y92263D01*
X84934Y92753D01*
X85525Y93147D01*
X86712Y93741D01*
X88084Y93741D01*
X88454Y93463D01*
X88550Y92690D01*
X88454Y92013D01*
X88077Y91636D01*
X87393Y91539D01*
X87392Y91538D01*
X87392Y91539D01*
X86792Y91439D01*
X86775Y91421D01*
X86762Y91422D01*
X86262Y90822D01*
X86262Y90812D01*
X86257Y90808D01*
X86261Y90802D01*
X86261Y90798D01*
X86251Y90790D01*
X86251Y90090D01*
X86260Y90077D01*
X86256Y90068D01*
X86556Y89468D01*
X86573Y89459D01*
X86575Y89448D01*
X87075Y89148D01*
X87093Y89150D01*
X87100Y89141D01*
X87700Y89141D01*
X87716Y89153D01*
X87727Y89149D01*
X88327Y89549D01*
X88328Y89552D01*
X88331Y89552D01*
X88831Y89952D01*
X88833Y89962D01*
X88841Y89963D01*
X89241Y90563D01*
X89241Y90564D01*
X89242Y90564D01*
X90340Y92362D01*
X90737Y92857D01*
X91229Y93349D01*
X91815Y93643D01*
X92401Y93740D01*
X93074Y93644D01*
X93453Y93170D01*
X93551Y92487D01*
X93551Y87104D01*
X93270Y86635D01*
X92597Y86539D01*
X91917Y86539D01*
G37*
%LPD*%
%LPC*%
G36*
X142743Y34475D02*
X142743Y34475D01*
X142735Y34534D01*
X142724Y34533D01*
X142721Y34544D01*
X135429Y38041D01*
X134946Y38524D01*
X134850Y39097D01*
X134892Y39243D01*
X134906Y39293D01*
X134948Y39440D01*
X134949Y39440D01*
X134948Y39440D01*
X134991Y39588D01*
X135005Y39637D01*
X135042Y39769D01*
X135624Y40157D01*
X142220Y43355D01*
X142914Y43652D01*
X143486Y43748D01*
X143962Y43367D01*
X144351Y42687D01*
X144351Y42120D01*
X143971Y41741D01*
X142679Y41145D01*
X142673Y41134D01*
X142665Y41135D01*
X142265Y40735D01*
X142262Y40708D01*
X142251Y40700D01*
X142251Y37300D01*
X142276Y37267D01*
X142278Y37256D01*
X144063Y36363D01*
X144349Y35792D01*
X144253Y35217D01*
X143866Y34539D01*
X143395Y34351D01*
X142808Y34449D01*
X142768Y34428D01*
X142759Y34427D01*
X142338Y33782D01*
X142743Y34475D01*
G37*
%LPD*%
%LPC*%
G36*
X91720Y34645D02*
X91720Y34645D01*
X85022Y37844D01*
X84434Y38138D01*
X84049Y38715D01*
X84049Y39285D01*
X84435Y39863D01*
X84924Y40157D01*
X91620Y43455D01*
X92305Y43749D01*
X92776Y43655D01*
X93258Y43172D01*
X93549Y42494D01*
X93455Y41929D01*
X92877Y41544D01*
X91681Y41045D01*
X91666Y41020D01*
X91653Y41016D01*
X91453Y40416D01*
X91457Y40405D01*
X91451Y40400D01*
X91451Y37700D01*
X91459Y37689D01*
X91454Y37682D01*
X91654Y37182D01*
X91676Y37169D01*
X91678Y37156D01*
X92873Y36558D01*
X93358Y36171D01*
X93548Y35599D01*
X93540Y35570D01*
X93526Y35521D01*
X93484Y35373D01*
X93442Y35226D01*
X93428Y35176D01*
X93386Y35029D01*
X93356Y34926D01*
X92876Y34445D01*
X92405Y34351D01*
X91720Y34645D01*
G37*
%LPD*%
%LPC*%
G36*
X167920Y33375D02*
X167920Y33375D01*
X161222Y36574D01*
X160632Y36869D01*
X160249Y37347D01*
X160249Y38018D01*
X160537Y38593D01*
X161122Y38886D01*
X167820Y42185D01*
X168510Y42481D01*
X168980Y42481D01*
X169465Y41995D01*
X169490Y41992D01*
X169494Y41987D01*
X169510Y41987D01*
X169483Y41976D01*
X169451Y41926D01*
X169460Y41920D01*
X169455Y41911D01*
X169749Y41225D01*
X169655Y40757D01*
X169174Y40372D01*
X167879Y39775D01*
X167867Y39752D01*
X167854Y39748D01*
X167654Y39248D01*
X167655Y39244D01*
X167653Y39242D01*
X167658Y39235D01*
X167651Y39230D01*
X167651Y36430D01*
X167655Y36424D01*
X167652Y36420D01*
X167752Y35920D01*
X167777Y35898D01*
X167779Y35885D01*
X169074Y35288D01*
X169558Y34901D01*
X169748Y34329D01*
X169745Y34317D01*
X169703Y34169D01*
X169689Y34120D01*
X169647Y33972D01*
X169604Y33824D01*
X169590Y33775D01*
X169556Y33656D01*
X169076Y33175D01*
X168605Y33081D01*
X167920Y33375D01*
G37*
%LPD*%
%LPC*%
G36*
X244829Y34340D02*
X244829Y34340D01*
X244819Y34337D01*
X244816Y34347D01*
X244219Y34546D01*
X237522Y37844D01*
X237520Y37844D01*
X237519Y37845D01*
X236833Y38140D01*
X236449Y38715D01*
X236449Y39285D01*
X236835Y39863D01*
X237324Y40157D01*
X244020Y43455D01*
X244710Y43751D01*
X245180Y43751D01*
X245665Y43265D01*
X245709Y43259D01*
X245711Y43258D01*
X245681Y43245D01*
X245668Y43222D01*
X245653Y43212D01*
X245658Y43206D01*
X245651Y43194D01*
X245660Y43189D01*
X245655Y43181D01*
X245949Y42495D01*
X245855Y42027D01*
X245374Y41642D01*
X244079Y41045D01*
X244067Y41022D01*
X244054Y41018D01*
X243854Y40518D01*
X243858Y40507D01*
X243853Y40503D01*
X243853Y40502D01*
X243851Y40500D01*
X243851Y37800D01*
X243854Y37795D01*
X243851Y37792D01*
X243951Y37192D01*
X243976Y37169D01*
X243978Y37156D01*
X245178Y36556D01*
X245760Y36265D01*
X245948Y35699D01*
X245942Y35676D01*
X245900Y35529D01*
X245886Y35479D01*
X245844Y35332D01*
X245801Y35184D01*
X245787Y35135D01*
X245756Y35024D01*
X245272Y34444D01*
X244888Y34348D01*
X244868Y34322D01*
X244855Y34319D01*
X244843Y34292D01*
X244829Y34340D01*
G37*
%LPD*%
%LPC*%
G36*
X193615Y33177D02*
X193615Y33177D01*
X186322Y36774D01*
X186306Y36771D01*
X186300Y36779D01*
X186220Y36779D01*
X185746Y37254D01*
X185651Y37826D01*
X185842Y38401D01*
X186327Y38788D01*
X193020Y42085D01*
X193714Y42382D01*
X194287Y42478D01*
X194661Y42198D01*
X195053Y41415D01*
X195147Y40847D01*
X194771Y40471D01*
X193479Y39875D01*
X193473Y39864D01*
X193465Y39865D01*
X193065Y39465D01*
X193062Y39441D01*
X193053Y39434D01*
X193054Y39432D01*
X193051Y39430D01*
X193051Y36030D01*
X193073Y36000D01*
X193075Y35988D01*
X193575Y35688D01*
X193579Y35688D01*
X193579Y35685D01*
X194866Y35092D01*
X195148Y34620D01*
X195053Y34045D01*
X194664Y33269D01*
X194195Y33081D01*
X193615Y33177D01*
G37*
%LPD*%
%LPC*%
G36*
X41219Y25286D02*
X41219Y25286D01*
X33829Y28781D01*
X33346Y29264D01*
X33251Y29836D01*
X33442Y30411D01*
X33927Y30798D01*
X40620Y34095D01*
X41315Y34393D01*
X41791Y34488D01*
X42264Y34204D01*
X42653Y33523D01*
X42748Y32954D01*
X42368Y32479D01*
X41178Y31884D01*
X41175Y31877D01*
X41169Y31878D01*
X40669Y31478D01*
X40662Y31448D01*
X40651Y31440D01*
X40651Y28040D01*
X40673Y28010D01*
X40675Y27998D01*
X41175Y27698D01*
X41179Y27698D01*
X41179Y27695D01*
X42466Y27102D01*
X42748Y26630D01*
X42653Y26057D01*
X42257Y25364D01*
X42262Y25330D01*
X42256Y25318D01*
X42274Y25283D01*
X41798Y25092D01*
X41219Y25286D01*
G37*
%LPD*%
G36*
X161049Y58758D02*
X161049Y58758D01*
X161056Y58753D01*
X161656Y58953D01*
X161661Y58961D01*
X161667Y58959D01*
X162867Y59759D01*
X162870Y59766D01*
X162875Y59765D01*
X163275Y60165D01*
X163277Y60178D01*
X163285Y60181D01*
X163585Y60881D01*
X163580Y60901D01*
X163583Y60904D01*
X163584Y60904D01*
X163584Y60905D01*
X163588Y60910D01*
X163488Y61410D01*
X163475Y61421D01*
X163478Y61432D01*
X162978Y62032D01*
X162954Y62037D01*
X162948Y62049D01*
X162348Y62149D01*
X162344Y62146D01*
X162342Y62149D01*
X162339Y62149D01*
X162329Y62141D01*
X162322Y62146D01*
X161822Y61946D01*
X161816Y61936D01*
X161808Y61938D01*
X161210Y61439D01*
X160622Y61047D01*
X159947Y60951D01*
X159274Y61239D01*
X158994Y61706D01*
X159180Y62265D01*
X159755Y62553D01*
X160348Y62651D01*
X160351Y62655D01*
X160354Y62653D01*
X161054Y62853D01*
X161056Y62856D01*
X161059Y62855D01*
X161759Y63155D01*
X161761Y63157D01*
X161762Y63156D01*
X162362Y63456D01*
X162367Y63466D01*
X162375Y63465D01*
X162775Y63865D01*
X162775Y63869D01*
X162778Y63869D01*
X163178Y64369D01*
X163179Y64383D01*
X163187Y64386D01*
X163192Y64401D01*
X163234Y64549D01*
X163248Y64598D01*
X163290Y64746D01*
X163332Y64894D01*
X163346Y64943D01*
X163387Y65086D01*
X163386Y65089D01*
X163388Y65091D01*
X163387Y65092D01*
X163389Y65093D01*
X163489Y65793D01*
X163483Y65803D01*
X163489Y65808D01*
X163389Y66408D01*
X163384Y66412D01*
X163387Y66416D01*
X163187Y67016D01*
X163179Y67021D01*
X163181Y67027D01*
X162781Y67627D01*
X162771Y67631D01*
X162771Y67638D01*
X162271Y68038D01*
X162263Y68039D01*
X162262Y68044D01*
X161662Y68344D01*
X161657Y68343D01*
X161656Y68347D01*
X161056Y68547D01*
X161049Y68545D01*
X161047Y68549D01*
X160347Y68649D01*
X160339Y68644D01*
X160334Y68649D01*
X159534Y68549D01*
X159533Y68548D01*
X159532Y68549D01*
X158932Y68449D01*
X158929Y68445D01*
X158926Y68447D01*
X158226Y68247D01*
X158218Y68236D01*
X158209Y68238D01*
X157709Y67838D01*
X157708Y67834D01*
X157705Y67835D01*
X157205Y67335D01*
X157202Y67308D01*
X157191Y67300D01*
X157191Y66800D01*
X157204Y66783D01*
X157200Y66771D01*
X157700Y66071D01*
X157714Y66067D01*
X157715Y66058D01*
X158215Y65758D01*
X158233Y65760D01*
X158240Y65751D01*
X158840Y65751D01*
X158859Y65765D01*
X158872Y65762D01*
X159464Y66256D01*
X160045Y66450D01*
X160714Y66354D01*
X161085Y65890D01*
X160898Y65329D01*
X160418Y64946D01*
X159030Y64648D01*
X159027Y64645D01*
X159024Y64647D01*
X158424Y64447D01*
X158421Y64442D01*
X158418Y64444D01*
X157818Y64144D01*
X157815Y64137D01*
X157809Y64138D01*
X157309Y63738D01*
X157307Y63731D01*
X157302Y63731D01*
X156902Y63231D01*
X156901Y63218D01*
X156893Y63216D01*
X156693Y62616D01*
X156696Y62609D01*
X156691Y62606D01*
X156591Y61806D01*
X156596Y61798D01*
X156591Y61793D01*
X156691Y61093D01*
X156696Y61088D01*
X156693Y61084D01*
X156893Y60484D01*
X156901Y60479D01*
X156899Y60473D01*
X157299Y59873D01*
X157309Y59869D01*
X157309Y59862D01*
X157809Y59462D01*
X157814Y59461D01*
X157815Y59458D01*
X158315Y59158D01*
X158320Y59158D01*
X158321Y59155D01*
X159021Y58855D01*
X159029Y58857D01*
X159032Y58851D01*
X159632Y58751D01*
X159637Y58754D01*
X159640Y58751D01*
X161040Y58751D01*
X161049Y58758D01*
G37*
%LPC*%
G36*
X192103Y24279D02*
X192103Y24279D01*
X191415Y24378D01*
X190829Y24671D01*
X190337Y25163D01*
X189942Y25657D01*
X189646Y26249D01*
X189449Y26838D01*
X189449Y27523D01*
X189468Y27588D01*
X189482Y27637D01*
X189524Y27785D01*
X189566Y27932D01*
X189580Y27982D01*
X189622Y28129D01*
X189623Y28129D01*
X189622Y28129D01*
X189647Y28216D01*
X189645Y28223D01*
X189649Y28229D01*
X189640Y28236D01*
X189626Y28272D01*
X189605Y28264D01*
X189588Y28278D01*
X189188Y28178D01*
X189180Y28168D01*
X189173Y28171D01*
X188573Y27771D01*
X188568Y27758D01*
X188559Y27757D01*
X188159Y27157D01*
X188160Y27146D01*
X188153Y27144D01*
X188118Y27023D01*
X188104Y26974D01*
X188062Y26826D01*
X188020Y26679D01*
X188006Y26629D01*
X187964Y26482D01*
X187953Y26444D01*
X187954Y26440D01*
X187951Y26438D01*
X187851Y25838D01*
X187852Y25837D01*
X187851Y25836D01*
X187753Y25049D01*
X187471Y24673D01*
X186797Y24480D01*
X186123Y24576D01*
X185746Y24953D01*
X185649Y25633D01*
X185649Y26327D01*
X185748Y27020D01*
X185756Y27046D01*
X185798Y27194D01*
X185840Y27341D01*
X185854Y27391D01*
X185896Y27538D01*
X185897Y27538D01*
X185896Y27538D01*
X185939Y27686D01*
X185946Y27710D01*
X186242Y28204D01*
X186638Y28799D01*
X187529Y29689D01*
X188122Y29986D01*
X188123Y29989D01*
X188125Y29988D01*
X188620Y30284D01*
X189314Y30483D01*
X189315Y30484D01*
X189316Y30483D01*
X189911Y30682D01*
X190603Y30781D01*
X192093Y30781D01*
X192785Y30583D01*
X193379Y30385D01*
X193872Y30090D01*
X194365Y29695D01*
X194758Y29203D01*
X195052Y28615D01*
X195151Y27927D01*
X195151Y27233D01*
X195052Y26541D01*
X194855Y25952D01*
X194460Y25359D01*
X194068Y24869D01*
X192888Y24279D01*
X192103Y24279D01*
G37*
%LPD*%
%LPC*%
G36*
X192103Y87239D02*
X192103Y87239D01*
X191415Y87338D01*
X190829Y87631D01*
X190337Y88123D01*
X189942Y88617D01*
X189646Y89208D01*
X189449Y89897D01*
X189449Y90483D01*
X189467Y90546D01*
X189481Y90595D01*
X189523Y90743D01*
X189524Y90743D01*
X189523Y90743D01*
X189566Y90891D01*
X189580Y90940D01*
X189622Y91088D01*
X189647Y91176D01*
X189645Y91183D01*
X189649Y91189D01*
X189640Y91196D01*
X189626Y91232D01*
X189605Y91224D01*
X189588Y91238D01*
X189188Y91138D01*
X189180Y91128D01*
X189173Y91131D01*
X188573Y90731D01*
X188568Y90718D01*
X188559Y90717D01*
X188159Y90117D01*
X188160Y90108D01*
X188153Y90106D01*
X187953Y89506D01*
X187955Y89499D01*
X187951Y89497D01*
X187753Y88107D01*
X187470Y87635D01*
X186797Y87539D01*
X186120Y87539D01*
X185746Y87913D01*
X185649Y88593D01*
X185649Y89386D01*
X185748Y89979D01*
X185755Y90004D01*
X185797Y90152D01*
X185798Y90152D01*
X185797Y90152D01*
X185840Y90300D01*
X185854Y90349D01*
X185896Y90497D01*
X185938Y90644D01*
X185946Y90672D01*
X186242Y91263D01*
X186638Y91759D01*
X187035Y92255D01*
X187527Y92648D01*
X188122Y92946D01*
X188123Y92949D01*
X188125Y92948D01*
X188620Y93244D01*
X189314Y93443D01*
X189315Y93444D01*
X189316Y93443D01*
X189911Y93642D01*
X190603Y93741D01*
X192097Y93741D01*
X192785Y93642D01*
X193377Y93347D01*
X193872Y93050D01*
X194365Y92655D01*
X194758Y92163D01*
X195053Y91575D01*
X195151Y90986D01*
X195151Y90193D01*
X195052Y89501D01*
X194856Y88914D01*
X194462Y88421D01*
X194066Y87927D01*
X193478Y87535D01*
X192889Y87338D01*
X192197Y87239D01*
X192103Y87239D01*
G37*
%LPD*%
%LPC*%
G36*
X115215Y86738D02*
X115215Y86738D01*
X114629Y87031D01*
X114135Y87525D01*
X114116Y87527D01*
X114112Y87538D01*
X113712Y87638D01*
X113672Y87621D01*
X113662Y87621D01*
X113268Y87129D01*
X112688Y86839D01*
X112003Y86839D01*
X111315Y86938D01*
X110729Y87231D01*
X110235Y87725D01*
X110233Y87725D01*
X110233Y87727D01*
X109249Y88612D01*
X109249Y90486D01*
X109348Y91076D01*
X109644Y91768D01*
X109940Y92262D01*
X110334Y92753D01*
X110921Y93145D01*
X111602Y93339D01*
X112073Y93245D01*
X112554Y92669D01*
X112649Y92094D01*
X112459Y91522D01*
X111873Y91131D01*
X111869Y91121D01*
X111862Y91121D01*
X111462Y90621D01*
X111461Y90614D01*
X111460Y90613D01*
X111461Y90611D01*
X111461Y90598D01*
X111451Y90590D01*
X111451Y89890D01*
X111460Y89877D01*
X111456Y89868D01*
X111756Y89268D01*
X111780Y89256D01*
X111784Y89243D01*
X112384Y89043D01*
X112441Y89062D01*
X112440Y89064D01*
X112442Y89065D01*
X112742Y89565D01*
X112741Y89579D01*
X112749Y89584D01*
X112849Y90383D01*
X112944Y90953D01*
X113508Y91141D01*
X114384Y91141D01*
X114759Y90859D01*
X114952Y90378D01*
X115051Y89584D01*
X115064Y89570D01*
X115062Y89559D01*
X115462Y89059D01*
X115481Y89054D01*
X115484Y89043D01*
X116084Y88843D01*
X116118Y88855D01*
X116131Y88852D01*
X116631Y89252D01*
X116636Y89271D01*
X116647Y89274D01*
X116847Y89874D01*
X116843Y89885D01*
X116849Y89890D01*
X116849Y90590D01*
X116841Y90601D01*
X116845Y90609D01*
X116545Y91309D01*
X116523Y91322D01*
X116519Y91335D01*
X115825Y91633D01*
X115446Y91917D01*
X115350Y92687D01*
X115544Y93461D01*
X115916Y93741D01*
X116492Y93741D01*
X117080Y93545D01*
X117770Y93151D01*
X118162Y92759D01*
X118555Y92168D01*
X118753Y91574D01*
X118951Y90982D01*
X118951Y89498D01*
X118753Y88906D01*
X118555Y88312D01*
X118162Y87721D01*
X117670Y87229D01*
X117179Y86935D01*
X116589Y86738D01*
X115900Y86640D01*
X115215Y86738D01*
G37*
%LPD*%
%LPC*%
G36*
X115903Y24949D02*
X115903Y24949D01*
X115215Y25048D01*
X114629Y25341D01*
X114135Y25835D01*
X114116Y25837D01*
X114112Y25848D01*
X113712Y25948D01*
X113672Y25931D01*
X113662Y25931D01*
X113268Y25439D01*
X112688Y25149D01*
X112003Y25149D01*
X111315Y25248D01*
X110727Y25542D01*
X110233Y25937D01*
X109249Y26920D01*
X109249Y28697D01*
X109348Y29387D01*
X109644Y30078D01*
X109940Y30572D01*
X110334Y31063D01*
X110921Y31455D01*
X111597Y31648D01*
X112070Y31459D01*
X112554Y30879D01*
X112649Y30305D01*
X112460Y29833D01*
X111873Y29441D01*
X111868Y29428D01*
X111859Y29427D01*
X111459Y28827D01*
X111460Y28807D01*
X111451Y28800D01*
X111451Y28100D01*
X111460Y28087D01*
X111456Y28078D01*
X111756Y27478D01*
X111786Y27463D01*
X111792Y27451D01*
X112392Y27351D01*
X112428Y27370D01*
X112439Y27370D01*
X112739Y27770D01*
X112739Y27789D01*
X112749Y27795D01*
X112849Y28692D01*
X112944Y29167D01*
X113512Y29451D01*
X114384Y29451D01*
X114758Y29170D01*
X114952Y28589D01*
X115051Y27893D01*
X115062Y27882D01*
X115059Y27873D01*
X115459Y27273D01*
X115486Y27263D01*
X115492Y27251D01*
X116092Y27151D01*
X116118Y27165D01*
X116131Y27162D01*
X116631Y27562D01*
X116636Y27581D01*
X116647Y27584D01*
X116847Y28184D01*
X116843Y28195D01*
X116849Y28200D01*
X116849Y28900D01*
X116841Y28911D01*
X116845Y28919D01*
X116545Y29619D01*
X116523Y29632D01*
X116519Y29645D01*
X115825Y29943D01*
X115446Y30227D01*
X115350Y30996D01*
X115356Y31016D01*
X115370Y31065D01*
X115412Y31213D01*
X115454Y31360D01*
X115468Y31410D01*
X115510Y31557D01*
X115511Y31557D01*
X115510Y31557D01*
X115544Y31674D01*
X115920Y32051D01*
X116492Y32051D01*
X117084Y31853D01*
X117141Y31872D01*
X117137Y31884D01*
X117148Y31890D01*
X117152Y31907D01*
X117172Y31869D01*
X117173Y31859D01*
X117766Y31463D01*
X118162Y30969D01*
X118556Y30476D01*
X118753Y29885D01*
X118951Y29193D01*
X118951Y27807D01*
X118918Y27693D01*
X118904Y27644D01*
X118862Y27496D01*
X118820Y27349D01*
X118806Y27299D01*
X118764Y27152D01*
X118753Y27115D01*
X118556Y26524D01*
X118163Y26033D01*
X117667Y25537D01*
X117176Y25144D01*
X116592Y24949D01*
X115903Y24949D01*
G37*
%LPD*%
%LPC*%
G36*
X166404Y24679D02*
X166404Y24679D01*
X165811Y24778D01*
X165120Y24976D01*
X164631Y25269D01*
X164138Y25761D01*
X163743Y26355D01*
X163448Y26945D01*
X163349Y27633D01*
X163349Y28230D01*
X163313Y28277D01*
X163303Y28270D01*
X163294Y28279D01*
X162494Y28179D01*
X162459Y28145D01*
X162452Y28142D01*
X162352Y27742D01*
X162356Y27734D01*
X162351Y27730D01*
X162351Y25638D01*
X162161Y25069D01*
X161592Y24879D01*
X160714Y24879D01*
X160245Y25161D01*
X160149Y25734D01*
X160149Y29413D01*
X160534Y29893D01*
X161118Y30283D01*
X165191Y30779D01*
X165565Y30593D01*
X165955Y29910D01*
X166148Y29330D01*
X165954Y28749D01*
X165656Y28152D01*
X165659Y28136D01*
X165651Y28130D01*
X165651Y27430D01*
X165667Y27409D01*
X165665Y27395D01*
X166165Y26895D01*
X166192Y26892D01*
X166200Y26881D01*
X166900Y26881D01*
X166918Y26895D01*
X166931Y26892D01*
X167431Y27292D01*
X167437Y27317D01*
X167449Y27323D01*
X167549Y28023D01*
X167544Y28032D01*
X167549Y28037D01*
X167449Y28737D01*
X167433Y28752D01*
X167435Y28765D01*
X166946Y29254D01*
X166852Y29820D01*
X167138Y30298D01*
X167818Y30881D01*
X168285Y30881D01*
X168865Y30495D01*
X169258Y29904D01*
X169554Y29410D01*
X169751Y28723D01*
X169751Y27338D01*
X169554Y26749D01*
X169258Y26157D01*
X168863Y25663D01*
X168371Y25171D01*
X167782Y24876D01*
X167093Y24679D01*
X166404Y24679D01*
G37*
%LPD*%
%LPC*%
G36*
X165811Y87738D02*
X165811Y87738D01*
X165123Y87935D01*
X164633Y88327D01*
X164138Y88821D01*
X163743Y89415D01*
X163447Y90005D01*
X163349Y90594D01*
X163349Y91290D01*
X163313Y91337D01*
X163303Y91330D01*
X163294Y91339D01*
X162494Y91239D01*
X162456Y91202D01*
X162452Y91200D01*
X162352Y90700D01*
X162355Y90693D01*
X162351Y90690D01*
X162351Y88599D01*
X162161Y88126D01*
X161591Y87841D01*
X160712Y87938D01*
X160244Y88125D01*
X160149Y88694D01*
X160149Y92375D01*
X160534Y92952D01*
X161114Y93242D01*
X165191Y93739D01*
X165565Y93553D01*
X165955Y92870D01*
X166148Y92290D01*
X165954Y91709D01*
X165656Y91112D01*
X165660Y91092D01*
X165651Y91083D01*
X165751Y90383D01*
X165767Y90368D01*
X165765Y90355D01*
X166165Y89955D01*
X166192Y89952D01*
X166200Y89941D01*
X166900Y89941D01*
X166915Y89952D01*
X166925Y89948D01*
X167425Y90248D01*
X167437Y90276D01*
X167449Y90283D01*
X167549Y90983D01*
X167544Y90992D01*
X167549Y90997D01*
X167449Y91697D01*
X167435Y91710D01*
X167438Y91722D01*
X166946Y92312D01*
X166852Y92783D01*
X167139Y93359D01*
X167732Y93852D01*
X167738Y93882D01*
X167749Y93890D01*
X167749Y93917D01*
X167751Y93887D01*
X167789Y93842D01*
X167795Y93847D01*
X167800Y93841D01*
X168285Y93841D01*
X168866Y93453D01*
X169258Y92963D01*
X169554Y92372D01*
X169751Y91683D01*
X169751Y90397D01*
X169718Y90282D01*
X169704Y90232D01*
X169662Y90085D01*
X169619Y89937D01*
X169605Y89888D01*
X169563Y89740D01*
X169554Y89708D01*
X169258Y89117D01*
X168865Y88625D01*
X168371Y88230D01*
X167782Y87837D01*
X167093Y87739D01*
X166401Y87640D01*
X165811Y87738D01*
G37*
%LPD*%
%LPC*%
G36*
X135907Y87039D02*
X135907Y87039D01*
X135232Y87232D01*
X134949Y87704D01*
X134949Y88486D01*
X135044Y89053D01*
X135608Y89241D01*
X139000Y89241D01*
X139005Y89244D01*
X139008Y89241D01*
X139608Y89341D01*
X139649Y89385D01*
X139646Y89388D01*
X139649Y89390D01*
X139649Y90790D01*
X139646Y90795D01*
X139649Y90798D01*
X139549Y91398D01*
X139505Y91439D01*
X139497Y91431D01*
X139488Y91438D01*
X136190Y90638D01*
X135614Y90542D01*
X135144Y90918D01*
X134949Y91696D01*
X134949Y92362D01*
X135423Y92647D01*
X136017Y92943D01*
X140009Y93842D01*
X140601Y93940D01*
X141270Y93845D01*
X141552Y93374D01*
X141651Y92587D01*
X141651Y89290D01*
X141687Y89243D01*
X141694Y89248D01*
X141700Y89241D01*
X143786Y89241D01*
X144255Y88960D01*
X144351Y88287D01*
X144351Y87607D01*
X143974Y87136D01*
X143297Y87039D01*
X135907Y87039D01*
G37*
%LPD*%
%LPC*%
G36*
X135903Y25349D02*
X135903Y25349D01*
X135233Y25445D01*
X134949Y26012D01*
X134949Y26697D01*
X135044Y27363D01*
X135608Y27551D01*
X139000Y27551D01*
X139005Y27554D01*
X139008Y27551D01*
X139608Y27651D01*
X139649Y27695D01*
X139646Y27698D01*
X139649Y27700D01*
X139649Y29100D01*
X139645Y29106D01*
X139648Y29110D01*
X139548Y29610D01*
X139504Y29649D01*
X139497Y29642D01*
X139490Y29648D01*
X136191Y28948D01*
X135614Y28852D01*
X135143Y29229D01*
X134949Y29907D01*
X134949Y30576D01*
X135424Y30956D01*
X136014Y31153D01*
X140006Y32151D01*
X140597Y32151D01*
X141273Y32054D01*
X141553Y31681D01*
X141651Y30897D01*
X141651Y27600D01*
X141687Y27553D01*
X141694Y27558D01*
X141700Y27551D01*
X143097Y27551D01*
X143783Y27453D01*
X144255Y27170D01*
X144351Y26596D01*
X144351Y25917D01*
X143974Y25446D01*
X143297Y25349D01*
X135903Y25349D01*
G37*
%LPD*%
%LPC*%
G36*
X33734Y36977D02*
X33734Y36977D01*
X33445Y37362D01*
X33253Y38035D01*
X33536Y38603D01*
X39621Y41395D01*
X39624Y41402D01*
X39632Y41403D01*
X39631Y41415D01*
X39649Y41448D01*
X39629Y41458D01*
X39627Y41481D01*
X39327Y41681D01*
X39321Y41681D01*
X39320Y41685D01*
X34025Y44083D01*
X33635Y44376D01*
X33255Y44850D01*
X33447Y45424D01*
X33428Y45481D01*
X33424Y45479D01*
X33423Y45484D01*
X33394Y45499D01*
X33397Y45499D01*
X33406Y45499D01*
X33409Y45502D01*
X33437Y45508D01*
X33436Y45512D01*
X33441Y45513D01*
X33833Y46100D01*
X34303Y46288D01*
X34982Y46094D01*
X42268Y42501D01*
X42653Y42020D01*
X42750Y41345D01*
X42558Y40769D01*
X42073Y40382D01*
X35378Y37084D01*
X34785Y36787D01*
X34210Y36692D01*
X33734Y36977D01*
G37*
%LPD*%
%LPC*%
G36*
X33734Y94127D02*
X33734Y94127D01*
X33445Y94512D01*
X33253Y95185D01*
X33536Y95753D01*
X39621Y98545D01*
X39624Y98552D01*
X39632Y98553D01*
X39631Y98565D01*
X39633Y98569D01*
X39645Y98578D01*
X39641Y98584D01*
X39649Y98598D01*
X39629Y98608D01*
X39627Y98631D01*
X39327Y98831D01*
X39321Y98831D01*
X39320Y98835D01*
X34025Y101233D01*
X33635Y101526D01*
X33255Y102000D01*
X33447Y102574D01*
X33428Y102631D01*
X33424Y102629D01*
X33423Y102634D01*
X33394Y102649D01*
X33437Y102658D01*
X33436Y102662D01*
X33441Y102663D01*
X33833Y103250D01*
X34303Y103438D01*
X34982Y103244D01*
X42268Y99651D01*
X42653Y99170D01*
X42750Y98495D01*
X42558Y97919D01*
X42073Y97532D01*
X35378Y94234D01*
X34785Y93937D01*
X34210Y93842D01*
X33734Y94127D01*
G37*
%LPD*%
G36*
X182058Y58765D02*
X182058Y58765D01*
X182071Y58762D01*
X182571Y59162D01*
X182575Y59177D01*
X182580Y59181D01*
X182577Y59185D01*
X182577Y59186D01*
X182589Y59192D01*
X182689Y59792D01*
X182686Y59797D01*
X182689Y59800D01*
X182689Y65988D01*
X182870Y66351D01*
X184940Y66351D01*
X184944Y66354D01*
X184947Y66351D01*
X185647Y66451D01*
X185662Y66467D01*
X185675Y66465D01*
X186075Y66865D01*
X186079Y66892D01*
X186089Y66900D01*
X186089Y67600D01*
X186080Y67613D01*
X186084Y67622D01*
X185784Y68222D01*
X185754Y68237D01*
X185748Y68249D01*
X185148Y68349D01*
X185143Y68346D01*
X185140Y68349D01*
X177540Y68349D01*
X177525Y68338D01*
X177515Y68342D01*
X177015Y68042D01*
X177003Y68014D01*
X176991Y68007D01*
X176891Y67307D01*
X176899Y67293D01*
X176893Y67284D01*
X177093Y66684D01*
X177113Y66671D01*
X177115Y66658D01*
X177615Y66358D01*
X177633Y66360D01*
X177640Y66351D01*
X179736Y66351D01*
X180291Y66258D01*
X180291Y60200D01*
X180294Y60196D01*
X180291Y60193D01*
X180391Y59493D01*
X180396Y59488D01*
X180393Y59484D01*
X180593Y58884D01*
X180628Y58861D01*
X180633Y58851D01*
X181333Y58751D01*
X181338Y58754D01*
X181340Y58751D01*
X182040Y58751D01*
X182058Y58765D01*
G37*
%LPC*%
G36*
X211717Y25447D02*
X211717Y25447D01*
X211246Y25730D01*
X211149Y26503D01*
X211149Y30897D01*
X211247Y31583D01*
X211530Y32055D01*
X212203Y32151D01*
X212880Y32151D01*
X213254Y31777D01*
X213351Y31097D01*
X213351Y28400D01*
X213372Y28372D01*
X213373Y28359D01*
X213673Y28159D01*
X213723Y28162D01*
X213729Y28160D01*
X214829Y28960D01*
X215425Y29357D01*
X216022Y29656D01*
X216024Y29660D01*
X216027Y29659D01*
X216625Y30057D01*
X217218Y30354D01*
X217914Y30553D01*
X217915Y30554D01*
X217916Y30553D01*
X218511Y30752D01*
X219203Y30851D01*
X219892Y30851D01*
X220456Y30663D01*
X220551Y30096D01*
X220551Y29308D01*
X220363Y28744D01*
X219693Y28649D01*
X219692Y28647D01*
X219690Y28648D01*
X219192Y28549D01*
X218592Y28449D01*
X218585Y28441D01*
X218578Y28444D01*
X217979Y28145D01*
X217281Y27845D01*
X217278Y27841D01*
X217274Y27842D01*
X215974Y27042D01*
X215974Y27041D01*
X215974Y27042D01*
X214876Y26343D01*
X214278Y26044D01*
X213680Y25745D01*
X212886Y25447D01*
X212399Y25350D01*
X211717Y25447D01*
G37*
%LPD*%
%LPC*%
G36*
X211717Y87139D02*
X211717Y87139D01*
X211246Y87516D01*
X211149Y88193D01*
X211149Y92687D01*
X211247Y93373D01*
X211530Y93845D01*
X212199Y93940D01*
X212792Y93841D01*
X212845Y93869D01*
X212842Y93874D01*
X212847Y93876D01*
X212852Y93892D01*
X212854Y93900D01*
X212867Y93867D01*
X212865Y93855D01*
X213254Y93467D01*
X213351Y92787D01*
X213351Y90090D01*
X213372Y90062D01*
X213373Y90049D01*
X213673Y89849D01*
X213723Y89852D01*
X213729Y89850D01*
X214829Y90650D01*
X216025Y91447D01*
X216622Y91746D01*
X217218Y92044D01*
X217914Y92243D01*
X217915Y92244D01*
X217916Y92243D01*
X218511Y92442D01*
X219203Y92541D01*
X219892Y92541D01*
X220456Y92353D01*
X220551Y91786D01*
X220551Y90999D01*
X220363Y90531D01*
X219693Y90339D01*
X219200Y90339D01*
X219191Y90332D01*
X219184Y90337D01*
X217984Y89937D01*
X217980Y89931D01*
X217976Y89933D01*
X217276Y89533D01*
X217275Y89532D01*
X217274Y89532D01*
X215974Y88732D01*
X215974Y88731D01*
X215974Y88732D01*
X214876Y88033D01*
X214278Y87734D01*
X213683Y87436D01*
X212889Y87238D01*
X212395Y87139D01*
X211717Y87139D01*
G37*
%LPD*%
G36*
X38451Y64094D02*
X38451Y64094D01*
X38460Y64090D01*
X39060Y64390D01*
X39069Y64408D01*
X39081Y64409D01*
X41781Y69109D01*
X41780Y69112D01*
X41782Y69112D01*
X42082Y69712D01*
X42079Y69728D01*
X42087Y69734D01*
X42087Y70334D01*
X42071Y70355D01*
X42073Y70369D01*
X41573Y70869D01*
X41560Y70871D01*
X41557Y70879D01*
X40857Y71179D01*
X40847Y71177D01*
X40836Y71177D01*
X40830Y71183D01*
X40230Y71083D01*
X40211Y71062D01*
X40197Y71061D01*
X39797Y70461D01*
X39797Y70457D01*
X39794Y70456D01*
X38308Y67483D01*
X38068Y67483D01*
X36582Y70456D01*
X36575Y70459D01*
X36576Y70465D01*
X36176Y70965D01*
X36157Y70970D01*
X36154Y70981D01*
X35554Y71181D01*
X35542Y71177D01*
X35523Y71177D01*
X35519Y71179D01*
X34819Y70879D01*
X34812Y70868D01*
X34803Y70869D01*
X34303Y70369D01*
X34302Y70357D01*
X34296Y70353D01*
X34299Y70348D01*
X34290Y70344D01*
X34190Y69844D01*
X34200Y69823D01*
X34194Y69812D01*
X34494Y69212D01*
X34496Y69211D01*
X34495Y69209D01*
X37195Y64509D01*
X37207Y64504D01*
X37207Y64496D01*
X37707Y64096D01*
X37730Y64095D01*
X37738Y64085D01*
X38438Y64085D01*
X38451Y64094D01*
G37*
G36*
X142142Y58756D02*
X142142Y58756D01*
X142147Y58751D01*
X142847Y58851D01*
X142865Y58870D01*
X142878Y58869D01*
X143278Y59369D01*
X143279Y59377D01*
X143280Y59378D01*
X143279Y59380D01*
X143279Y59392D01*
X143289Y59400D01*
X143289Y64085D01*
X143454Y64332D01*
X144013Y63959D01*
X144033Y63960D01*
X144040Y63951D01*
X144540Y63951D01*
X144559Y63965D01*
X144572Y63962D01*
X145172Y64462D01*
X145175Y64476D01*
X145184Y64478D01*
X145484Y65078D01*
X145482Y65087D01*
X145487Y65091D01*
X145480Y65099D01*
X145480Y65100D01*
X145488Y65110D01*
X145388Y65610D01*
X145375Y65621D01*
X145378Y65632D01*
X144878Y66232D01*
X144873Y66233D01*
X144874Y66236D01*
X143374Y67636D01*
X143371Y67636D01*
X143371Y67638D01*
X142871Y68038D01*
X142863Y68039D01*
X142862Y68044D01*
X142262Y68344D01*
X142246Y68341D01*
X142240Y68349D01*
X141540Y68349D01*
X141525Y68338D01*
X141515Y68342D01*
X141015Y68042D01*
X141004Y68014D01*
X140991Y68008D01*
X140891Y67408D01*
X140894Y67403D01*
X140891Y67400D01*
X140891Y59300D01*
X140907Y59279D01*
X140905Y59265D01*
X141305Y58865D01*
X141328Y58862D01*
X141334Y58851D01*
X142134Y58751D01*
X142142Y58756D01*
G37*
%LPC*%
G36*
X59703Y89439D02*
X59703Y89439D01*
X59030Y89535D01*
X58749Y90004D01*
X58749Y90678D01*
X59042Y91264D01*
X59338Y91658D01*
X61231Y93651D01*
X61706Y93936D01*
X62273Y93747D01*
X62855Y93166D01*
X62949Y92693D01*
X62753Y92106D01*
X62757Y92095D01*
X62751Y92090D01*
X62751Y91690D01*
X62787Y91643D01*
X62794Y91648D01*
X62800Y91641D01*
X67486Y91641D01*
X67959Y91357D01*
X68151Y90782D01*
X68151Y89910D01*
X67776Y89536D01*
X67196Y89439D01*
X59703Y89439D01*
G37*
%LPD*%
G36*
X267008Y36557D02*
X267008Y36557D01*
X267014Y36553D01*
X267714Y36753D01*
X267719Y36760D01*
X267725Y36758D01*
X268225Y37058D01*
X268229Y37066D01*
X268235Y37065D01*
X268735Y37565D01*
X268736Y37577D01*
X268744Y37578D01*
X269044Y38178D01*
X269042Y38189D01*
X269049Y38193D01*
X269149Y38893D01*
X269146Y38898D01*
X269149Y38900D01*
X269149Y39500D01*
X269140Y39513D01*
X269144Y39522D01*
X268844Y40122D01*
X268840Y40124D01*
X268841Y40127D01*
X268441Y40727D01*
X268434Y40730D01*
X268435Y40735D01*
X267935Y41235D01*
X267916Y41237D01*
X267912Y41248D01*
X267112Y41448D01*
X267104Y41444D01*
X267100Y41449D01*
X266400Y41449D01*
X266396Y41446D01*
X266393Y41449D01*
X265693Y41349D01*
X265685Y41341D01*
X265678Y41344D01*
X265078Y41044D01*
X265075Y41037D01*
X265069Y41038D01*
X264569Y40638D01*
X264567Y40628D01*
X264559Y40627D01*
X264159Y40027D01*
X264160Y40018D01*
X264153Y40016D01*
X263953Y39416D01*
X263957Y39405D01*
X263951Y39400D01*
X263951Y38700D01*
X263958Y38691D01*
X263953Y38684D01*
X264153Y38084D01*
X264161Y38079D01*
X264159Y38073D01*
X264559Y37473D01*
X264562Y37472D01*
X264562Y37469D01*
X264962Y36969D01*
X264976Y36966D01*
X264978Y36956D01*
X265578Y36656D01*
X265589Y36658D01*
X265593Y36651D01*
X266293Y36551D01*
X266298Y36554D01*
X266300Y36551D01*
X267000Y36551D01*
X267008Y36557D01*
G37*
G36*
X13407Y76441D02*
X13407Y76441D01*
X13415Y76449D01*
X13422Y76446D01*
X14022Y76746D01*
X14025Y76753D01*
X14031Y76752D01*
X14531Y77152D01*
X14532Y77156D01*
X14535Y77155D01*
X15035Y77655D01*
X15037Y77671D01*
X15047Y77674D01*
X15147Y77974D01*
X15143Y77985D01*
X15149Y77990D01*
X15149Y79990D01*
X15113Y80037D01*
X15110Y80035D01*
X15108Y80039D01*
X14508Y80139D01*
X14503Y80136D01*
X14500Y80139D01*
X10500Y80139D01*
X10474Y80120D01*
X10461Y80120D01*
X10161Y79720D01*
X10161Y79709D01*
X10153Y79703D01*
X10158Y79696D01*
X10151Y79690D01*
X10151Y78290D01*
X10160Y78277D01*
X10156Y78268D01*
X10456Y77668D01*
X10463Y77665D01*
X10462Y77659D01*
X10862Y77159D01*
X10869Y77157D01*
X10869Y77152D01*
X11369Y76752D01*
X11377Y76751D01*
X11378Y76746D01*
X11978Y76446D01*
X11989Y76448D01*
X11993Y76441D01*
X12693Y76341D01*
X12702Y76346D01*
X12707Y76341D01*
X13407Y76441D01*
G37*
G36*
X13407Y26911D02*
X13407Y26911D01*
X13415Y26919D01*
X13422Y26916D01*
X14022Y27216D01*
X14025Y27223D01*
X14031Y27222D01*
X14531Y27622D01*
X14532Y27626D01*
X14535Y27625D01*
X15035Y28125D01*
X15037Y28141D01*
X15047Y28144D01*
X15147Y28444D01*
X15143Y28455D01*
X15149Y28460D01*
X15149Y30460D01*
X15113Y30507D01*
X15110Y30505D01*
X15108Y30509D01*
X14508Y30609D01*
X14503Y30606D01*
X14500Y30609D01*
X10500Y30609D01*
X10474Y30590D01*
X10461Y30590D01*
X10161Y30190D01*
X10161Y30179D01*
X10153Y30173D01*
X10158Y30166D01*
X10151Y30160D01*
X10151Y28760D01*
X10160Y28747D01*
X10156Y28738D01*
X10456Y28138D01*
X10463Y28135D01*
X10462Y28129D01*
X10862Y27629D01*
X10869Y27627D01*
X10869Y27622D01*
X11369Y27222D01*
X11377Y27221D01*
X11378Y27216D01*
X11978Y26916D01*
X11989Y26918D01*
X11993Y26911D01*
X12693Y26811D01*
X12702Y26816D01*
X12707Y26811D01*
X13407Y26911D01*
G37*
G36*
X39506Y56911D02*
X39506Y56911D01*
X39514Y56905D01*
X40214Y57105D01*
X40231Y57127D01*
X40244Y57130D01*
X40544Y57730D01*
X40541Y57746D01*
X40549Y57752D01*
X40549Y61752D01*
X40540Y61765D01*
X40544Y61774D01*
X40244Y62374D01*
X40220Y62386D01*
X40216Y62399D01*
X39616Y62599D01*
X39600Y62594D01*
X39593Y62601D01*
X38893Y62501D01*
X38875Y62482D01*
X38862Y62483D01*
X38462Y61983D01*
X38461Y61960D01*
X38451Y61952D01*
X38451Y57552D01*
X38465Y57534D01*
X38462Y57521D01*
X38862Y57021D01*
X38886Y57015D01*
X38892Y57003D01*
X39492Y56903D01*
X39506Y56911D01*
G37*
G36*
X37115Y57014D02*
X37115Y57014D01*
X37125Y57010D01*
X37625Y57310D01*
X37633Y57329D01*
X37640Y57334D01*
X37637Y57338D01*
X37649Y57345D01*
X37749Y58045D01*
X37746Y58050D01*
X37749Y58052D01*
X37749Y61452D01*
X37746Y61456D01*
X37749Y61459D01*
X37649Y62159D01*
X37633Y62174D01*
X37635Y62187D01*
X37235Y62587D01*
X37208Y62591D01*
X37200Y62601D01*
X36400Y62601D01*
X36389Y62593D01*
X36382Y62598D01*
X35882Y62398D01*
X35865Y62370D01*
X35853Y62366D01*
X35816Y62237D01*
X35802Y62187D01*
X35760Y62040D01*
X35717Y61892D01*
X35703Y61843D01*
X35661Y61695D01*
X35653Y61666D01*
X35656Y61656D01*
X35651Y61652D01*
X35651Y57952D01*
X35657Y57944D01*
X35653Y57938D01*
X35853Y57238D01*
X35878Y57219D01*
X35882Y57206D01*
X36382Y57006D01*
X36395Y57010D01*
X36400Y57003D01*
X37100Y57003D01*
X37115Y57014D01*
G37*
G36*
X115909Y97948D02*
X115909Y97948D01*
X115916Y97943D01*
X116516Y98143D01*
X116534Y98170D01*
X116547Y98174D01*
X116747Y98774D01*
X116743Y98785D01*
X116749Y98790D01*
X116749Y100890D01*
X116713Y100937D01*
X116706Y100932D01*
X116700Y100939D01*
X112000Y100939D01*
X111962Y100910D01*
X111954Y100908D01*
X111754Y100408D01*
X111758Y100395D01*
X111751Y100390D01*
X111751Y99090D01*
X111754Y99086D01*
X111751Y99083D01*
X111851Y98383D01*
X111883Y98352D01*
X111886Y98343D01*
X112586Y98143D01*
X112613Y98153D01*
X112625Y98148D01*
X113125Y98448D01*
X113134Y98468D01*
X113135Y98469D01*
X113134Y98470D01*
X113137Y98476D01*
X113149Y98483D01*
X113248Y99179D01*
X113437Y99746D01*
X114099Y99840D01*
X114667Y99746D01*
X114951Y99178D01*
X114951Y98490D01*
X114965Y98472D01*
X114962Y98459D01*
X115362Y97959D01*
X115392Y97952D01*
X115400Y97941D01*
X115900Y97941D01*
X115909Y97948D01*
G37*
G36*
X65109Y97948D02*
X65109Y97948D01*
X65116Y97943D01*
X65716Y98143D01*
X65734Y98170D01*
X65747Y98174D01*
X65947Y98774D01*
X65943Y98785D01*
X65949Y98790D01*
X65949Y100790D01*
X65913Y100837D01*
X65910Y100835D01*
X65908Y100839D01*
X65308Y100939D01*
X65303Y100936D01*
X65300Y100939D01*
X61200Y100939D01*
X61162Y100910D01*
X61154Y100908D01*
X60954Y100408D01*
X60958Y100395D01*
X60951Y100390D01*
X60951Y99090D01*
X60954Y99086D01*
X60951Y99083D01*
X61051Y98383D01*
X61083Y98352D01*
X61086Y98343D01*
X61786Y98143D01*
X61807Y98151D01*
X61818Y98144D01*
X62318Y98344D01*
X62339Y98378D01*
X62349Y98384D01*
X62448Y99179D01*
X62637Y99746D01*
X63299Y99840D01*
X63867Y99746D01*
X64151Y99178D01*
X64151Y98490D01*
X64165Y98472D01*
X64162Y98459D01*
X64562Y97959D01*
X64592Y97952D01*
X64600Y97941D01*
X65100Y97941D01*
X65109Y97948D01*
G37*
G36*
X192521Y97957D02*
X192521Y97957D01*
X192535Y97955D01*
X192935Y98355D01*
X192936Y98367D01*
X192941Y98371D01*
X192938Y98376D01*
X192939Y98382D01*
X192949Y98390D01*
X192949Y100490D01*
X192940Y100503D01*
X192944Y100512D01*
X192744Y100912D01*
X192707Y100931D01*
X192700Y100939D01*
X188600Y100939D01*
X188595Y100936D01*
X188592Y100939D01*
X187992Y100839D01*
X187951Y100795D01*
X187954Y100793D01*
X187951Y100790D01*
X187951Y98690D01*
X187967Y98669D01*
X187965Y98655D01*
X188365Y98255D01*
X188387Y98252D01*
X188393Y98241D01*
X189093Y98141D01*
X189145Y98170D01*
X189143Y98173D01*
X189147Y98174D01*
X189347Y98774D01*
X189345Y98781D01*
X189349Y98783D01*
X189446Y99467D01*
X189820Y99841D01*
X190586Y99841D01*
X191055Y99560D01*
X191251Y98183D01*
X191281Y98154D01*
X191284Y98143D01*
X191884Y97943D01*
X191895Y97947D01*
X191900Y97941D01*
X192500Y97941D01*
X192521Y97957D01*
G37*
G36*
X141725Y97960D02*
X141725Y97960D01*
X141738Y97959D01*
X142138Y98459D01*
X142139Y98467D01*
X142141Y98469D01*
X142139Y98473D01*
X142139Y98482D01*
X142149Y98490D01*
X142149Y100490D01*
X142136Y100508D01*
X142139Y100520D01*
X141839Y100920D01*
X141808Y100929D01*
X141800Y100939D01*
X137800Y100939D01*
X137795Y100936D01*
X137792Y100939D01*
X137192Y100839D01*
X137151Y100795D01*
X137154Y100793D01*
X137151Y100790D01*
X137151Y98690D01*
X137167Y98669D01*
X137165Y98655D01*
X137565Y98255D01*
X137587Y98252D01*
X137593Y98241D01*
X138293Y98141D01*
X138345Y98170D01*
X138343Y98173D01*
X138347Y98174D01*
X138547Y98774D01*
X138545Y98781D01*
X138549Y98783D01*
X138646Y99467D01*
X139020Y99841D01*
X139786Y99841D01*
X140255Y99560D01*
X140451Y98183D01*
X140481Y98154D01*
X140484Y98143D01*
X141084Y97943D01*
X141095Y97947D01*
X141100Y97941D01*
X141700Y97941D01*
X141725Y97960D01*
G37*
G36*
X243430Y98063D02*
X243430Y98063D01*
X243442Y98065D01*
X243742Y98565D01*
X243742Y98568D01*
X243743Y98569D01*
X243742Y98571D01*
X243740Y98583D01*
X243749Y98590D01*
X243749Y100690D01*
X243724Y100723D01*
X243722Y100734D01*
X243322Y100934D01*
X243306Y100931D01*
X243300Y100939D01*
X239200Y100939D01*
X239182Y100926D01*
X239170Y100929D01*
X238770Y100629D01*
X238762Y100598D01*
X238751Y100590D01*
X238751Y99290D01*
X238754Y99286D01*
X238751Y99283D01*
X238851Y98583D01*
X238870Y98565D01*
X238869Y98552D01*
X239369Y98152D01*
X239398Y98151D01*
X239408Y98141D01*
X240008Y98241D01*
X240041Y98276D01*
X240048Y98280D01*
X240343Y99654D01*
X240806Y99840D01*
X241573Y99744D01*
X241853Y99371D01*
X241951Y98584D01*
X241958Y98577D01*
X241954Y98572D01*
X242154Y98072D01*
X242195Y98047D01*
X242200Y98041D01*
X243400Y98041D01*
X243430Y98063D01*
G37*
G36*
X40018Y86155D02*
X40018Y86155D01*
X40031Y86152D01*
X40531Y86552D01*
X40535Y86567D01*
X40540Y86571D01*
X40537Y86575D01*
X40538Y86582D01*
X40549Y86590D01*
X40549Y88590D01*
X40541Y88601D01*
X40546Y88608D01*
X40346Y89108D01*
X40305Y89133D01*
X40300Y89139D01*
X35600Y89139D01*
X35553Y89103D01*
X35558Y89096D01*
X35551Y89090D01*
X35551Y86990D01*
X35562Y86975D01*
X35558Y86965D01*
X35858Y86465D01*
X35892Y86451D01*
X35900Y86441D01*
X36600Y86441D01*
X36626Y86460D01*
X36639Y86460D01*
X36939Y86860D01*
X36939Y86866D01*
X36940Y86866D01*
X36939Y86866D01*
X36939Y86878D01*
X36949Y86884D01*
X37047Y87667D01*
X37420Y88041D01*
X38186Y88041D01*
X38655Y87760D01*
X38851Y86483D01*
X38873Y86461D01*
X38875Y86448D01*
X39375Y86148D01*
X39393Y86150D01*
X39400Y86141D01*
X40000Y86141D01*
X40018Y86155D01*
G37*
G36*
X91030Y98063D02*
X91030Y98063D01*
X91042Y98065D01*
X91342Y98565D01*
X91342Y98568D01*
X91343Y98569D01*
X91342Y98571D01*
X91340Y98583D01*
X91349Y98590D01*
X91349Y100690D01*
X91324Y100723D01*
X91322Y100734D01*
X90922Y100934D01*
X90906Y100931D01*
X90900Y100939D01*
X86800Y100939D01*
X86782Y100926D01*
X86770Y100929D01*
X86370Y100629D01*
X86362Y100598D01*
X86351Y100590D01*
X86351Y99290D01*
X86354Y99286D01*
X86351Y99283D01*
X86451Y98583D01*
X86470Y98565D01*
X86469Y98552D01*
X86969Y98152D01*
X86998Y98151D01*
X87008Y98141D01*
X87608Y98241D01*
X87641Y98276D01*
X87648Y98280D01*
X87943Y99654D01*
X88406Y99840D01*
X89173Y99744D01*
X89453Y99371D01*
X89551Y98584D01*
X89561Y98573D01*
X89558Y98565D01*
X89858Y98065D01*
X89892Y98051D01*
X89900Y98041D01*
X91000Y98041D01*
X91030Y98063D01*
G37*
G36*
X218109Y98142D02*
X218109Y98142D01*
X218136Y98171D01*
X218147Y98174D01*
X218347Y98774D01*
X218343Y98785D01*
X218349Y98790D01*
X218349Y100790D01*
X218313Y100837D01*
X218310Y100835D01*
X218308Y100839D01*
X217708Y100939D01*
X217703Y100936D01*
X217700Y100939D01*
X213700Y100939D01*
X213674Y100920D01*
X213661Y100920D01*
X213361Y100520D01*
X213361Y100498D01*
X213351Y100490D01*
X213351Y99090D01*
X213354Y99085D01*
X213351Y99082D01*
X213451Y98482D01*
X213476Y98459D01*
X213478Y98446D01*
X214078Y98146D01*
X214107Y98151D01*
X214118Y98144D01*
X214618Y98344D01*
X214635Y98373D01*
X214648Y98378D01*
X214847Y99175D01*
X215037Y99651D01*
X215605Y99840D01*
X216270Y99745D01*
X216551Y99276D01*
X216551Y98490D01*
X216565Y98472D01*
X216562Y98459D01*
X216962Y97959D01*
X217000Y97949D01*
X217009Y97942D01*
X218109Y98142D01*
G37*
G36*
X167230Y98063D02*
X167230Y98063D01*
X167242Y98065D01*
X167542Y98565D01*
X167542Y98568D01*
X167543Y98569D01*
X167542Y98571D01*
X167540Y98583D01*
X167549Y98590D01*
X167549Y100590D01*
X167530Y100616D01*
X167530Y100629D01*
X167130Y100929D01*
X167108Y100929D01*
X167100Y100939D01*
X163100Y100939D01*
X163089Y100931D01*
X163082Y100936D01*
X162582Y100736D01*
X162557Y100695D01*
X162551Y100690D01*
X162551Y99290D01*
X162554Y99286D01*
X162551Y99283D01*
X162651Y98583D01*
X162667Y98568D01*
X162665Y98555D01*
X163065Y98155D01*
X163097Y98151D01*
X163107Y98141D01*
X163807Y98241D01*
X163848Y98283D01*
X163849Y98283D01*
X163948Y98979D01*
X164141Y99557D01*
X164614Y99841D01*
X165372Y99841D01*
X165653Y99373D01*
X165751Y98683D01*
X165756Y98678D01*
X165753Y98674D01*
X165953Y98074D01*
X165997Y98044D01*
X166000Y98041D01*
X167200Y98041D01*
X167230Y98063D01*
G37*
%LPC*%
G36*
X135049Y61149D02*
X135049Y61149D01*
X134571Y61341D01*
X134282Y61726D01*
X133988Y62314D01*
X133889Y63203D01*
X133889Y64197D01*
X133989Y64994D01*
X133959Y65045D01*
X133954Y65042D01*
X133951Y65048D01*
X133933Y65052D01*
X133938Y65055D01*
X133941Y65055D01*
X133949Y65061D01*
X133984Y65078D01*
X133982Y65083D01*
X133987Y65084D01*
X134183Y65673D01*
X134569Y66059D01*
X134952Y66251D01*
X135426Y66251D01*
X135906Y65963D01*
X136195Y65578D01*
X136391Y64893D01*
X136391Y62903D01*
X136292Y62115D01*
X136001Y61532D01*
X135618Y61245D01*
X135234Y61149D01*
X135049Y61149D01*
G37*
%LPD*%
%LPC*%
G36*
X150852Y61149D02*
X150852Y61149D01*
X150469Y61341D01*
X150083Y61727D01*
X149888Y62311D01*
X149789Y63203D01*
X149789Y64197D01*
X149889Y64994D01*
X149859Y65045D01*
X149854Y65042D01*
X149851Y65048D01*
X149833Y65052D01*
X149838Y65055D01*
X149841Y65055D01*
X149849Y65061D01*
X149884Y65078D01*
X149882Y65083D01*
X149887Y65084D01*
X150084Y65677D01*
X150371Y66059D01*
X150849Y66251D01*
X151324Y66251D01*
X151705Y65965D01*
X151995Y65578D01*
X152191Y64891D01*
X152291Y63898D01*
X152291Y62906D01*
X152093Y62114D01*
X151898Y61530D01*
X151519Y61246D01*
X151035Y61149D01*
X150852Y61149D01*
G37*
%LPD*%
G36*
X243218Y89255D02*
X243218Y89255D01*
X243231Y89252D01*
X243731Y89652D01*
X243735Y89667D01*
X243740Y89671D01*
X243737Y89675D01*
X243737Y89677D01*
X243749Y89683D01*
X243849Y90383D01*
X243844Y90392D01*
X243849Y90397D01*
X243749Y91097D01*
X243728Y91117D01*
X243727Y91131D01*
X243127Y91531D01*
X243107Y91530D01*
X243100Y91539D01*
X242500Y91539D01*
X242479Y91523D01*
X242465Y91525D01*
X241965Y91025D01*
X241963Y91009D01*
X241953Y91006D01*
X241753Y90406D01*
X241759Y90388D01*
X241757Y90387D01*
X241759Y90385D01*
X241753Y90376D01*
X241953Y89676D01*
X241970Y89664D01*
X241969Y89652D01*
X242469Y89252D01*
X242492Y89251D01*
X242500Y89241D01*
X243200Y89241D01*
X243218Y89255D01*
G37*
G36*
X243207Y27551D02*
X243207Y27551D01*
X243220Y27564D01*
X243231Y27562D01*
X243731Y27962D01*
X243735Y27977D01*
X243738Y27979D01*
X243736Y27982D01*
X243737Y27987D01*
X243749Y27993D01*
X243849Y28693D01*
X243843Y28703D01*
X243849Y28708D01*
X243749Y29308D01*
X243731Y29325D01*
X243732Y29338D01*
X243132Y29838D01*
X243102Y29839D01*
X243092Y29849D01*
X242492Y29749D01*
X242480Y29736D01*
X242469Y29738D01*
X241969Y29338D01*
X241964Y29318D01*
X241953Y29314D01*
X241945Y29286D01*
X241931Y29237D01*
X241889Y29089D01*
X241846Y28942D01*
X241832Y28892D01*
X241790Y28745D01*
X241753Y28614D01*
X241759Y28597D01*
X241758Y28597D01*
X241760Y28594D01*
X241753Y28584D01*
X241953Y27984D01*
X241967Y27975D01*
X241965Y27965D01*
X242465Y27465D01*
X242497Y27461D01*
X242507Y27451D01*
X243207Y27551D01*
G37*
%LPC*%
G36*
X125848Y61049D02*
X125848Y61049D01*
X125275Y61240D01*
X124991Y61808D01*
X125086Y62376D01*
X125560Y62851D01*
X126232Y62851D01*
X126805Y62660D01*
X127089Y62092D01*
X126994Y61521D01*
X126616Y61049D01*
X125848Y61049D01*
G37*
%LPD*%
G36*
X192621Y26497D02*
X192621Y26497D01*
X192635Y26495D01*
X193035Y26895D01*
X193036Y26907D01*
X193041Y26911D01*
X193038Y26916D01*
X193039Y26922D01*
X193049Y26930D01*
X193049Y28230D01*
X193020Y28268D01*
X193018Y28276D01*
X192518Y28476D01*
X192501Y28471D01*
X192493Y28479D01*
X191793Y28379D01*
X191771Y28357D01*
X191758Y28355D01*
X191458Y27855D01*
X191460Y27837D01*
X191451Y27830D01*
X191451Y27030D01*
X191467Y27009D01*
X191465Y26995D01*
X191965Y26495D01*
X191992Y26492D01*
X192000Y26481D01*
X192600Y26481D01*
X192621Y26497D01*
G37*
G36*
X192621Y89457D02*
X192621Y89457D01*
X192635Y89455D01*
X193035Y89855D01*
X193036Y89867D01*
X193041Y89871D01*
X193038Y89876D01*
X193039Y89882D01*
X193049Y89890D01*
X193049Y91190D01*
X193020Y91228D01*
X193018Y91236D01*
X192518Y91436D01*
X192501Y91431D01*
X192493Y91439D01*
X191793Y91339D01*
X191771Y91317D01*
X191758Y91315D01*
X191458Y90815D01*
X191460Y90797D01*
X191451Y90790D01*
X191451Y90090D01*
X191465Y90072D01*
X191462Y90059D01*
X191862Y89559D01*
X191887Y89553D01*
X191893Y89541D01*
X192593Y89441D01*
X192621Y89457D01*
G37*
G36*
X239522Y89746D02*
X239522Y89746D01*
X239533Y89768D01*
X239537Y89771D01*
X239547Y89774D01*
X239747Y90374D01*
X239740Y90395D01*
X239747Y90406D01*
X239547Y91006D01*
X239525Y91021D01*
X239522Y91034D01*
X238922Y91334D01*
X238879Y91326D01*
X238869Y91328D01*
X238369Y90928D01*
X238363Y90903D01*
X238351Y90897D01*
X238251Y90197D01*
X238263Y90175D01*
X238259Y90163D01*
X238659Y89563D01*
X238676Y89557D01*
X238678Y89546D01*
X238878Y89446D01*
X238910Y89452D01*
X238922Y89446D01*
X239522Y89746D01*
G37*
G36*
X239516Y27953D02*
X239516Y27953D01*
X239534Y27981D01*
X239537Y27982D01*
X239547Y27986D01*
X239575Y28082D01*
X239589Y28131D01*
X239631Y28279D01*
X239673Y28427D01*
X239687Y28476D01*
X239729Y28624D01*
X239730Y28624D01*
X239729Y28624D01*
X239747Y28686D01*
X239740Y28706D01*
X239747Y28716D01*
X239547Y29316D01*
X239520Y29334D01*
X239516Y29347D01*
X238916Y29547D01*
X238882Y29535D01*
X238869Y29538D01*
X238369Y29138D01*
X238363Y29113D01*
X238351Y29107D01*
X238251Y28407D01*
X238265Y28382D01*
X238262Y28369D01*
X238662Y27869D01*
X238676Y27866D01*
X238678Y27856D01*
X238878Y27756D01*
X238904Y27761D01*
X238916Y27753D01*
X239516Y27953D01*
G37*
G36*
X216595Y38159D02*
X216595Y38159D01*
X216636Y38167D01*
X216633Y38187D01*
X216649Y38200D01*
X216649Y39600D01*
X216628Y39628D01*
X216627Y39641D01*
X216327Y39841D01*
X216291Y39839D01*
X216279Y39845D01*
X214979Y39245D01*
X214978Y39243D01*
X214976Y39243D01*
X214975Y39237D01*
X214951Y39192D01*
X214968Y39184D01*
X214965Y39165D01*
X215365Y38765D01*
X215377Y38764D01*
X215378Y38756D01*
X216578Y38156D01*
X216583Y38157D01*
X216587Y38153D01*
X216595Y38159D01*
G37*
G36*
X89539Y38271D02*
X89539Y38271D01*
X89536Y38283D01*
X89548Y38288D01*
X89648Y38688D01*
X89644Y38696D01*
X89649Y38700D01*
X89649Y39400D01*
X89640Y39413D01*
X89644Y39422D01*
X89444Y39822D01*
X89391Y39848D01*
X89388Y39843D01*
X89382Y39846D01*
X88082Y39346D01*
X88051Y39295D01*
X88054Y39293D01*
X88052Y39290D01*
X88152Y38790D01*
X88179Y38766D01*
X88182Y38754D01*
X89482Y38254D01*
X89539Y38271D01*
G37*
G36*
X38812Y29192D02*
X38812Y29192D01*
X38834Y29219D01*
X38841Y29225D01*
X38840Y29227D01*
X38849Y29239D01*
X38848Y29239D01*
X38849Y29240D01*
X38849Y30640D01*
X38846Y30644D01*
X38848Y30649D01*
X38839Y30654D01*
X38813Y30687D01*
X38797Y30675D01*
X38778Y30684D01*
X38179Y30385D01*
X36981Y29885D01*
X36975Y29875D01*
X36964Y29873D01*
X36966Y29860D01*
X36951Y29834D01*
X36973Y29821D01*
X36978Y29796D01*
X38378Y29096D01*
X38402Y29100D01*
X38412Y29092D01*
X38812Y29192D01*
G37*
G36*
X190931Y36996D02*
X190931Y36996D01*
X190935Y36995D01*
X191235Y37295D01*
X191237Y37307D01*
X191243Y37312D01*
X191238Y37319D01*
X191239Y37322D01*
X191249Y37330D01*
X191249Y38630D01*
X191246Y38634D01*
X191249Y38638D01*
X191240Y38643D01*
X191213Y38677D01*
X191197Y38665D01*
X191179Y38675D01*
X189879Y38075D01*
X189869Y38054D01*
X189856Y38052D01*
X189656Y37652D01*
X189667Y37594D01*
X189676Y37595D01*
X189678Y37586D01*
X190878Y36986D01*
X190931Y36996D01*
G37*
G36*
X114990Y38255D02*
X114990Y38255D01*
X115041Y38272D01*
X115035Y38289D01*
X115049Y38300D01*
X115049Y39600D01*
X115013Y39647D01*
X115012Y39647D01*
X115012Y39648D01*
X114612Y39748D01*
X114592Y39739D01*
X114581Y39745D01*
X113381Y39245D01*
X113380Y39243D01*
X113378Y39244D01*
X113178Y39144D01*
X113174Y39135D01*
X113164Y39133D01*
X113166Y39120D01*
X113152Y39091D01*
X113174Y39080D01*
X113178Y39056D01*
X114378Y38456D01*
X114383Y38457D01*
X114384Y38453D01*
X114984Y38253D01*
X114986Y38254D01*
X114987Y38253D01*
X114990Y38255D01*
G37*
G36*
X64190Y35715D02*
X64190Y35715D01*
X64241Y35732D01*
X64235Y35749D01*
X64249Y35760D01*
X64249Y37060D01*
X64213Y37107D01*
X64212Y37107D01*
X64212Y37108D01*
X63812Y37208D01*
X63792Y37199D01*
X63781Y37205D01*
X62581Y36705D01*
X62580Y36703D01*
X62578Y36704D01*
X62378Y36604D01*
X62374Y36595D01*
X62364Y36593D01*
X62366Y36580D01*
X62352Y36551D01*
X62374Y36540D01*
X62378Y36516D01*
X63578Y35916D01*
X63583Y35917D01*
X63584Y35913D01*
X64184Y35713D01*
X64186Y35714D01*
X64187Y35713D01*
X64190Y35715D01*
G37*
G36*
X140131Y38266D02*
X140131Y38266D01*
X140135Y38265D01*
X140435Y38565D01*
X140437Y38577D01*
X140443Y38582D01*
X140438Y38589D01*
X140439Y38592D01*
X140449Y38600D01*
X140449Y39300D01*
X140446Y39305D01*
X140449Y39308D01*
X140349Y39908D01*
X140348Y39909D01*
X140346Y39910D01*
X140305Y39949D01*
X140293Y39936D01*
X140278Y39944D01*
X139078Y39344D01*
X139068Y39324D01*
X139056Y39322D01*
X138856Y38922D01*
X138867Y38864D01*
X138876Y38865D01*
X138878Y38856D01*
X140078Y38256D01*
X140131Y38266D01*
G37*
G36*
X241939Y38269D02*
X241939Y38269D01*
X241935Y38284D01*
X241948Y38290D01*
X242048Y38790D01*
X242045Y38797D01*
X242049Y38800D01*
X242049Y39400D01*
X242040Y39413D01*
X242044Y39422D01*
X241844Y39822D01*
X241791Y39848D01*
X241788Y39843D01*
X241782Y39846D01*
X240482Y39346D01*
X240451Y39295D01*
X240459Y39290D01*
X240454Y39282D01*
X240654Y38782D01*
X240678Y38768D01*
X240681Y38755D01*
X241881Y38255D01*
X241939Y38269D01*
G37*
G36*
X165636Y36997D02*
X165636Y36997D01*
X165635Y37006D01*
X165644Y37008D01*
X165844Y37408D01*
X165844Y37410D01*
X165844Y37411D01*
X165843Y37412D01*
X165841Y37424D01*
X165849Y37430D01*
X165849Y38130D01*
X165840Y38143D01*
X165844Y38152D01*
X165644Y38552D01*
X165591Y38578D01*
X165587Y38572D01*
X165581Y38575D01*
X164381Y38075D01*
X164358Y38035D01*
X164351Y38030D01*
X164351Y37630D01*
X164376Y37597D01*
X164378Y37586D01*
X165578Y36986D01*
X165636Y36997D01*
G37*
%LPC*%
G36*
X125389Y65428D02*
X125389Y65428D01*
X125389Y66170D01*
X125945Y66447D01*
X126606Y66259D01*
X126882Y65706D01*
X126514Y65246D01*
X125850Y65151D01*
X125389Y65428D01*
G37*
%LPD*%
M02*
