G04 EAGLE Gerber RS-274X export*
G75*
%MOMM*%
%FSLAX34Y34*%
%LPD*%
%INSilkscreen Top*%
%IPPOS*%
%AMOC8*
5,1,8,0,0,1.08239X$1,22.5*%
G01*
%ADD10C,0.203200*%
%ADD11C,0.508000*%

G36*
X19447Y19897D02*
X19447Y19897D01*
X19445Y19900D01*
X19449Y19902D01*
X19549Y20502D01*
X19546Y20507D01*
X19549Y20510D01*
X19549Y57710D01*
X19513Y57757D01*
X19506Y57752D01*
X19500Y57759D01*
X6000Y57759D01*
X5953Y57723D01*
X5955Y57720D01*
X5951Y57718D01*
X5851Y57118D01*
X5854Y57113D01*
X5851Y57110D01*
X5851Y19910D01*
X5887Y19863D01*
X5894Y19868D01*
X5900Y19861D01*
X19400Y19861D01*
X19447Y19897D01*
G37*
G36*
X19447Y69427D02*
X19447Y69427D01*
X19445Y69430D01*
X19449Y69432D01*
X19549Y70032D01*
X19546Y70037D01*
X19549Y70040D01*
X19549Y107240D01*
X19513Y107287D01*
X19506Y107282D01*
X19500Y107289D01*
X6000Y107289D01*
X5953Y107253D01*
X5955Y107250D01*
X5951Y107248D01*
X5851Y106648D01*
X5854Y106643D01*
X5851Y106640D01*
X5851Y69440D01*
X5887Y69393D01*
X5894Y69398D01*
X5900Y69391D01*
X19400Y69391D01*
X19447Y69427D01*
G37*
G36*
X266095Y54230D02*
X266095Y54230D01*
X266203Y54244D01*
X266215Y54250D01*
X266229Y54252D01*
X266325Y54304D01*
X266422Y54351D01*
X266432Y54361D01*
X266444Y54367D01*
X266518Y54447D01*
X266595Y54523D01*
X266601Y54535D01*
X266611Y54546D01*
X266656Y54644D01*
X266704Y54741D01*
X266708Y54759D01*
X266712Y54768D01*
X266714Y54789D01*
X266733Y54886D01*
X267176Y59237D01*
X268335Y59608D01*
X268353Y59618D01*
X268450Y59656D01*
X269532Y60213D01*
X272922Y57449D01*
X273016Y57395D01*
X273108Y57338D01*
X273121Y57335D01*
X273133Y57328D01*
X273240Y57307D01*
X273345Y57282D01*
X273359Y57284D01*
X273373Y57281D01*
X273480Y57296D01*
X273588Y57306D01*
X273601Y57312D01*
X273615Y57314D01*
X273712Y57362D01*
X273811Y57407D01*
X273824Y57418D01*
X273833Y57422D01*
X273848Y57438D01*
X273925Y57500D01*
X276510Y60085D01*
X276573Y60174D01*
X276639Y60259D01*
X276644Y60272D01*
X276652Y60284D01*
X276683Y60387D01*
X276719Y60490D01*
X276719Y60504D01*
X276723Y60517D01*
X276719Y60625D01*
X276720Y60734D01*
X276715Y60747D01*
X276715Y60761D01*
X276677Y60863D01*
X276642Y60965D01*
X276633Y60980D01*
X276629Y60989D01*
X276615Y61006D01*
X276561Y61088D01*
X273797Y64478D01*
X274354Y65560D01*
X274371Y65613D01*
X274397Y65662D01*
X274408Y65728D01*
X274429Y65792D01*
X274428Y65848D01*
X274437Y65902D01*
X274426Y65969D01*
X274425Y66036D01*
X274407Y66088D01*
X274398Y66143D01*
X274366Y66203D01*
X274343Y66266D01*
X274309Y66309D01*
X274283Y66359D01*
X274234Y66405D01*
X274192Y66457D01*
X274145Y66488D01*
X274105Y66526D01*
X274000Y66582D01*
X273987Y66590D01*
X273982Y66591D01*
X273975Y66595D01*
X268778Y68748D01*
X268678Y68771D01*
X268580Y68800D01*
X268560Y68799D01*
X268540Y68804D01*
X268438Y68794D01*
X268336Y68789D01*
X268317Y68782D01*
X268297Y68780D01*
X268204Y68738D01*
X268108Y68700D01*
X268093Y68687D01*
X268075Y68679D01*
X268000Y68609D01*
X267922Y68543D01*
X267907Y68522D01*
X267897Y68512D01*
X267885Y68491D01*
X267837Y68422D01*
X267342Y67538D01*
X266715Y66859D01*
X265946Y66345D01*
X265078Y66025D01*
X264161Y65917D01*
X263226Y66030D01*
X262345Y66361D01*
X261568Y66893D01*
X260939Y67594D01*
X260496Y68424D01*
X260262Y69336D01*
X260252Y70278D01*
X260466Y71194D01*
X260891Y72034D01*
X261504Y72748D01*
X262269Y73297D01*
X263143Y73648D01*
X264075Y73781D01*
X265012Y73689D01*
X265900Y73377D01*
X266688Y72862D01*
X267332Y72175D01*
X267838Y71276D01*
X267902Y71197D01*
X267961Y71115D01*
X267978Y71102D01*
X267991Y71086D01*
X268076Y71032D01*
X268159Y70972D01*
X268179Y70966D01*
X268197Y70955D01*
X268295Y70931D01*
X268393Y70901D01*
X268413Y70902D01*
X268434Y70897D01*
X268535Y70906D01*
X268636Y70909D01*
X268663Y70917D01*
X268677Y70918D01*
X268699Y70928D01*
X268778Y70952D01*
X273975Y73105D01*
X274022Y73134D01*
X274074Y73155D01*
X274125Y73198D01*
X274182Y73234D01*
X274217Y73277D01*
X274260Y73313D01*
X274294Y73370D01*
X274337Y73422D01*
X274356Y73474D01*
X274385Y73522D01*
X274399Y73588D01*
X274423Y73651D01*
X274425Y73706D01*
X274436Y73760D01*
X274429Y73827D01*
X274431Y73894D01*
X274415Y73948D01*
X274408Y74003D01*
X274364Y74114D01*
X274360Y74128D01*
X274357Y74132D01*
X274354Y74140D01*
X273797Y75222D01*
X276561Y78612D01*
X276615Y78706D01*
X276672Y78798D01*
X276675Y78811D01*
X276682Y78823D01*
X276703Y78930D01*
X276728Y79035D01*
X276726Y79049D01*
X276729Y79063D01*
X276714Y79170D01*
X276704Y79278D01*
X276698Y79291D01*
X276696Y79305D01*
X276648Y79402D01*
X276603Y79501D01*
X276592Y79514D01*
X276588Y79523D01*
X276572Y79538D01*
X276510Y79615D01*
X273925Y82200D01*
X273836Y82263D01*
X273751Y82329D01*
X273738Y82334D01*
X273726Y82342D01*
X273623Y82373D01*
X273520Y82409D01*
X273506Y82409D01*
X273493Y82413D01*
X273385Y82409D01*
X273276Y82410D01*
X273263Y82405D01*
X273249Y82405D01*
X273147Y82367D01*
X273045Y82332D01*
X273030Y82323D01*
X273021Y82319D01*
X273004Y82305D01*
X272922Y82251D01*
X269532Y79487D01*
X268450Y80044D01*
X268430Y80050D01*
X268335Y80092D01*
X267176Y80463D01*
X266733Y84814D01*
X266705Y84918D01*
X266680Y85024D01*
X266673Y85036D01*
X266670Y85049D01*
X266609Y85139D01*
X266552Y85232D01*
X266541Y85240D01*
X266533Y85252D01*
X266447Y85318D01*
X266363Y85387D01*
X266350Y85391D01*
X266339Y85400D01*
X266236Y85434D01*
X266135Y85473D01*
X266117Y85474D01*
X266108Y85478D01*
X266086Y85478D01*
X265988Y85487D01*
X262332Y85487D01*
X262225Y85470D01*
X262117Y85456D01*
X262105Y85450D01*
X262091Y85448D01*
X261995Y85396D01*
X261898Y85349D01*
X261888Y85339D01*
X261876Y85333D01*
X261802Y85253D01*
X261725Y85177D01*
X261719Y85165D01*
X261709Y85155D01*
X261664Y85056D01*
X261616Y84959D01*
X261612Y84941D01*
X261608Y84932D01*
X261606Y84911D01*
X261587Y84814D01*
X261144Y80463D01*
X259985Y80092D01*
X259967Y80082D01*
X259870Y80044D01*
X258788Y79487D01*
X255398Y82251D01*
X255304Y82305D01*
X255212Y82362D01*
X255199Y82365D01*
X255187Y82372D01*
X255080Y82393D01*
X254975Y82418D01*
X254961Y82416D01*
X254947Y82419D01*
X254840Y82404D01*
X254732Y82394D01*
X254719Y82388D01*
X254706Y82386D01*
X254608Y82338D01*
X254509Y82293D01*
X254496Y82282D01*
X254487Y82278D01*
X254472Y82262D01*
X254395Y82200D01*
X251810Y79615D01*
X251747Y79526D01*
X251681Y79441D01*
X251676Y79428D01*
X251668Y79416D01*
X251637Y79313D01*
X251601Y79210D01*
X251601Y79196D01*
X251597Y79183D01*
X251601Y79075D01*
X251600Y78966D01*
X251605Y78953D01*
X251605Y78939D01*
X251643Y78837D01*
X251678Y78735D01*
X251687Y78720D01*
X251691Y78711D01*
X251705Y78694D01*
X251759Y78612D01*
X254523Y75222D01*
X253966Y74140D01*
X253960Y74120D01*
X253918Y74025D01*
X253547Y72866D01*
X249196Y72423D01*
X249092Y72395D01*
X248986Y72370D01*
X248974Y72363D01*
X248961Y72360D01*
X248871Y72299D01*
X248778Y72242D01*
X248770Y72231D01*
X248758Y72223D01*
X248692Y72137D01*
X248624Y72053D01*
X248619Y72040D01*
X248610Y72029D01*
X248576Y71926D01*
X248537Y71825D01*
X248536Y71807D01*
X248532Y71798D01*
X248533Y71776D01*
X248523Y71678D01*
X248523Y68022D01*
X248540Y67915D01*
X248554Y67807D01*
X248560Y67795D01*
X248562Y67781D01*
X248614Y67685D01*
X248661Y67588D01*
X248671Y67578D01*
X248677Y67566D01*
X248757Y67492D01*
X248833Y67415D01*
X248845Y67409D01*
X248856Y67399D01*
X248954Y67354D01*
X249051Y67306D01*
X249069Y67302D01*
X249078Y67298D01*
X249099Y67296D01*
X249196Y67277D01*
X253547Y66834D01*
X253918Y65675D01*
X253928Y65657D01*
X253966Y65560D01*
X254523Y64478D01*
X251759Y61088D01*
X251705Y60994D01*
X251648Y60902D01*
X251645Y60889D01*
X251638Y60877D01*
X251617Y60770D01*
X251592Y60665D01*
X251594Y60651D01*
X251591Y60637D01*
X251606Y60530D01*
X251616Y60422D01*
X251622Y60409D01*
X251624Y60396D01*
X251672Y60298D01*
X251717Y60199D01*
X251728Y60186D01*
X251732Y60177D01*
X251748Y60162D01*
X251810Y60085D01*
X254395Y57500D01*
X254484Y57437D01*
X254569Y57371D01*
X254582Y57366D01*
X254594Y57358D01*
X254697Y57327D01*
X254800Y57291D01*
X254814Y57291D01*
X254827Y57287D01*
X254935Y57291D01*
X255044Y57290D01*
X255057Y57295D01*
X255071Y57295D01*
X255173Y57333D01*
X255275Y57368D01*
X255290Y57377D01*
X255299Y57381D01*
X255316Y57395D01*
X255398Y57449D01*
X258788Y60213D01*
X259870Y59656D01*
X259890Y59650D01*
X259985Y59608D01*
X261144Y59237D01*
X261587Y54886D01*
X261615Y54782D01*
X261640Y54676D01*
X261647Y54664D01*
X261650Y54651D01*
X261711Y54561D01*
X261768Y54468D01*
X261779Y54460D01*
X261787Y54448D01*
X261873Y54382D01*
X261957Y54314D01*
X261970Y54309D01*
X261981Y54300D01*
X262084Y54266D01*
X262185Y54227D01*
X262203Y54226D01*
X262212Y54222D01*
X262234Y54223D01*
X262332Y54213D01*
X265988Y54213D01*
X266095Y54230D01*
G37*
G36*
X44947Y19897D02*
X44947Y19897D01*
X44942Y19904D01*
X44949Y19910D01*
X44949Y49710D01*
X44937Y49726D01*
X44933Y49746D01*
X44930Y49746D01*
X44930Y49749D01*
X44530Y50049D01*
X44512Y50049D01*
X44511Y50051D01*
X44506Y50051D01*
X44500Y50059D01*
X31700Y50059D01*
X31689Y50051D01*
X31682Y50046D01*
X31670Y50049D01*
X31270Y49749D01*
X31265Y49729D01*
X31253Y49720D01*
X31257Y49714D01*
X31251Y49710D01*
X31251Y19910D01*
X31287Y19863D01*
X31294Y19868D01*
X31300Y19861D01*
X44900Y19861D01*
X44947Y19897D01*
G37*
G36*
X95206Y19866D02*
X95206Y19866D01*
X95214Y19863D01*
X95215Y19863D01*
X95216Y19866D01*
X95218Y19864D01*
X95718Y20064D01*
X95733Y20088D01*
X95740Y20094D01*
X95738Y20097D01*
X95743Y20105D01*
X95749Y20110D01*
X95749Y44510D01*
X95746Y44514D01*
X95749Y44517D01*
X95649Y45217D01*
X95648Y45218D01*
X95649Y45218D01*
X95549Y45818D01*
X95545Y45821D01*
X95547Y45824D01*
X95347Y46524D01*
X95346Y46525D01*
X95347Y46526D01*
X95147Y47126D01*
X95139Y47131D01*
X95141Y47137D01*
X94743Y47735D01*
X94444Y48332D01*
X94434Y48337D01*
X94435Y48345D01*
X93937Y48843D01*
X93538Y49341D01*
X93528Y49343D01*
X93527Y49351D01*
X92929Y49750D01*
X92431Y50148D01*
X92423Y50149D01*
X92422Y50154D01*
X91822Y50454D01*
X91820Y50454D01*
X91819Y50455D01*
X91119Y50755D01*
X91116Y50755D01*
X91116Y50757D01*
X90516Y50957D01*
X90509Y50955D01*
X90507Y50959D01*
X89807Y51059D01*
X89802Y51056D01*
X89800Y51059D01*
X87800Y51059D01*
X87792Y51053D01*
X87786Y51057D01*
X87086Y50857D01*
X87085Y50856D01*
X87084Y50857D01*
X86484Y50657D01*
X86481Y50652D01*
X86478Y50654D01*
X85278Y50054D01*
X85276Y50050D01*
X85273Y50051D01*
X84673Y49651D01*
X84672Y49648D01*
X84669Y49648D01*
X84169Y49248D01*
X84168Y49244D01*
X84165Y49245D01*
X83665Y48745D01*
X83664Y48738D01*
X83659Y48737D01*
X83259Y48137D01*
X83259Y48136D01*
X83258Y48135D01*
X82958Y47635D01*
X82958Y47630D01*
X82955Y47629D01*
X82655Y46931D01*
X82356Y46332D01*
X82357Y46325D01*
X82352Y46321D01*
X82354Y46319D01*
X82351Y46318D01*
X82251Y45718D01*
X82252Y45717D01*
X82251Y45717D01*
X82051Y44317D01*
X82054Y44312D01*
X82051Y44310D01*
X82051Y20410D01*
X82059Y20399D01*
X82054Y20392D01*
X82254Y19892D01*
X82295Y19867D01*
X82300Y19861D01*
X95200Y19861D01*
X95206Y19866D01*
G37*
G36*
X121047Y19897D02*
X121047Y19897D01*
X121045Y19900D01*
X121049Y19902D01*
X121149Y20502D01*
X121146Y20507D01*
X121149Y20510D01*
X121149Y44210D01*
X121146Y44214D01*
X121149Y44217D01*
X120949Y45617D01*
X120944Y45622D01*
X120947Y45626D01*
X120747Y46225D01*
X120547Y46924D01*
X120542Y46928D01*
X120544Y46932D01*
X120244Y47532D01*
X120240Y47534D01*
X120241Y47537D01*
X119841Y48137D01*
X119838Y48138D01*
X119838Y48141D01*
X119438Y48641D01*
X119434Y48642D01*
X119435Y48645D01*
X118935Y49145D01*
X118931Y49145D01*
X118931Y49148D01*
X117931Y49948D01*
X117923Y49949D01*
X117922Y49954D01*
X117322Y50254D01*
X117320Y50254D01*
X117319Y50255D01*
X116619Y50555D01*
X116616Y50555D01*
X116616Y50557D01*
X116016Y50757D01*
X116009Y50755D01*
X116007Y50759D01*
X115308Y50859D01*
X114708Y50959D01*
X114703Y50956D01*
X114700Y50959D01*
X114000Y50959D01*
X113996Y50956D01*
X113993Y50959D01*
X112593Y50759D01*
X112588Y50754D01*
X112584Y50757D01*
X111984Y50557D01*
X111981Y50552D01*
X111978Y50554D01*
X110778Y49954D01*
X110776Y49950D01*
X110773Y49951D01*
X110173Y49551D01*
X110172Y49548D01*
X110169Y49548D01*
X109669Y49148D01*
X109668Y49144D01*
X109665Y49145D01*
X109165Y48645D01*
X109165Y48641D01*
X109162Y48641D01*
X108762Y48141D01*
X108761Y48137D01*
X108759Y48137D01*
X108359Y47537D01*
X108359Y47533D01*
X108356Y47532D01*
X108056Y46932D01*
X108057Y46927D01*
X108053Y46926D01*
X107853Y46326D01*
X107854Y46324D01*
X107853Y46324D01*
X107653Y45624D01*
X107654Y45620D01*
X107651Y45618D01*
X107551Y45018D01*
X107552Y45017D01*
X107551Y45017D01*
X107451Y44317D01*
X107454Y44312D01*
X107451Y44310D01*
X107451Y19910D01*
X107487Y19863D01*
X107494Y19868D01*
X107500Y19861D01*
X121000Y19861D01*
X121047Y19897D01*
G37*
G36*
X272905Y19864D02*
X272905Y19864D01*
X272908Y19861D01*
X273508Y19961D01*
X273549Y20005D01*
X273546Y20008D01*
X273549Y20010D01*
X273549Y47110D01*
X273542Y47119D01*
X273547Y47126D01*
X273347Y47726D01*
X273325Y47741D01*
X273322Y47754D01*
X266722Y51054D01*
X266690Y51048D01*
X266678Y51054D01*
X259978Y47654D01*
X259963Y47624D01*
X259951Y47618D01*
X259851Y47018D01*
X259854Y47013D01*
X259851Y47010D01*
X259851Y20510D01*
X259854Y20505D01*
X259851Y20502D01*
X259951Y19902D01*
X259995Y19861D01*
X259998Y19864D01*
X260000Y19861D01*
X272900Y19861D01*
X272905Y19864D01*
G37*
G36*
X247505Y19864D02*
X247505Y19864D01*
X247508Y19861D01*
X248108Y19961D01*
X248149Y20005D01*
X248146Y20008D01*
X248149Y20010D01*
X248149Y44310D01*
X248146Y44314D01*
X248149Y44317D01*
X248049Y45017D01*
X248045Y45021D01*
X248047Y45024D01*
X247847Y45724D01*
X247846Y45725D01*
X247847Y45726D01*
X247647Y46326D01*
X247642Y46329D01*
X247644Y46332D01*
X247044Y47532D01*
X247037Y47535D01*
X247038Y47541D01*
X246638Y48041D01*
X246638Y48042D01*
X246138Y48642D01*
X246131Y48643D01*
X246131Y48648D01*
X245131Y49448D01*
X245127Y49449D01*
X245127Y49451D01*
X244527Y49851D01*
X244523Y49851D01*
X244522Y49854D01*
X243922Y50154D01*
X243917Y50153D01*
X243916Y50157D01*
X243316Y50357D01*
X243309Y50355D01*
X243307Y50359D01*
X242607Y50459D01*
X241908Y50559D01*
X241308Y50659D01*
X241298Y50653D01*
X241293Y50659D01*
X239893Y50459D01*
X239892Y50458D01*
X239892Y50459D01*
X239292Y50359D01*
X239286Y50352D01*
X239281Y50355D01*
X238581Y50055D01*
X238579Y50053D01*
X238578Y50054D01*
X237378Y49454D01*
X237375Y49447D01*
X237369Y49448D01*
X236869Y49048D01*
X236868Y49044D01*
X236865Y49045D01*
X236365Y48545D01*
X236365Y48541D01*
X236362Y48541D01*
X235962Y48041D01*
X235961Y48037D01*
X235959Y48037D01*
X235159Y46837D01*
X235160Y46828D01*
X235153Y46826D01*
X234753Y45626D01*
X234754Y45624D01*
X234753Y45624D01*
X234553Y44924D01*
X234555Y44919D01*
X234551Y44917D01*
X234451Y44217D01*
X234454Y44212D01*
X234451Y44210D01*
X234451Y20510D01*
X234454Y20505D01*
X234451Y20502D01*
X234551Y19902D01*
X234595Y19861D01*
X234598Y19864D01*
X234600Y19861D01*
X247500Y19861D01*
X247505Y19864D01*
G37*
G36*
X222708Y19867D02*
X222708Y19867D01*
X222718Y19864D01*
X222722Y19877D01*
X222747Y19897D01*
X222742Y19904D01*
X222749Y19910D01*
X222749Y44310D01*
X222746Y44315D01*
X222749Y44318D01*
X222649Y44918D01*
X222645Y44921D01*
X222647Y44924D01*
X222247Y46324D01*
X222242Y46328D01*
X222244Y46332D01*
X221644Y47532D01*
X221637Y47535D01*
X221638Y47541D01*
X220838Y48541D01*
X220834Y48542D01*
X220835Y48545D01*
X220335Y49045D01*
X220328Y49046D01*
X220327Y49051D01*
X219727Y49451D01*
X219723Y49451D01*
X219722Y49454D01*
X217922Y50354D01*
X217911Y50352D01*
X217907Y50359D01*
X217208Y50459D01*
X216608Y50559D01*
X216607Y50558D01*
X216607Y50559D01*
X215907Y50659D01*
X215898Y50654D01*
X215893Y50659D01*
X215193Y50559D01*
X215192Y50558D01*
X215192Y50559D01*
X214592Y50459D01*
X213893Y50359D01*
X213885Y50351D01*
X213878Y50354D01*
X212078Y49454D01*
X212076Y49450D01*
X212073Y49451D01*
X211473Y49051D01*
X211470Y49044D01*
X211465Y49045D01*
X210965Y48545D01*
X210965Y48541D01*
X210962Y48541D01*
X210162Y47541D01*
X210161Y47533D01*
X210156Y47532D01*
X209856Y46932D01*
X209856Y46930D01*
X209855Y46929D01*
X209555Y46229D01*
X209556Y46226D01*
X209553Y46226D01*
X209353Y45626D01*
X209354Y45624D01*
X209353Y45624D01*
X209153Y44924D01*
X209154Y44920D01*
X209151Y44918D01*
X209051Y44318D01*
X209054Y44313D01*
X209051Y44310D01*
X209051Y19910D01*
X209087Y19863D01*
X209094Y19868D01*
X209100Y19861D01*
X222700Y19861D01*
X222708Y19867D01*
G37*
G36*
X196918Y19874D02*
X196918Y19874D01*
X196930Y19871D01*
X197330Y20171D01*
X197334Y20187D01*
X197341Y20192D01*
X197337Y20198D01*
X197339Y20202D01*
X197349Y20210D01*
X197349Y43810D01*
X197346Y43814D01*
X197349Y43817D01*
X197149Y45217D01*
X197144Y45222D01*
X197147Y45226D01*
X196947Y45826D01*
X196942Y45829D01*
X196944Y45832D01*
X196344Y47032D01*
X196340Y47034D01*
X196341Y47037D01*
X195941Y47637D01*
X195938Y47638D01*
X195938Y47641D01*
X195538Y48141D01*
X195534Y48142D01*
X195535Y48145D01*
X195035Y48645D01*
X195031Y48645D01*
X195031Y48648D01*
X194531Y49048D01*
X194527Y49049D01*
X194527Y49051D01*
X193927Y49451D01*
X193923Y49451D01*
X193922Y49454D01*
X193322Y49754D01*
X193317Y49753D01*
X193316Y49757D01*
X192716Y49957D01*
X192714Y49956D01*
X192714Y49957D01*
X192014Y50157D01*
X192010Y50156D01*
X192008Y50159D01*
X191408Y50259D01*
X191407Y50258D01*
X191407Y50259D01*
X190707Y50359D01*
X190702Y50356D01*
X190700Y50359D01*
X190000Y50359D01*
X189995Y50356D01*
X189992Y50359D01*
X189392Y50259D01*
X188693Y50159D01*
X188685Y50151D01*
X188678Y50154D01*
X188082Y49856D01*
X187386Y49657D01*
X187380Y49649D01*
X187373Y49651D01*
X186773Y49251D01*
X186772Y49248D01*
X186769Y49248D01*
X185769Y48448D01*
X185768Y48444D01*
X185765Y48445D01*
X185265Y47945D01*
X185265Y47941D01*
X185262Y47941D01*
X184862Y47441D01*
X184861Y47433D01*
X184856Y47432D01*
X184256Y46232D01*
X184256Y46230D01*
X184255Y46229D01*
X183955Y45529D01*
X183957Y45521D01*
X183951Y45518D01*
X183851Y44918D01*
X183852Y44917D01*
X183851Y44917D01*
X183751Y44218D01*
X183651Y43618D01*
X183654Y43614D01*
X183653Y43613D01*
X183653Y43612D01*
X183651Y43610D01*
X183651Y20310D01*
X183664Y20292D01*
X183661Y20280D01*
X183961Y19880D01*
X183992Y19872D01*
X184000Y19861D01*
X196900Y19861D01*
X196918Y19874D01*
G37*
G36*
X44947Y79587D02*
X44947Y79587D01*
X44942Y79594D01*
X44949Y79600D01*
X44949Y107300D01*
X44933Y107321D01*
X44935Y107335D01*
X44535Y107735D01*
X44508Y107739D01*
X44500Y107749D01*
X31700Y107749D01*
X31682Y107736D01*
X31670Y107739D01*
X31270Y107439D01*
X31262Y107408D01*
X31251Y107400D01*
X31251Y79600D01*
X31287Y79553D01*
X31294Y79558D01*
X31300Y79551D01*
X44900Y79551D01*
X44947Y79587D01*
G37*
G36*
X89305Y78694D02*
X89305Y78694D01*
X89308Y78691D01*
X89908Y78791D01*
X90607Y78891D01*
X90611Y78895D01*
X90614Y78893D01*
X91314Y79093D01*
X91318Y79098D01*
X91322Y79096D01*
X92522Y79696D01*
X92525Y79703D01*
X92531Y79702D01*
X93531Y80502D01*
X93532Y80506D01*
X93535Y80505D01*
X94035Y81005D01*
X94036Y81012D01*
X94041Y81013D01*
X94440Y81611D01*
X94838Y82109D01*
X94839Y82117D01*
X94844Y82118D01*
X95144Y82718D01*
X95143Y82725D01*
X95147Y82726D01*
X95347Y83425D01*
X95547Y84024D01*
X95545Y84031D01*
X95549Y84033D01*
X95749Y85433D01*
X95746Y85438D01*
X95749Y85440D01*
X95749Y107840D01*
X95713Y107887D01*
X95706Y107882D01*
X95700Y107889D01*
X82200Y107889D01*
X82153Y107853D01*
X82155Y107850D01*
X82151Y107848D01*
X82051Y107248D01*
X82054Y107243D01*
X82051Y107240D01*
X82051Y85340D01*
X82054Y85336D01*
X82051Y85333D01*
X82151Y84633D01*
X82152Y84632D01*
X82151Y84632D01*
X82251Y84032D01*
X82255Y84029D01*
X82253Y84026D01*
X82453Y83326D01*
X82454Y83325D01*
X82453Y83324D01*
X82653Y82724D01*
X82658Y82721D01*
X82656Y82718D01*
X82956Y82118D01*
X82960Y82116D01*
X82959Y82113D01*
X83359Y81513D01*
X83362Y81512D01*
X83362Y81509D01*
X83762Y81009D01*
X83766Y81008D01*
X83765Y81005D01*
X84265Y80505D01*
X84269Y80505D01*
X84269Y80502D01*
X84769Y80102D01*
X84773Y80101D01*
X84773Y80099D01*
X85373Y79699D01*
X85377Y79699D01*
X85378Y79696D01*
X86578Y79096D01*
X86583Y79097D01*
X86584Y79093D01*
X87184Y78893D01*
X87191Y78895D01*
X87193Y78891D01*
X88593Y78691D01*
X88598Y78694D01*
X88600Y78691D01*
X89300Y78691D01*
X89305Y78694D01*
G37*
G36*
X114505Y78694D02*
X114505Y78694D01*
X114508Y78691D01*
X115108Y78791D01*
X115807Y78891D01*
X115808Y78892D01*
X115808Y78891D01*
X116408Y78991D01*
X116414Y78998D01*
X116419Y78995D01*
X117119Y79295D01*
X117121Y79297D01*
X117122Y79296D01*
X117722Y79596D01*
X117724Y79600D01*
X117727Y79599D01*
X118327Y79999D01*
X118328Y80002D01*
X118331Y80002D01*
X118831Y80402D01*
X118832Y80406D01*
X118835Y80405D01*
X119335Y80905D01*
X119335Y80909D01*
X119338Y80909D01*
X120138Y81909D01*
X120139Y81917D01*
X120144Y81918D01*
X120444Y82518D01*
X120444Y82520D01*
X120445Y82521D01*
X120745Y83221D01*
X120745Y83224D01*
X120747Y83224D01*
X120947Y83824D01*
X120945Y83831D01*
X120949Y83833D01*
X121149Y85233D01*
X121146Y85238D01*
X121149Y85240D01*
X121149Y107540D01*
X121120Y107578D01*
X121118Y107586D01*
X120618Y107786D01*
X120605Y107782D01*
X120600Y107789D01*
X107700Y107789D01*
X107662Y107760D01*
X107654Y107758D01*
X107454Y107258D01*
X107458Y107245D01*
X107451Y107240D01*
X107451Y85540D01*
X107451Y85539D01*
X107451Y85538D01*
X107453Y85536D01*
X107454Y85535D01*
X107451Y85532D01*
X107551Y84932D01*
X107651Y84233D01*
X107751Y83533D01*
X107756Y83528D01*
X107753Y83524D01*
X107953Y82924D01*
X107958Y82921D01*
X107956Y82918D01*
X108256Y82318D01*
X108260Y82316D01*
X108259Y82313D01*
X109059Y81113D01*
X109062Y81112D01*
X109062Y81109D01*
X109462Y80609D01*
X109472Y80607D01*
X109473Y80599D01*
X110071Y80200D01*
X110569Y79802D01*
X110577Y79801D01*
X110578Y79796D01*
X111778Y79196D01*
X111783Y79197D01*
X111784Y79193D01*
X112384Y78993D01*
X112386Y78994D01*
X112386Y78993D01*
X113086Y78793D01*
X113091Y78795D01*
X113093Y78791D01*
X113793Y78691D01*
X113798Y78694D01*
X113800Y78691D01*
X114500Y78691D01*
X114505Y78694D01*
G37*
G36*
X216104Y78694D02*
X216104Y78694D01*
X216107Y78691D01*
X216807Y78791D01*
X216808Y78792D01*
X216808Y78791D01*
X217408Y78891D01*
X217411Y78895D01*
X217414Y78893D01*
X218114Y79093D01*
X218115Y79094D01*
X218116Y79093D01*
X218716Y79293D01*
X218719Y79298D01*
X218722Y79296D01*
X219322Y79596D01*
X219324Y79600D01*
X219327Y79599D01*
X219927Y79999D01*
X219928Y80002D01*
X219931Y80002D01*
X220431Y80402D01*
X220432Y80406D01*
X220435Y80405D01*
X220935Y80905D01*
X220935Y80909D01*
X220938Y80909D01*
X221338Y81409D01*
X221339Y81413D01*
X221341Y81413D01*
X221741Y82013D01*
X221741Y82017D01*
X221744Y82018D01*
X222344Y83218D01*
X222343Y83225D01*
X222347Y83226D01*
X222547Y83926D01*
X222546Y83930D01*
X222549Y83932D01*
X222649Y84532D01*
X222648Y84533D01*
X222649Y84533D01*
X222749Y85233D01*
X222746Y85238D01*
X222749Y85240D01*
X222749Y106940D01*
X222741Y106951D01*
X222746Y106958D01*
X222546Y107458D01*
X222505Y107483D01*
X222500Y107489D01*
X209600Y107489D01*
X209589Y107481D01*
X209582Y107486D01*
X209082Y107286D01*
X209057Y107245D01*
X209051Y107240D01*
X209051Y85540D01*
X209051Y85539D01*
X209051Y85538D01*
X209052Y85538D01*
X209051Y85536D01*
X209053Y85535D01*
X209051Y85533D01*
X209251Y84133D01*
X209252Y84132D01*
X209251Y84132D01*
X209351Y83532D01*
X209358Y83526D01*
X209355Y83521D01*
X209655Y82821D01*
X209657Y82819D01*
X209656Y82818D01*
X210256Y81618D01*
X210263Y81615D01*
X210262Y81609D01*
X210662Y81109D01*
X210666Y81108D01*
X210665Y81105D01*
X211165Y80605D01*
X211169Y80605D01*
X211169Y80602D01*
X212169Y79802D01*
X212173Y79801D01*
X212173Y79799D01*
X212773Y79399D01*
X212782Y79400D01*
X212784Y79393D01*
X213382Y79194D01*
X214081Y78895D01*
X214090Y78897D01*
X214093Y78891D01*
X214792Y78791D01*
X215392Y78691D01*
X215397Y78694D01*
X215400Y78691D01*
X216100Y78691D01*
X216104Y78694D01*
G37*
G36*
X241604Y78694D02*
X241604Y78694D01*
X241607Y78691D01*
X242307Y78791D01*
X242308Y78792D01*
X242308Y78791D01*
X242908Y78891D01*
X242911Y78895D01*
X242914Y78893D01*
X243614Y79093D01*
X243618Y79098D01*
X243622Y79096D01*
X245422Y79996D01*
X245427Y80006D01*
X245435Y80005D01*
X246435Y81005D01*
X246435Y81009D01*
X246438Y81009D01*
X246838Y81509D01*
X246839Y81517D01*
X246844Y81518D01*
X247143Y82115D01*
X247541Y82713D01*
X247540Y82722D01*
X247547Y82724D01*
X247947Y83924D01*
X247945Y83931D01*
X247949Y83933D01*
X248149Y85333D01*
X248146Y85338D01*
X248149Y85340D01*
X248149Y106940D01*
X248138Y106955D01*
X248142Y106965D01*
X247842Y107465D01*
X247808Y107479D01*
X247800Y107489D01*
X235000Y107489D01*
X234985Y107478D01*
X234975Y107482D01*
X234475Y107182D01*
X234461Y107148D01*
X234451Y107140D01*
X234451Y85440D01*
X234454Y85436D01*
X234451Y85433D01*
X234651Y84033D01*
X234656Y84028D01*
X234653Y84024D01*
X234853Y83425D01*
X235053Y82726D01*
X235058Y82722D01*
X235056Y82718D01*
X235356Y82118D01*
X235363Y82115D01*
X235362Y82109D01*
X235760Y81611D01*
X236159Y81013D01*
X236166Y81010D01*
X236165Y81005D01*
X236665Y80505D01*
X236669Y80505D01*
X236669Y80502D01*
X237669Y79702D01*
X237677Y79701D01*
X237678Y79696D01*
X238878Y79096D01*
X238885Y79097D01*
X238886Y79093D01*
X239586Y78893D01*
X239590Y78894D01*
X239592Y78891D01*
X240192Y78791D01*
X240193Y78792D01*
X240193Y78791D01*
X240893Y78691D01*
X240898Y78694D01*
X240900Y78691D01*
X241600Y78691D01*
X241604Y78694D01*
G37*
G36*
X191004Y78694D02*
X191004Y78694D01*
X191007Y78691D01*
X191707Y78791D01*
X191708Y78792D01*
X191708Y78791D01*
X192308Y78891D01*
X192314Y78898D01*
X192319Y78895D01*
X193018Y79194D01*
X193616Y79393D01*
X193621Y79401D01*
X193627Y79399D01*
X194227Y79799D01*
X194228Y79802D01*
X194231Y79802D01*
X195231Y80602D01*
X195232Y80606D01*
X195235Y80605D01*
X195735Y81105D01*
X195735Y81109D01*
X195738Y81109D01*
X196138Y81609D01*
X196139Y81617D01*
X196144Y81618D01*
X196744Y82818D01*
X196744Y82820D01*
X196745Y82821D01*
X197045Y83521D01*
X197043Y83529D01*
X197049Y83532D01*
X197149Y84132D01*
X197148Y84133D01*
X197149Y84133D01*
X197349Y85533D01*
X197346Y85538D01*
X197349Y85540D01*
X197349Y107140D01*
X197313Y107187D01*
X197306Y107182D01*
X197300Y107189D01*
X183800Y107189D01*
X183753Y107153D01*
X183756Y107149D01*
X183751Y107147D01*
X183651Y106447D01*
X183654Y106442D01*
X183651Y106440D01*
X183651Y85240D01*
X183654Y85236D01*
X183651Y85233D01*
X183851Y83833D01*
X183856Y83828D01*
X183853Y83824D01*
X184053Y83224D01*
X184058Y83221D01*
X184056Y83218D01*
X184656Y82018D01*
X184660Y82016D01*
X184659Y82013D01*
X185059Y81413D01*
X185062Y81412D01*
X185062Y81409D01*
X185462Y80909D01*
X185466Y80908D01*
X185465Y80905D01*
X185965Y80405D01*
X185969Y80405D01*
X185969Y80402D01*
X186469Y80002D01*
X186473Y80001D01*
X186473Y79999D01*
X187073Y79599D01*
X187077Y79599D01*
X187078Y79596D01*
X187678Y79296D01*
X187683Y79297D01*
X187684Y79293D01*
X188284Y79093D01*
X188286Y79094D01*
X188286Y79093D01*
X188986Y78893D01*
X188990Y78894D01*
X188992Y78891D01*
X189592Y78791D01*
X189593Y78792D01*
X189593Y78791D01*
X190293Y78691D01*
X190298Y78694D01*
X190300Y78691D01*
X191000Y78691D01*
X191004Y78694D01*
G37*
G36*
X70247Y19897D02*
X70247Y19897D01*
X70245Y19900D01*
X70249Y19902D01*
X70349Y20502D01*
X70346Y20507D01*
X70349Y20510D01*
X70349Y41510D01*
X70346Y41514D01*
X70349Y41517D01*
X70149Y42917D01*
X70144Y42922D01*
X70147Y42926D01*
X69947Y43525D01*
X69747Y44224D01*
X69742Y44228D01*
X69744Y44232D01*
X69444Y44832D01*
X69437Y44835D01*
X69438Y44841D01*
X69040Y45339D01*
X68641Y45937D01*
X68634Y45940D01*
X68635Y45945D01*
X68135Y46445D01*
X68131Y46445D01*
X68131Y46448D01*
X67131Y47248D01*
X67123Y47249D01*
X67122Y47254D01*
X66522Y47554D01*
X66520Y47554D01*
X66519Y47555D01*
X65819Y47855D01*
X65816Y47855D01*
X65816Y47857D01*
X65216Y48057D01*
X65209Y48055D01*
X65207Y48059D01*
X64508Y48159D01*
X63908Y48259D01*
X63903Y48256D01*
X63900Y48259D01*
X63200Y48259D01*
X63196Y48256D01*
X63193Y48259D01*
X61793Y48059D01*
X61788Y48054D01*
X61784Y48057D01*
X61184Y47857D01*
X61181Y47852D01*
X61178Y47854D01*
X59978Y47254D01*
X59976Y47250D01*
X59973Y47251D01*
X59373Y46851D01*
X59372Y46848D01*
X59369Y46848D01*
X58869Y46448D01*
X58868Y46444D01*
X58865Y46445D01*
X58365Y45945D01*
X58365Y45941D01*
X58362Y45941D01*
X57962Y45441D01*
X57961Y45437D01*
X57959Y45437D01*
X57559Y44837D01*
X57559Y44833D01*
X57556Y44832D01*
X57256Y44232D01*
X57257Y44227D01*
X57253Y44226D01*
X57053Y43626D01*
X57054Y43624D01*
X57053Y43624D01*
X56853Y42924D01*
X56853Y42923D01*
X56853Y42922D01*
X56854Y42920D01*
X56851Y42918D01*
X56751Y42318D01*
X56752Y42317D01*
X56751Y42317D01*
X56651Y41617D01*
X56654Y41612D01*
X56651Y41610D01*
X56651Y19910D01*
X56687Y19863D01*
X56694Y19868D01*
X56700Y19861D01*
X70200Y19861D01*
X70247Y19897D01*
G37*
G36*
X63705Y81234D02*
X63705Y81234D01*
X63708Y81231D01*
X64308Y81331D01*
X65007Y81431D01*
X65011Y81435D01*
X65014Y81433D01*
X65714Y81633D01*
X65715Y81634D01*
X65716Y81633D01*
X66316Y81833D01*
X66319Y81838D01*
X66322Y81836D01*
X66922Y82136D01*
X66924Y82140D01*
X66927Y82139D01*
X67527Y82539D01*
X67528Y82542D01*
X67531Y82542D01*
X68031Y82942D01*
X68032Y82946D01*
X68035Y82945D01*
X68535Y83445D01*
X68535Y83449D01*
X68538Y83449D01*
X68938Y83949D01*
X68939Y83953D01*
X68941Y83953D01*
X69341Y84553D01*
X69341Y84557D01*
X69344Y84558D01*
X69944Y85758D01*
X69943Y85763D01*
X69947Y85764D01*
X70147Y86364D01*
X70145Y86371D01*
X70149Y86373D01*
X70349Y87773D01*
X70346Y87778D01*
X70349Y87780D01*
X70349Y107380D01*
X70320Y107418D01*
X70318Y107426D01*
X69818Y107626D01*
X69806Y107622D01*
X69801Y107629D01*
X69800Y107629D01*
X56900Y107629D01*
X56862Y107600D01*
X56854Y107598D01*
X56654Y107098D01*
X56658Y107085D01*
X56651Y107080D01*
X56651Y88080D01*
X56651Y88079D01*
X56651Y88078D01*
X56653Y88076D01*
X56654Y88076D01*
X56651Y88073D01*
X56751Y87373D01*
X56752Y87372D01*
X56751Y87372D01*
X56851Y86772D01*
X56951Y86073D01*
X56956Y86068D01*
X56953Y86064D01*
X57153Y85464D01*
X57158Y85461D01*
X57156Y85458D01*
X57456Y84858D01*
X57460Y84856D01*
X57459Y84853D01*
X58259Y83653D01*
X58266Y83650D01*
X58265Y83645D01*
X58765Y83145D01*
X58769Y83145D01*
X58769Y83142D01*
X59769Y82342D01*
X59777Y82341D01*
X59778Y82336D01*
X60978Y81736D01*
X60985Y81737D01*
X60986Y81733D01*
X61685Y81533D01*
X62284Y81333D01*
X62291Y81335D01*
X62293Y81331D01*
X62993Y81231D01*
X62998Y81234D01*
X63000Y81231D01*
X63700Y81231D01*
X63705Y81234D01*
G37*
G36*
X252159Y81971D02*
X252159Y81971D01*
X252221Y81973D01*
X252243Y81986D01*
X252269Y81990D01*
X252340Y82038D01*
X252373Y82056D01*
X252379Y82064D01*
X252389Y82071D01*
X252889Y82571D01*
X252908Y82602D01*
X252946Y82644D01*
X253222Y83104D01*
X253689Y83571D01*
X253697Y83584D01*
X253712Y83597D01*
X254201Y84183D01*
X255389Y85371D01*
X255396Y85382D01*
X255409Y85393D01*
X256599Y86782D01*
X257556Y87738D01*
X258454Y88277D01*
X258951Y88360D01*
X260820Y88360D01*
X260846Y88366D01*
X260883Y88365D01*
X262083Y88565D01*
X262098Y88572D01*
X262120Y88573D01*
X263220Y88873D01*
X263237Y88882D01*
X263261Y88887D01*
X264261Y89287D01*
X264283Y89302D01*
X264316Y89314D01*
X265316Y89914D01*
X265336Y89934D01*
X265370Y89954D01*
X266170Y90654D01*
X266177Y90663D01*
X266189Y90671D01*
X266989Y91471D01*
X267000Y91489D01*
X267020Y91507D01*
X267720Y92407D01*
X267731Y92430D01*
X267752Y92455D01*
X268752Y94255D01*
X268763Y94291D01*
X268788Y94343D01*
X269288Y96243D01*
X269289Y96275D01*
X269300Y96318D01*
X269400Y98018D01*
X269393Y98054D01*
X269394Y98110D01*
X269094Y99710D01*
X269085Y99731D01*
X269081Y99760D01*
X268581Y101260D01*
X268562Y101291D01*
X268541Y101344D01*
X267841Y102444D01*
X267822Y102463D01*
X267804Y102493D01*
X267579Y102746D01*
X267241Y103126D01*
X267004Y103393D01*
X266972Y103415D01*
X266922Y103462D01*
X266122Y103962D01*
X266092Y103973D01*
X266072Y103987D01*
X266037Y103993D01*
X265992Y104013D01*
X265975Y104013D01*
X265958Y104018D01*
X265926Y104014D01*
X265920Y104014D01*
X265912Y104012D01*
X265889Y104009D01*
X265819Y104007D01*
X265804Y103998D01*
X265786Y103996D01*
X265756Y103976D01*
X265751Y103975D01*
X265737Y103963D01*
X265728Y103957D01*
X265667Y103924D01*
X265657Y103909D01*
X265642Y103899D01*
X265626Y103871D01*
X265618Y103865D01*
X265604Y103834D01*
X265567Y103782D01*
X265564Y103763D01*
X265556Y103749D01*
X265554Y103723D01*
X265547Y103706D01*
X265548Y103681D01*
X265540Y103640D01*
X265540Y102802D01*
X265468Y102586D01*
X265408Y102465D01*
X265215Y102272D01*
X265058Y102220D01*
X264867Y102220D01*
X264153Y102399D01*
X263811Y102570D01*
X263540Y102751D01*
X263170Y103028D01*
X262616Y103582D01*
X262273Y104096D01*
X262200Y104387D01*
X262200Y104878D01*
X262272Y105094D01*
X262350Y105249D01*
X262500Y105475D01*
X262821Y105715D01*
X263144Y105877D01*
X263595Y105967D01*
X263602Y105971D01*
X263612Y105971D01*
X263967Y106060D01*
X264430Y106060D01*
X264550Y106000D01*
X264565Y105996D01*
X264578Y105987D01*
X264712Y105961D01*
X264719Y105960D01*
X264720Y105960D01*
X264820Y105960D01*
X264845Y105966D01*
X264871Y105963D01*
X264929Y105985D01*
X264989Y105999D01*
X265009Y106016D01*
X265033Y106025D01*
X265075Y106070D01*
X265122Y106109D01*
X265133Y106133D01*
X265150Y106152D01*
X265168Y106211D01*
X265193Y106268D01*
X265192Y106293D01*
X265200Y106318D01*
X265189Y106379D01*
X265187Y106441D01*
X265174Y106463D01*
X265170Y106489D01*
X265122Y106560D01*
X265104Y106593D01*
X265096Y106599D01*
X265089Y106609D01*
X264989Y106709D01*
X264969Y106721D01*
X264948Y106744D01*
X264548Y107044D01*
X264522Y107056D01*
X264490Y107080D01*
X263090Y107780D01*
X263078Y107783D01*
X263069Y107789D01*
X263040Y107795D01*
X263003Y107811D01*
X262103Y108011D01*
X262069Y108011D01*
X262020Y108020D01*
X261020Y108020D01*
X260992Y108014D01*
X260952Y108014D01*
X259852Y107814D01*
X259817Y107799D01*
X259760Y107781D01*
X259745Y107777D01*
X259742Y107775D01*
X259738Y107774D01*
X258638Y107174D01*
X258618Y107156D01*
X258587Y107140D01*
X257687Y106440D01*
X257667Y106416D01*
X257598Y106342D01*
X257098Y105542D01*
X257086Y105508D01*
X257059Y105460D01*
X256759Y104560D01*
X256756Y104523D01*
X256740Y104440D01*
X256740Y103640D01*
X256747Y103607D01*
X256749Y103558D01*
X256949Y102658D01*
X256966Y102622D01*
X256988Y102555D01*
X257488Y101655D01*
X257510Y101631D01*
X257534Y101590D01*
X258234Y100790D01*
X258235Y100789D01*
X258236Y100787D01*
X259036Y99887D01*
X259044Y99882D01*
X259051Y99871D01*
X259693Y99229D01*
X259940Y98571D01*
X259940Y98002D01*
X259781Y97525D01*
X259460Y97124D01*
X258964Y96793D01*
X258273Y96620D01*
X257558Y96620D01*
X257129Y96706D01*
X256734Y96864D01*
X256216Y97382D01*
X256065Y97609D01*
X256000Y97802D01*
X256000Y98078D01*
X256052Y98235D01*
X256525Y98708D01*
X256740Y98779D01*
X256760Y98792D01*
X256790Y98800D01*
X257190Y99000D01*
X257219Y99024D01*
X257289Y99071D01*
X257389Y99171D01*
X257402Y99192D01*
X257421Y99208D01*
X257447Y99265D01*
X257480Y99318D01*
X257483Y99343D01*
X257493Y99366D01*
X257491Y99429D01*
X257497Y99491D01*
X257488Y99514D01*
X257487Y99539D01*
X257457Y99594D01*
X257435Y99653D01*
X257417Y99670D01*
X257405Y99692D01*
X257335Y99746D01*
X257308Y99770D01*
X257299Y99773D01*
X257290Y99780D01*
X256890Y99980D01*
X256875Y99984D01*
X256862Y99993D01*
X256728Y100019D01*
X256722Y100020D01*
X256721Y100020D01*
X256720Y100020D01*
X255520Y100020D01*
X255494Y100014D01*
X255458Y100015D01*
X254858Y99915D01*
X254852Y99913D01*
X254845Y99913D01*
X254345Y99813D01*
X254319Y99801D01*
X254279Y99793D01*
X253779Y99593D01*
X253748Y99571D01*
X253692Y99544D01*
X253292Y99244D01*
X253288Y99240D01*
X253282Y99237D01*
X252782Y98837D01*
X252765Y98814D01*
X252694Y98736D01*
X252094Y97736D01*
X252082Y97700D01*
X252054Y97644D01*
X251854Y96944D01*
X251853Y96919D01*
X251843Y96887D01*
X251743Y96087D01*
X251745Y96066D01*
X251740Y96040D01*
X251740Y82340D01*
X251746Y82315D01*
X251743Y82289D01*
X251765Y82232D01*
X251779Y82171D01*
X251796Y82151D01*
X251805Y82127D01*
X251850Y82085D01*
X251889Y82038D01*
X251913Y82027D01*
X251932Y82010D01*
X251991Y81992D01*
X252048Y81967D01*
X252073Y81968D01*
X252098Y81960D01*
X252159Y81971D01*
G37*
G36*
X139904Y87584D02*
X139904Y87584D01*
X139907Y87581D01*
X141307Y87781D01*
X141312Y87786D01*
X141316Y87783D01*
X141915Y87983D01*
X142614Y88183D01*
X142618Y88188D01*
X142622Y88186D01*
X143222Y88486D01*
X143225Y88493D01*
X143231Y88492D01*
X144231Y89292D01*
X144232Y89296D01*
X144235Y89295D01*
X144735Y89795D01*
X144736Y89802D01*
X144741Y89803D01*
X145140Y90401D01*
X145538Y90899D01*
X145539Y90907D01*
X145544Y90908D01*
X146144Y92108D01*
X146143Y92115D01*
X146147Y92116D01*
X146347Y92816D01*
X146346Y92821D01*
X146349Y92823D01*
X146449Y93522D01*
X146549Y94122D01*
X146546Y94127D01*
X146549Y94130D01*
X146549Y106330D01*
X146541Y106341D01*
X146546Y106348D01*
X146346Y106848D01*
X146305Y106873D01*
X146300Y106879D01*
X133400Y106879D01*
X133389Y106871D01*
X133382Y106876D01*
X132882Y106676D01*
X132857Y106635D01*
X132851Y106630D01*
X132851Y94330D01*
X132854Y94326D01*
X132851Y94323D01*
X132951Y93623D01*
X132952Y93622D01*
X132951Y93622D01*
X133051Y93022D01*
X133151Y92323D01*
X133159Y92315D01*
X133156Y92308D01*
X134056Y90508D01*
X134063Y90505D01*
X134062Y90499D01*
X134462Y89999D01*
X134466Y89998D01*
X134465Y89995D01*
X135465Y88995D01*
X135472Y88994D01*
X135473Y88989D01*
X136073Y88589D01*
X136077Y88589D01*
X136078Y88586D01*
X137278Y87986D01*
X137283Y87987D01*
X137284Y87983D01*
X137884Y87783D01*
X137891Y87785D01*
X137893Y87781D01*
X139293Y87581D01*
X139298Y87584D01*
X139300Y87581D01*
X139900Y87581D01*
X139904Y87584D01*
G37*
G36*
X146547Y19897D02*
X146547Y19897D01*
X146542Y19904D01*
X146549Y19910D01*
X146549Y32810D01*
X146546Y32814D01*
X146549Y32817D01*
X146449Y33517D01*
X146444Y33522D01*
X146447Y33526D01*
X146247Y34125D01*
X146047Y34824D01*
X146042Y34828D01*
X146044Y34832D01*
X145444Y36032D01*
X145437Y36035D01*
X145438Y36041D01*
X145038Y36541D01*
X145034Y36542D01*
X145035Y36545D01*
X144035Y37545D01*
X144031Y37545D01*
X144031Y37548D01*
X143531Y37948D01*
X143523Y37949D01*
X143522Y37954D01*
X141722Y38854D01*
X141711Y38852D01*
X141707Y38859D01*
X141008Y38959D01*
X140408Y39059D01*
X140407Y39058D01*
X140407Y39059D01*
X139707Y39159D01*
X139698Y39154D01*
X139693Y39159D01*
X138293Y38959D01*
X138288Y38954D01*
X138284Y38957D01*
X137685Y38757D01*
X136986Y38557D01*
X136982Y38552D01*
X136978Y38554D01*
X136378Y38254D01*
X136377Y38251D01*
X136375Y38252D01*
X135875Y37952D01*
X135874Y37951D01*
X135873Y37951D01*
X135273Y37551D01*
X135270Y37544D01*
X135265Y37545D01*
X134765Y37045D01*
X134765Y37041D01*
X134762Y37041D01*
X134362Y36541D01*
X134361Y36537D01*
X134359Y36537D01*
X133959Y35937D01*
X133959Y35933D01*
X133956Y35932D01*
X133356Y34732D01*
X133357Y34727D01*
X133353Y34726D01*
X133153Y34126D01*
X133154Y34124D01*
X133153Y34124D01*
X132953Y33424D01*
X132954Y33420D01*
X132952Y33418D01*
X132952Y33417D01*
X132951Y33417D01*
X132851Y32717D01*
X132854Y32712D01*
X132851Y32710D01*
X132851Y20510D01*
X132854Y20505D01*
X132851Y20502D01*
X132951Y19902D01*
X132995Y19861D01*
X132998Y19864D01*
X133000Y19861D01*
X146500Y19861D01*
X146547Y19897D01*
G37*
G36*
X165504Y88854D02*
X165504Y88854D01*
X165507Y88851D01*
X166907Y89051D01*
X166912Y89056D01*
X166916Y89053D01*
X167516Y89253D01*
X167519Y89258D01*
X167522Y89256D01*
X168122Y89556D01*
X168124Y89560D01*
X168127Y89559D01*
X168725Y89957D01*
X169322Y90256D01*
X169327Y90266D01*
X169335Y90265D01*
X170335Y91265D01*
X170335Y91269D01*
X170338Y91269D01*
X170738Y91769D01*
X170739Y91777D01*
X170744Y91778D01*
X171644Y93578D01*
X171642Y93589D01*
X171649Y93593D01*
X171749Y94292D01*
X171849Y94892D01*
X171848Y94893D01*
X171849Y94893D01*
X171949Y95593D01*
X171946Y95598D01*
X171949Y95600D01*
X171949Y107100D01*
X171933Y107121D01*
X171935Y107135D01*
X171535Y107535D01*
X171508Y107539D01*
X171500Y107549D01*
X158700Y107549D01*
X158682Y107536D01*
X158670Y107539D01*
X158270Y107239D01*
X158262Y107208D01*
X158251Y107200D01*
X158251Y95400D01*
X158254Y95396D01*
X158251Y95393D01*
X158351Y94693D01*
X158352Y94692D01*
X158351Y94692D01*
X158451Y94092D01*
X158455Y94089D01*
X158453Y94086D01*
X158653Y93386D01*
X158658Y93382D01*
X158656Y93378D01*
X159256Y92178D01*
X159260Y92176D01*
X159259Y92173D01*
X159659Y91573D01*
X159662Y91572D01*
X159662Y91569D01*
X160062Y91069D01*
X160066Y91068D01*
X160065Y91065D01*
X160565Y90565D01*
X160569Y90565D01*
X160569Y90562D01*
X161069Y90162D01*
X161073Y90161D01*
X161073Y90159D01*
X161673Y89759D01*
X161677Y89759D01*
X161678Y89756D01*
X162278Y89456D01*
X162283Y89457D01*
X162284Y89453D01*
X163484Y89053D01*
X163491Y89055D01*
X163493Y89051D01*
X164893Y88851D01*
X164898Y88854D01*
X164900Y88851D01*
X165500Y88851D01*
X165504Y88854D01*
G37*
G36*
X171411Y19869D02*
X171411Y19869D01*
X171418Y19864D01*
X171918Y20064D01*
X171933Y20088D01*
X171940Y20094D01*
X171938Y20097D01*
X171943Y20105D01*
X171949Y20110D01*
X171949Y31610D01*
X171946Y31614D01*
X171949Y31617D01*
X171849Y32313D01*
X171849Y33010D01*
X171842Y33019D01*
X171847Y33026D01*
X171647Y33625D01*
X171447Y34324D01*
X171442Y34328D01*
X171444Y34332D01*
X171144Y34932D01*
X171137Y34935D01*
X171138Y34941D01*
X170740Y35439D01*
X170341Y36037D01*
X170338Y36038D01*
X170338Y36041D01*
X169938Y36541D01*
X169931Y36543D01*
X169931Y36548D01*
X169431Y36948D01*
X169427Y36949D01*
X169427Y36951D01*
X168227Y37751D01*
X168223Y37751D01*
X168222Y37754D01*
X167622Y38054D01*
X167617Y38053D01*
X167616Y38057D01*
X167016Y38257D01*
X167009Y38255D01*
X167007Y38259D01*
X166308Y38359D01*
X165708Y38459D01*
X165703Y38456D01*
X165700Y38459D01*
X164300Y38459D01*
X164296Y38456D01*
X164293Y38459D01*
X163593Y38359D01*
X163588Y38354D01*
X163584Y38357D01*
X162384Y37957D01*
X162381Y37952D01*
X162378Y37954D01*
X161778Y37654D01*
X161776Y37650D01*
X161773Y37651D01*
X161173Y37251D01*
X161172Y37248D01*
X161169Y37248D01*
X160669Y36848D01*
X160668Y36844D01*
X160665Y36845D01*
X159665Y35845D01*
X159664Y35838D01*
X159659Y35837D01*
X159259Y35237D01*
X159259Y35236D01*
X159258Y35235D01*
X158958Y34735D01*
X158959Y34726D01*
X158953Y34724D01*
X158754Y34028D01*
X158456Y33432D01*
X158458Y33422D01*
X158452Y33418D01*
X158452Y33417D01*
X158451Y33417D01*
X158351Y32718D01*
X158251Y32118D01*
X158254Y32113D01*
X158251Y32110D01*
X158251Y20310D01*
X158264Y20292D01*
X158261Y20280D01*
X158561Y19880D01*
X158592Y19872D01*
X158600Y19861D01*
X171400Y19861D01*
X171411Y19869D01*
G37*
%LPC*%
G36*
X266203Y23659D02*
X266203Y23659D01*
X265511Y23758D01*
X264916Y23957D01*
X264914Y23956D01*
X264914Y23957D01*
X264221Y24155D01*
X263629Y24550D01*
X263135Y24945D01*
X262740Y25439D01*
X262343Y26035D01*
X262046Y26629D01*
X261848Y27221D01*
X261749Y27913D01*
X261749Y28903D01*
X261947Y29595D01*
X262146Y30191D01*
X262442Y30783D01*
X262837Y31277D01*
X263333Y31773D01*
X263929Y32270D01*
X264425Y32568D01*
X264438Y32599D01*
X264444Y32603D01*
X264441Y32607D01*
X264442Y32610D01*
X264458Y32585D01*
X264494Y32570D01*
X264496Y32567D01*
X264501Y32567D01*
X264513Y32562D01*
X264514Y32565D01*
X264516Y32563D01*
X265708Y32961D01*
X267097Y32961D01*
X267789Y32862D01*
X268381Y32664D01*
X268975Y32367D01*
X269571Y31970D01*
X270065Y31575D01*
X270560Y30981D01*
X270857Y30487D01*
X271154Y29892D01*
X271351Y29203D01*
X271351Y27913D01*
X271252Y27221D01*
X271054Y26629D01*
X270757Y26035D01*
X270362Y25441D01*
X269867Y24947D01*
X269371Y24550D01*
X268778Y24155D01*
X268184Y23957D01*
X267589Y23758D01*
X266897Y23659D01*
X266203Y23659D01*
G37*
%LPD*%
%LPC*%
G36*
X8808Y94189D02*
X8808Y94189D01*
X8230Y94382D01*
X7949Y94756D01*
X7949Y98036D01*
X8048Y98629D01*
X8246Y99322D01*
X8543Y99917D01*
X8840Y100411D01*
X9335Y101005D01*
X9831Y101402D01*
X10327Y101798D01*
X10918Y102094D01*
X11610Y102292D01*
X12303Y102391D01*
X12996Y102391D01*
X13589Y102292D01*
X14282Y102094D01*
X14877Y101797D01*
X15371Y101500D01*
X15965Y101005D01*
X16362Y100509D01*
X16758Y100013D01*
X17054Y99422D01*
X17252Y98729D01*
X17351Y98136D01*
X17351Y95343D01*
X17253Y94660D01*
X16973Y94286D01*
X16297Y94189D01*
X8808Y94189D01*
G37*
%LPD*%
%LPC*%
G36*
X8808Y44659D02*
X8808Y44659D01*
X8230Y44852D01*
X7949Y45226D01*
X7949Y48506D01*
X8048Y49099D01*
X8246Y49792D01*
X8543Y50387D01*
X8840Y50881D01*
X9335Y51475D01*
X9831Y51872D01*
X10327Y52268D01*
X10918Y52564D01*
X11610Y52762D01*
X12303Y52861D01*
X12996Y52861D01*
X13589Y52762D01*
X14282Y52564D01*
X14877Y52267D01*
X15371Y51970D01*
X15965Y51475D01*
X16362Y50979D01*
X16758Y50483D01*
X17054Y49892D01*
X17252Y49199D01*
X17351Y48606D01*
X17351Y45813D01*
X17253Y45130D01*
X16973Y44756D01*
X16297Y44659D01*
X8808Y44659D01*
G37*
%LPD*%
%LPC*%
G36*
X110308Y86089D02*
X110308Y86089D01*
X109739Y86279D01*
X109549Y86848D01*
X109549Y91032D01*
X109745Y91618D01*
X110138Y92209D01*
X110631Y92701D01*
X111120Y92994D01*
X111810Y93192D01*
X112499Y93290D01*
X113085Y93193D01*
X113678Y92896D01*
X113694Y92899D01*
X113700Y92891D01*
X114100Y92891D01*
X114116Y92903D01*
X114127Y92899D01*
X114721Y93295D01*
X115407Y93491D01*
X116690Y93491D01*
X117378Y93196D01*
X117870Y92901D01*
X118362Y92409D01*
X118755Y91818D01*
X118951Y91232D01*
X118951Y87143D01*
X118854Y86467D01*
X118481Y86187D01*
X117797Y86089D01*
X110308Y86089D01*
G37*
%LPD*%
%LPC*%
G36*
X59508Y88629D02*
X59508Y88629D01*
X58939Y88819D01*
X58749Y89388D01*
X58749Y93572D01*
X58945Y94158D01*
X59338Y94749D01*
X59829Y95239D01*
X60419Y95534D01*
X61011Y95732D01*
X61699Y95830D01*
X62286Y95732D01*
X62981Y95435D01*
X62994Y95438D01*
X63000Y95431D01*
X63400Y95431D01*
X63418Y95445D01*
X63431Y95442D01*
X63923Y95835D01*
X64607Y96031D01*
X65890Y96031D01*
X66578Y95736D01*
X67070Y95441D01*
X67562Y94949D01*
X67955Y94358D01*
X68151Y93772D01*
X68151Y89683D01*
X68055Y88915D01*
X67587Y88728D01*
X66897Y88629D01*
X59508Y88629D01*
G37*
%LPD*%
%LPC*%
G36*
X237114Y86089D02*
X237114Y86089D01*
X236646Y86370D01*
X236549Y87143D01*
X236549Y90537D01*
X236648Y91229D01*
X236844Y91816D01*
X237237Y92307D01*
X237729Y92799D01*
X238315Y93092D01*
X239003Y93191D01*
X239696Y93191D01*
X240285Y93093D01*
X240878Y92796D01*
X240913Y92803D01*
X240925Y92798D01*
X241423Y93097D01*
X242015Y93393D01*
X242604Y93491D01*
X243297Y93491D01*
X243985Y93392D01*
X244573Y93098D01*
X245067Y92703D01*
X245559Y92211D01*
X245853Y91625D01*
X245951Y91036D01*
X245951Y86848D01*
X245761Y86279D01*
X245192Y86089D01*
X237114Y86089D01*
G37*
%LPD*%
%LPC*%
G36*
X186704Y86089D02*
X186704Y86089D01*
X186128Y86185D01*
X185847Y86559D01*
X185749Y87343D01*
X185749Y90737D01*
X185848Y91425D01*
X186141Y92011D01*
X186633Y92503D01*
X187127Y92898D01*
X187715Y93192D01*
X188400Y93290D01*
X189089Y93192D01*
X189683Y92994D01*
X190182Y92794D01*
X190215Y92803D01*
X190227Y92799D01*
X190822Y93195D01*
X191412Y93392D01*
X192008Y93491D01*
X192049Y93535D01*
X192047Y93536D01*
X192049Y93537D01*
X192051Y93567D01*
X192051Y93540D01*
X192087Y93493D01*
X192094Y93498D01*
X192100Y93491D01*
X192693Y93491D01*
X193382Y93294D01*
X193971Y92999D01*
X194463Y92507D01*
X194856Y92016D01*
X195052Y91429D01*
X195151Y90737D01*
X195151Y86560D01*
X194776Y86186D01*
X194196Y86089D01*
X186704Y86089D01*
G37*
%LPD*%
%LPC*%
G36*
X211809Y86089D02*
X211809Y86089D01*
X211318Y86286D01*
X211296Y86280D01*
X211290Y86284D01*
X211317Y86294D01*
X211349Y86344D01*
X211342Y86348D01*
X211347Y86356D01*
X211149Y86948D01*
X211149Y90436D01*
X211248Y91029D01*
X211446Y91720D01*
X211739Y92210D01*
X212229Y92699D01*
X212819Y92994D01*
X213416Y93193D01*
X213448Y93241D01*
X213453Y93226D01*
X213500Y93191D01*
X213504Y93196D01*
X213508Y93191D01*
X214097Y93290D01*
X214785Y93093D01*
X215384Y92893D01*
X215403Y92900D01*
X215412Y92892D01*
X215812Y92992D01*
X215817Y92998D01*
X215822Y92996D01*
X216419Y93294D01*
X217008Y93491D01*
X217697Y93491D01*
X218389Y93392D01*
X218978Y93195D01*
X219569Y92802D01*
X220059Y92311D01*
X220354Y91721D01*
X220551Y91132D01*
X220551Y87043D01*
X220455Y86370D01*
X219986Y86089D01*
X211809Y86089D01*
G37*
%LPD*%
%LPC*%
G36*
X84716Y86089D02*
X84716Y86089D01*
X84330Y86379D01*
X84294Y86379D01*
X84283Y86386D01*
X84245Y86372D01*
X84149Y87043D01*
X84149Y90537D01*
X84248Y91229D01*
X84444Y91816D01*
X84837Y92307D01*
X85329Y92799D01*
X85915Y93092D01*
X86603Y93191D01*
X87197Y93191D01*
X87885Y93092D01*
X88478Y92796D01*
X88510Y92802D01*
X88522Y92796D01*
X89519Y93294D01*
X90108Y93491D01*
X90797Y93491D01*
X91489Y93392D01*
X92076Y93196D01*
X92565Y92805D01*
X93060Y92211D01*
X93354Y91720D01*
X93551Y91033D01*
X93551Y86947D01*
X93359Y86277D01*
X92891Y86089D01*
X84716Y86089D01*
G37*
%LPD*%
%LPC*%
G36*
X34304Y95349D02*
X34304Y95349D01*
X33728Y95445D01*
X33447Y95819D01*
X33349Y96603D01*
X33349Y99997D01*
X33448Y100685D01*
X33741Y101271D01*
X34233Y101763D01*
X34723Y102155D01*
X35411Y102352D01*
X36004Y102451D01*
X36692Y102451D01*
X37283Y102254D01*
X37782Y102054D01*
X37795Y102058D01*
X37809Y102058D01*
X37817Y102064D01*
X37819Y102065D01*
X37831Y102062D01*
X38324Y102456D01*
X38911Y102652D01*
X39603Y102751D01*
X40293Y102751D01*
X40980Y102554D01*
X41471Y102260D01*
X42065Y101765D01*
X42456Y101276D01*
X42652Y100689D01*
X42751Y99997D01*
X42751Y95820D01*
X42376Y95446D01*
X41796Y95349D01*
X34304Y95349D01*
G37*
%LPD*%
G36*
X216598Y65107D02*
X216598Y65107D01*
X216604Y65103D01*
X217304Y65303D01*
X217308Y65308D01*
X217312Y65306D01*
X217912Y65606D01*
X217915Y65613D01*
X217921Y65612D01*
X218421Y66012D01*
X218423Y66019D01*
X218428Y66019D01*
X218828Y66519D01*
X218829Y66524D01*
X218832Y66525D01*
X219132Y67025D01*
X219131Y67033D01*
X219137Y67034D01*
X219337Y67634D01*
X219336Y67636D01*
X219337Y67636D01*
X219537Y68336D01*
X219537Y68337D01*
X219538Y68338D01*
X219536Y68340D01*
X219536Y68341D01*
X219539Y68343D01*
X219639Y69043D01*
X219636Y69048D01*
X219639Y69050D01*
X219639Y71150D01*
X219633Y71158D01*
X219637Y71164D01*
X219438Y71860D01*
X219339Y72557D01*
X219331Y72565D01*
X219334Y72572D01*
X219034Y73172D01*
X219030Y73174D01*
X219031Y73177D01*
X218631Y73777D01*
X218624Y73780D01*
X218625Y73785D01*
X218225Y74185D01*
X218221Y74185D01*
X218222Y74188D01*
X217622Y74688D01*
X217608Y74688D01*
X217606Y74697D01*
X217006Y74897D01*
X217000Y74895D01*
X216998Y74899D01*
X216398Y74999D01*
X216393Y74996D01*
X216390Y74999D01*
X215590Y74999D01*
X215586Y74996D01*
X215583Y74999D01*
X214883Y74899D01*
X214873Y74889D01*
X214865Y74892D01*
X214367Y74593D01*
X213768Y74294D01*
X213761Y74280D01*
X213751Y74280D01*
X213451Y73880D01*
X213451Y73876D01*
X213448Y73875D01*
X213148Y73375D01*
X213148Y73372D01*
X213146Y73372D01*
X212846Y72772D01*
X212846Y72770D01*
X212845Y72769D01*
X212545Y72069D01*
X212547Y72062D01*
X212542Y72058D01*
X212541Y72058D01*
X212441Y71458D01*
X212442Y71457D01*
X212441Y71457D01*
X212341Y70757D01*
X212344Y70752D01*
X212341Y70750D01*
X212341Y69250D01*
X212344Y69246D01*
X212341Y69243D01*
X212441Y68543D01*
X212442Y68542D01*
X212441Y68542D01*
X212541Y67942D01*
X212546Y67938D01*
X212543Y67934D01*
X212743Y67334D01*
X212746Y67333D01*
X212745Y67331D01*
X213045Y66631D01*
X213053Y66626D01*
X213052Y66619D01*
X213452Y66119D01*
X213459Y66117D01*
X213459Y66112D01*
X213959Y65712D01*
X213963Y65711D01*
X213963Y65709D01*
X214563Y65309D01*
X214572Y65310D01*
X214574Y65303D01*
X215174Y65103D01*
X215185Y65107D01*
X215190Y65101D01*
X216590Y65101D01*
X216598Y65107D01*
G37*
G36*
X232499Y65108D02*
X232499Y65108D01*
X232506Y65103D01*
X233106Y65303D01*
X233109Y65308D01*
X233112Y65306D01*
X233712Y65606D01*
X233714Y65610D01*
X233717Y65609D01*
X234317Y66009D01*
X234322Y66024D01*
X234332Y66025D01*
X234932Y67025D01*
X234932Y67028D01*
X234934Y67028D01*
X235234Y67628D01*
X235232Y67639D01*
X235239Y67643D01*
X235539Y69743D01*
X235536Y69748D01*
X235539Y69750D01*
X235539Y70550D01*
X235536Y70555D01*
X235539Y70558D01*
X235439Y71158D01*
X235339Y71857D01*
X235335Y71861D01*
X235337Y71864D01*
X235137Y72564D01*
X235136Y72565D01*
X235137Y72566D01*
X234937Y73166D01*
X234929Y73171D01*
X234931Y73177D01*
X234531Y73777D01*
X234521Y73781D01*
X234521Y73788D01*
X234023Y74187D01*
X233525Y74685D01*
X233509Y74687D01*
X233506Y74697D01*
X232906Y74897D01*
X232899Y74895D01*
X232897Y74899D01*
X232197Y74999D01*
X232192Y74996D01*
X232190Y74999D01*
X231490Y74999D01*
X231486Y74996D01*
X231483Y74999D01*
X230783Y74899D01*
X230775Y74891D01*
X230768Y74894D01*
X229568Y74294D01*
X229561Y74280D01*
X229551Y74280D01*
X229251Y73880D01*
X229251Y73876D01*
X229248Y73875D01*
X228948Y73375D01*
X228948Y73372D01*
X228946Y73372D01*
X228646Y72772D01*
X228647Y72765D01*
X228643Y72764D01*
X228443Y72064D01*
X228444Y72060D01*
X228442Y72058D01*
X228441Y72058D01*
X228341Y71458D01*
X228342Y71457D01*
X228341Y71457D01*
X228241Y70757D01*
X228244Y70752D01*
X228241Y70750D01*
X228241Y69250D01*
X228244Y69246D01*
X228241Y69243D01*
X228341Y68543D01*
X228342Y68542D01*
X228341Y68542D01*
X228441Y67942D01*
X228446Y67938D01*
X228443Y67934D01*
X228643Y67334D01*
X228646Y67333D01*
X228645Y67331D01*
X228945Y66631D01*
X228949Y66628D01*
X228948Y66625D01*
X229248Y66125D01*
X229259Y66120D01*
X229259Y66112D01*
X229759Y65712D01*
X229763Y65711D01*
X229763Y65709D01*
X230363Y65309D01*
X230374Y65310D01*
X230376Y65303D01*
X231076Y65103D01*
X231086Y65106D01*
X231090Y65101D01*
X232490Y65101D01*
X232499Y65108D01*
G37*
G36*
X241494Y65104D02*
X241494Y65104D01*
X241497Y65101D01*
X242197Y65201D01*
X242205Y65209D01*
X242212Y65206D01*
X242812Y65506D01*
X242815Y65513D01*
X242821Y65512D01*
X243321Y65912D01*
X243322Y65916D01*
X243325Y65915D01*
X243825Y66415D01*
X243826Y66422D01*
X243831Y66423D01*
X244231Y67023D01*
X244230Y67032D01*
X244237Y67034D01*
X244437Y67634D01*
X244433Y67645D01*
X244437Y67648D01*
X244437Y67649D01*
X244439Y67650D01*
X244439Y68750D01*
X244432Y68759D01*
X244437Y68766D01*
X244237Y69366D01*
X244231Y69370D01*
X244233Y69374D01*
X243833Y70074D01*
X243824Y70078D01*
X243825Y70085D01*
X243456Y70454D01*
X243828Y70919D01*
X243829Y70927D01*
X243834Y70928D01*
X244134Y71528D01*
X244133Y71535D01*
X244138Y71539D01*
X244136Y71542D01*
X244139Y71543D01*
X244239Y72243D01*
X244232Y72256D01*
X244237Y72264D01*
X244037Y72964D01*
X244036Y72965D01*
X244037Y72966D01*
X243837Y73566D01*
X243826Y73573D01*
X243828Y73581D01*
X243428Y74081D01*
X243424Y74082D01*
X243425Y74085D01*
X242925Y74585D01*
X242913Y74586D01*
X242912Y74594D01*
X242312Y74894D01*
X242305Y74893D01*
X242304Y74897D01*
X241604Y75097D01*
X241596Y75094D01*
X241593Y75099D01*
X241591Y75099D01*
X241590Y75099D01*
X240890Y75099D01*
X240889Y75099D01*
X240885Y75099D01*
X240884Y75098D01*
X240883Y75099D01*
X240183Y74999D01*
X240178Y74994D01*
X240174Y74997D01*
X239574Y74797D01*
X239571Y74792D01*
X239568Y74794D01*
X238968Y74494D01*
X238963Y74484D01*
X238955Y74485D01*
X238455Y73985D01*
X238455Y73981D01*
X238452Y73981D01*
X238052Y73481D01*
X238051Y73468D01*
X238043Y73466D01*
X237843Y72866D01*
X237845Y72859D01*
X237841Y72857D01*
X237741Y72157D01*
X237746Y72148D01*
X237741Y72143D01*
X237841Y71443D01*
X237848Y71436D01*
X237845Y71431D01*
X238145Y70731D01*
X238156Y70724D01*
X238155Y70715D01*
X238516Y70354D01*
X238059Y69988D01*
X238056Y69974D01*
X238046Y69972D01*
X237746Y69372D01*
X237747Y69365D01*
X237743Y69364D01*
X237543Y68664D01*
X237544Y68661D01*
X237543Y68660D01*
X237545Y68656D01*
X237546Y68654D01*
X237541Y68650D01*
X237541Y67950D01*
X237544Y67946D01*
X237541Y67943D01*
X237641Y67243D01*
X237649Y67235D01*
X237646Y67228D01*
X237946Y66628D01*
X237953Y66625D01*
X237952Y66619D01*
X238352Y66119D01*
X238359Y66117D01*
X238359Y66112D01*
X238859Y65712D01*
X238867Y65711D01*
X238868Y65706D01*
X239468Y65406D01*
X239470Y65406D01*
X239471Y65405D01*
X240171Y65105D01*
X240184Y65108D01*
X240190Y65101D01*
X241490Y65101D01*
X241494Y65104D01*
G37*
%LPC*%
G36*
X242549Y95443D02*
X242549Y95443D01*
X242518Y95480D01*
X242516Y95487D01*
X241919Y95686D01*
X241329Y95981D01*
X240835Y96475D01*
X240776Y96483D01*
X240775Y96478D01*
X240770Y96479D01*
X240371Y96180D01*
X239782Y95787D01*
X239100Y95690D01*
X238411Y95788D01*
X237822Y95985D01*
X237234Y96377D01*
X236840Y96869D01*
X236445Y97462D01*
X236248Y98051D01*
X236149Y98743D01*
X236149Y99432D01*
X236346Y100021D01*
X236642Y100613D01*
X237037Y101107D01*
X237527Y101597D01*
X238115Y101793D01*
X238807Y101991D01*
X239390Y101991D01*
X240074Y101697D01*
X240569Y101302D01*
X240589Y101301D01*
X240593Y101297D01*
X240610Y101297D01*
X240615Y101300D01*
X240619Y101300D01*
X240625Y101298D01*
X241622Y101896D01*
X242315Y102193D01*
X242801Y102290D01*
X243489Y102192D01*
X244081Y101994D01*
X244671Y101699D01*
X245162Y101209D01*
X245555Y100618D01*
X245753Y100024D01*
X245951Y99432D01*
X245951Y98048D01*
X245755Y97462D01*
X245359Y96867D01*
X244963Y96274D01*
X244473Y95882D01*
X243885Y95587D01*
X243296Y95489D01*
X242600Y95489D01*
X242553Y95453D01*
X242555Y95451D01*
X242553Y95449D01*
X242556Y95444D01*
X242551Y95440D01*
X242551Y95413D01*
X242549Y95443D01*
G37*
%LPD*%
%LPC*%
G36*
X242508Y35259D02*
X242508Y35259D01*
X241922Y35455D01*
X241329Y35850D01*
X240831Y36248D01*
X240771Y36250D01*
X240771Y36249D01*
X240770Y36249D01*
X240374Y35952D01*
X239785Y35658D01*
X239097Y35559D01*
X238412Y35559D01*
X237232Y36149D01*
X236840Y36639D01*
X236445Y37232D01*
X236248Y37821D01*
X236149Y38513D01*
X236149Y39202D01*
X236346Y39791D01*
X236643Y40385D01*
X237037Y40976D01*
X237527Y41368D01*
X238115Y41662D01*
X238803Y41761D01*
X239390Y41761D01*
X240074Y41467D01*
X240569Y41072D01*
X240627Y41070D01*
X240628Y41070D01*
X241622Y41765D01*
X242312Y41962D01*
X242801Y42060D01*
X243489Y41962D01*
X244081Y41764D01*
X244671Y41469D01*
X245162Y40979D01*
X245555Y40388D01*
X245753Y39794D01*
X245951Y39202D01*
X245951Y37818D01*
X245755Y37232D01*
X245360Y36639D01*
X244965Y36145D01*
X244473Y35752D01*
X243881Y35456D01*
X243292Y35259D01*
X242508Y35259D01*
G37*
%LPD*%
%LPC*%
G36*
X8908Y34259D02*
X8908Y34259D01*
X8329Y34452D01*
X7949Y34927D01*
X7949Y35602D01*
X8142Y36181D01*
X8731Y36671D01*
X12430Y39471D01*
X13230Y40071D01*
X13231Y40076D01*
X13235Y40075D01*
X13435Y40275D01*
X13436Y40286D01*
X13437Y40286D01*
X13436Y40287D01*
X13437Y40289D01*
X13447Y40297D01*
X13439Y40307D01*
X13443Y40334D01*
X13416Y40338D01*
X13400Y40359D01*
X8620Y40359D01*
X7949Y41030D01*
X7949Y41796D01*
X8236Y42274D01*
X8714Y42561D01*
X16200Y42561D01*
X16247Y42597D01*
X16245Y42599D01*
X16248Y42601D01*
X16245Y42605D01*
X16249Y42608D01*
X16251Y42639D01*
X16251Y42610D01*
X16287Y42563D01*
X16290Y42565D01*
X16292Y42561D01*
X16876Y42464D01*
X17254Y42087D01*
X17351Y41407D01*
X17351Y40730D01*
X16768Y40147D01*
X11970Y36549D01*
X11966Y36533D01*
X11953Y36523D01*
X11960Y36513D01*
X11954Y36492D01*
X11982Y36484D01*
X12000Y36461D01*
X16691Y36461D01*
X17159Y36273D01*
X17351Y35603D01*
X17351Y34730D01*
X16976Y34356D01*
X16396Y34259D01*
X8908Y34259D01*
G37*
%LPD*%
%LPC*%
G36*
X8908Y83789D02*
X8908Y83789D01*
X8329Y83982D01*
X7949Y84457D01*
X7949Y85132D01*
X8142Y85711D01*
X8731Y86201D01*
X12430Y89001D01*
X13230Y89601D01*
X13231Y89606D01*
X13235Y89605D01*
X13435Y89805D01*
X13436Y89816D01*
X13437Y89816D01*
X13436Y89817D01*
X13437Y89819D01*
X13447Y89827D01*
X13439Y89837D01*
X13443Y89864D01*
X13416Y89868D01*
X13400Y89889D01*
X8620Y89889D01*
X7949Y90560D01*
X7949Y91326D01*
X8236Y91804D01*
X8714Y92091D01*
X16200Y92091D01*
X16247Y92127D01*
X16245Y92129D01*
X16248Y92131D01*
X16245Y92135D01*
X16249Y92138D01*
X16251Y92169D01*
X16251Y92140D01*
X16287Y92093D01*
X16290Y92095D01*
X16292Y92091D01*
X16876Y91994D01*
X17254Y91617D01*
X17351Y90937D01*
X17351Y90260D01*
X16768Y89677D01*
X11970Y86079D01*
X11966Y86063D01*
X11953Y86053D01*
X11960Y86043D01*
X11954Y86022D01*
X11982Y86014D01*
X12000Y85991D01*
X16691Y85991D01*
X17159Y85803D01*
X17351Y85133D01*
X17351Y84260D01*
X16976Y83886D01*
X16396Y83789D01*
X8908Y83789D01*
G37*
%LPD*%
G36*
X199997Y65111D02*
X199997Y65111D01*
X200008Y65104D01*
X200508Y65304D01*
X200516Y65316D01*
X200525Y65315D01*
X201125Y65915D01*
X201127Y65929D01*
X201136Y65932D01*
X201336Y66432D01*
X201328Y66460D01*
X201334Y66472D01*
X201034Y67072D01*
X201027Y67075D01*
X201028Y67081D01*
X200628Y67581D01*
X200625Y67582D01*
X200626Y67584D01*
X198258Y70050D01*
X201026Y73016D01*
X201027Y73027D01*
X201034Y73028D01*
X201334Y73628D01*
X201329Y73654D01*
X201337Y73666D01*
X201137Y74266D01*
X201121Y74276D01*
X201122Y74288D01*
X200522Y74788D01*
X200510Y74788D01*
X200508Y74796D01*
X200008Y74996D01*
X199985Y74989D01*
X199974Y74997D01*
X199374Y74797D01*
X199364Y74781D01*
X199352Y74782D01*
X198852Y74182D01*
X197053Y72183D01*
X197053Y72181D01*
X197052Y72181D01*
X196689Y71728D01*
X194528Y74282D01*
X194521Y74283D01*
X194522Y74288D01*
X193922Y74788D01*
X193910Y74788D01*
X193908Y74796D01*
X193408Y74996D01*
X193385Y74989D01*
X193374Y74997D01*
X192774Y74797D01*
X192765Y74783D01*
X192755Y74785D01*
X192155Y74185D01*
X192152Y74165D01*
X192142Y74160D01*
X192042Y73660D01*
X192052Y73639D01*
X192046Y73628D01*
X192346Y73028D01*
X192355Y73024D01*
X192354Y73017D01*
X194652Y70518D01*
X195025Y70052D01*
X192754Y67583D01*
X192754Y67581D01*
X192752Y67582D01*
X192252Y66982D01*
X192252Y66968D01*
X192243Y66966D01*
X192043Y66366D01*
X192050Y66346D01*
X192050Y66345D01*
X192050Y66344D01*
X192051Y66343D01*
X192044Y66332D01*
X192244Y65832D01*
X192259Y65823D01*
X192258Y65812D01*
X192858Y65312D01*
X192872Y65312D01*
X192874Y65303D01*
X193474Y65103D01*
X193497Y65111D01*
X193508Y65104D01*
X194008Y65304D01*
X194017Y65319D01*
X194028Y65318D01*
X194527Y65918D01*
X196326Y68017D01*
X196688Y68378D01*
X199353Y65318D01*
X199371Y65314D01*
X199374Y65303D01*
X199974Y65103D01*
X199997Y65111D01*
G37*
%LPC*%
G36*
X262903Y35359D02*
X262903Y35359D01*
X262230Y35455D01*
X261949Y35924D01*
X261949Y42096D01*
X262230Y42565D01*
X262901Y42660D01*
X263773Y42563D01*
X264053Y42190D01*
X264151Y41606D01*
X264151Y38210D01*
X264154Y38205D01*
X264151Y38202D01*
X264251Y37602D01*
X264295Y37561D01*
X264298Y37564D01*
X264300Y37561D01*
X265500Y37561D01*
X265547Y37597D01*
X265542Y37604D01*
X265549Y37610D01*
X265549Y40402D01*
X265740Y40973D01*
X266212Y41162D01*
X267089Y41259D01*
X267559Y40977D01*
X267752Y40399D01*
X267851Y39707D01*
X267851Y37710D01*
X267887Y37663D01*
X267889Y37664D01*
X267890Y37662D01*
X268390Y37562D01*
X268397Y37565D01*
X268400Y37561D01*
X269100Y37561D01*
X269147Y37597D01*
X269142Y37604D01*
X269149Y37610D01*
X269149Y41607D01*
X269245Y42280D01*
X269716Y42562D01*
X270496Y42660D01*
X271163Y42469D01*
X271351Y42001D01*
X271351Y35827D01*
X270976Y35359D01*
X262903Y35359D01*
G37*
%LPD*%
%LPC*%
G36*
X12403Y73189D02*
X12403Y73189D01*
X11011Y73388D01*
X10422Y73585D01*
X9829Y73980D01*
X9333Y74377D01*
X8837Y74873D01*
X8442Y75367D01*
X8144Y75962D01*
X7848Y76555D01*
X7749Y77247D01*
X7650Y77939D01*
X7749Y78532D01*
X7748Y78533D01*
X7749Y78533D01*
X7848Y79229D01*
X8046Y79821D01*
X8343Y80415D01*
X8732Y80999D01*
X9300Y81188D01*
X9873Y80997D01*
X10455Y80416D01*
X10548Y79947D01*
X9956Y78762D01*
X9958Y78751D01*
X9951Y78747D01*
X9851Y78047D01*
X9856Y78038D01*
X9851Y78033D01*
X9951Y77333D01*
X9956Y77328D01*
X9953Y77324D01*
X10153Y76724D01*
X10161Y76719D01*
X10159Y76713D01*
X10559Y76113D01*
X10569Y76109D01*
X10569Y76102D01*
X11069Y75702D01*
X11083Y75701D01*
X11086Y75693D01*
X11786Y75493D01*
X11791Y75495D01*
X11793Y75491D01*
X12493Y75391D01*
X12502Y75396D01*
X12507Y75391D01*
X13207Y75491D01*
X13212Y75496D01*
X13216Y75493D01*
X13816Y75693D01*
X13823Y75704D01*
X13831Y75702D01*
X14331Y76102D01*
X14333Y76109D01*
X14338Y76108D01*
X14838Y76708D01*
X14838Y76716D01*
X14838Y76722D01*
X14847Y76724D01*
X15047Y77324D01*
X15045Y77330D01*
X15049Y77332D01*
X15149Y77932D01*
X15146Y77937D01*
X15149Y77940D01*
X15149Y78640D01*
X15140Y78653D01*
X15144Y78662D01*
X14844Y79262D01*
X14807Y79281D01*
X14800Y79289D01*
X13500Y79289D01*
X13453Y79253D01*
X13457Y79248D01*
X13451Y79244D01*
X13352Y77862D01*
X12980Y77489D01*
X12308Y77489D01*
X11739Y77679D01*
X11549Y78248D01*
X11549Y80433D01*
X11743Y81111D01*
X12120Y81393D01*
X12803Y81491D01*
X15492Y81491D01*
X16073Y81297D01*
X16561Y80810D01*
X16857Y80317D01*
X17153Y79725D01*
X17251Y79133D01*
X17351Y78337D01*
X17351Y77643D01*
X17251Y76948D01*
X17153Y76355D01*
X16857Y75765D01*
X16462Y75171D01*
X15470Y74179D01*
X14977Y73883D01*
X14382Y73586D01*
X13686Y73387D01*
X13685Y73386D01*
X13684Y73387D01*
X13092Y73189D01*
X12403Y73189D01*
G37*
%LPD*%
%LPC*%
G36*
X12403Y23659D02*
X12403Y23659D01*
X11011Y23858D01*
X10422Y24055D01*
X9829Y24450D01*
X9333Y24847D01*
X8837Y25343D01*
X8442Y25837D01*
X8144Y26432D01*
X7848Y27025D01*
X7749Y27717D01*
X7650Y28409D01*
X7749Y29002D01*
X7748Y29003D01*
X7749Y29003D01*
X7848Y29699D01*
X8046Y30291D01*
X8343Y30885D01*
X8732Y31469D01*
X9300Y31658D01*
X9873Y31467D01*
X10455Y30886D01*
X10548Y30417D01*
X9956Y29232D01*
X9958Y29221D01*
X9951Y29217D01*
X9851Y28517D01*
X9856Y28508D01*
X9851Y28503D01*
X9951Y27803D01*
X9956Y27798D01*
X9953Y27794D01*
X10153Y27194D01*
X10161Y27189D01*
X10159Y27183D01*
X10559Y26583D01*
X10569Y26579D01*
X10569Y26572D01*
X11069Y26172D01*
X11083Y26171D01*
X11086Y26163D01*
X11786Y25963D01*
X11791Y25965D01*
X11793Y25961D01*
X12493Y25861D01*
X12502Y25866D01*
X12507Y25861D01*
X13207Y25961D01*
X13212Y25966D01*
X13216Y25963D01*
X13816Y26163D01*
X13823Y26174D01*
X13831Y26172D01*
X14331Y26572D01*
X14333Y26579D01*
X14338Y26578D01*
X14838Y27178D01*
X14838Y27186D01*
X14838Y27192D01*
X14847Y27194D01*
X15047Y27794D01*
X15045Y27800D01*
X15049Y27802D01*
X15149Y28402D01*
X15146Y28407D01*
X15149Y28410D01*
X15149Y29110D01*
X15140Y29123D01*
X15144Y29132D01*
X14844Y29732D01*
X14807Y29751D01*
X14800Y29759D01*
X13500Y29759D01*
X13453Y29723D01*
X13457Y29718D01*
X13451Y29714D01*
X13352Y28332D01*
X12980Y27959D01*
X12308Y27959D01*
X11739Y28149D01*
X11549Y28718D01*
X11549Y30903D01*
X11743Y31581D01*
X12120Y31863D01*
X12803Y31961D01*
X15492Y31961D01*
X16073Y31767D01*
X16561Y31280D01*
X16857Y30787D01*
X17153Y30195D01*
X17251Y29603D01*
X17351Y28807D01*
X17351Y28113D01*
X17251Y27418D01*
X17153Y26825D01*
X16857Y26235D01*
X16462Y25641D01*
X15470Y24649D01*
X14977Y24353D01*
X14382Y24056D01*
X13686Y23857D01*
X13685Y23856D01*
X13684Y23857D01*
X13092Y23659D01*
X12403Y23659D01*
G37*
%LPD*%
%LPC*%
G36*
X87403Y35259D02*
X87403Y35259D01*
X86711Y35358D01*
X86119Y35556D01*
X85527Y35852D01*
X84935Y36345D01*
X84540Y36838D01*
X84246Y37330D01*
X84049Y38017D01*
X84049Y39403D01*
X84246Y40090D01*
X84539Y40580D01*
X85529Y41569D01*
X86119Y41864D01*
X86711Y42062D01*
X87400Y42160D01*
X88092Y42061D01*
X88683Y41963D01*
X89372Y41569D01*
X89865Y41175D01*
X90362Y40579D01*
X90758Y40083D01*
X91256Y39088D01*
X91274Y39079D01*
X91287Y39063D01*
X91295Y39069D01*
X91309Y39062D01*
X91320Y39084D01*
X91347Y39104D01*
X91345Y39107D01*
X91349Y39110D01*
X91349Y41407D01*
X91446Y42084D01*
X91920Y42463D01*
X92600Y42560D01*
X93270Y42465D01*
X93551Y41996D01*
X93551Y36514D01*
X93454Y35931D01*
X93071Y35453D01*
X92397Y35260D01*
X91818Y35357D01*
X91229Y35750D01*
X90737Y36144D01*
X90341Y36737D01*
X89241Y38437D01*
X88841Y39037D01*
X88834Y39040D01*
X88835Y39045D01*
X88335Y39545D01*
X88323Y39546D01*
X88322Y39554D01*
X87722Y39854D01*
X87709Y39852D01*
X87706Y39856D01*
X87702Y39856D01*
X87700Y39859D01*
X87100Y39859D01*
X87096Y39856D01*
X87095Y39856D01*
X87084Y39848D01*
X87075Y39852D01*
X86575Y39552D01*
X86567Y39534D01*
X86556Y39532D01*
X86256Y38932D01*
X86259Y38916D01*
X86251Y38910D01*
X86251Y38210D01*
X86267Y38189D01*
X86265Y38175D01*
X86765Y37675D01*
X86781Y37673D01*
X86784Y37663D01*
X87384Y37463D01*
X87391Y37465D01*
X87393Y37461D01*
X88081Y37363D01*
X88454Y37083D01*
X88550Y36310D01*
X88454Y35537D01*
X88084Y35259D01*
X87403Y35259D01*
G37*
%LPD*%
%LPC*%
G36*
X218718Y23756D02*
X218718Y23756D01*
X212024Y27053D01*
X211533Y27348D01*
X211049Y27928D01*
X211049Y28498D01*
X211337Y29073D01*
X211922Y29366D01*
X218620Y32665D01*
X219310Y32961D01*
X219780Y32961D01*
X220258Y32482D01*
X220549Y31804D01*
X220455Y31237D01*
X219973Y30852D01*
X218778Y30254D01*
X218769Y30237D01*
X218758Y30235D01*
X218458Y29735D01*
X218459Y29728D01*
X218453Y29724D01*
X218459Y29716D01*
X218451Y29710D01*
X218451Y27010D01*
X218454Y27005D01*
X218451Y27002D01*
X218551Y26402D01*
X218576Y26379D01*
X218578Y26366D01*
X219778Y25766D01*
X220360Y25475D01*
X220548Y24909D01*
X220356Y24234D01*
X219873Y23655D01*
X219402Y23561D01*
X218718Y23756D01*
G37*
%LPD*%
%LPC*%
G36*
X86712Y95489D02*
X86712Y95489D01*
X85525Y96083D01*
X84934Y96477D01*
X84542Y96967D01*
X84246Y97558D01*
X84049Y98247D01*
X84049Y99632D01*
X84246Y100221D01*
X84541Y100811D01*
X85033Y101303D01*
X85529Y101700D01*
X86122Y102095D01*
X86708Y102291D01*
X88092Y102291D01*
X88682Y102094D01*
X89374Y101797D01*
X89865Y101405D01*
X90361Y100810D01*
X90758Y100215D01*
X91257Y99316D01*
X91275Y99308D01*
X91287Y99293D01*
X91295Y99299D01*
X91311Y99292D01*
X91324Y99321D01*
X91349Y99340D01*
X91349Y101637D01*
X91446Y102314D01*
X91917Y102691D01*
X92597Y102691D01*
X93270Y102595D01*
X93551Y102126D01*
X93551Y96743D01*
X93453Y96060D01*
X93074Y95586D01*
X92401Y95490D01*
X91815Y95587D01*
X91229Y95881D01*
X90737Y96373D01*
X90340Y96868D01*
X89242Y98666D01*
X89241Y98666D01*
X89241Y98667D01*
X88841Y99267D01*
X88831Y99271D01*
X88831Y99278D01*
X88331Y99678D01*
X88327Y99679D01*
X88327Y99681D01*
X87727Y100081D01*
X87707Y100080D01*
X87700Y100089D01*
X87100Y100089D01*
X87085Y100078D01*
X87075Y100082D01*
X86575Y99782D01*
X86567Y99764D01*
X86556Y99762D01*
X86256Y99162D01*
X86259Y99147D01*
X86253Y99143D01*
X86253Y99142D01*
X86251Y99140D01*
X86251Y98440D01*
X86265Y98421D01*
X86262Y98408D01*
X86762Y97808D01*
X86786Y97803D01*
X86792Y97791D01*
X87392Y97691D01*
X87393Y97692D01*
X87393Y97691D01*
X88077Y97594D01*
X88454Y97217D01*
X88550Y96540D01*
X88454Y95767D01*
X88084Y95489D01*
X86712Y95489D01*
G37*
%LPD*%
%LPC*%
G36*
X117218Y23756D02*
X117218Y23756D01*
X110522Y27054D01*
X109932Y27349D01*
X109547Y27830D01*
X109451Y28500D01*
X109738Y28977D01*
X110227Y29368D01*
X116920Y32665D01*
X117610Y32961D01*
X118183Y32961D01*
X118659Y32580D01*
X118951Y31801D01*
X118951Y31234D01*
X118474Y30852D01*
X117179Y30255D01*
X117171Y30240D01*
X117161Y30240D01*
X116861Y29840D01*
X116861Y29829D01*
X116853Y29823D01*
X116858Y29815D01*
X116851Y29810D01*
X116851Y26410D01*
X116877Y26375D01*
X116879Y26365D01*
X118177Y25766D01*
X118662Y25475D01*
X118947Y24906D01*
X118755Y24332D01*
X118359Y23737D01*
X118360Y23716D01*
X118359Y23716D01*
X118360Y23714D01*
X118363Y23679D01*
X118362Y23678D01*
X118381Y23656D01*
X117902Y23561D01*
X117218Y23756D01*
G37*
%LPD*%
%LPC*%
G36*
X66418Y23756D02*
X66418Y23756D01*
X59722Y27054D01*
X59132Y27349D01*
X58747Y27830D01*
X58651Y28500D01*
X58938Y28977D01*
X59427Y29368D01*
X66222Y32666D01*
X66812Y32961D01*
X67383Y32961D01*
X67859Y32580D01*
X68149Y31805D01*
X68054Y31234D01*
X67671Y30851D01*
X66379Y30255D01*
X66370Y30237D01*
X66358Y30235D01*
X66058Y29735D01*
X66059Y29728D01*
X66053Y29724D01*
X66059Y29716D01*
X66051Y29710D01*
X66051Y27010D01*
X66054Y27005D01*
X66051Y27002D01*
X66151Y26402D01*
X66176Y26379D01*
X66178Y26366D01*
X67378Y25766D01*
X67960Y25475D01*
X68148Y24910D01*
X67955Y24330D01*
X67568Y23654D01*
X67102Y23561D01*
X66418Y23756D01*
G37*
%LPD*%
%LPC*%
G36*
X91620Y23855D02*
X91620Y23855D01*
X84924Y27153D01*
X84435Y27447D01*
X84049Y28025D01*
X84049Y28595D01*
X84434Y29172D01*
X85022Y29466D01*
X91720Y32665D01*
X92405Y32959D01*
X92876Y32865D01*
X93356Y32384D01*
X93548Y31711D01*
X93358Y31139D01*
X92873Y30752D01*
X91678Y30154D01*
X91667Y30132D01*
X91654Y30128D01*
X91454Y29628D01*
X91455Y29627D01*
X91454Y29626D01*
X91456Y29622D01*
X91458Y29615D01*
X91451Y29610D01*
X91451Y26910D01*
X91458Y26901D01*
X91453Y26894D01*
X91653Y26294D01*
X91678Y26278D01*
X91681Y26265D01*
X92877Y25766D01*
X93455Y25381D01*
X93549Y24816D01*
X93257Y24136D01*
X92862Y23641D01*
X92861Y23621D01*
X92856Y23617D01*
X92861Y23611D01*
X92861Y23607D01*
X92841Y23637D01*
X92807Y23649D01*
X92804Y23653D01*
X92797Y23653D01*
X92796Y23653D01*
X92790Y23658D01*
X92305Y23561D01*
X91620Y23855D01*
G37*
%LPD*%
%LPC*%
G36*
X244710Y23559D02*
X244710Y23559D01*
X244020Y23855D01*
X237324Y27153D01*
X236835Y27447D01*
X236449Y28025D01*
X236449Y28595D01*
X236833Y29170D01*
X237519Y29465D01*
X237520Y29467D01*
X237522Y29466D01*
X244219Y32764D01*
X244816Y32963D01*
X244830Y32984D01*
X244847Y32997D01*
X244843Y33003D01*
X244847Y33009D01*
X244855Y32991D01*
X244883Y32975D01*
X244888Y32962D01*
X245272Y32866D01*
X245756Y32286D01*
X245948Y31611D01*
X245760Y31045D01*
X245178Y30754D01*
X243978Y30154D01*
X243965Y30128D01*
X243953Y30119D01*
X243951Y30118D01*
X243851Y29518D01*
X243854Y29513D01*
X243851Y29510D01*
X243851Y26810D01*
X243859Y26799D01*
X243854Y26792D01*
X244054Y26292D01*
X244077Y26278D01*
X244079Y26265D01*
X245374Y25668D01*
X245855Y25283D01*
X245949Y24815D01*
X245658Y24138D01*
X245165Y23645D01*
X245162Y23621D01*
X245156Y23617D01*
X245161Y23612D01*
X245157Y23586D01*
X245159Y23586D01*
X245158Y23584D01*
X245174Y23559D01*
X244710Y23559D01*
G37*
%LPD*%
%LPC*%
G36*
X193714Y23658D02*
X193714Y23658D01*
X193020Y23955D01*
X186327Y27252D01*
X185842Y27639D01*
X185651Y28214D01*
X185746Y28786D01*
X186220Y29261D01*
X186300Y29261D01*
X186309Y29268D01*
X186314Y29268D01*
X186316Y29269D01*
X186322Y29266D01*
X193615Y32863D01*
X194195Y32959D01*
X194664Y32771D01*
X195053Y31995D01*
X195148Y31420D01*
X194866Y30948D01*
X193579Y30355D01*
X193577Y30351D01*
X193575Y30352D01*
X193075Y30052D01*
X193065Y30029D01*
X193053Y30020D01*
X193057Y30014D01*
X193051Y30010D01*
X193051Y26610D01*
X193067Y26589D01*
X193065Y26575D01*
X193465Y26175D01*
X193478Y26173D01*
X193479Y26165D01*
X194771Y25569D01*
X195147Y25193D01*
X195052Y24623D01*
X194754Y23827D01*
X194758Y23814D01*
X194740Y23839D01*
X194708Y23849D01*
X194707Y23850D01*
X194703Y23850D01*
X194683Y23856D01*
X194680Y23847D01*
X194670Y23849D01*
X194287Y23562D01*
X193714Y23658D01*
G37*
%LPD*%
%LPC*%
G36*
X41315Y35457D02*
X41315Y35457D01*
X40620Y35755D01*
X33927Y39052D01*
X33442Y39439D01*
X33251Y40014D01*
X33346Y40586D01*
X33829Y41069D01*
X41219Y44564D01*
X41798Y44758D01*
X42274Y44568D01*
X42256Y44532D01*
X42262Y44498D01*
X42257Y44486D01*
X42653Y43793D01*
X42748Y43220D01*
X42466Y42748D01*
X41179Y42155D01*
X41177Y42151D01*
X41175Y42152D01*
X40675Y41852D01*
X40661Y41818D01*
X40651Y41810D01*
X40651Y38410D01*
X40670Y38385D01*
X40669Y38372D01*
X41169Y37972D01*
X41177Y37971D01*
X41178Y37966D01*
X42368Y37371D01*
X42748Y36896D01*
X42653Y36327D01*
X42264Y35646D01*
X41791Y35362D01*
X41315Y35457D01*
G37*
%LPD*%
G36*
X207395Y65104D02*
X207395Y65104D01*
X207398Y65101D01*
X207998Y65201D01*
X208004Y65208D01*
X208009Y65205D01*
X208709Y65505D01*
X208712Y65509D01*
X208715Y65508D01*
X209215Y65808D01*
X209217Y65812D01*
X209221Y65812D01*
X209721Y66212D01*
X209723Y66222D01*
X209731Y66223D01*
X210131Y66823D01*
X210130Y66832D01*
X210137Y66834D01*
X210337Y67434D01*
X210335Y67441D01*
X210339Y67443D01*
X210439Y68143D01*
X210434Y68151D01*
X210439Y68156D01*
X210339Y68956D01*
X210334Y68961D01*
X210337Y68966D01*
X210137Y69566D01*
X210126Y69573D01*
X210128Y69581D01*
X209728Y70081D01*
X209721Y70083D01*
X209721Y70088D01*
X209221Y70488D01*
X209213Y70489D01*
X209212Y70494D01*
X208612Y70794D01*
X208607Y70793D01*
X208606Y70797D01*
X208006Y70997D01*
X208002Y70995D01*
X208000Y70998D01*
X206612Y71296D01*
X206132Y71679D01*
X205945Y72240D01*
X206316Y72704D01*
X206985Y72800D01*
X207566Y72606D01*
X208158Y72112D01*
X208182Y72111D01*
X208190Y72101D01*
X208790Y72101D01*
X208805Y72112D01*
X208815Y72108D01*
X209315Y72408D01*
X209321Y72421D01*
X209330Y72421D01*
X209830Y73121D01*
X209829Y73143D01*
X209839Y73150D01*
X209839Y73650D01*
X209823Y73671D01*
X209825Y73685D01*
X209325Y74185D01*
X209321Y74185D01*
X209321Y74188D01*
X208821Y74588D01*
X208807Y74589D01*
X208804Y74597D01*
X208104Y74797D01*
X208100Y74796D01*
X208098Y74799D01*
X207498Y74899D01*
X207497Y74898D01*
X207496Y74899D01*
X206696Y74999D01*
X206688Y74994D01*
X206683Y74999D01*
X205983Y74899D01*
X205978Y74894D01*
X205974Y74897D01*
X205374Y74697D01*
X205371Y74692D01*
X205368Y74694D01*
X204768Y74394D01*
X204765Y74387D01*
X204759Y74388D01*
X204259Y73988D01*
X204257Y73978D01*
X204249Y73977D01*
X203849Y73377D01*
X203850Y73368D01*
X203843Y73366D01*
X203643Y72766D01*
X203645Y72760D01*
X203641Y72758D01*
X203541Y72158D01*
X203547Y72148D01*
X203541Y72143D01*
X203641Y71443D01*
X203645Y71439D01*
X203643Y71436D01*
X203843Y70736D01*
X203854Y70728D01*
X203852Y70719D01*
X204252Y70219D01*
X204256Y70218D01*
X204255Y70215D01*
X204655Y69815D01*
X204667Y69814D01*
X204668Y69806D01*
X205268Y69506D01*
X205270Y69506D01*
X205271Y69505D01*
X205971Y69205D01*
X205975Y69206D01*
X205976Y69203D01*
X206676Y69003D01*
X206680Y69004D01*
X206682Y69001D01*
X207275Y68903D01*
X207850Y68615D01*
X208036Y68056D01*
X207756Y67589D01*
X207083Y67301D01*
X206408Y67397D01*
X205820Y67789D01*
X205222Y68288D01*
X205210Y68288D01*
X205208Y68296D01*
X204708Y68496D01*
X204696Y68492D01*
X204691Y68499D01*
X204689Y68499D01*
X204685Y68496D01*
X204682Y68499D01*
X204082Y68399D01*
X204065Y68381D01*
X204052Y68382D01*
X203552Y67782D01*
X203552Y67774D01*
X203551Y67774D01*
X203552Y67773D01*
X203551Y67764D01*
X203542Y67760D01*
X203442Y67260D01*
X203451Y67241D01*
X203445Y67231D01*
X203745Y66531D01*
X203756Y66524D01*
X203755Y66515D01*
X204155Y66115D01*
X204162Y66114D01*
X204163Y66109D01*
X205363Y65309D01*
X205372Y65310D01*
X205374Y65303D01*
X205974Y65103D01*
X205985Y65107D01*
X205990Y65101D01*
X207390Y65101D01*
X207395Y65104D01*
G37*
%LPC*%
G36*
X190603Y35259D02*
X190603Y35259D01*
X189911Y35358D01*
X189316Y35557D01*
X189314Y35556D01*
X189314Y35557D01*
X188620Y35756D01*
X188125Y36052D01*
X188122Y36052D01*
X188122Y36054D01*
X187529Y36351D01*
X186638Y37241D01*
X186242Y37836D01*
X185946Y38330D01*
X185748Y39020D01*
X185649Y39713D01*
X185649Y40407D01*
X185746Y41087D01*
X186123Y41464D01*
X186797Y41560D01*
X187471Y41367D01*
X187753Y40991D01*
X187851Y40204D01*
X187852Y40203D01*
X187851Y40202D01*
X187951Y39602D01*
X187955Y39599D01*
X187953Y39596D01*
X188153Y38896D01*
X188162Y38890D01*
X188159Y38883D01*
X188559Y38283D01*
X188572Y38278D01*
X188573Y38269D01*
X189173Y37869D01*
X189185Y37870D01*
X189188Y37862D01*
X189588Y37762D01*
X189595Y37765D01*
X189600Y37761D01*
X189608Y37771D01*
X189643Y37786D01*
X189634Y37806D01*
X189647Y37824D01*
X189449Y38517D01*
X189449Y39202D01*
X189646Y39791D01*
X189942Y40383D01*
X190337Y40877D01*
X190829Y41369D01*
X191415Y41662D01*
X192103Y41761D01*
X192888Y41761D01*
X194068Y41171D01*
X194460Y40681D01*
X194855Y40088D01*
X195052Y39499D01*
X195151Y38807D01*
X195151Y38113D01*
X195052Y37425D01*
X194758Y36837D01*
X194365Y36345D01*
X193872Y35950D01*
X193379Y35655D01*
X192785Y35457D01*
X192093Y35259D01*
X190603Y35259D01*
G37*
%LPD*%
%LPC*%
G36*
X190603Y95489D02*
X190603Y95489D01*
X189911Y95588D01*
X189316Y95787D01*
X189314Y95786D01*
X189314Y95787D01*
X188620Y95986D01*
X188125Y96282D01*
X188122Y96282D01*
X188122Y96284D01*
X187527Y96582D01*
X187035Y96975D01*
X186638Y97471D01*
X186242Y97967D01*
X185946Y98558D01*
X185748Y99251D01*
X185649Y99844D01*
X185649Y100637D01*
X185746Y101317D01*
X186120Y101691D01*
X186797Y101691D01*
X187470Y101595D01*
X187753Y101123D01*
X187951Y99733D01*
X187956Y99728D01*
X187953Y99724D01*
X188153Y99124D01*
X188161Y99119D01*
X188159Y99113D01*
X188559Y98513D01*
X188572Y98508D01*
X188573Y98499D01*
X189173Y98099D01*
X189185Y98100D01*
X189188Y98092D01*
X189588Y97992D01*
X189595Y97995D01*
X189600Y97991D01*
X189608Y98001D01*
X189643Y98016D01*
X189638Y98027D01*
X189646Y98033D01*
X189639Y98042D01*
X189647Y98054D01*
X189449Y98747D01*
X189449Y99333D01*
X189646Y100022D01*
X189942Y100613D01*
X190337Y101107D01*
X190829Y101599D01*
X191415Y101892D01*
X192103Y101991D01*
X192197Y101991D01*
X192889Y101892D01*
X193478Y101695D01*
X194066Y101303D01*
X194462Y100809D01*
X194856Y100316D01*
X195052Y99729D01*
X195151Y99037D01*
X195151Y98244D01*
X195053Y97655D01*
X194758Y97067D01*
X194365Y96575D01*
X193872Y96180D01*
X193377Y95883D01*
X192785Y95588D01*
X192097Y95489D01*
X190603Y95489D01*
G37*
%LPD*%
%LPC*%
G36*
X115916Y95489D02*
X115916Y95489D01*
X115544Y95769D01*
X115350Y96543D01*
X115446Y97313D01*
X115825Y97597D01*
X116519Y97895D01*
X116532Y97917D01*
X116545Y97921D01*
X116845Y98621D01*
X116845Y98623D01*
X116846Y98624D01*
X116844Y98627D01*
X116842Y98634D01*
X116849Y98640D01*
X116849Y99340D01*
X116842Y99349D01*
X116847Y99356D01*
X116647Y99956D01*
X116630Y99967D01*
X116631Y99978D01*
X116131Y100378D01*
X116095Y100379D01*
X116084Y100387D01*
X115484Y100187D01*
X115473Y100170D01*
X115462Y100171D01*
X115062Y99671D01*
X115061Y99652D01*
X115051Y99646D01*
X114952Y98852D01*
X114759Y98371D01*
X114384Y98089D01*
X113508Y98089D01*
X112944Y98277D01*
X112849Y98847D01*
X112749Y99646D01*
X112739Y99657D01*
X112742Y99665D01*
X112442Y100165D01*
X112387Y100188D01*
X112386Y100186D01*
X112384Y100187D01*
X111784Y99987D01*
X111769Y99965D01*
X111756Y99962D01*
X111456Y99362D01*
X111459Y99346D01*
X111451Y99340D01*
X111451Y98640D01*
X111465Y98622D01*
X111462Y98609D01*
X111862Y98109D01*
X111872Y98107D01*
X111873Y98099D01*
X112459Y97708D01*
X112649Y97136D01*
X112554Y96561D01*
X112073Y95985D01*
X111602Y95891D01*
X110921Y96085D01*
X110334Y96477D01*
X109940Y96968D01*
X109644Y97462D01*
X109348Y98154D01*
X109249Y98744D01*
X109249Y100618D01*
X110233Y101503D01*
X110233Y101505D01*
X110235Y101505D01*
X110729Y101999D01*
X111315Y102292D01*
X112003Y102391D01*
X112688Y102391D01*
X113268Y102101D01*
X113662Y101609D01*
X113692Y101602D01*
X113699Y101592D01*
X113705Y101592D01*
X113709Y101595D01*
X113712Y101592D01*
X114112Y101692D01*
X114124Y101707D01*
X114135Y101705D01*
X114629Y102199D01*
X115215Y102492D01*
X115900Y102590D01*
X116589Y102492D01*
X117179Y102295D01*
X117670Y102001D01*
X118162Y101509D01*
X118555Y100918D01*
X118753Y100324D01*
X118951Y99732D01*
X118951Y98248D01*
X118753Y97656D01*
X118555Y97062D01*
X118162Y96471D01*
X117770Y96080D01*
X117080Y95685D01*
X116492Y95489D01*
X115916Y95489D01*
G37*
%LPD*%
%LPC*%
G36*
X115920Y35259D02*
X115920Y35259D01*
X115544Y35636D01*
X115350Y36314D01*
X115446Y37083D01*
X115825Y37367D01*
X116519Y37665D01*
X116532Y37687D01*
X116545Y37691D01*
X116845Y38391D01*
X116842Y38404D01*
X116849Y38410D01*
X116849Y39110D01*
X116842Y39119D01*
X116847Y39126D01*
X116647Y39726D01*
X116630Y39737D01*
X116631Y39748D01*
X116131Y40148D01*
X116112Y40149D01*
X116109Y40152D01*
X116099Y40152D01*
X116092Y40159D01*
X115492Y40059D01*
X115473Y40038D01*
X115459Y40037D01*
X115059Y39437D01*
X115059Y39430D01*
X115055Y39426D01*
X115059Y39421D01*
X115051Y39417D01*
X114952Y38721D01*
X114758Y38140D01*
X114384Y37859D01*
X113512Y37859D01*
X112944Y38143D01*
X112849Y38618D01*
X112749Y39515D01*
X112736Y39529D01*
X112739Y39540D01*
X112439Y39940D01*
X112408Y39949D01*
X112403Y39955D01*
X112396Y39955D01*
X112392Y39959D01*
X111792Y39859D01*
X111769Y39835D01*
X111756Y39832D01*
X111456Y39232D01*
X111456Y39230D01*
X111456Y39229D01*
X111457Y39228D01*
X111459Y39216D01*
X111451Y39210D01*
X111451Y38510D01*
X111463Y38494D01*
X111459Y38483D01*
X111859Y37883D01*
X111872Y37878D01*
X111873Y37869D01*
X112460Y37478D01*
X112649Y37005D01*
X112554Y36431D01*
X112070Y35851D01*
X111597Y35662D01*
X110921Y35855D01*
X110334Y36247D01*
X109940Y36738D01*
X109644Y37232D01*
X109348Y37924D01*
X109249Y38613D01*
X109249Y40390D01*
X110233Y41373D01*
X110727Y41768D01*
X111315Y42062D01*
X112003Y42161D01*
X112688Y42161D01*
X113268Y41871D01*
X113662Y41379D01*
X113704Y41368D01*
X113712Y41362D01*
X114112Y41462D01*
X114124Y41477D01*
X114135Y41475D01*
X114629Y41969D01*
X115215Y42262D01*
X115903Y42361D01*
X116592Y42361D01*
X117176Y42166D01*
X117667Y41773D01*
X118163Y41277D01*
X118556Y40786D01*
X118753Y40195D01*
X118951Y39503D01*
X118951Y38117D01*
X118753Y37425D01*
X118556Y36834D01*
X118162Y36341D01*
X117766Y35847D01*
X117173Y35451D01*
X117158Y35409D01*
X117152Y35402D01*
X117148Y35420D01*
X117103Y35459D01*
X117095Y35450D01*
X117084Y35457D01*
X116492Y35259D01*
X115920Y35259D01*
G37*
%LPD*%
%LPC*%
G36*
X167818Y23559D02*
X167818Y23559D01*
X167237Y24043D01*
X166852Y24620D01*
X166946Y25091D01*
X167341Y25683D01*
X167340Y25692D01*
X167347Y25694D01*
X167547Y26294D01*
X167546Y26298D01*
X167547Y26299D01*
X167544Y26304D01*
X167542Y26310D01*
X167549Y26317D01*
X167449Y27017D01*
X167436Y27030D01*
X167438Y27041D01*
X167038Y27541D01*
X167008Y27548D01*
X167000Y27559D01*
X166300Y27559D01*
X166282Y27545D01*
X166269Y27548D01*
X165769Y27148D01*
X165764Y27129D01*
X165753Y27126D01*
X165553Y26526D01*
X165554Y26524D01*
X165553Y26523D01*
X165555Y26520D01*
X165562Y26500D01*
X165556Y26488D01*
X166149Y25302D01*
X166053Y24727D01*
X165662Y24043D01*
X165185Y23661D01*
X164307Y23759D01*
X161113Y24258D01*
X160630Y24451D01*
X160245Y24932D01*
X160149Y25316D01*
X160149Y28706D01*
X160245Y29280D01*
X160714Y29561D01*
X161592Y29561D01*
X162163Y29371D01*
X162351Y28901D01*
X162351Y26810D01*
X162355Y26804D01*
X162352Y26800D01*
X162452Y26300D01*
X162490Y26266D01*
X162493Y26261D01*
X163193Y26161D01*
X163199Y26165D01*
X163201Y26165D01*
X163204Y26167D01*
X163245Y26190D01*
X163242Y26196D01*
X163248Y26201D01*
X163249Y26202D01*
X163349Y26802D01*
X163448Y27396D01*
X163743Y28084D01*
X164138Y28579D01*
X164534Y29073D01*
X165122Y29465D01*
X165711Y29662D01*
X166403Y29761D01*
X167092Y29761D01*
X167681Y29564D01*
X168273Y29268D01*
X168767Y28873D01*
X169259Y28381D01*
X169554Y27791D01*
X169751Y27202D01*
X169751Y25817D01*
X169554Y25128D01*
X169258Y24537D01*
X168865Y24045D01*
X168282Y23559D01*
X167818Y23559D01*
G37*
%LPD*%
%LPC*%
G36*
X167818Y95949D02*
X167818Y95949D01*
X167237Y96433D01*
X166852Y97010D01*
X166946Y97481D01*
X167341Y98073D01*
X167340Y98082D01*
X167347Y98084D01*
X167547Y98684D01*
X167546Y98686D01*
X167547Y98687D01*
X167544Y98691D01*
X167542Y98700D01*
X167549Y98707D01*
X167449Y99407D01*
X167436Y99420D01*
X167438Y99431D01*
X167038Y99931D01*
X167008Y99938D01*
X167000Y99949D01*
X166300Y99949D01*
X166282Y99935D01*
X166269Y99938D01*
X165769Y99538D01*
X165764Y99519D01*
X165753Y99516D01*
X165553Y98916D01*
X165555Y98912D01*
X165554Y98911D01*
X165556Y98908D01*
X165562Y98890D01*
X165556Y98878D01*
X166149Y97692D01*
X166053Y97117D01*
X165662Y96433D01*
X165185Y96051D01*
X164307Y96149D01*
X161113Y96648D01*
X160630Y96841D01*
X160245Y97322D01*
X160149Y97706D01*
X160149Y101096D01*
X160245Y101670D01*
X160714Y101951D01*
X161592Y101951D01*
X162163Y101761D01*
X162351Y101291D01*
X162351Y99200D01*
X162355Y99194D01*
X162352Y99190D01*
X162452Y98690D01*
X162490Y98656D01*
X162493Y98651D01*
X163193Y98551D01*
X163196Y98553D01*
X163200Y98553D01*
X163212Y98562D01*
X163245Y98580D01*
X163242Y98585D01*
X163248Y98589D01*
X163246Y98591D01*
X163249Y98592D01*
X163349Y99192D01*
X163448Y99786D01*
X163743Y100474D01*
X164138Y100969D01*
X164534Y101463D01*
X165122Y101855D01*
X165711Y102052D01*
X166403Y102151D01*
X167092Y102151D01*
X167681Y101954D01*
X168273Y101658D01*
X168767Y101263D01*
X169259Y100771D01*
X169554Y100181D01*
X169751Y99592D01*
X169751Y98207D01*
X169554Y97518D01*
X169258Y96927D01*
X168865Y96435D01*
X168282Y95949D01*
X167818Y95949D01*
G37*
%LPD*%
%LPC*%
G36*
X139906Y23559D02*
X139906Y23559D01*
X136012Y24558D01*
X135326Y24754D01*
X134949Y25130D01*
X134949Y25800D01*
X135242Y26482D01*
X135617Y26857D01*
X136191Y26762D01*
X139490Y26062D01*
X139499Y26066D01*
X139501Y26066D01*
X139504Y26068D01*
X139544Y26087D01*
X139540Y26096D01*
X139546Y26101D01*
X139549Y26102D01*
X139649Y26702D01*
X139646Y26707D01*
X139649Y26710D01*
X139649Y28010D01*
X139617Y28053D01*
X139616Y28057D01*
X139016Y28257D01*
X139005Y28253D01*
X139000Y28259D01*
X135608Y28259D01*
X135044Y28447D01*
X134949Y29014D01*
X134949Y29698D01*
X135233Y30265D01*
X135904Y30361D01*
X143293Y30461D01*
X143974Y30266D01*
X144351Y29890D01*
X144351Y29114D01*
X144255Y28541D01*
X143786Y28259D01*
X141700Y28259D01*
X141653Y28223D01*
X141658Y28216D01*
X141651Y28210D01*
X141651Y24813D01*
X141553Y24029D01*
X141273Y23656D01*
X140597Y23559D01*
X139906Y23559D01*
G37*
%LPD*%
%LPC*%
G36*
X139906Y94679D02*
X139906Y94679D01*
X136012Y95678D01*
X135326Y95874D01*
X134949Y96250D01*
X134949Y96920D01*
X135242Y97602D01*
X135617Y97977D01*
X136191Y97882D01*
X139490Y97182D01*
X139496Y97185D01*
X139501Y97185D01*
X139509Y97191D01*
X139544Y97207D01*
X139540Y97214D01*
X139548Y97220D01*
X139547Y97221D01*
X139549Y97222D01*
X139649Y97822D01*
X139646Y97827D01*
X139649Y97830D01*
X139649Y99130D01*
X139617Y99173D01*
X139616Y99177D01*
X139016Y99377D01*
X139005Y99373D01*
X139000Y99379D01*
X135608Y99379D01*
X135044Y99567D01*
X134949Y100134D01*
X134949Y100818D01*
X135233Y101385D01*
X135904Y101481D01*
X143293Y101581D01*
X143974Y101386D01*
X144351Y101010D01*
X144351Y100234D01*
X144255Y99661D01*
X143786Y99379D01*
X141700Y99379D01*
X141653Y99343D01*
X141658Y99336D01*
X141651Y99330D01*
X141651Y95933D01*
X141553Y95149D01*
X141273Y94776D01*
X140597Y94679D01*
X139906Y94679D01*
G37*
%LPD*%
%LPC*%
G36*
X33833Y83440D02*
X33833Y83440D01*
X33441Y84027D01*
X33397Y84043D01*
X33423Y84056D01*
X33448Y84110D01*
X33444Y84112D01*
X33447Y84116D01*
X33255Y84690D01*
X33635Y85164D01*
X34025Y85457D01*
X39320Y87855D01*
X39323Y87860D01*
X39327Y87859D01*
X39627Y88059D01*
X39630Y88066D01*
X39638Y88068D01*
X39635Y88081D01*
X39647Y88115D01*
X39625Y88123D01*
X39621Y88145D01*
X33536Y90938D01*
X33253Y91505D01*
X33445Y92178D01*
X33734Y92563D01*
X34210Y92848D01*
X34785Y92753D01*
X35378Y92456D01*
X42073Y89158D01*
X42558Y88771D01*
X42750Y88195D01*
X42653Y87520D01*
X42268Y87039D01*
X34982Y83446D01*
X34303Y83252D01*
X33833Y83440D01*
G37*
%LPD*%
%LPC*%
G36*
X33833Y23750D02*
X33833Y23750D01*
X33441Y24337D01*
X33397Y24353D01*
X33423Y24366D01*
X33448Y24420D01*
X33444Y24422D01*
X33447Y24426D01*
X33255Y25000D01*
X33635Y25474D01*
X34025Y25767D01*
X39320Y28165D01*
X39323Y28170D01*
X39327Y28169D01*
X39627Y28369D01*
X39630Y28376D01*
X39638Y28378D01*
X39635Y28391D01*
X39647Y28425D01*
X39625Y28433D01*
X39621Y28455D01*
X33536Y31248D01*
X33253Y31815D01*
X33445Y32488D01*
X33734Y32873D01*
X34210Y33158D01*
X34785Y33063D01*
X35378Y32766D01*
X42073Y29468D01*
X42558Y29081D01*
X42750Y28505D01*
X42653Y27830D01*
X42268Y27349D01*
X34982Y23756D01*
X34303Y23562D01*
X33833Y23750D01*
G37*
%LPD*%
G36*
X185694Y65104D02*
X185694Y65104D01*
X185697Y65101D01*
X186397Y65201D01*
X186426Y65231D01*
X186437Y65234D01*
X186637Y65834D01*
X186635Y65841D01*
X186639Y65843D01*
X186739Y66543D01*
X186736Y66548D01*
X186739Y66550D01*
X186739Y72608D01*
X187294Y72701D01*
X189390Y72701D01*
X189405Y72712D01*
X189415Y72708D01*
X189915Y73008D01*
X189924Y73030D01*
X189937Y73034D01*
X190137Y73634D01*
X190132Y73650D01*
X190139Y73657D01*
X190039Y74357D01*
X190017Y74379D01*
X190015Y74392D01*
X189515Y74692D01*
X189497Y74690D01*
X189490Y74699D01*
X181890Y74699D01*
X181885Y74696D01*
X181882Y74699D01*
X181282Y74599D01*
X181259Y74575D01*
X181246Y74572D01*
X180946Y73972D01*
X180949Y73956D01*
X180941Y73950D01*
X180941Y73250D01*
X180957Y73229D01*
X180955Y73215D01*
X181355Y72815D01*
X181377Y72812D01*
X181383Y72801D01*
X182083Y72701D01*
X182088Y72704D01*
X182090Y72701D01*
X184160Y72701D01*
X184341Y72338D01*
X184341Y66150D01*
X184344Y66145D01*
X184341Y66142D01*
X184441Y65542D01*
X184460Y65525D01*
X184459Y65512D01*
X184959Y65112D01*
X184982Y65111D01*
X184990Y65101D01*
X185690Y65101D01*
X185694Y65104D01*
G37*
%LPC*%
G36*
X212203Y35159D02*
X212203Y35159D01*
X211530Y35255D01*
X211247Y35727D01*
X211149Y36413D01*
X211149Y40807D01*
X211249Y41503D01*
X211233Y41531D01*
X211235Y41545D01*
X211210Y41569D01*
X211225Y41568D01*
X211717Y41863D01*
X212399Y41960D01*
X212886Y41863D01*
X213680Y41565D01*
X214278Y41266D01*
X214876Y40967D01*
X215974Y40268D01*
X215974Y40269D01*
X215974Y40268D01*
X217274Y39468D01*
X217280Y39469D01*
X217281Y39465D01*
X217979Y39165D01*
X218578Y38866D01*
X218589Y38868D01*
X218592Y38861D01*
X219192Y38761D01*
X219690Y38662D01*
X219692Y38663D01*
X219693Y38661D01*
X220363Y38566D01*
X220551Y38002D01*
X220551Y37214D01*
X220456Y36647D01*
X219892Y36459D01*
X219203Y36459D01*
X218511Y36558D01*
X217916Y36757D01*
X217914Y36756D01*
X217914Y36757D01*
X217218Y36956D01*
X216625Y37253D01*
X216027Y37651D01*
X216023Y37651D01*
X216022Y37654D01*
X215425Y37953D01*
X214829Y38350D01*
X213729Y39150D01*
X213679Y39149D01*
X213673Y39151D01*
X213373Y38951D01*
X213361Y38918D01*
X213351Y38910D01*
X213351Y36213D01*
X213254Y35533D01*
X212880Y35159D01*
X212203Y35159D01*
G37*
%LPD*%
%LPC*%
G36*
X211530Y95385D02*
X211530Y95385D01*
X211247Y95857D01*
X211149Y96543D01*
X211149Y101037D01*
X211246Y101714D01*
X211717Y102091D01*
X212395Y102091D01*
X212889Y101992D01*
X213683Y101794D01*
X214278Y101496D01*
X214876Y101197D01*
X215974Y100498D01*
X215974Y100499D01*
X215974Y100498D01*
X217274Y99698D01*
X217275Y99698D01*
X217276Y99697D01*
X217976Y99297D01*
X217983Y99298D01*
X217984Y99293D01*
X219184Y98893D01*
X219195Y98897D01*
X219200Y98891D01*
X219693Y98891D01*
X220363Y98699D01*
X220551Y98231D01*
X220551Y97444D01*
X220456Y96877D01*
X219892Y96689D01*
X219203Y96689D01*
X218511Y96788D01*
X217916Y96987D01*
X217914Y96986D01*
X217914Y96987D01*
X217218Y97186D01*
X216622Y97484D01*
X216025Y97783D01*
X214829Y98580D01*
X213729Y99380D01*
X213679Y99379D01*
X213673Y99381D01*
X213373Y99181D01*
X213362Y99150D01*
X213353Y99143D01*
X213353Y99142D01*
X213351Y99140D01*
X213351Y96443D01*
X213254Y95763D01*
X212865Y95375D01*
X212863Y95358D01*
X212853Y95351D01*
X212861Y95341D01*
X212860Y95336D01*
X212854Y95329D01*
X212847Y95354D01*
X212800Y95389D01*
X212798Y95387D01*
X212794Y95387D01*
X212792Y95389D01*
X212199Y95290D01*
X211530Y95385D01*
G37*
%LPD*%
G36*
X38480Y56987D02*
X38480Y56987D01*
X38493Y56984D01*
X38993Y57384D01*
X38996Y57396D01*
X39005Y57397D01*
X41705Y62097D01*
X41704Y62100D01*
X41706Y62100D01*
X42006Y62700D01*
X42003Y62719D01*
X42007Y62722D01*
X42004Y62725D01*
X42010Y62732D01*
X41910Y63232D01*
X41895Y63245D01*
X41897Y63257D01*
X41397Y63757D01*
X41384Y63759D01*
X41381Y63767D01*
X40681Y64067D01*
X40671Y64065D01*
X40652Y64065D01*
X40646Y64069D01*
X40046Y63869D01*
X40035Y63852D01*
X40024Y63853D01*
X39624Y63353D01*
X39623Y63345D01*
X39618Y63344D01*
X38132Y60371D01*
X37892Y60371D01*
X36406Y63344D01*
X36402Y63346D01*
X36403Y63349D01*
X36003Y63949D01*
X35976Y63959D01*
X35970Y63971D01*
X35370Y64071D01*
X35359Y64065D01*
X35347Y64065D01*
X35343Y64067D01*
X34643Y63767D01*
X34636Y63756D01*
X34627Y63757D01*
X34127Y63257D01*
X34126Y63245D01*
X34120Y63241D01*
X34124Y63235D01*
X34124Y63230D01*
X34113Y63222D01*
X34113Y62622D01*
X34122Y62609D01*
X34118Y62600D01*
X34418Y62000D01*
X34420Y61999D01*
X34419Y61997D01*
X37119Y57297D01*
X37138Y57290D01*
X37140Y57278D01*
X37740Y56978D01*
X37756Y56981D01*
X37762Y56973D01*
X38462Y56973D01*
X38480Y56987D01*
G37*
G36*
X225696Y65201D02*
X225696Y65201D01*
X225712Y65217D01*
X225725Y65215D01*
X226125Y65615D01*
X226126Y65627D01*
X226130Y65629D01*
X226127Y65633D01*
X226129Y65642D01*
X226139Y65650D01*
X226139Y73750D01*
X226136Y73755D01*
X226139Y73758D01*
X226039Y74358D01*
X226017Y74379D01*
X226015Y74392D01*
X225515Y74692D01*
X225497Y74690D01*
X225490Y74699D01*
X224790Y74699D01*
X224777Y74690D01*
X224768Y74694D01*
X224168Y74394D01*
X224165Y74387D01*
X224159Y74388D01*
X223659Y73988D01*
X223659Y73986D01*
X223656Y73986D01*
X222156Y72586D01*
X222156Y72581D01*
X222152Y72582D01*
X221652Y71982D01*
X221652Y71967D01*
X221642Y71960D01*
X221542Y71460D01*
X221552Y71439D01*
X221546Y71428D01*
X221846Y70828D01*
X221859Y70822D01*
X221858Y70812D01*
X222458Y70312D01*
X222482Y70311D01*
X222490Y70301D01*
X222990Y70301D01*
X223006Y70313D01*
X223017Y70309D01*
X223576Y70682D01*
X223741Y70435D01*
X223741Y65750D01*
X223755Y65732D01*
X223752Y65719D01*
X224152Y65219D01*
X224177Y65213D01*
X224183Y65201D01*
X224883Y65101D01*
X224891Y65106D01*
X224896Y65101D01*
X225696Y65201D01*
G37*
%LPC*%
G36*
X61231Y98119D02*
X61231Y98119D01*
X59338Y100112D01*
X59042Y100506D01*
X58749Y101092D01*
X58749Y101766D01*
X59030Y102235D01*
X59703Y102331D01*
X67196Y102331D01*
X67776Y102234D01*
X68151Y101860D01*
X68151Y100988D01*
X67959Y100413D01*
X67486Y100129D01*
X62800Y100129D01*
X62753Y100093D01*
X62758Y100086D01*
X62751Y100080D01*
X62751Y99680D01*
X62758Y99671D01*
X62753Y99664D01*
X62949Y99077D01*
X62855Y98604D01*
X62273Y98023D01*
X61706Y97834D01*
X61231Y98119D01*
G37*
%LPD*%
%LPC*%
G36*
X61229Y35351D02*
X61229Y35351D01*
X59337Y37443D01*
X59335Y37443D01*
X59335Y37445D01*
X59041Y37739D01*
X58749Y38322D01*
X58749Y38996D01*
X59030Y39465D01*
X59703Y39561D01*
X67196Y39561D01*
X67776Y39464D01*
X68151Y39090D01*
X68151Y38218D01*
X67959Y37643D01*
X67486Y37359D01*
X62800Y37359D01*
X62753Y37323D01*
X62758Y37316D01*
X62751Y37310D01*
X62751Y37010D01*
X62758Y37001D01*
X62753Y36994D01*
X62949Y36406D01*
X62854Y35836D01*
X62276Y35354D01*
X61702Y35162D01*
X61229Y35351D01*
G37*
%LPD*%
G36*
X267107Y25866D02*
X267107Y25866D01*
X267112Y25862D01*
X267912Y26062D01*
X267924Y26077D01*
X267935Y26075D01*
X268435Y26575D01*
X268436Y26582D01*
X268441Y26583D01*
X268841Y27183D01*
X268841Y27187D01*
X268844Y27188D01*
X269144Y27788D01*
X269141Y27804D01*
X269149Y27810D01*
X269149Y28410D01*
X269146Y28414D01*
X269149Y28417D01*
X269049Y29117D01*
X269041Y29125D01*
X269044Y29132D01*
X268744Y29732D01*
X268734Y29737D01*
X268735Y29745D01*
X268235Y30245D01*
X268226Y30246D01*
X268225Y30252D01*
X267725Y30552D01*
X267716Y30551D01*
X267714Y30557D01*
X267014Y30757D01*
X267004Y30754D01*
X267000Y30759D01*
X266300Y30759D01*
X266296Y30756D01*
X266293Y30759D01*
X265593Y30659D01*
X265585Y30651D01*
X265578Y30654D01*
X264978Y30354D01*
X264971Y30341D01*
X264962Y30341D01*
X264562Y29841D01*
X264561Y29837D01*
X264559Y29837D01*
X264159Y29237D01*
X264160Y29228D01*
X264158Y29227D01*
X264153Y29226D01*
X263953Y28626D01*
X263957Y28615D01*
X263951Y28610D01*
X263951Y27910D01*
X263958Y27901D01*
X263953Y27894D01*
X264153Y27294D01*
X264161Y27289D01*
X264159Y27283D01*
X264559Y26683D01*
X264569Y26679D01*
X264569Y26672D01*
X265069Y26272D01*
X265077Y26271D01*
X265078Y26266D01*
X265678Y25966D01*
X265689Y25968D01*
X265693Y25961D01*
X266393Y25861D01*
X266398Y25864D01*
X266400Y25861D01*
X267100Y25861D01*
X267107Y25866D01*
G37*
G36*
X14505Y96394D02*
X14505Y96394D01*
X14508Y96391D01*
X15108Y96491D01*
X15149Y96535D01*
X15146Y96538D01*
X15149Y96540D01*
X15149Y98540D01*
X15142Y98549D01*
X15147Y98556D01*
X15047Y98856D01*
X15033Y98865D01*
X15035Y98875D01*
X14535Y99375D01*
X14531Y99375D01*
X14531Y99378D01*
X14031Y99778D01*
X14023Y99779D01*
X14022Y99784D01*
X13422Y100084D01*
X13411Y100082D01*
X13410Y100085D01*
X13409Y100085D01*
X13407Y100089D01*
X12707Y100189D01*
X12698Y100184D01*
X12693Y100189D01*
X11993Y100089D01*
X11985Y100081D01*
X11978Y100084D01*
X11378Y99784D01*
X11375Y99777D01*
X11369Y99778D01*
X10869Y99378D01*
X10867Y99371D01*
X10862Y99371D01*
X10462Y98871D01*
X10461Y98863D01*
X10456Y98862D01*
X10156Y98262D01*
X10159Y98246D01*
X10151Y98240D01*
X10151Y96840D01*
X10164Y96822D01*
X10161Y96810D01*
X10461Y96410D01*
X10492Y96402D01*
X10500Y96391D01*
X14500Y96391D01*
X14505Y96394D01*
G37*
G36*
X14505Y46864D02*
X14505Y46864D01*
X14508Y46861D01*
X15108Y46961D01*
X15149Y47005D01*
X15146Y47008D01*
X15149Y47010D01*
X15149Y49010D01*
X15142Y49019D01*
X15147Y49026D01*
X15047Y49326D01*
X15033Y49335D01*
X15035Y49345D01*
X14535Y49845D01*
X14531Y49845D01*
X14531Y49848D01*
X14031Y50248D01*
X14023Y50249D01*
X14022Y50254D01*
X13422Y50554D01*
X13411Y50552D01*
X13410Y50555D01*
X13409Y50555D01*
X13407Y50559D01*
X12707Y50659D01*
X12698Y50654D01*
X12693Y50659D01*
X11993Y50559D01*
X11985Y50551D01*
X11978Y50554D01*
X11378Y50254D01*
X11375Y50247D01*
X11369Y50248D01*
X10869Y49848D01*
X10867Y49841D01*
X10862Y49841D01*
X10462Y49341D01*
X10461Y49333D01*
X10456Y49332D01*
X10156Y48732D01*
X10159Y48716D01*
X10151Y48710D01*
X10151Y47310D01*
X10164Y47292D01*
X10161Y47280D01*
X10461Y46880D01*
X10492Y46872D01*
X10500Y46861D01*
X14500Y46861D01*
X14505Y46864D01*
G37*
G36*
X37308Y65385D02*
X37308Y65385D01*
X37325Y65404D01*
X37338Y65403D01*
X37738Y65903D01*
X37739Y65911D01*
X37740Y65912D01*
X37739Y65914D01*
X37739Y65926D01*
X37749Y65934D01*
X37749Y70334D01*
X37735Y70352D01*
X37738Y70365D01*
X37338Y70865D01*
X37313Y70871D01*
X37307Y70883D01*
X36607Y70983D01*
X36593Y70975D01*
X36584Y70981D01*
X35984Y70781D01*
X35969Y70759D01*
X35956Y70756D01*
X35656Y70156D01*
X35659Y70140D01*
X35651Y70134D01*
X35651Y66134D01*
X35660Y66121D01*
X35656Y66112D01*
X35956Y65512D01*
X35982Y65499D01*
X35986Y65487D01*
X36686Y65287D01*
X36701Y65292D01*
X36708Y65285D01*
X37308Y65385D01*
G37*
G36*
X39811Y65393D02*
X39811Y65393D01*
X39818Y65388D01*
X40318Y65588D01*
X40333Y65612D01*
X40340Y65617D01*
X40347Y65620D01*
X40547Y66320D01*
X40544Y66330D01*
X40549Y66334D01*
X40549Y70034D01*
X40543Y70042D01*
X40547Y70048D01*
X40347Y70748D01*
X40322Y70767D01*
X40318Y70780D01*
X39818Y70980D01*
X39805Y70976D01*
X39800Y70983D01*
X39000Y70983D01*
X38979Y70967D01*
X38965Y70969D01*
X38565Y70569D01*
X38562Y70547D01*
X38551Y70541D01*
X38451Y69841D01*
X38454Y69836D01*
X38451Y69834D01*
X38451Y66434D01*
X38454Y66430D01*
X38451Y66427D01*
X38551Y65727D01*
X38573Y65705D01*
X38575Y65692D01*
X39075Y65392D01*
X39093Y65394D01*
X39100Y65385D01*
X39800Y65385D01*
X39811Y65393D01*
G37*
G36*
X116747Y88327D02*
X116747Y88327D01*
X116742Y88334D01*
X116749Y88340D01*
X116749Y90440D01*
X116742Y90449D01*
X116747Y90456D01*
X116547Y91056D01*
X116520Y91074D01*
X116516Y91087D01*
X115916Y91287D01*
X115905Y91283D01*
X115900Y91289D01*
X115400Y91289D01*
X115375Y91270D01*
X115362Y91271D01*
X114962Y90771D01*
X114961Y90748D01*
X114951Y90740D01*
X114951Y90052D01*
X114667Y89484D01*
X114099Y89390D01*
X113437Y89484D01*
X113248Y90051D01*
X113149Y90747D01*
X113127Y90769D01*
X113125Y90782D01*
X112625Y91082D01*
X112597Y91079D01*
X112586Y91087D01*
X111886Y90887D01*
X111860Y90852D01*
X111851Y90847D01*
X111751Y90147D01*
X111754Y90142D01*
X111751Y90140D01*
X111751Y88840D01*
X111759Y88829D01*
X111754Y88822D01*
X111954Y88322D01*
X111995Y88297D01*
X112000Y88291D01*
X116700Y88291D01*
X116747Y88327D01*
G37*
G36*
X65305Y90834D02*
X65305Y90834D01*
X65308Y90831D01*
X65908Y90931D01*
X65949Y90975D01*
X65946Y90978D01*
X65949Y90980D01*
X65949Y92980D01*
X65942Y92989D01*
X65947Y92996D01*
X65747Y93596D01*
X65720Y93614D01*
X65716Y93627D01*
X65116Y93827D01*
X65105Y93823D01*
X65100Y93829D01*
X64600Y93829D01*
X64575Y93810D01*
X64562Y93811D01*
X64162Y93311D01*
X64161Y93288D01*
X64151Y93280D01*
X64151Y92592D01*
X63867Y92024D01*
X63299Y91930D01*
X62637Y92024D01*
X62448Y92591D01*
X62349Y93386D01*
X62321Y93414D01*
X62318Y93426D01*
X61818Y93626D01*
X61797Y93620D01*
X61786Y93627D01*
X61086Y93427D01*
X61060Y93392D01*
X61051Y93387D01*
X60951Y92687D01*
X60954Y92682D01*
X60951Y92680D01*
X60951Y91380D01*
X60959Y91369D01*
X60954Y91362D01*
X61154Y90862D01*
X61195Y90837D01*
X61200Y90831D01*
X65300Y90831D01*
X65305Y90834D01*
G37*
G36*
X192733Y88316D02*
X192733Y88316D01*
X192744Y88318D01*
X192944Y88718D01*
X192944Y88720D01*
X192944Y88721D01*
X192943Y88722D01*
X192941Y88734D01*
X192949Y88740D01*
X192949Y90840D01*
X192933Y90861D01*
X192935Y90875D01*
X192535Y91275D01*
X192508Y91279D01*
X192500Y91289D01*
X191900Y91289D01*
X191891Y91282D01*
X191884Y91287D01*
X191284Y91087D01*
X191261Y91052D01*
X191251Y91047D01*
X191055Y89670D01*
X190586Y89389D01*
X189820Y89389D01*
X189446Y89763D01*
X189349Y90447D01*
X189344Y90452D01*
X189347Y90456D01*
X189147Y91056D01*
X189098Y91089D01*
X189096Y91086D01*
X189093Y91089D01*
X188393Y90989D01*
X188378Y90973D01*
X188365Y90975D01*
X187965Y90575D01*
X187962Y90548D01*
X187951Y90540D01*
X187951Y88440D01*
X187987Y88393D01*
X187990Y88395D01*
X187992Y88391D01*
X188592Y88291D01*
X188597Y88294D01*
X188600Y88291D01*
X192700Y88291D01*
X192733Y88316D01*
G37*
G36*
X243313Y88300D02*
X243313Y88300D01*
X243322Y88296D01*
X243722Y88496D01*
X243732Y88517D01*
X243741Y88524D01*
X243738Y88528D01*
X243741Y88533D01*
X243749Y88540D01*
X243749Y90640D01*
X243738Y90655D01*
X243742Y90665D01*
X243442Y91165D01*
X243408Y91179D01*
X243400Y91189D01*
X242200Y91189D01*
X242162Y91160D01*
X242154Y91158D01*
X241954Y90658D01*
X241957Y90649D01*
X241951Y90646D01*
X241853Y89859D01*
X241573Y89486D01*
X240806Y89390D01*
X240343Y89576D01*
X240048Y90950D01*
X240012Y90982D01*
X240008Y90989D01*
X239408Y91089D01*
X239382Y91075D01*
X239369Y91078D01*
X238869Y90678D01*
X238863Y90653D01*
X238851Y90647D01*
X238751Y89947D01*
X238754Y89942D01*
X238751Y89940D01*
X238751Y88640D01*
X238770Y88614D01*
X238770Y88601D01*
X239170Y88301D01*
X239192Y88301D01*
X239200Y88291D01*
X243300Y88291D01*
X243313Y88300D01*
G37*
G36*
X40338Y97580D02*
X40338Y97580D01*
X40346Y97582D01*
X40546Y98082D01*
X40542Y98095D01*
X40549Y98100D01*
X40549Y100100D01*
X40530Y100125D01*
X40531Y100138D01*
X40031Y100538D01*
X40008Y100539D01*
X40000Y100549D01*
X39400Y100549D01*
X39385Y100538D01*
X39375Y100542D01*
X38875Y100242D01*
X38863Y100214D01*
X38851Y100208D01*
X38655Y98930D01*
X38186Y98649D01*
X37420Y98649D01*
X37047Y99023D01*
X36949Y99806D01*
X36936Y99819D01*
X36939Y99830D01*
X36639Y100230D01*
X36608Y100239D01*
X36600Y100249D01*
X35900Y100249D01*
X35870Y100227D01*
X35858Y100225D01*
X35558Y99725D01*
X35560Y99707D01*
X35551Y99700D01*
X35551Y97600D01*
X35587Y97553D01*
X35594Y97558D01*
X35600Y97551D01*
X40300Y97551D01*
X40338Y97580D01*
G37*
G36*
X90913Y88300D02*
X90913Y88300D01*
X90922Y88296D01*
X91322Y88496D01*
X91332Y88517D01*
X91341Y88524D01*
X91338Y88528D01*
X91341Y88533D01*
X91349Y88540D01*
X91349Y90640D01*
X91338Y90655D01*
X91342Y90665D01*
X91042Y91165D01*
X91008Y91179D01*
X91000Y91189D01*
X89900Y91189D01*
X89870Y91167D01*
X89858Y91165D01*
X89558Y90665D01*
X89559Y90651D01*
X89551Y90646D01*
X89453Y89859D01*
X89173Y89486D01*
X88406Y89390D01*
X87943Y89576D01*
X87648Y90950D01*
X87612Y90982D01*
X87608Y90989D01*
X87008Y91089D01*
X86982Y91075D01*
X86969Y91078D01*
X86469Y90678D01*
X86463Y90653D01*
X86451Y90647D01*
X86351Y89947D01*
X86354Y89942D01*
X86351Y89940D01*
X86351Y88640D01*
X86370Y88614D01*
X86370Y88601D01*
X86770Y88301D01*
X86792Y88301D01*
X86800Y88291D01*
X90900Y88291D01*
X90913Y88300D01*
G37*
G36*
X217705Y88294D02*
X217705Y88294D01*
X217708Y88291D01*
X218308Y88391D01*
X218349Y88435D01*
X218346Y88438D01*
X218349Y88440D01*
X218349Y90440D01*
X218342Y90449D01*
X218347Y90456D01*
X218147Y91056D01*
X218114Y91078D01*
X218109Y91088D01*
X217009Y91288D01*
X216973Y91270D01*
X216962Y91271D01*
X216562Y90771D01*
X216561Y90748D01*
X216551Y90740D01*
X216551Y89954D01*
X216270Y89485D01*
X215605Y89390D01*
X215037Y89580D01*
X214847Y90055D01*
X214648Y90852D01*
X214622Y90873D01*
X214618Y90886D01*
X214118Y91086D01*
X214090Y91078D01*
X214078Y91084D01*
X213478Y90784D01*
X213463Y90754D01*
X213451Y90748D01*
X213351Y90148D01*
X213354Y90143D01*
X213351Y90140D01*
X213351Y88740D01*
X213364Y88722D01*
X213361Y88710D01*
X213661Y88310D01*
X213692Y88302D01*
X213700Y88291D01*
X217700Y88291D01*
X217705Y88294D01*
G37*
%LPC*%
G36*
X231796Y67499D02*
X231796Y67499D01*
X231412Y67595D01*
X231029Y67882D01*
X230738Y68465D01*
X230639Y69253D01*
X230639Y71243D01*
X230835Y71928D01*
X231124Y72313D01*
X231604Y72601D01*
X232078Y72601D01*
X232461Y72409D01*
X232847Y72023D01*
X233043Y71434D01*
X233092Y71401D01*
X233079Y71398D01*
X233041Y71352D01*
X233046Y71348D01*
X233041Y71344D01*
X233141Y70547D01*
X233141Y69553D01*
X233042Y68664D01*
X232748Y68076D01*
X232459Y67691D01*
X231981Y67499D01*
X231796Y67499D01*
G37*
%LPD*%
%LPC*%
G36*
X215995Y67499D02*
X215995Y67499D01*
X215511Y67596D01*
X215132Y67880D01*
X214937Y68464D01*
X214739Y69256D01*
X214739Y70248D01*
X214839Y71241D01*
X215035Y71928D01*
X215325Y72315D01*
X215706Y72601D01*
X216181Y72601D01*
X216659Y72409D01*
X216946Y72027D01*
X217143Y71434D01*
X217192Y71401D01*
X217179Y71398D01*
X217141Y71352D01*
X217146Y71348D01*
X217141Y71344D01*
X217241Y70547D01*
X217241Y69553D01*
X217142Y68661D01*
X216947Y68077D01*
X216561Y67691D01*
X216178Y67499D01*
X215995Y67499D01*
G37*
%LPD*%
G36*
X243116Y97703D02*
X243116Y97703D01*
X243127Y97699D01*
X243727Y98099D01*
X243734Y98117D01*
X243738Y98121D01*
X243736Y98124D01*
X243737Y98126D01*
X243749Y98133D01*
X243849Y98833D01*
X243844Y98842D01*
X243849Y98847D01*
X243749Y99547D01*
X243730Y99565D01*
X243731Y99578D01*
X243231Y99978D01*
X243208Y99979D01*
X243200Y99989D01*
X242500Y99989D01*
X242482Y99975D01*
X242469Y99978D01*
X241969Y99578D01*
X241964Y99558D01*
X241953Y99554D01*
X241753Y98854D01*
X241759Y98837D01*
X241758Y98837D01*
X241760Y98834D01*
X241753Y98824D01*
X241953Y98224D01*
X241967Y98215D01*
X241965Y98205D01*
X242465Y97705D01*
X242492Y97702D01*
X242500Y97691D01*
X243100Y97691D01*
X243116Y97703D01*
G37*
G36*
X243118Y37475D02*
X243118Y37475D01*
X243132Y37472D01*
X243732Y37972D01*
X243735Y37987D01*
X243738Y37989D01*
X243736Y37992D01*
X243737Y37996D01*
X243749Y38002D01*
X243849Y38602D01*
X243843Y38612D01*
X243849Y38617D01*
X243749Y39317D01*
X243730Y39335D01*
X243731Y39348D01*
X243231Y39748D01*
X243212Y39749D01*
X243207Y39759D01*
X242507Y39859D01*
X242479Y39843D01*
X242465Y39845D01*
X241965Y39345D01*
X241963Y39329D01*
X241953Y39326D01*
X241753Y38726D01*
X241760Y38707D01*
X241758Y38705D01*
X241759Y38704D01*
X241753Y38696D01*
X241953Y37996D01*
X241970Y37984D01*
X241969Y37972D01*
X242469Y37572D01*
X242487Y37571D01*
X242492Y37561D01*
X243092Y37461D01*
X243118Y37475D01*
G37*
%LPC*%
G36*
X240414Y67399D02*
X240414Y67399D01*
X240036Y67871D01*
X239941Y68442D01*
X240225Y69010D01*
X240798Y69201D01*
X241470Y69201D01*
X241944Y68726D01*
X242039Y68158D01*
X241755Y67590D01*
X241182Y67399D01*
X240414Y67399D01*
G37*
%LPD*%
G36*
X192509Y37570D02*
X192509Y37570D01*
X192518Y37564D01*
X193018Y37764D01*
X193033Y37788D01*
X193040Y37794D01*
X193038Y37797D01*
X193043Y37805D01*
X193049Y37810D01*
X193049Y39110D01*
X193033Y39131D01*
X193035Y39145D01*
X192635Y39545D01*
X192608Y39549D01*
X192600Y39559D01*
X192000Y39559D01*
X191979Y39543D01*
X191965Y39545D01*
X191465Y39045D01*
X191462Y39018D01*
X191451Y39010D01*
X191451Y38210D01*
X191462Y38195D01*
X191458Y38185D01*
X191758Y37685D01*
X191786Y37673D01*
X191793Y37661D01*
X192493Y37561D01*
X192509Y37570D01*
G37*
G36*
X192509Y97800D02*
X192509Y97800D01*
X192518Y97794D01*
X193018Y97994D01*
X193033Y98018D01*
X193040Y98024D01*
X193038Y98027D01*
X193043Y98035D01*
X193049Y98040D01*
X193049Y99340D01*
X193033Y99361D01*
X193035Y99375D01*
X192635Y99775D01*
X192603Y99779D01*
X192593Y99789D01*
X191893Y99689D01*
X191875Y99670D01*
X191862Y99671D01*
X191462Y99171D01*
X191461Y99148D01*
X191451Y99140D01*
X191451Y98440D01*
X191462Y98425D01*
X191458Y98415D01*
X191758Y97915D01*
X191786Y97903D01*
X191793Y97891D01*
X192493Y97791D01*
X192509Y97800D01*
G37*
G36*
X239522Y98196D02*
X239522Y98196D01*
X239533Y98218D01*
X239537Y98221D01*
X239547Y98224D01*
X239747Y98824D01*
X239740Y98845D01*
X239747Y98856D01*
X239547Y99456D01*
X239525Y99471D01*
X239522Y99484D01*
X238922Y99784D01*
X238890Y99778D01*
X238878Y99784D01*
X238678Y99684D01*
X238670Y99668D01*
X238659Y99667D01*
X238259Y99067D01*
X238261Y99042D01*
X238255Y99037D01*
X238251Y99033D01*
X238351Y98333D01*
X238370Y98315D01*
X238369Y98302D01*
X238869Y97902D01*
X238913Y97900D01*
X238922Y97896D01*
X239522Y98196D01*
G37*
G36*
X239516Y37963D02*
X239516Y37963D01*
X239534Y37990D01*
X239547Y37994D01*
X239747Y38594D01*
X239740Y38614D01*
X239747Y38624D01*
X239547Y39324D01*
X239520Y39344D01*
X239516Y39357D01*
X238916Y39557D01*
X238890Y39548D01*
X238878Y39554D01*
X238678Y39454D01*
X238671Y39441D01*
X238662Y39441D01*
X238262Y38941D01*
X238261Y38913D01*
X238255Y38907D01*
X238251Y38903D01*
X238351Y38203D01*
X238370Y38185D01*
X238369Y38172D01*
X238869Y37772D01*
X238905Y37771D01*
X238916Y37763D01*
X239516Y37963D01*
G37*
G36*
X216315Y27473D02*
X216315Y27473D01*
X216327Y27469D01*
X216627Y27669D01*
X216633Y27686D01*
X216643Y27694D01*
X216638Y27700D01*
X216639Y27702D01*
X216649Y27710D01*
X216649Y29110D01*
X216646Y29114D01*
X216648Y29119D01*
X216639Y29124D01*
X216613Y29157D01*
X216597Y29145D01*
X216578Y29154D01*
X215378Y28554D01*
X215373Y28544D01*
X215365Y28545D01*
X214965Y28145D01*
X214965Y28142D01*
X214963Y28142D01*
X214964Y28136D01*
X214957Y28086D01*
X214975Y28083D01*
X214979Y28065D01*
X216279Y27465D01*
X216315Y27473D01*
G37*
G36*
X89439Y27481D02*
X89439Y27481D01*
X89438Y27487D01*
X89444Y27488D01*
X89644Y27888D01*
X89644Y27890D01*
X89644Y27891D01*
X89643Y27892D01*
X89641Y27904D01*
X89649Y27910D01*
X89649Y28610D01*
X89644Y28617D01*
X89648Y28622D01*
X89548Y29022D01*
X89501Y29059D01*
X89493Y29049D01*
X89482Y29056D01*
X88182Y28556D01*
X88163Y28525D01*
X88152Y28520D01*
X88052Y28020D01*
X88078Y27966D01*
X88081Y27968D01*
X88082Y27964D01*
X89382Y27464D01*
X89439Y27481D01*
G37*
G36*
X38795Y39169D02*
X38795Y39169D01*
X38836Y39177D01*
X38833Y39197D01*
X38849Y39210D01*
X38849Y40610D01*
X38813Y40657D01*
X38812Y40657D01*
X38812Y40658D01*
X38412Y40758D01*
X38390Y40748D01*
X38378Y40754D01*
X36978Y40054D01*
X36973Y40044D01*
X36961Y40041D01*
X36965Y40027D01*
X36952Y40001D01*
X36975Y39989D01*
X36981Y39965D01*
X38179Y39465D01*
X38778Y39166D01*
X38783Y39167D01*
X38787Y39163D01*
X38795Y39169D01*
G37*
G36*
X191195Y27369D02*
X191195Y27369D01*
X191237Y27378D01*
X191233Y27398D01*
X191249Y27410D01*
X191249Y28710D01*
X191233Y28731D01*
X191235Y28745D01*
X190935Y29045D01*
X190882Y29052D01*
X190878Y29054D01*
X189678Y28454D01*
X189652Y28401D01*
X189660Y28397D01*
X189656Y28388D01*
X189856Y27988D01*
X189877Y27978D01*
X189879Y27965D01*
X191179Y27365D01*
X191184Y27366D01*
X191187Y27363D01*
X191195Y27369D01*
G37*
G36*
X64212Y27662D02*
X64212Y27662D01*
X64234Y27689D01*
X64241Y27695D01*
X64240Y27697D01*
X64249Y27709D01*
X64248Y27709D01*
X64249Y27710D01*
X64249Y29010D01*
X64248Y29011D01*
X64249Y29012D01*
X64246Y29015D01*
X64213Y29057D01*
X64199Y29047D01*
X64184Y29057D01*
X63584Y28857D01*
X63581Y28852D01*
X63578Y28854D01*
X62378Y28254D01*
X62374Y28245D01*
X62364Y28243D01*
X62366Y28230D01*
X62352Y28201D01*
X62374Y28190D01*
X62378Y28166D01*
X62578Y28066D01*
X62581Y28066D01*
X62581Y28065D01*
X63781Y27565D01*
X63802Y27570D01*
X63812Y27562D01*
X64212Y27662D01*
G37*
G36*
X115012Y27662D02*
X115012Y27662D01*
X115034Y27689D01*
X115041Y27695D01*
X115040Y27697D01*
X115049Y27709D01*
X115048Y27709D01*
X115049Y27710D01*
X115049Y29010D01*
X115048Y29011D01*
X115049Y29012D01*
X115046Y29015D01*
X115013Y29057D01*
X114999Y29047D01*
X114984Y29057D01*
X114384Y28857D01*
X114381Y28852D01*
X114378Y28854D01*
X113178Y28254D01*
X113174Y28245D01*
X113164Y28243D01*
X113166Y28230D01*
X113152Y28201D01*
X113174Y28190D01*
X113178Y28166D01*
X113378Y28066D01*
X113381Y28066D01*
X113381Y28065D01*
X114581Y27565D01*
X114602Y27570D01*
X114612Y27562D01*
X115012Y27662D01*
G37*
G36*
X241839Y27481D02*
X241839Y27481D01*
X241838Y27487D01*
X241844Y27488D01*
X242044Y27888D01*
X242044Y27890D01*
X242044Y27891D01*
X242043Y27892D01*
X242041Y27904D01*
X242049Y27910D01*
X242049Y28510D01*
X242045Y28516D01*
X242048Y28520D01*
X241948Y29020D01*
X241904Y29059D01*
X241894Y29048D01*
X241881Y29055D01*
X240681Y28555D01*
X240667Y28532D01*
X240654Y28528D01*
X240454Y28028D01*
X240470Y27971D01*
X240480Y27974D01*
X240482Y27964D01*
X241782Y27464D01*
X241839Y27481D01*
G37*
%LPC*%
G36*
X240516Y71596D02*
X240516Y71596D01*
X240148Y72056D01*
X240424Y72609D01*
X241085Y72797D01*
X241641Y72520D01*
X241641Y71778D01*
X241180Y71501D01*
X240516Y71596D01*
G37*
%LPD*%
%LPC*%
G36*
X213442Y93247D02*
X213442Y93247D01*
X213446Y93251D01*
X213448Y93243D01*
X213442Y93247D01*
G37*
%LPD*%
%LPC*%
G36*
X217195Y71405D02*
X217195Y71405D01*
X217198Y71402D01*
X217193Y71401D01*
X217195Y71405D01*
G37*
%LPD*%
%LPC*%
G36*
X233095Y71405D02*
X233095Y71405D01*
X233098Y71402D01*
X233093Y71401D01*
X233095Y71405D01*
G37*
%LPD*%
%LPC*%
G36*
X244840Y33018D02*
X244840Y33018D01*
X244842Y33021D01*
X244844Y33016D01*
X244840Y33018D01*
G37*
%LPD*%
D10*
X128900Y82000D02*
X131400Y82000D01*
X128900Y82000D02*
X128900Y75000D01*
X173400Y82000D02*
X175900Y82000D01*
X175900Y75000D01*
X128900Y52000D02*
X128900Y45000D01*
X131400Y45000D01*
X173400Y45000D02*
X175900Y45000D01*
X175900Y52000D01*
D11*
X124000Y48800D03*
M02*
