G04 EAGLE Gerber RS-274X export*
G75*
%MOMM*%
%FSLAX34Y34*%
%LPD*%
%INBottom Copper*%
%IPPOS*%
%AMOC8*
5,1,8,0,0,1.08239X$1,22.5*%
G01*
%ADD10C,0.279400*%
%ADD11C,1.000000*%
%ADD12C,1.879600*%
%ADD13C,0.736600*%
%ADD14C,0.660400*%
%ADD15C,0.254000*%

G36*
X14088Y12716D02*
X14088Y12716D01*
X14207Y12723D01*
X14245Y12736D01*
X14285Y12741D01*
X14396Y12785D01*
X14509Y12821D01*
X14544Y12843D01*
X14581Y12858D01*
X14677Y12928D01*
X14778Y12991D01*
X14806Y13021D01*
X14839Y13045D01*
X14914Y13136D01*
X14996Y13223D01*
X15016Y13258D01*
X15041Y13290D01*
X15092Y13397D01*
X15150Y13502D01*
X15160Y13541D01*
X15177Y13577D01*
X15199Y13694D01*
X15229Y13809D01*
X15233Y13870D01*
X15237Y13890D01*
X15235Y13910D01*
X15239Y13970D01*
X15239Y24385D01*
X15496Y24345D01*
X17283Y23764D01*
X18957Y22911D01*
X20478Y21806D01*
X21806Y20478D01*
X22911Y18957D01*
X23764Y17283D01*
X23915Y16818D01*
X23928Y16791D01*
X23935Y16762D01*
X23995Y16648D01*
X24050Y16530D01*
X24069Y16507D01*
X24083Y16481D01*
X24170Y16385D01*
X24253Y16285D01*
X24277Y16268D01*
X24297Y16246D01*
X24406Y16174D01*
X24510Y16098D01*
X24538Y16087D01*
X24563Y16071D01*
X24686Y16029D01*
X24806Y15981D01*
X24836Y15977D01*
X24864Y15968D01*
X24993Y15957D01*
X25121Y15941D01*
X25151Y15945D01*
X25181Y15942D01*
X25309Y15965D01*
X25437Y15981D01*
X25465Y15992D01*
X25494Y15997D01*
X25612Y16050D01*
X25733Y16098D01*
X25757Y16115D01*
X25784Y16127D01*
X25885Y16208D01*
X25990Y16284D01*
X26009Y16307D01*
X26033Y16326D01*
X26111Y16430D01*
X26193Y16529D01*
X26206Y16556D01*
X26224Y16580D01*
X26295Y16725D01*
X27548Y19750D01*
X31050Y23252D01*
X35624Y25147D01*
X40576Y25147D01*
X45150Y23252D01*
X48652Y19750D01*
X49627Y17395D01*
X49696Y17275D01*
X49761Y17152D01*
X49775Y17137D01*
X49785Y17119D01*
X49882Y17019D01*
X49975Y16916D01*
X49992Y16905D01*
X50006Y16891D01*
X50125Y16818D01*
X50241Y16742D01*
X50260Y16735D01*
X50277Y16724D01*
X50410Y16684D01*
X50542Y16638D01*
X50562Y16637D01*
X50581Y16631D01*
X50720Y16624D01*
X50859Y16613D01*
X50879Y16617D01*
X50899Y16616D01*
X51035Y16644D01*
X51172Y16668D01*
X51191Y16676D01*
X51210Y16680D01*
X51336Y16741D01*
X51462Y16798D01*
X51478Y16811D01*
X51496Y16820D01*
X51602Y16910D01*
X51710Y16997D01*
X51723Y17013D01*
X51738Y17026D01*
X51818Y17140D01*
X51902Y17251D01*
X51914Y17276D01*
X51921Y17286D01*
X51928Y17305D01*
X51973Y17395D01*
X52948Y19750D01*
X56450Y23252D01*
X61024Y25147D01*
X65976Y25147D01*
X70550Y23252D01*
X74052Y19750D01*
X75027Y17395D01*
X75096Y17275D01*
X75161Y17152D01*
X75175Y17137D01*
X75185Y17119D01*
X75282Y17019D01*
X75375Y16916D01*
X75392Y16905D01*
X75406Y16891D01*
X75525Y16818D01*
X75641Y16742D01*
X75660Y16735D01*
X75677Y16724D01*
X75810Y16684D01*
X75942Y16638D01*
X75962Y16637D01*
X75981Y16631D01*
X76120Y16624D01*
X76259Y16613D01*
X76279Y16617D01*
X76299Y16616D01*
X76435Y16644D01*
X76572Y16668D01*
X76591Y16676D01*
X76610Y16680D01*
X76736Y16741D01*
X76862Y16798D01*
X76878Y16811D01*
X76896Y16820D01*
X77002Y16910D01*
X77110Y16997D01*
X77123Y17013D01*
X77138Y17026D01*
X77218Y17140D01*
X77302Y17251D01*
X77314Y17276D01*
X77321Y17286D01*
X77328Y17305D01*
X77373Y17395D01*
X78348Y19750D01*
X81850Y23252D01*
X86424Y25147D01*
X91376Y25147D01*
X95950Y23252D01*
X99452Y19750D01*
X100427Y17395D01*
X100496Y17275D01*
X100561Y17152D01*
X100575Y17137D01*
X100585Y17119D01*
X100682Y17019D01*
X100775Y16916D01*
X100792Y16905D01*
X100806Y16891D01*
X100925Y16818D01*
X101041Y16742D01*
X101060Y16735D01*
X101077Y16724D01*
X101210Y16684D01*
X101342Y16638D01*
X101362Y16637D01*
X101381Y16631D01*
X101520Y16624D01*
X101659Y16613D01*
X101679Y16617D01*
X101699Y16616D01*
X101835Y16644D01*
X101972Y16668D01*
X101991Y16676D01*
X102010Y16680D01*
X102136Y16741D01*
X102262Y16798D01*
X102278Y16811D01*
X102296Y16820D01*
X102402Y16910D01*
X102510Y16997D01*
X102523Y17013D01*
X102538Y17026D01*
X102618Y17140D01*
X102702Y17251D01*
X102714Y17276D01*
X102721Y17286D01*
X102728Y17305D01*
X102773Y17395D01*
X103748Y19750D01*
X107250Y23252D01*
X111824Y25147D01*
X116776Y25147D01*
X121350Y23252D01*
X124852Y19750D01*
X125827Y17395D01*
X125896Y17275D01*
X125961Y17152D01*
X125975Y17137D01*
X125985Y17119D01*
X126082Y17019D01*
X126175Y16916D01*
X126192Y16905D01*
X126206Y16891D01*
X126325Y16818D01*
X126441Y16742D01*
X126460Y16735D01*
X126477Y16724D01*
X126610Y16684D01*
X126742Y16638D01*
X126762Y16637D01*
X126781Y16631D01*
X126920Y16624D01*
X127059Y16613D01*
X127079Y16617D01*
X127099Y16616D01*
X127235Y16644D01*
X127372Y16668D01*
X127391Y16676D01*
X127410Y16680D01*
X127536Y16741D01*
X127662Y16798D01*
X127678Y16811D01*
X127696Y16820D01*
X127802Y16910D01*
X127910Y16997D01*
X127923Y17013D01*
X127938Y17026D01*
X128018Y17140D01*
X128102Y17251D01*
X128114Y17276D01*
X128121Y17286D01*
X128128Y17305D01*
X128173Y17395D01*
X129148Y19750D01*
X132650Y23252D01*
X137224Y25147D01*
X142176Y25147D01*
X146750Y23252D01*
X150252Y19750D01*
X151227Y17395D01*
X151296Y17275D01*
X151361Y17152D01*
X151375Y17137D01*
X151385Y17119D01*
X151482Y17019D01*
X151575Y16916D01*
X151592Y16905D01*
X151606Y16891D01*
X151725Y16818D01*
X151841Y16742D01*
X151860Y16735D01*
X151877Y16724D01*
X152010Y16684D01*
X152142Y16638D01*
X152162Y16637D01*
X152181Y16631D01*
X152320Y16624D01*
X152459Y16613D01*
X152479Y16617D01*
X152499Y16616D01*
X152635Y16644D01*
X152772Y16668D01*
X152791Y16676D01*
X152810Y16680D01*
X152936Y16741D01*
X153062Y16798D01*
X153078Y16811D01*
X153096Y16820D01*
X153202Y16910D01*
X153310Y16997D01*
X153323Y17013D01*
X153338Y17026D01*
X153418Y17140D01*
X153502Y17251D01*
X153514Y17276D01*
X153521Y17286D01*
X153528Y17305D01*
X153573Y17395D01*
X154548Y19750D01*
X158050Y23252D01*
X162624Y25147D01*
X167576Y25147D01*
X172150Y23252D01*
X175652Y19750D01*
X176627Y17395D01*
X176696Y17275D01*
X176761Y17152D01*
X176775Y17137D01*
X176785Y17119D01*
X176882Y17019D01*
X176975Y16916D01*
X176992Y16905D01*
X177006Y16891D01*
X177125Y16818D01*
X177241Y16742D01*
X177260Y16735D01*
X177277Y16724D01*
X177410Y16684D01*
X177542Y16638D01*
X177562Y16637D01*
X177581Y16631D01*
X177720Y16624D01*
X177859Y16613D01*
X177879Y16617D01*
X177899Y16616D01*
X178035Y16644D01*
X178172Y16668D01*
X178191Y16676D01*
X178210Y16680D01*
X178336Y16741D01*
X178462Y16798D01*
X178478Y16811D01*
X178496Y16820D01*
X178602Y16910D01*
X178710Y16997D01*
X178723Y17013D01*
X178738Y17026D01*
X178818Y17140D01*
X178902Y17251D01*
X178914Y17276D01*
X178921Y17286D01*
X178928Y17305D01*
X178973Y17395D01*
X179948Y19750D01*
X183450Y23252D01*
X188024Y25147D01*
X192976Y25147D01*
X197550Y23252D01*
X201052Y19750D01*
X202027Y17395D01*
X202096Y17275D01*
X202161Y17152D01*
X202175Y17137D01*
X202185Y17119D01*
X202282Y17019D01*
X202375Y16916D01*
X202392Y16905D01*
X202406Y16891D01*
X202525Y16818D01*
X202641Y16742D01*
X202660Y16735D01*
X202677Y16724D01*
X202810Y16684D01*
X202942Y16638D01*
X202962Y16637D01*
X202981Y16631D01*
X203120Y16624D01*
X203259Y16613D01*
X203279Y16617D01*
X203299Y16616D01*
X203435Y16644D01*
X203572Y16668D01*
X203591Y16676D01*
X203610Y16680D01*
X203736Y16741D01*
X203862Y16798D01*
X203878Y16811D01*
X203896Y16820D01*
X204002Y16910D01*
X204110Y16997D01*
X204123Y17013D01*
X204138Y17026D01*
X204218Y17140D01*
X204302Y17251D01*
X204314Y17276D01*
X204321Y17286D01*
X204328Y17305D01*
X204373Y17395D01*
X205348Y19750D01*
X208850Y23252D01*
X213424Y25147D01*
X218376Y25147D01*
X222950Y23252D01*
X226452Y19750D01*
X227427Y17395D01*
X227496Y17275D01*
X227561Y17152D01*
X227575Y17137D01*
X227585Y17119D01*
X227682Y17019D01*
X227775Y16916D01*
X227792Y16905D01*
X227806Y16891D01*
X227925Y16818D01*
X228041Y16742D01*
X228060Y16735D01*
X228077Y16724D01*
X228210Y16684D01*
X228342Y16638D01*
X228362Y16637D01*
X228381Y16631D01*
X228520Y16624D01*
X228659Y16613D01*
X228679Y16617D01*
X228699Y16616D01*
X228835Y16644D01*
X228972Y16668D01*
X228991Y16676D01*
X229010Y16680D01*
X229136Y16741D01*
X229262Y16798D01*
X229278Y16811D01*
X229296Y16820D01*
X229402Y16910D01*
X229510Y16997D01*
X229523Y17013D01*
X229538Y17026D01*
X229618Y17140D01*
X229702Y17251D01*
X229714Y17276D01*
X229721Y17286D01*
X229728Y17305D01*
X229773Y17395D01*
X230748Y19750D01*
X234250Y23252D01*
X238824Y25147D01*
X243776Y25147D01*
X248350Y23252D01*
X251852Y19750D01*
X252827Y17395D01*
X252896Y17275D01*
X252961Y17152D01*
X252975Y17137D01*
X252985Y17119D01*
X253082Y17019D01*
X253175Y16916D01*
X253192Y16905D01*
X253206Y16891D01*
X253325Y16818D01*
X253441Y16742D01*
X253460Y16735D01*
X253477Y16724D01*
X253610Y16684D01*
X253742Y16638D01*
X253762Y16637D01*
X253781Y16631D01*
X253920Y16624D01*
X254059Y16613D01*
X254079Y16617D01*
X254099Y16616D01*
X254235Y16644D01*
X254372Y16668D01*
X254391Y16676D01*
X254410Y16680D01*
X254536Y16741D01*
X254662Y16798D01*
X254678Y16811D01*
X254696Y16820D01*
X254802Y16910D01*
X254910Y16997D01*
X254923Y17013D01*
X254938Y17026D01*
X255018Y17140D01*
X255102Y17251D01*
X255114Y17276D01*
X255121Y17286D01*
X255128Y17305D01*
X255173Y17395D01*
X256148Y19750D01*
X259650Y23252D01*
X264224Y25147D01*
X269176Y25147D01*
X273580Y23322D01*
X273628Y23309D01*
X273673Y23288D01*
X273781Y23267D01*
X273887Y23238D01*
X273937Y23238D01*
X273986Y23228D01*
X274095Y23235D01*
X274205Y23233D01*
X274253Y23245D01*
X274303Y23248D01*
X274407Y23282D01*
X274514Y23307D01*
X274558Y23331D01*
X274605Y23346D01*
X274698Y23405D01*
X274795Y23456D01*
X274832Y23490D01*
X274874Y23516D01*
X274949Y23596D01*
X275031Y23670D01*
X275058Y23712D01*
X275092Y23748D01*
X275145Y23844D01*
X275205Y23936D01*
X275222Y23983D01*
X275246Y24026D01*
X275273Y24133D01*
X275309Y24237D01*
X275313Y24286D01*
X275325Y24334D01*
X275335Y24495D01*
X275335Y51889D01*
X275320Y52007D01*
X275313Y52126D01*
X275300Y52164D01*
X275295Y52204D01*
X275252Y52315D01*
X275215Y52428D01*
X275193Y52462D01*
X275178Y52500D01*
X275109Y52596D01*
X275045Y52697D01*
X275015Y52725D01*
X274992Y52757D01*
X274900Y52833D01*
X274813Y52915D01*
X274778Y52934D01*
X274747Y52960D01*
X274639Y53011D01*
X274535Y53068D01*
X274495Y53079D01*
X274459Y53096D01*
X274342Y53118D01*
X274227Y53148D01*
X274167Y53152D01*
X274147Y53156D01*
X274126Y53154D01*
X274066Y53158D01*
X272352Y53158D01*
X269747Y55762D01*
X269747Y56052D01*
X269732Y56170D01*
X269725Y56289D01*
X269712Y56327D01*
X269707Y56367D01*
X269664Y56478D01*
X269627Y56591D01*
X269605Y56625D01*
X269590Y56663D01*
X269521Y56759D01*
X269457Y56860D01*
X269427Y56887D01*
X269404Y56920D01*
X269312Y56996D01*
X269225Y57078D01*
X269190Y57097D01*
X269159Y57123D01*
X269051Y57174D01*
X268947Y57231D01*
X268907Y57241D01*
X268871Y57259D01*
X268754Y57281D01*
X268639Y57311D01*
X268579Y57314D01*
X268559Y57318D01*
X268538Y57317D01*
X268478Y57321D01*
X259523Y57321D01*
X259509Y57319D01*
X259383Y57313D01*
X257835Y57141D01*
X257724Y57209D01*
X257696Y57217D01*
X257671Y57231D01*
X257545Y57264D01*
X257420Y57302D01*
X257391Y57303D01*
X257380Y57306D01*
X256287Y58399D01*
X256276Y58408D01*
X256183Y58493D01*
X254966Y59466D01*
X254935Y59592D01*
X254922Y59618D01*
X254914Y59646D01*
X254848Y59758D01*
X254787Y59873D01*
X254767Y59895D01*
X254761Y59904D01*
X254761Y61450D01*
X254759Y61464D01*
X254754Y61590D01*
X254581Y63139D01*
X254649Y63250D01*
X254658Y63277D01*
X254672Y63303D01*
X254704Y63429D01*
X254742Y63554D01*
X254744Y63583D01*
X254747Y63593D01*
X255840Y64687D01*
X255849Y64698D01*
X255933Y64791D01*
X259094Y68742D01*
X259104Y68758D01*
X259117Y68772D01*
X259187Y68893D01*
X259260Y69013D01*
X259265Y69031D01*
X259275Y69048D01*
X259312Y69183D01*
X259353Y69317D01*
X259354Y69336D01*
X259359Y69354D01*
X259361Y69494D01*
X259368Y69635D01*
X259364Y69653D01*
X259364Y69672D01*
X259332Y69808D01*
X259303Y69946D01*
X259295Y69963D01*
X259291Y69982D01*
X259225Y70105D01*
X259163Y70232D01*
X259151Y70246D01*
X259142Y70263D01*
X259048Y70367D01*
X258957Y70473D01*
X258941Y70484D01*
X258929Y70498D01*
X258811Y70576D01*
X258697Y70656D01*
X258679Y70663D01*
X258663Y70673D01*
X258514Y70735D01*
X257565Y71061D01*
X254761Y74986D01*
X254761Y79810D01*
X257565Y83735D01*
X259442Y84378D01*
X259544Y84429D01*
X259649Y84471D01*
X259686Y84498D01*
X259728Y84519D01*
X259814Y84592D01*
X259906Y84660D01*
X259935Y84695D01*
X259969Y84725D01*
X260035Y84818D01*
X260107Y84906D01*
X260126Y84948D01*
X260152Y84985D01*
X260192Y85092D01*
X260240Y85195D01*
X260248Y85240D01*
X260265Y85283D01*
X260277Y85396D01*
X260298Y85508D01*
X260294Y85553D01*
X260300Y85599D01*
X260284Y85711D01*
X260276Y85825D01*
X260258Y85893D01*
X260255Y85914D01*
X260248Y85931D01*
X260235Y85981D01*
X259402Y88477D01*
X260613Y90898D01*
X260623Y90926D01*
X260638Y90952D01*
X260676Y91076D01*
X260719Y91198D01*
X260721Y91228D01*
X260730Y91257D01*
X260735Y91386D01*
X260746Y91515D01*
X260741Y91544D01*
X260743Y91574D01*
X260715Y91701D01*
X260694Y91829D01*
X260682Y91856D01*
X260676Y91885D01*
X260613Y92034D01*
X259402Y94455D01*
X260567Y97949D01*
X263861Y99596D01*
X273665Y96328D01*
X273669Y96327D01*
X273673Y96325D01*
X273823Y96297D01*
X273977Y96266D01*
X273981Y96267D01*
X273986Y96266D01*
X274138Y96275D01*
X274294Y96284D01*
X274298Y96285D01*
X274303Y96285D01*
X274449Y96333D01*
X274597Y96380D01*
X274601Y96382D01*
X274605Y96383D01*
X274736Y96466D01*
X274867Y96548D01*
X274870Y96551D01*
X274874Y96554D01*
X274980Y96666D01*
X275087Y96778D01*
X275089Y96782D01*
X275092Y96785D01*
X275166Y96919D01*
X275242Y97055D01*
X275243Y97060D01*
X275246Y97064D01*
X275284Y97211D01*
X275324Y97363D01*
X275324Y97367D01*
X275325Y97372D01*
X275335Y97532D01*
X275335Y108488D01*
X275318Y108626D01*
X275305Y108765D01*
X275298Y108784D01*
X275295Y108804D01*
X275244Y108933D01*
X275197Y109064D01*
X275186Y109081D01*
X275178Y109100D01*
X275097Y109212D01*
X275019Y109327D01*
X275003Y109341D01*
X274992Y109357D01*
X274884Y109446D01*
X274780Y109538D01*
X274762Y109547D01*
X274747Y109560D01*
X274621Y109619D01*
X274497Y109682D01*
X274477Y109687D01*
X274459Y109695D01*
X274323Y109721D01*
X274187Y109752D01*
X274166Y109751D01*
X274147Y109755D01*
X274008Y109746D01*
X273869Y109742D01*
X273849Y109737D01*
X273829Y109735D01*
X273697Y109693D01*
X273563Y109654D01*
X273546Y109644D01*
X273527Y109637D01*
X273409Y109563D01*
X273289Y109492D01*
X273268Y109474D01*
X273258Y109467D01*
X273244Y109452D01*
X273169Y109386D01*
X271259Y107477D01*
X268301Y106251D01*
X265099Y106251D01*
X262141Y107477D01*
X259877Y109741D01*
X258651Y112699D01*
X258651Y115901D01*
X259877Y118859D01*
X261786Y120769D01*
X261871Y120878D01*
X261960Y120985D01*
X261968Y121004D01*
X261981Y121020D01*
X262036Y121148D01*
X262095Y121273D01*
X262099Y121293D01*
X262107Y121312D01*
X262129Y121450D01*
X262155Y121586D01*
X262154Y121606D01*
X262157Y121626D01*
X262144Y121765D01*
X262135Y121903D01*
X262129Y121922D01*
X262127Y121942D01*
X262080Y122074D01*
X262037Y122205D01*
X262026Y122223D01*
X262020Y122242D01*
X261942Y122357D01*
X261867Y122474D01*
X261852Y122488D01*
X261841Y122505D01*
X261737Y122597D01*
X261636Y122692D01*
X261618Y122702D01*
X261603Y122715D01*
X261478Y122779D01*
X261357Y122846D01*
X261337Y122851D01*
X261319Y122860D01*
X261184Y122890D01*
X261049Y122925D01*
X261021Y122927D01*
X261009Y122930D01*
X260989Y122929D01*
X260888Y122935D01*
X253095Y122935D01*
X253046Y122929D01*
X252996Y122931D01*
X252889Y122909D01*
X252779Y122895D01*
X252733Y122877D01*
X252685Y122867D01*
X252586Y122819D01*
X252484Y122778D01*
X252444Y122749D01*
X252399Y122727D01*
X252315Y122656D01*
X252226Y122592D01*
X252195Y122553D01*
X252157Y122521D01*
X252094Y122431D01*
X252024Y122347D01*
X252002Y122302D01*
X251974Y122261D01*
X251935Y122158D01*
X251888Y122059D01*
X251879Y122010D01*
X251861Y121964D01*
X251849Y121854D01*
X251828Y121747D01*
X251831Y121697D01*
X251826Y121648D01*
X251841Y121539D01*
X251848Y121429D01*
X251863Y121382D01*
X251870Y121333D01*
X251922Y121180D01*
X253747Y116776D01*
X253747Y111824D01*
X251852Y107250D01*
X248350Y103748D01*
X243776Y101853D01*
X238824Y101853D01*
X234250Y103748D01*
X230748Y107250D01*
X229773Y109605D01*
X229704Y109725D01*
X229639Y109848D01*
X229625Y109863D01*
X229615Y109881D01*
X229518Y109981D01*
X229425Y110084D01*
X229408Y110095D01*
X229394Y110109D01*
X229276Y110182D01*
X229159Y110258D01*
X229140Y110265D01*
X229123Y110276D01*
X228990Y110316D01*
X228858Y110362D01*
X228838Y110363D01*
X228819Y110369D01*
X228680Y110376D01*
X228541Y110387D01*
X228521Y110383D01*
X228501Y110384D01*
X228365Y110356D01*
X228228Y110332D01*
X228209Y110324D01*
X228190Y110320D01*
X228065Y110259D01*
X227938Y110202D01*
X227922Y110189D01*
X227904Y110180D01*
X227798Y110090D01*
X227690Y110003D01*
X227677Y109987D01*
X227662Y109974D01*
X227582Y109860D01*
X227498Y109749D01*
X227486Y109724D01*
X227479Y109714D01*
X227472Y109695D01*
X227427Y109605D01*
X226452Y107250D01*
X222950Y103748D01*
X218376Y101853D01*
X213424Y101853D01*
X208850Y103748D01*
X205348Y107250D01*
X204373Y109605D01*
X204304Y109725D01*
X204239Y109848D01*
X204225Y109863D01*
X204215Y109881D01*
X204118Y109981D01*
X204025Y110084D01*
X204008Y110095D01*
X203994Y110109D01*
X203876Y110182D01*
X203759Y110258D01*
X203740Y110265D01*
X203723Y110276D01*
X203590Y110316D01*
X203458Y110362D01*
X203438Y110363D01*
X203419Y110369D01*
X203280Y110376D01*
X203141Y110387D01*
X203121Y110383D01*
X203101Y110384D01*
X202965Y110356D01*
X202828Y110332D01*
X202809Y110324D01*
X202790Y110320D01*
X202665Y110259D01*
X202538Y110202D01*
X202522Y110189D01*
X202504Y110180D01*
X202398Y110090D01*
X202290Y110003D01*
X202277Y109987D01*
X202262Y109974D01*
X202182Y109860D01*
X202098Y109749D01*
X202086Y109724D01*
X202079Y109714D01*
X202072Y109695D01*
X202027Y109605D01*
X201052Y107250D01*
X197550Y103748D01*
X192976Y101853D01*
X188024Y101853D01*
X183450Y103748D01*
X179948Y107250D01*
X178973Y109605D01*
X178904Y109725D01*
X178839Y109848D01*
X178825Y109863D01*
X178815Y109881D01*
X178718Y109981D01*
X178625Y110084D01*
X178608Y110095D01*
X178594Y110109D01*
X178476Y110182D01*
X178359Y110258D01*
X178340Y110265D01*
X178323Y110276D01*
X178190Y110316D01*
X178058Y110362D01*
X178038Y110363D01*
X178019Y110369D01*
X177880Y110376D01*
X177741Y110387D01*
X177721Y110383D01*
X177701Y110384D01*
X177565Y110356D01*
X177428Y110332D01*
X177409Y110324D01*
X177390Y110320D01*
X177265Y110259D01*
X177138Y110202D01*
X177122Y110189D01*
X177104Y110180D01*
X176998Y110090D01*
X176890Y110003D01*
X176877Y109987D01*
X176862Y109974D01*
X176782Y109860D01*
X176698Y109749D01*
X176686Y109724D01*
X176679Y109714D01*
X176672Y109695D01*
X176627Y109605D01*
X175652Y107250D01*
X172150Y103748D01*
X167576Y101853D01*
X162624Y101853D01*
X158050Y103748D01*
X154548Y107250D01*
X153573Y109605D01*
X153504Y109725D01*
X153439Y109848D01*
X153425Y109863D01*
X153415Y109881D01*
X153318Y109981D01*
X153225Y110084D01*
X153208Y110095D01*
X153194Y110109D01*
X153076Y110182D01*
X152959Y110258D01*
X152940Y110265D01*
X152923Y110276D01*
X152790Y110316D01*
X152658Y110362D01*
X152638Y110363D01*
X152619Y110369D01*
X152480Y110376D01*
X152341Y110387D01*
X152321Y110383D01*
X152301Y110384D01*
X152165Y110356D01*
X152028Y110332D01*
X152009Y110324D01*
X151990Y110320D01*
X151865Y110259D01*
X151738Y110202D01*
X151722Y110189D01*
X151704Y110180D01*
X151598Y110090D01*
X151490Y110003D01*
X151477Y109987D01*
X151462Y109974D01*
X151382Y109860D01*
X151298Y109749D01*
X151286Y109724D01*
X151279Y109714D01*
X151272Y109695D01*
X151227Y109605D01*
X150252Y107250D01*
X146750Y103748D01*
X142176Y101853D01*
X137224Y101853D01*
X132650Y103748D01*
X129148Y107250D01*
X128173Y109605D01*
X128104Y109725D01*
X128039Y109848D01*
X128025Y109863D01*
X128015Y109881D01*
X127918Y109981D01*
X127825Y110084D01*
X127808Y110095D01*
X127794Y110109D01*
X127676Y110182D01*
X127559Y110258D01*
X127540Y110265D01*
X127523Y110276D01*
X127390Y110316D01*
X127258Y110362D01*
X127238Y110363D01*
X127219Y110369D01*
X127080Y110376D01*
X126941Y110387D01*
X126921Y110383D01*
X126901Y110384D01*
X126765Y110356D01*
X126628Y110332D01*
X126609Y110324D01*
X126590Y110320D01*
X126465Y110259D01*
X126338Y110202D01*
X126322Y110189D01*
X126304Y110180D01*
X126198Y110090D01*
X126090Y110003D01*
X126077Y109987D01*
X126062Y109974D01*
X125982Y109860D01*
X125898Y109749D01*
X125886Y109724D01*
X125879Y109714D01*
X125872Y109695D01*
X125827Y109605D01*
X124852Y107250D01*
X121350Y103748D01*
X116776Y101853D01*
X111824Y101853D01*
X107250Y103748D01*
X103748Y107250D01*
X102773Y109605D01*
X102704Y109725D01*
X102639Y109848D01*
X102625Y109863D01*
X102615Y109881D01*
X102518Y109981D01*
X102425Y110084D01*
X102408Y110095D01*
X102394Y110109D01*
X102275Y110182D01*
X102159Y110258D01*
X102140Y110265D01*
X102123Y110276D01*
X101990Y110316D01*
X101858Y110362D01*
X101838Y110363D01*
X101819Y110369D01*
X101680Y110376D01*
X101541Y110387D01*
X101521Y110383D01*
X101501Y110384D01*
X101365Y110356D01*
X101228Y110332D01*
X101209Y110324D01*
X101190Y110320D01*
X101064Y110259D01*
X100938Y110202D01*
X100922Y110189D01*
X100904Y110180D01*
X100798Y110090D01*
X100690Y110003D01*
X100677Y109987D01*
X100662Y109974D01*
X100582Y109860D01*
X100498Y109749D01*
X100486Y109724D01*
X100479Y109714D01*
X100472Y109695D01*
X100427Y109605D01*
X99452Y107250D01*
X95950Y103748D01*
X91376Y101853D01*
X86424Y101853D01*
X81850Y103748D01*
X78348Y107249D01*
X77373Y109605D01*
X77304Y109726D01*
X77239Y109848D01*
X77225Y109863D01*
X77215Y109881D01*
X77118Y109981D01*
X77025Y110084D01*
X77008Y110095D01*
X76994Y110109D01*
X76876Y110182D01*
X76759Y110258D01*
X76740Y110265D01*
X76723Y110276D01*
X76590Y110316D01*
X76458Y110362D01*
X76438Y110363D01*
X76419Y110369D01*
X76280Y110376D01*
X76141Y110387D01*
X76121Y110383D01*
X76101Y110384D01*
X75965Y110356D01*
X75828Y110332D01*
X75809Y110324D01*
X75790Y110320D01*
X75665Y110259D01*
X75538Y110202D01*
X75522Y110189D01*
X75504Y110180D01*
X75398Y110090D01*
X75290Y110003D01*
X75277Y109987D01*
X75262Y109974D01*
X75182Y109860D01*
X75098Y109749D01*
X75086Y109724D01*
X75079Y109714D01*
X75072Y109695D01*
X75027Y109605D01*
X74052Y107250D01*
X70550Y103748D01*
X65976Y101853D01*
X61024Y101853D01*
X56450Y103748D01*
X52948Y107249D01*
X51973Y109605D01*
X51904Y109726D01*
X51839Y109848D01*
X51825Y109863D01*
X51815Y109881D01*
X51718Y109981D01*
X51625Y110084D01*
X51608Y110095D01*
X51594Y110109D01*
X51476Y110182D01*
X51359Y110258D01*
X51340Y110265D01*
X51323Y110276D01*
X51190Y110316D01*
X51058Y110362D01*
X51038Y110363D01*
X51019Y110369D01*
X50880Y110376D01*
X50741Y110387D01*
X50721Y110383D01*
X50701Y110384D01*
X50565Y110356D01*
X50428Y110332D01*
X50409Y110324D01*
X50390Y110320D01*
X50265Y110259D01*
X50138Y110202D01*
X50122Y110189D01*
X50104Y110180D01*
X49998Y110090D01*
X49890Y110003D01*
X49877Y109987D01*
X49862Y109974D01*
X49782Y109860D01*
X49698Y109749D01*
X49686Y109724D01*
X49679Y109714D01*
X49672Y109695D01*
X49627Y109605D01*
X48652Y107250D01*
X45150Y103748D01*
X40576Y101853D01*
X35624Y101853D01*
X31050Y103748D01*
X27548Y107250D01*
X26295Y110275D01*
X26280Y110301D01*
X26271Y110330D01*
X26201Y110439D01*
X26137Y110552D01*
X26116Y110573D01*
X26100Y110598D01*
X26006Y110687D01*
X25916Y110780D01*
X25890Y110796D01*
X25869Y110816D01*
X25755Y110879D01*
X25645Y110946D01*
X25616Y110955D01*
X25590Y110969D01*
X25465Y111002D01*
X25341Y111040D01*
X25311Y111041D01*
X25282Y111049D01*
X25152Y111049D01*
X25023Y111055D01*
X24994Y111049D01*
X24964Y111049D01*
X24839Y111017D01*
X24712Y110991D01*
X24685Y110978D01*
X24656Y110970D01*
X24543Y110908D01*
X24426Y110851D01*
X24403Y110832D01*
X24377Y110817D01*
X24283Y110729D01*
X24184Y110645D01*
X24167Y110620D01*
X24145Y110600D01*
X24076Y110491D01*
X24001Y110385D01*
X23990Y110357D01*
X23974Y110331D01*
X23915Y110182D01*
X23764Y109717D01*
X22911Y108043D01*
X21806Y106522D01*
X20478Y105194D01*
X18957Y104089D01*
X17283Y103236D01*
X15496Y102655D01*
X15239Y102615D01*
X15239Y113030D01*
X15224Y113148D01*
X15217Y113267D01*
X15204Y113305D01*
X15199Y113345D01*
X15156Y113456D01*
X15119Y113569D01*
X15097Y113603D01*
X15082Y113641D01*
X15012Y113737D01*
X14949Y113838D01*
X14919Y113866D01*
X14895Y113898D01*
X14804Y113974D01*
X14717Y114056D01*
X14682Y114075D01*
X14651Y114101D01*
X14543Y114152D01*
X14439Y114209D01*
X14399Y114220D01*
X14363Y114237D01*
X14246Y114259D01*
X14131Y114289D01*
X14070Y114293D01*
X14050Y114297D01*
X14030Y114295D01*
X13970Y114299D01*
X11430Y114299D01*
X11312Y114284D01*
X11193Y114277D01*
X11155Y114264D01*
X11114Y114259D01*
X11004Y114215D01*
X10891Y114179D01*
X10856Y114157D01*
X10819Y114142D01*
X10723Y114072D01*
X10622Y114009D01*
X10594Y113979D01*
X10561Y113955D01*
X10486Y113864D01*
X10404Y113777D01*
X10384Y113742D01*
X10359Y113710D01*
X10308Y113603D01*
X10250Y113498D01*
X10240Y113459D01*
X10223Y113423D01*
X10201Y113306D01*
X10171Y113191D01*
X10167Y113130D01*
X10163Y113110D01*
X10165Y113090D01*
X10161Y113030D01*
X10161Y102615D01*
X9904Y102655D01*
X8117Y103236D01*
X6443Y104089D01*
X6080Y104353D01*
X6045Y104372D01*
X6015Y104397D01*
X5906Y104448D01*
X5801Y104506D01*
X5763Y104516D01*
X5727Y104533D01*
X5609Y104555D01*
X5493Y104585D01*
X5454Y104585D01*
X5414Y104592D01*
X5295Y104585D01*
X5175Y104585D01*
X5137Y104575D01*
X5097Y104573D01*
X4983Y104536D01*
X4867Y104506D01*
X4832Y104487D01*
X4795Y104475D01*
X4694Y104411D01*
X4589Y104353D01*
X4559Y104326D01*
X4526Y104305D01*
X4444Y104217D01*
X4357Y104135D01*
X4335Y104102D01*
X4308Y104073D01*
X4250Y103968D01*
X4186Y103867D01*
X4174Y103829D01*
X4154Y103794D01*
X4125Y103679D01*
X4087Y103565D01*
X4085Y103525D01*
X4075Y103486D01*
X4065Y103326D01*
X4065Y23674D01*
X4070Y23635D01*
X4067Y23595D01*
X4090Y23477D01*
X4105Y23359D01*
X4119Y23322D01*
X4127Y23283D01*
X4178Y23174D01*
X4222Y23063D01*
X4245Y23031D01*
X4262Y22995D01*
X4338Y22903D01*
X4408Y22806D01*
X4439Y22780D01*
X4464Y22750D01*
X4561Y22679D01*
X4653Y22603D01*
X4689Y22586D01*
X4722Y22562D01*
X4833Y22518D01*
X4941Y22467D01*
X4980Y22460D01*
X5017Y22445D01*
X5136Y22430D01*
X5253Y22408D01*
X5293Y22410D01*
X5333Y22405D01*
X5452Y22420D01*
X5571Y22427D01*
X5609Y22440D01*
X5648Y22445D01*
X5760Y22488D01*
X5873Y22525D01*
X5907Y22547D01*
X5944Y22561D01*
X6080Y22647D01*
X6443Y22911D01*
X8117Y23764D01*
X9904Y24345D01*
X10161Y24385D01*
X10161Y13970D01*
X10176Y13852D01*
X10183Y13733D01*
X10196Y13695D01*
X10201Y13655D01*
X10244Y13544D01*
X10281Y13431D01*
X10303Y13397D01*
X10318Y13359D01*
X10388Y13263D01*
X10451Y13162D01*
X10481Y13134D01*
X10504Y13102D01*
X10596Y13026D01*
X10683Y12944D01*
X10718Y12925D01*
X10749Y12899D01*
X10857Y12848D01*
X10961Y12791D01*
X11001Y12780D01*
X11037Y12763D01*
X11154Y12741D01*
X11269Y12711D01*
X11330Y12707D01*
X11350Y12703D01*
X11370Y12705D01*
X11430Y12701D01*
X13970Y12701D01*
X14088Y12716D01*
G37*
%LPC*%
G36*
X110421Y73278D02*
X110421Y73278D01*
X107947Y74303D01*
X106053Y76197D01*
X105028Y78671D01*
X105028Y81349D01*
X106053Y83823D01*
X107947Y85717D01*
X110421Y86742D01*
X113099Y86742D01*
X113606Y86532D01*
X113635Y86524D01*
X113661Y86511D01*
X113788Y86482D01*
X113913Y86448D01*
X113942Y86447D01*
X113971Y86441D01*
X114101Y86445D01*
X114231Y86443D01*
X114259Y86450D01*
X114289Y86451D01*
X114414Y86487D01*
X114540Y86517D01*
X114566Y86531D01*
X114594Y86539D01*
X114706Y86605D01*
X114821Y86666D01*
X114843Y86686D01*
X114868Y86700D01*
X114989Y86807D01*
X119897Y91714D01*
X119957Y91792D01*
X120025Y91865D01*
X120054Y91918D01*
X120091Y91965D01*
X120131Y92056D01*
X120179Y92143D01*
X120194Y92202D01*
X120218Y92257D01*
X120233Y92355D01*
X120258Y92451D01*
X120264Y92551D01*
X120268Y92571D01*
X120266Y92584D01*
X120268Y92612D01*
X120268Y94049D01*
X121293Y96523D01*
X123187Y98417D01*
X125661Y99442D01*
X128339Y99442D01*
X130813Y98417D01*
X132707Y96523D01*
X133732Y94049D01*
X133732Y91371D01*
X132707Y88897D01*
X130813Y87003D01*
X128339Y85978D01*
X126902Y85978D01*
X126803Y85966D01*
X126704Y85963D01*
X126646Y85946D01*
X126586Y85938D01*
X126494Y85902D01*
X126399Y85874D01*
X126347Y85844D01*
X126290Y85821D01*
X126210Y85763D01*
X126125Y85713D01*
X126050Y85647D01*
X126033Y85635D01*
X126025Y85625D01*
X126004Y85607D01*
X118262Y77865D01*
X118257Y77857D01*
X118249Y77852D01*
X118159Y77732D01*
X118067Y77613D01*
X118064Y77605D01*
X118058Y77598D01*
X117987Y77453D01*
X117467Y76197D01*
X115573Y74303D01*
X113099Y73278D01*
X110421Y73278D01*
G37*
%LPD*%
%LPC*%
G36*
X125661Y28828D02*
X125661Y28828D01*
X123187Y29853D01*
X121293Y31747D01*
X120268Y34221D01*
X120268Y35658D01*
X120256Y35757D01*
X120253Y35856D01*
X120236Y35914D01*
X120228Y35974D01*
X120192Y36066D01*
X120164Y36161D01*
X120134Y36213D01*
X120111Y36270D01*
X120053Y36350D01*
X120003Y36435D01*
X119937Y36510D01*
X119925Y36527D01*
X119915Y36535D01*
X119897Y36556D01*
X115887Y40565D01*
X115864Y40583D01*
X115845Y40606D01*
X115739Y40680D01*
X115636Y40760D01*
X115609Y40772D01*
X115585Y40789D01*
X115463Y40835D01*
X115344Y40886D01*
X115315Y40891D01*
X115287Y40901D01*
X115158Y40916D01*
X115030Y40936D01*
X115001Y40933D01*
X114971Y40937D01*
X114843Y40919D01*
X114713Y40906D01*
X114686Y40896D01*
X114656Y40892D01*
X114504Y40840D01*
X113099Y40258D01*
X110421Y40258D01*
X107947Y41283D01*
X106053Y43177D01*
X105028Y45651D01*
X105028Y48329D01*
X106053Y50803D01*
X107947Y52697D01*
X110421Y53722D01*
X113099Y53722D01*
X115573Y52697D01*
X116590Y51680D01*
X116668Y51620D01*
X116740Y51552D01*
X116793Y51523D01*
X116841Y51486D01*
X116932Y51446D01*
X117019Y51398D01*
X117077Y51383D01*
X117133Y51359D01*
X117231Y51344D01*
X117326Y51319D01*
X117350Y51317D01*
X126004Y42663D01*
X126082Y42603D01*
X126155Y42535D01*
X126208Y42506D01*
X126255Y42469D01*
X126346Y42429D01*
X126433Y42381D01*
X126492Y42366D01*
X126547Y42342D01*
X126645Y42327D01*
X126741Y42302D01*
X126841Y42296D01*
X126861Y42292D01*
X126874Y42294D01*
X126902Y42292D01*
X128339Y42292D01*
X130813Y41267D01*
X132707Y39373D01*
X133732Y36899D01*
X133732Y34221D01*
X132707Y31747D01*
X130813Y29853D01*
X128339Y28828D01*
X125661Y28828D01*
G37*
%LPD*%
%LPC*%
G36*
X23799Y55451D02*
X23799Y55451D01*
X20841Y56677D01*
X18577Y58941D01*
X17351Y61899D01*
X17351Y65101D01*
X18577Y68059D01*
X20841Y70323D01*
X23799Y71549D01*
X27001Y71549D01*
X29959Y70323D01*
X32223Y68059D01*
X33449Y65101D01*
X33449Y61899D01*
X32223Y58941D01*
X29959Y56677D01*
X27001Y55451D01*
X23799Y55451D01*
G37*
%LPD*%
D10*
X264202Y94796D02*
X274193Y91466D01*
X264202Y88136D01*
X266700Y81561D02*
X266405Y81557D01*
X266111Y81547D01*
X265816Y81529D01*
X265522Y81505D01*
X265229Y81473D01*
X264937Y81435D01*
X264646Y81389D01*
X264356Y81336D01*
X264067Y81277D01*
X263780Y81211D01*
X263494Y81138D01*
X263210Y81058D01*
X262928Y80971D01*
X262649Y80878D01*
X262371Y80778D01*
X262097Y80671D01*
X261824Y80558D01*
X261555Y80438D01*
X261288Y80312D01*
X261185Y80274D01*
X261084Y80233D01*
X260985Y80189D01*
X260886Y80141D01*
X260790Y80090D01*
X260696Y80035D01*
X260603Y79977D01*
X260513Y79916D01*
X260425Y79851D01*
X260339Y79784D01*
X260256Y79713D01*
X260175Y79640D01*
X260097Y79564D01*
X260021Y79485D01*
X259949Y79403D01*
X259879Y79319D01*
X259813Y79232D01*
X259749Y79144D01*
X259689Y79053D01*
X259632Y78959D01*
X259578Y78864D01*
X259528Y78767D01*
X259481Y78669D01*
X259438Y78569D01*
X259398Y78467D01*
X259362Y78364D01*
X259330Y78260D01*
X259301Y78154D01*
X259276Y78048D01*
X259255Y77941D01*
X259238Y77833D01*
X259224Y77725D01*
X259215Y77616D01*
X259209Y77507D01*
X259207Y77398D01*
X259209Y77289D01*
X259215Y77180D01*
X259224Y77071D01*
X259238Y76963D01*
X259255Y76855D01*
X259276Y76748D01*
X259301Y76641D01*
X259330Y76536D01*
X259362Y76432D01*
X259398Y76329D01*
X259438Y76227D01*
X259481Y76127D01*
X259528Y76028D01*
X259579Y75931D01*
X259632Y75836D01*
X259689Y75743D01*
X259750Y75652D01*
X259813Y75563D01*
X259880Y75477D01*
X259949Y75392D01*
X260022Y75311D01*
X260097Y75232D01*
X260175Y75155D01*
X260256Y75082D01*
X260339Y75011D01*
X260425Y74944D01*
X260513Y74879D01*
X260604Y74818D01*
X260696Y74760D01*
X260791Y74705D01*
X260887Y74654D01*
X260985Y74606D01*
X261085Y74562D01*
X261186Y74521D01*
X261289Y74484D01*
X261288Y74484D02*
X261555Y74358D01*
X261824Y74238D01*
X262097Y74125D01*
X262371Y74018D01*
X262649Y73918D01*
X262928Y73825D01*
X263210Y73738D01*
X263494Y73658D01*
X263780Y73585D01*
X264067Y73519D01*
X264356Y73460D01*
X264646Y73407D01*
X264937Y73361D01*
X265229Y73323D01*
X265522Y73291D01*
X265816Y73267D01*
X266111Y73249D01*
X266405Y73239D01*
X266700Y73235D01*
X266700Y81561D02*
X266995Y81557D01*
X267289Y81547D01*
X267584Y81529D01*
X267878Y81505D01*
X268171Y81473D01*
X268463Y81435D01*
X268754Y81389D01*
X269044Y81336D01*
X269333Y81277D01*
X269620Y81211D01*
X269906Y81138D01*
X270190Y81058D01*
X270472Y80971D01*
X270751Y80878D01*
X271029Y80778D01*
X271303Y80671D01*
X271576Y80558D01*
X271845Y80438D01*
X272112Y80312D01*
X272215Y80274D01*
X272316Y80233D01*
X272415Y80189D01*
X272514Y80141D01*
X272610Y80090D01*
X272704Y80035D01*
X272797Y79977D01*
X272887Y79916D01*
X272975Y79851D01*
X273061Y79784D01*
X273144Y79713D01*
X273225Y79640D01*
X273303Y79564D01*
X273379Y79485D01*
X273451Y79403D01*
X273521Y79319D01*
X273587Y79232D01*
X273651Y79144D01*
X273711Y79053D01*
X273768Y78959D01*
X273822Y78864D01*
X273872Y78767D01*
X273919Y78669D01*
X273962Y78569D01*
X274002Y78467D01*
X274038Y78364D01*
X274070Y78260D01*
X274099Y78154D01*
X274124Y78048D01*
X274145Y77941D01*
X274162Y77833D01*
X274176Y77725D01*
X274185Y77616D01*
X274191Y77507D01*
X274193Y77398D01*
X272112Y74484D02*
X271845Y74358D01*
X271576Y74238D01*
X271303Y74125D01*
X271029Y74018D01*
X270751Y73918D01*
X270472Y73825D01*
X270190Y73738D01*
X269906Y73658D01*
X269620Y73585D01*
X269333Y73519D01*
X269044Y73460D01*
X268754Y73407D01*
X268463Y73361D01*
X268171Y73323D01*
X267878Y73291D01*
X267584Y73267D01*
X267289Y73249D01*
X266995Y73239D01*
X266700Y73235D01*
X272111Y74484D02*
X272214Y74521D01*
X272315Y74562D01*
X272415Y74606D01*
X272513Y74654D01*
X272609Y74705D01*
X272704Y74760D01*
X272796Y74818D01*
X272887Y74879D01*
X272975Y74944D01*
X273061Y75012D01*
X273144Y75082D01*
X273225Y75156D01*
X273303Y75232D01*
X273378Y75311D01*
X273451Y75392D01*
X273520Y75477D01*
X273587Y75563D01*
X273650Y75652D01*
X273711Y75743D01*
X273768Y75836D01*
X273821Y75931D01*
X273872Y76028D01*
X273919Y76127D01*
X273962Y76227D01*
X274002Y76329D01*
X274038Y76432D01*
X274070Y76536D01*
X274099Y76641D01*
X274124Y76748D01*
X274145Y76855D01*
X274162Y76963D01*
X274176Y77071D01*
X274185Y77180D01*
X274191Y77289D01*
X274193Y77398D01*
X270863Y80728D02*
X262537Y74068D01*
X262537Y65929D02*
X259207Y61767D01*
X274193Y61767D01*
X274193Y65929D02*
X274193Y57604D01*
D11*
X266700Y114300D03*
X25400Y63500D03*
D12*
X266700Y12700D03*
X241300Y12700D03*
X215900Y12700D03*
X190500Y12700D03*
X165100Y12700D03*
X139700Y12700D03*
X114300Y12700D03*
X88900Y12700D03*
X63500Y12700D03*
X38100Y12700D03*
X12700Y12700D03*
X241300Y114300D03*
X215900Y114300D03*
X190500Y114300D03*
X165100Y114300D03*
X139700Y114300D03*
X114300Y114300D03*
X88900Y114300D03*
X63500Y114300D03*
X38100Y114300D03*
X12700Y114300D03*
D13*
X114300Y63500D03*
X190500Y63500D03*
X254000Y101600D03*
X254000Y38100D03*
D14*
X165100Y63500D03*
X139700Y63500D03*
X152400Y55880D03*
X152400Y71120D03*
D13*
X180340Y41910D03*
X127000Y35560D03*
X111760Y46990D03*
D15*
X115570Y46990D01*
X127000Y35560D01*
D13*
X127000Y92710D03*
X111760Y80010D03*
D15*
X114300Y80010D01*
X127000Y92710D01*
M02*
