G04 EAGLE Gerber RS-274X export*
G75*
%MOMM*%
%FSLAX34Y34*%
%LPD*%
%INTop Copper*%
%IPPOS*%
%AMOC8*
5,1,8,0,0,1.08239X$1,22.5*%
G01*
%ADD10C,0.100000*%
%ADD11C,1.000000*%
%ADD12C,0.100800*%
%ADD13C,0.102500*%
%ADD14C,1.879600*%
%ADD15C,0.736600*%
%ADD16C,0.660400*%
%ADD17C,0.254000*%

G36*
X14088Y12716D02*
X14088Y12716D01*
X14207Y12723D01*
X14245Y12736D01*
X14285Y12741D01*
X14396Y12785D01*
X14509Y12821D01*
X14544Y12843D01*
X14581Y12858D01*
X14677Y12928D01*
X14778Y12991D01*
X14806Y13021D01*
X14839Y13045D01*
X14914Y13136D01*
X14996Y13223D01*
X15016Y13258D01*
X15041Y13290D01*
X15092Y13397D01*
X15150Y13502D01*
X15160Y13541D01*
X15177Y13577D01*
X15199Y13694D01*
X15229Y13809D01*
X15233Y13870D01*
X15237Y13890D01*
X15235Y13910D01*
X15239Y13970D01*
X15239Y24385D01*
X15496Y24345D01*
X17283Y23764D01*
X18957Y22911D01*
X20478Y21806D01*
X21806Y20478D01*
X22911Y18957D01*
X23764Y17283D01*
X23915Y16818D01*
X23928Y16791D01*
X23935Y16762D01*
X23995Y16648D01*
X24050Y16530D01*
X24069Y16507D01*
X24083Y16481D01*
X24170Y16385D01*
X24253Y16285D01*
X24277Y16268D01*
X24297Y16246D01*
X24406Y16174D01*
X24510Y16098D01*
X24538Y16087D01*
X24563Y16071D01*
X24686Y16029D01*
X24806Y15981D01*
X24836Y15977D01*
X24864Y15968D01*
X24993Y15957D01*
X25121Y15941D01*
X25151Y15945D01*
X25181Y15942D01*
X25309Y15965D01*
X25437Y15981D01*
X25465Y15992D01*
X25494Y15997D01*
X25612Y16050D01*
X25733Y16098D01*
X25757Y16115D01*
X25784Y16127D01*
X25885Y16208D01*
X25990Y16284D01*
X26009Y16307D01*
X26033Y16326D01*
X26111Y16430D01*
X26193Y16529D01*
X26206Y16556D01*
X26224Y16580D01*
X26295Y16725D01*
X27548Y19750D01*
X31050Y23252D01*
X35624Y25147D01*
X40576Y25147D01*
X42524Y24340D01*
X42553Y24332D01*
X42579Y24319D01*
X42705Y24290D01*
X42831Y24256D01*
X42860Y24255D01*
X42889Y24249D01*
X43019Y24253D01*
X43149Y24251D01*
X43177Y24258D01*
X43207Y24259D01*
X43332Y24295D01*
X43458Y24325D01*
X43484Y24339D01*
X43512Y24347D01*
X43624Y24413D01*
X43739Y24474D01*
X43761Y24493D01*
X43786Y24508D01*
X43907Y24615D01*
X62101Y42809D01*
X66882Y42809D01*
X67000Y42824D01*
X67119Y42831D01*
X67157Y42844D01*
X67198Y42849D01*
X67308Y42892D01*
X67421Y42929D01*
X67456Y42951D01*
X67493Y42966D01*
X67589Y43035D01*
X67690Y43099D01*
X67718Y43129D01*
X67751Y43152D01*
X67827Y43244D01*
X67908Y43331D01*
X67928Y43366D01*
X67953Y43397D01*
X68004Y43505D01*
X68062Y43609D01*
X68072Y43649D01*
X68089Y43685D01*
X68111Y43802D01*
X68141Y43917D01*
X68145Y43977D01*
X68149Y43997D01*
X68147Y44018D01*
X68151Y44078D01*
X68151Y44960D01*
X69643Y46452D01*
X69716Y46546D01*
X69795Y46635D01*
X69813Y46671D01*
X69838Y46703D01*
X69885Y46812D01*
X69939Y46918D01*
X69948Y46958D01*
X69964Y46995D01*
X69983Y47113D01*
X70009Y47229D01*
X70008Y47269D01*
X70014Y47309D01*
X70003Y47428D01*
X69999Y47546D01*
X69988Y47585D01*
X69984Y47626D01*
X69944Y47738D01*
X69911Y47852D01*
X69890Y47887D01*
X69877Y47925D01*
X69810Y48023D01*
X69749Y48126D01*
X69710Y48171D01*
X69698Y48188D01*
X69683Y48201D01*
X69643Y48247D01*
X69267Y48623D01*
X68866Y49316D01*
X68659Y50090D01*
X68659Y52991D01*
X74970Y52991D01*
X75088Y53006D01*
X75207Y53013D01*
X75245Y53025D01*
X75285Y53031D01*
X75396Y53074D01*
X75509Y53111D01*
X75543Y53133D01*
X75581Y53148D01*
X75677Y53217D01*
X75778Y53281D01*
X75806Y53311D01*
X75838Y53334D01*
X75914Y53426D01*
X75996Y53513D01*
X76015Y53548D01*
X76041Y53579D01*
X76092Y53687D01*
X76149Y53791D01*
X76159Y53831D01*
X76177Y53867D01*
X76197Y53974D01*
X76201Y53944D01*
X76245Y53834D01*
X76281Y53721D01*
X76303Y53686D01*
X76318Y53649D01*
X76388Y53552D01*
X76451Y53452D01*
X76481Y53424D01*
X76505Y53391D01*
X76596Y53315D01*
X76683Y53234D01*
X76718Y53214D01*
X76750Y53189D01*
X76857Y53138D01*
X76962Y53080D01*
X77001Y53070D01*
X77037Y53053D01*
X77154Y53031D01*
X77270Y53001D01*
X77330Y52997D01*
X77350Y52993D01*
X77370Y52995D01*
X77430Y52991D01*
X83741Y52991D01*
X83741Y50090D01*
X83534Y49316D01*
X83133Y48623D01*
X82757Y48247D01*
X82684Y48153D01*
X82605Y48063D01*
X82587Y48027D01*
X82562Y47995D01*
X82515Y47886D01*
X82461Y47780D01*
X82452Y47741D01*
X82436Y47704D01*
X82417Y47586D01*
X82391Y47470D01*
X82392Y47430D01*
X82386Y47390D01*
X82397Y47271D01*
X82401Y47152D01*
X82412Y47113D01*
X82416Y47073D01*
X82456Y46961D01*
X82489Y46846D01*
X82510Y46812D01*
X82523Y46774D01*
X82590Y46675D01*
X82651Y46573D01*
X82690Y46527D01*
X82702Y46510D01*
X82717Y46497D01*
X82757Y46452D01*
X84249Y44960D01*
X84249Y44078D01*
X84264Y43960D01*
X84271Y43841D01*
X84284Y43803D01*
X84289Y43762D01*
X84332Y43652D01*
X84369Y43539D01*
X84391Y43504D01*
X84406Y43467D01*
X84475Y43371D01*
X84539Y43270D01*
X84569Y43242D01*
X84592Y43209D01*
X84684Y43133D01*
X84771Y43052D01*
X84806Y43032D01*
X84837Y43007D01*
X84945Y42956D01*
X85049Y42898D01*
X85089Y42888D01*
X85125Y42871D01*
X85242Y42849D01*
X85357Y42819D01*
X85417Y42815D01*
X85437Y42811D01*
X85458Y42813D01*
X85518Y42809D01*
X92282Y42809D01*
X92400Y42824D01*
X92519Y42831D01*
X92557Y42844D01*
X92598Y42849D01*
X92708Y42892D01*
X92821Y42929D01*
X92856Y42951D01*
X92893Y42966D01*
X92989Y43035D01*
X93090Y43099D01*
X93118Y43129D01*
X93151Y43152D01*
X93227Y43244D01*
X93308Y43331D01*
X93328Y43366D01*
X93353Y43397D01*
X93404Y43505D01*
X93462Y43609D01*
X93472Y43649D01*
X93489Y43685D01*
X93511Y43802D01*
X93541Y43917D01*
X93545Y43977D01*
X93549Y43997D01*
X93547Y44018D01*
X93551Y44078D01*
X93551Y44960D01*
X95043Y46452D01*
X95116Y46546D01*
X95195Y46635D01*
X95213Y46671D01*
X95238Y46703D01*
X95285Y46812D01*
X95339Y46918D01*
X95348Y46958D01*
X95364Y46995D01*
X95383Y47113D01*
X95409Y47229D01*
X95408Y47269D01*
X95414Y47309D01*
X95403Y47428D01*
X95399Y47546D01*
X95388Y47585D01*
X95384Y47626D01*
X95344Y47738D01*
X95311Y47852D01*
X95290Y47887D01*
X95277Y47925D01*
X95210Y48023D01*
X95149Y48126D01*
X95110Y48171D01*
X95098Y48188D01*
X95083Y48201D01*
X95043Y48247D01*
X94667Y48623D01*
X94266Y49316D01*
X94059Y50090D01*
X94059Y52991D01*
X100370Y52991D01*
X100488Y53006D01*
X100607Y53013D01*
X100645Y53025D01*
X100685Y53031D01*
X100796Y53074D01*
X100909Y53111D01*
X100943Y53133D01*
X100981Y53148D01*
X101077Y53217D01*
X101178Y53281D01*
X101206Y53311D01*
X101238Y53334D01*
X101314Y53426D01*
X101396Y53513D01*
X101415Y53548D01*
X101441Y53579D01*
X101492Y53687D01*
X101549Y53791D01*
X101559Y53831D01*
X101577Y53867D01*
X101597Y53974D01*
X101601Y53944D01*
X101645Y53834D01*
X101681Y53721D01*
X101703Y53686D01*
X101718Y53649D01*
X101788Y53552D01*
X101851Y53452D01*
X101881Y53424D01*
X101905Y53391D01*
X101996Y53315D01*
X102083Y53234D01*
X102118Y53214D01*
X102150Y53189D01*
X102257Y53138D01*
X102362Y53080D01*
X102401Y53070D01*
X102437Y53053D01*
X102554Y53031D01*
X102670Y53001D01*
X102730Y52997D01*
X102750Y52993D01*
X102770Y52995D01*
X102830Y52991D01*
X108404Y52991D01*
X108413Y52992D01*
X108422Y52991D01*
X108571Y53012D01*
X108719Y53031D01*
X108728Y53034D01*
X108737Y53035D01*
X108889Y53087D01*
X110421Y53722D01*
X113099Y53722D01*
X113606Y53512D01*
X113635Y53504D01*
X113661Y53491D01*
X113788Y53462D01*
X113913Y53428D01*
X113942Y53427D01*
X113971Y53421D01*
X114101Y53425D01*
X114231Y53423D01*
X114259Y53430D01*
X114289Y53431D01*
X114414Y53467D01*
X114540Y53497D01*
X114566Y53511D01*
X114594Y53519D01*
X114706Y53585D01*
X114821Y53646D01*
X114843Y53666D01*
X114868Y53680D01*
X114989Y53787D01*
X118620Y57417D01*
X121521Y60319D01*
X124277Y60319D01*
X124375Y60331D01*
X124474Y60334D01*
X124532Y60351D01*
X124592Y60359D01*
X124684Y60395D01*
X124779Y60423D01*
X124824Y60449D01*
X130302Y60449D01*
X130420Y60464D01*
X130539Y60471D01*
X130577Y60484D01*
X130618Y60489D01*
X130728Y60532D01*
X130841Y60569D01*
X130876Y60591D01*
X130913Y60606D01*
X131009Y60675D01*
X131110Y60739D01*
X131138Y60769D01*
X131171Y60792D01*
X131247Y60884D01*
X131328Y60971D01*
X131348Y61006D01*
X131373Y61037D01*
X131424Y61145D01*
X131482Y61249D01*
X131492Y61289D01*
X131509Y61325D01*
X131531Y61442D01*
X131561Y61557D01*
X131565Y61617D01*
X131569Y61637D01*
X131567Y61658D01*
X131571Y61718D01*
X131571Y65282D01*
X131556Y65400D01*
X131549Y65519D01*
X131536Y65557D01*
X131531Y65598D01*
X131488Y65708D01*
X131451Y65821D01*
X131429Y65856D01*
X131414Y65893D01*
X131345Y65989D01*
X131281Y66090D01*
X131251Y66118D01*
X131228Y66151D01*
X131136Y66227D01*
X131049Y66308D01*
X131014Y66328D01*
X130983Y66353D01*
X130875Y66404D01*
X130771Y66462D01*
X130731Y66472D01*
X130695Y66489D01*
X130578Y66511D01*
X130463Y66541D01*
X130403Y66545D01*
X130383Y66549D01*
X130362Y66547D01*
X130302Y66551D01*
X124818Y66551D01*
X124745Y66592D01*
X124687Y66607D01*
X124631Y66631D01*
X124533Y66646D01*
X124437Y66671D01*
X124337Y66677D01*
X124317Y66681D01*
X124305Y66679D01*
X124277Y66681D01*
X121261Y66681D01*
X114805Y73137D01*
X114782Y73155D01*
X114763Y73178D01*
X114657Y73252D01*
X114554Y73332D01*
X114527Y73344D01*
X114503Y73361D01*
X114382Y73407D01*
X114262Y73458D01*
X114233Y73463D01*
X114205Y73473D01*
X114077Y73488D01*
X113948Y73508D01*
X113919Y73505D01*
X113889Y73509D01*
X113761Y73490D01*
X113632Y73478D01*
X113604Y73468D01*
X113575Y73464D01*
X113422Y73412D01*
X113099Y73278D01*
X110421Y73278D01*
X108889Y73913D01*
X108880Y73915D01*
X108872Y73920D01*
X108727Y73957D01*
X108583Y73997D01*
X108573Y73997D01*
X108564Y73999D01*
X108404Y74009D01*
X102830Y74009D01*
X102712Y73994D01*
X102593Y73987D01*
X102555Y73974D01*
X102515Y73969D01*
X102404Y73926D01*
X102291Y73889D01*
X102257Y73867D01*
X102219Y73852D01*
X102123Y73783D01*
X102022Y73719D01*
X101994Y73689D01*
X101962Y73666D01*
X101886Y73574D01*
X101804Y73487D01*
X101785Y73452D01*
X101759Y73421D01*
X101708Y73313D01*
X101651Y73209D01*
X101641Y73169D01*
X101623Y73133D01*
X101603Y73026D01*
X101599Y73056D01*
X101555Y73166D01*
X101519Y73279D01*
X101497Y73314D01*
X101482Y73351D01*
X101412Y73447D01*
X101349Y73548D01*
X101319Y73576D01*
X101295Y73609D01*
X101204Y73685D01*
X101117Y73766D01*
X101082Y73786D01*
X101050Y73811D01*
X100943Y73862D01*
X100838Y73920D01*
X100799Y73930D01*
X100763Y73947D01*
X100646Y73969D01*
X100530Y73999D01*
X100470Y74003D01*
X100450Y74007D01*
X100430Y74005D01*
X100370Y74009D01*
X94059Y74009D01*
X94059Y76910D01*
X94266Y77684D01*
X94667Y78377D01*
X95043Y78753D01*
X95116Y78847D01*
X95195Y78937D01*
X95213Y78973D01*
X95238Y79005D01*
X95285Y79114D01*
X95339Y79220D01*
X95348Y79259D01*
X95364Y79296D01*
X95383Y79414D01*
X95409Y79530D01*
X95408Y79570D01*
X95414Y79610D01*
X95403Y79729D01*
X95399Y79848D01*
X95388Y79887D01*
X95384Y79927D01*
X95344Y80039D01*
X95311Y80154D01*
X95290Y80188D01*
X95277Y80226D01*
X95210Y80325D01*
X95149Y80427D01*
X95110Y80473D01*
X95098Y80490D01*
X95083Y80503D01*
X95043Y80548D01*
X93551Y82040D01*
X93551Y82922D01*
X93536Y83040D01*
X93529Y83159D01*
X93516Y83197D01*
X93511Y83238D01*
X93468Y83348D01*
X93431Y83461D01*
X93409Y83496D01*
X93394Y83533D01*
X93325Y83629D01*
X93261Y83730D01*
X93231Y83758D01*
X93208Y83791D01*
X93116Y83867D01*
X93029Y83948D01*
X92994Y83968D01*
X92963Y83993D01*
X92855Y84044D01*
X92751Y84102D01*
X92711Y84112D01*
X92675Y84129D01*
X92558Y84151D01*
X92443Y84181D01*
X92383Y84185D01*
X92363Y84189D01*
X92342Y84187D01*
X92282Y84191D01*
X85518Y84191D01*
X85400Y84176D01*
X85281Y84169D01*
X85243Y84156D01*
X85202Y84151D01*
X85092Y84108D01*
X84979Y84071D01*
X84944Y84049D01*
X84907Y84034D01*
X84811Y83965D01*
X84710Y83901D01*
X84682Y83871D01*
X84649Y83848D01*
X84573Y83756D01*
X84492Y83669D01*
X84472Y83634D01*
X84447Y83603D01*
X84396Y83495D01*
X84338Y83391D01*
X84328Y83351D01*
X84311Y83315D01*
X84289Y83198D01*
X84259Y83083D01*
X84255Y83023D01*
X84251Y83003D01*
X84253Y82982D01*
X84249Y82922D01*
X84249Y82040D01*
X82757Y80548D01*
X82684Y80454D01*
X82605Y80365D01*
X82587Y80329D01*
X82562Y80297D01*
X82515Y80188D01*
X82461Y80082D01*
X82452Y80042D01*
X82436Y80005D01*
X82417Y79887D01*
X82391Y79771D01*
X82392Y79731D01*
X82386Y79691D01*
X82397Y79572D01*
X82401Y79454D01*
X82412Y79415D01*
X82416Y79374D01*
X82456Y79262D01*
X82489Y79148D01*
X82510Y79113D01*
X82523Y79075D01*
X82590Y78977D01*
X82651Y78874D01*
X82690Y78829D01*
X82702Y78812D01*
X82717Y78799D01*
X82757Y78753D01*
X83133Y78377D01*
X83534Y77684D01*
X83741Y76910D01*
X83741Y74009D01*
X77430Y74009D01*
X77312Y73994D01*
X77193Y73987D01*
X77155Y73974D01*
X77115Y73969D01*
X77004Y73926D01*
X76891Y73889D01*
X76857Y73867D01*
X76819Y73852D01*
X76723Y73783D01*
X76622Y73719D01*
X76594Y73689D01*
X76562Y73666D01*
X76486Y73574D01*
X76404Y73487D01*
X76385Y73452D01*
X76359Y73421D01*
X76308Y73313D01*
X76251Y73209D01*
X76241Y73169D01*
X76223Y73133D01*
X76203Y73026D01*
X76199Y73056D01*
X76155Y73166D01*
X76119Y73279D01*
X76097Y73314D01*
X76082Y73351D01*
X76012Y73447D01*
X75949Y73548D01*
X75919Y73576D01*
X75895Y73609D01*
X75804Y73685D01*
X75717Y73766D01*
X75682Y73786D01*
X75650Y73811D01*
X75543Y73862D01*
X75438Y73920D01*
X75399Y73930D01*
X75363Y73947D01*
X75246Y73969D01*
X75130Y73999D01*
X75070Y74003D01*
X75050Y74007D01*
X75030Y74005D01*
X74970Y74009D01*
X68659Y74009D01*
X68659Y76910D01*
X68866Y77684D01*
X69267Y78377D01*
X69643Y78753D01*
X69716Y78847D01*
X69795Y78937D01*
X69813Y78973D01*
X69838Y79005D01*
X69885Y79114D01*
X69939Y79220D01*
X69948Y79259D01*
X69964Y79296D01*
X69983Y79414D01*
X70009Y79530D01*
X70008Y79570D01*
X70014Y79610D01*
X70003Y79729D01*
X69999Y79848D01*
X69988Y79887D01*
X69984Y79927D01*
X69944Y80039D01*
X69911Y80154D01*
X69890Y80188D01*
X69877Y80226D01*
X69810Y80325D01*
X69749Y80427D01*
X69710Y80473D01*
X69698Y80490D01*
X69683Y80503D01*
X69643Y80548D01*
X68151Y82040D01*
X68151Y82922D01*
X68136Y83040D01*
X68129Y83159D01*
X68116Y83197D01*
X68111Y83238D01*
X68068Y83348D01*
X68031Y83461D01*
X68009Y83496D01*
X67994Y83533D01*
X67925Y83629D01*
X67861Y83730D01*
X67831Y83758D01*
X67808Y83791D01*
X67716Y83867D01*
X67629Y83948D01*
X67594Y83968D01*
X67563Y83993D01*
X67455Y84044D01*
X67351Y84102D01*
X67311Y84112D01*
X67275Y84129D01*
X67158Y84151D01*
X67043Y84181D01*
X66983Y84185D01*
X66963Y84189D01*
X66942Y84187D01*
X66882Y84191D01*
X62101Y84191D01*
X43907Y102385D01*
X43884Y102403D01*
X43865Y102426D01*
X43759Y102500D01*
X43656Y102580D01*
X43629Y102592D01*
X43605Y102609D01*
X43483Y102655D01*
X43364Y102706D01*
X43335Y102711D01*
X43307Y102722D01*
X43178Y102736D01*
X43050Y102756D01*
X43021Y102753D01*
X42991Y102757D01*
X42863Y102739D01*
X42733Y102726D01*
X42706Y102716D01*
X42676Y102712D01*
X42524Y102660D01*
X40576Y101853D01*
X35624Y101853D01*
X31050Y103748D01*
X27548Y107250D01*
X26295Y110275D01*
X26280Y110301D01*
X26271Y110330D01*
X26201Y110439D01*
X26137Y110552D01*
X26116Y110573D01*
X26100Y110598D01*
X26006Y110687D01*
X25916Y110780D01*
X25890Y110796D01*
X25869Y110816D01*
X25755Y110879D01*
X25645Y110946D01*
X25616Y110955D01*
X25590Y110969D01*
X25465Y111002D01*
X25341Y111040D01*
X25311Y111041D01*
X25282Y111049D01*
X25152Y111049D01*
X25023Y111055D01*
X24994Y111049D01*
X24964Y111049D01*
X24839Y111017D01*
X24712Y110991D01*
X24685Y110978D01*
X24656Y110970D01*
X24543Y110908D01*
X24426Y110851D01*
X24403Y110832D01*
X24377Y110817D01*
X24283Y110729D01*
X24184Y110645D01*
X24167Y110620D01*
X24145Y110600D01*
X24076Y110491D01*
X24001Y110385D01*
X23990Y110357D01*
X23974Y110331D01*
X23915Y110182D01*
X23764Y109717D01*
X22911Y108043D01*
X21806Y106522D01*
X20478Y105194D01*
X18957Y104089D01*
X17283Y103236D01*
X15496Y102655D01*
X15239Y102615D01*
X15239Y113030D01*
X15224Y113148D01*
X15217Y113267D01*
X15204Y113305D01*
X15199Y113345D01*
X15156Y113456D01*
X15119Y113569D01*
X15097Y113603D01*
X15082Y113641D01*
X15012Y113737D01*
X14949Y113838D01*
X14919Y113866D01*
X14895Y113898D01*
X14804Y113974D01*
X14717Y114056D01*
X14682Y114075D01*
X14651Y114101D01*
X14543Y114152D01*
X14439Y114209D01*
X14399Y114220D01*
X14363Y114237D01*
X14246Y114259D01*
X14131Y114289D01*
X14070Y114293D01*
X14050Y114297D01*
X14030Y114295D01*
X13970Y114299D01*
X11430Y114299D01*
X11312Y114284D01*
X11193Y114277D01*
X11155Y114264D01*
X11114Y114259D01*
X11004Y114215D01*
X10891Y114179D01*
X10856Y114157D01*
X10819Y114142D01*
X10723Y114072D01*
X10622Y114009D01*
X10594Y113979D01*
X10561Y113955D01*
X10486Y113864D01*
X10404Y113777D01*
X10384Y113742D01*
X10359Y113710D01*
X10308Y113603D01*
X10250Y113498D01*
X10240Y113459D01*
X10223Y113423D01*
X10201Y113306D01*
X10171Y113191D01*
X10167Y113130D01*
X10163Y113110D01*
X10165Y113090D01*
X10161Y113030D01*
X10161Y102615D01*
X9904Y102655D01*
X8117Y103236D01*
X6443Y104089D01*
X6080Y104353D01*
X6045Y104372D01*
X6015Y104397D01*
X5906Y104448D01*
X5801Y104506D01*
X5763Y104516D01*
X5727Y104533D01*
X5609Y104555D01*
X5493Y104585D01*
X5454Y104585D01*
X5414Y104592D01*
X5295Y104585D01*
X5175Y104585D01*
X5137Y104575D01*
X5097Y104573D01*
X4983Y104536D01*
X4867Y104506D01*
X4832Y104487D01*
X4795Y104475D01*
X4694Y104411D01*
X4589Y104353D01*
X4559Y104326D01*
X4526Y104305D01*
X4444Y104217D01*
X4357Y104135D01*
X4335Y104102D01*
X4308Y104073D01*
X4250Y103968D01*
X4186Y103867D01*
X4174Y103829D01*
X4154Y103794D01*
X4125Y103679D01*
X4087Y103565D01*
X4085Y103525D01*
X4075Y103486D01*
X4065Y103326D01*
X4065Y23674D01*
X4070Y23635D01*
X4067Y23595D01*
X4090Y23477D01*
X4105Y23359D01*
X4119Y23322D01*
X4127Y23283D01*
X4178Y23174D01*
X4222Y23063D01*
X4245Y23031D01*
X4262Y22995D01*
X4338Y22903D01*
X4408Y22806D01*
X4439Y22780D01*
X4464Y22750D01*
X4561Y22679D01*
X4653Y22603D01*
X4689Y22586D01*
X4722Y22562D01*
X4833Y22518D01*
X4941Y22467D01*
X4980Y22460D01*
X5017Y22445D01*
X5136Y22430D01*
X5253Y22408D01*
X5293Y22410D01*
X5333Y22405D01*
X5452Y22420D01*
X5571Y22427D01*
X5609Y22440D01*
X5648Y22445D01*
X5760Y22488D01*
X5873Y22525D01*
X5907Y22547D01*
X5944Y22561D01*
X6080Y22647D01*
X6443Y22911D01*
X8117Y23764D01*
X9904Y24345D01*
X10161Y24385D01*
X10161Y13970D01*
X10176Y13852D01*
X10183Y13733D01*
X10196Y13695D01*
X10201Y13655D01*
X10244Y13544D01*
X10281Y13431D01*
X10303Y13397D01*
X10318Y13359D01*
X10388Y13263D01*
X10451Y13162D01*
X10481Y13134D01*
X10504Y13102D01*
X10596Y13026D01*
X10683Y12944D01*
X10718Y12925D01*
X10749Y12899D01*
X10857Y12848D01*
X10961Y12791D01*
X11001Y12780D01*
X11037Y12763D01*
X11154Y12741D01*
X11269Y12711D01*
X11330Y12707D01*
X11350Y12703D01*
X11370Y12705D01*
X11430Y12701D01*
X13970Y12701D01*
X14088Y12716D01*
G37*
G36*
X274095Y23235D02*
X274095Y23235D01*
X274205Y23233D01*
X274253Y23245D01*
X274303Y23248D01*
X274407Y23282D01*
X274514Y23307D01*
X274558Y23331D01*
X274605Y23346D01*
X274698Y23405D01*
X274795Y23456D01*
X274832Y23490D01*
X274874Y23516D01*
X274949Y23596D01*
X275031Y23670D01*
X275058Y23712D01*
X275092Y23748D01*
X275145Y23844D01*
X275205Y23936D01*
X275222Y23983D01*
X275246Y24026D01*
X275273Y24133D01*
X275309Y24237D01*
X275313Y24286D01*
X275325Y24334D01*
X275335Y24495D01*
X275335Y108488D01*
X275318Y108626D01*
X275305Y108765D01*
X275298Y108784D01*
X275295Y108804D01*
X275244Y108933D01*
X275197Y109064D01*
X275186Y109081D01*
X275178Y109100D01*
X275097Y109212D01*
X275019Y109327D01*
X275003Y109341D01*
X274992Y109357D01*
X274884Y109446D01*
X274780Y109538D01*
X274762Y109547D01*
X274747Y109560D01*
X274621Y109619D01*
X274497Y109682D01*
X274477Y109687D01*
X274459Y109695D01*
X274323Y109721D01*
X274187Y109752D01*
X274166Y109751D01*
X274147Y109755D01*
X274008Y109746D01*
X273869Y109742D01*
X273849Y109737D01*
X273829Y109735D01*
X273697Y109693D01*
X273563Y109654D01*
X273546Y109644D01*
X273527Y109637D01*
X273409Y109563D01*
X273289Y109492D01*
X273268Y109474D01*
X273258Y109467D01*
X273244Y109452D01*
X273169Y109386D01*
X271259Y107477D01*
X268301Y106251D01*
X265099Y106251D01*
X262141Y107477D01*
X259877Y109741D01*
X258651Y112699D01*
X258651Y115901D01*
X259877Y118859D01*
X261786Y120769D01*
X261871Y120878D01*
X261960Y120985D01*
X261968Y121004D01*
X261981Y121020D01*
X262036Y121148D01*
X262095Y121273D01*
X262099Y121293D01*
X262107Y121312D01*
X262129Y121450D01*
X262155Y121586D01*
X262154Y121606D01*
X262157Y121626D01*
X262144Y121765D01*
X262135Y121903D01*
X262129Y121922D01*
X262127Y121942D01*
X262080Y122074D01*
X262037Y122205D01*
X262026Y122223D01*
X262020Y122242D01*
X261942Y122357D01*
X261867Y122474D01*
X261852Y122488D01*
X261841Y122505D01*
X261737Y122597D01*
X261636Y122692D01*
X261618Y122702D01*
X261603Y122715D01*
X261478Y122779D01*
X261357Y122846D01*
X261337Y122851D01*
X261319Y122860D01*
X261184Y122890D01*
X261049Y122925D01*
X261021Y122927D01*
X261009Y122930D01*
X260989Y122929D01*
X260888Y122935D01*
X253095Y122935D01*
X253046Y122929D01*
X252996Y122931D01*
X252889Y122909D01*
X252779Y122895D01*
X252733Y122877D01*
X252685Y122867D01*
X252586Y122819D01*
X252484Y122778D01*
X252444Y122749D01*
X252399Y122727D01*
X252315Y122656D01*
X252226Y122592D01*
X252195Y122553D01*
X252157Y122521D01*
X252094Y122431D01*
X252024Y122347D01*
X252002Y122302D01*
X251974Y122261D01*
X251935Y122158D01*
X251888Y122059D01*
X251879Y122010D01*
X251861Y121964D01*
X251849Y121854D01*
X251828Y121747D01*
X251831Y121697D01*
X251826Y121648D01*
X251841Y121539D01*
X251848Y121429D01*
X251863Y121382D01*
X251870Y121333D01*
X251922Y121180D01*
X253747Y116776D01*
X253747Y111824D01*
X251852Y107250D01*
X248350Y103748D01*
X243776Y101853D01*
X238824Y101853D01*
X236876Y102660D01*
X236847Y102668D01*
X236821Y102681D01*
X236695Y102710D01*
X236569Y102744D01*
X236540Y102745D01*
X236511Y102751D01*
X236381Y102747D01*
X236251Y102749D01*
X236223Y102742D01*
X236193Y102741D01*
X236068Y102705D01*
X235942Y102675D01*
X235916Y102661D01*
X235888Y102653D01*
X235776Y102587D01*
X235661Y102526D01*
X235639Y102507D01*
X235614Y102492D01*
X235493Y102385D01*
X228972Y95865D01*
X226071Y92963D01*
X181647Y92963D01*
X181548Y92951D01*
X181449Y92948D01*
X181391Y92931D01*
X181331Y92923D01*
X181239Y92887D01*
X181144Y92859D01*
X181092Y92829D01*
X181035Y92806D01*
X180955Y92748D01*
X180870Y92698D01*
X180795Y92632D01*
X180778Y92620D01*
X180770Y92610D01*
X180749Y92592D01*
X174720Y86563D01*
X174660Y86485D01*
X174592Y86412D01*
X174563Y86359D01*
X174526Y86312D01*
X174486Y86221D01*
X174438Y86134D01*
X174423Y86075D01*
X174399Y86020D01*
X174384Y85922D01*
X174359Y85826D01*
X174353Y85726D01*
X174349Y85706D01*
X174351Y85693D01*
X174349Y85665D01*
X174349Y79319D01*
X174368Y79163D01*
X174388Y79005D01*
X174388Y79004D01*
X174389Y79004D01*
X174449Y78851D01*
X174505Y78709D01*
X174505Y78708D01*
X174506Y78708D01*
X174506Y78707D01*
X174513Y78696D01*
X174409Y78034D01*
X174407Y77975D01*
X174395Y77916D01*
X174402Y77816D01*
X174399Y77716D01*
X174411Y77658D01*
X174415Y77599D01*
X174455Y77443D01*
X174528Y77220D01*
X174487Y77140D01*
X174467Y77084D01*
X174438Y77032D01*
X174413Y76935D01*
X174379Y76841D01*
X174374Y76782D01*
X174359Y76724D01*
X174349Y76564D01*
X174349Y76210D01*
X174364Y76092D01*
X174371Y75973D01*
X174384Y75935D01*
X174389Y75894D01*
X174432Y75784D01*
X174469Y75671D01*
X174491Y75636D01*
X174506Y75599D01*
X174575Y75503D01*
X174639Y75402D01*
X174669Y75374D01*
X174692Y75341D01*
X174784Y75265D01*
X174871Y75184D01*
X174906Y75164D01*
X174937Y75139D01*
X175045Y75088D01*
X175149Y75030D01*
X175189Y75020D01*
X175225Y75003D01*
X175342Y74981D01*
X175457Y74951D01*
X175517Y74947D01*
X175537Y74943D01*
X175558Y74945D01*
X175618Y74941D01*
X178797Y74941D01*
X179571Y74733D01*
X180266Y74332D01*
X180832Y73766D01*
X181233Y73071D01*
X181441Y72297D01*
X181441Y72269D01*
X178562Y72269D01*
X178444Y72254D01*
X178325Y72247D01*
X178287Y72235D01*
X178246Y72230D01*
X178136Y72186D01*
X178023Y72149D01*
X177988Y72127D01*
X177951Y72113D01*
X177949Y72111D01*
X177949Y72350D01*
X177913Y72397D01*
X177906Y72392D01*
X177900Y72399D01*
X171800Y72399D01*
X171795Y72396D01*
X171792Y72399D01*
X171375Y72333D01*
X171367Y72324D01*
X171360Y72328D01*
X170984Y72136D01*
X170979Y72126D01*
X170972Y72127D01*
X170673Y71828D01*
X170671Y71817D01*
X170664Y71816D01*
X170472Y71440D01*
X170473Y71437D01*
X170472Y71436D01*
X170473Y71434D01*
X170474Y71429D01*
X170467Y71425D01*
X170401Y71008D01*
X170407Y70998D01*
X170401Y70992D01*
X170467Y70575D01*
X170476Y70567D01*
X170472Y70560D01*
X170664Y70184D01*
X170674Y70179D01*
X170673Y70172D01*
X170972Y69873D01*
X170983Y69871D01*
X170984Y69864D01*
X171360Y69672D01*
X171372Y69674D01*
X171375Y69667D01*
X171792Y69601D01*
X171797Y69604D01*
X171800Y69601D01*
X177900Y69601D01*
X177947Y69637D01*
X177942Y69644D01*
X177949Y69650D01*
X177949Y69896D01*
X177989Y69878D01*
X178093Y69820D01*
X178133Y69810D01*
X178169Y69793D01*
X178286Y69771D01*
X178401Y69741D01*
X178461Y69737D01*
X178481Y69733D01*
X178502Y69734D01*
X178562Y69731D01*
X181441Y69731D01*
X181441Y69703D01*
X181233Y68929D01*
X180832Y68234D01*
X180266Y67668D01*
X179571Y67267D01*
X178797Y67059D01*
X177053Y67059D01*
X176954Y67047D01*
X176855Y67044D01*
X176797Y67027D01*
X176737Y67019D01*
X176645Y66983D01*
X176550Y66955D01*
X176498Y66925D01*
X176441Y66902D01*
X176361Y66844D01*
X176276Y66794D01*
X176200Y66728D01*
X176184Y66716D01*
X176176Y66706D01*
X176155Y66687D01*
X175507Y66039D01*
X174498Y66039D01*
X174380Y66024D01*
X174261Y66017D01*
X174223Y66004D01*
X174182Y65999D01*
X174072Y65956D01*
X173959Y65919D01*
X173924Y65897D01*
X173887Y65882D01*
X173791Y65813D01*
X173690Y65749D01*
X173662Y65719D01*
X173629Y65696D01*
X173553Y65604D01*
X173472Y65517D01*
X173452Y65482D01*
X173427Y65451D01*
X173376Y65343D01*
X173318Y65239D01*
X173308Y65199D01*
X173291Y65163D01*
X173269Y65046D01*
X173239Y64931D01*
X173235Y64871D01*
X173231Y64851D01*
X173233Y64830D01*
X173232Y64826D01*
X173231Y64821D01*
X173232Y64815D01*
X173229Y64770D01*
X173229Y61718D01*
X173244Y61600D01*
X173251Y61481D01*
X173264Y61443D01*
X173269Y61402D01*
X173312Y61292D01*
X173349Y61179D01*
X173371Y61144D01*
X173386Y61107D01*
X173455Y61011D01*
X173519Y60910D01*
X173549Y60882D01*
X173572Y60849D01*
X173664Y60773D01*
X173751Y60692D01*
X173786Y60672D01*
X173817Y60647D01*
X173925Y60596D01*
X174029Y60538D01*
X174069Y60528D01*
X174105Y60511D01*
X174222Y60489D01*
X174337Y60459D01*
X174397Y60455D01*
X174417Y60451D01*
X174438Y60453D01*
X174498Y60449D01*
X179982Y60449D01*
X180055Y60408D01*
X180113Y60393D01*
X180169Y60369D01*
X180267Y60354D01*
X180363Y60329D01*
X180463Y60323D01*
X180483Y60319D01*
X180495Y60321D01*
X180523Y60319D01*
X184549Y60319D01*
X193493Y51375D01*
X193602Y51290D01*
X193709Y51201D01*
X193728Y51193D01*
X193744Y51180D01*
X193872Y51125D01*
X193997Y51066D01*
X194017Y51062D01*
X194036Y51054D01*
X194174Y51032D01*
X194310Y51006D01*
X194330Y51007D01*
X194350Y51004D01*
X194489Y51017D01*
X194627Y51026D01*
X194646Y51032D01*
X194666Y51034D01*
X194798Y51081D01*
X194929Y51124D01*
X194947Y51134D01*
X194966Y51141D01*
X195081Y51219D01*
X195198Y51294D01*
X195212Y51309D01*
X195229Y51320D01*
X195321Y51424D01*
X195416Y51525D01*
X195426Y51543D01*
X195439Y51558D01*
X195503Y51682D01*
X195570Y51804D01*
X195575Y51824D01*
X195584Y51842D01*
X195614Y51977D01*
X195649Y52112D01*
X195651Y52140D01*
X195654Y52152D01*
X195653Y52172D01*
X195659Y52273D01*
X195659Y52991D01*
X201970Y52991D01*
X202088Y53006D01*
X202207Y53013D01*
X202245Y53025D01*
X202285Y53031D01*
X202396Y53074D01*
X202509Y53111D01*
X202543Y53133D01*
X202581Y53148D01*
X202677Y53217D01*
X202778Y53281D01*
X202806Y53311D01*
X202838Y53334D01*
X202914Y53426D01*
X202996Y53513D01*
X203015Y53548D01*
X203041Y53579D01*
X203092Y53687D01*
X203149Y53791D01*
X203159Y53831D01*
X203177Y53867D01*
X203197Y53974D01*
X203201Y53944D01*
X203245Y53834D01*
X203281Y53721D01*
X203303Y53686D01*
X203318Y53649D01*
X203388Y53552D01*
X203451Y53452D01*
X203481Y53424D01*
X203505Y53391D01*
X203596Y53315D01*
X203683Y53234D01*
X203718Y53214D01*
X203750Y53189D01*
X203857Y53138D01*
X203962Y53080D01*
X204001Y53070D01*
X204037Y53053D01*
X204154Y53031D01*
X204270Y53001D01*
X204330Y52997D01*
X204350Y52993D01*
X204370Y52995D01*
X204430Y52991D01*
X210741Y52991D01*
X210741Y50090D01*
X210534Y49316D01*
X210133Y48623D01*
X209757Y48247D01*
X209684Y48153D01*
X209605Y48063D01*
X209587Y48027D01*
X209562Y47995D01*
X209515Y47886D01*
X209461Y47780D01*
X209452Y47741D01*
X209436Y47704D01*
X209417Y47586D01*
X209391Y47470D01*
X209392Y47430D01*
X209386Y47390D01*
X209397Y47271D01*
X209401Y47152D01*
X209412Y47113D01*
X209416Y47073D01*
X209456Y46961D01*
X209489Y46846D01*
X209510Y46812D01*
X209523Y46774D01*
X209590Y46675D01*
X209651Y46573D01*
X209690Y46527D01*
X209702Y46510D01*
X209717Y46497D01*
X209757Y46452D01*
X211249Y44960D01*
X211249Y44078D01*
X211264Y43960D01*
X211271Y43841D01*
X211284Y43803D01*
X211289Y43762D01*
X211332Y43652D01*
X211369Y43539D01*
X211391Y43504D01*
X211406Y43467D01*
X211475Y43371D01*
X211539Y43270D01*
X211569Y43242D01*
X211592Y43209D01*
X211684Y43133D01*
X211771Y43052D01*
X211806Y43032D01*
X211837Y43007D01*
X211945Y42956D01*
X212049Y42898D01*
X212089Y42888D01*
X212125Y42871D01*
X212242Y42849D01*
X212357Y42819D01*
X212417Y42815D01*
X212437Y42811D01*
X212458Y42813D01*
X212518Y42809D01*
X229999Y42809D01*
X242717Y30090D01*
X242795Y30030D01*
X242868Y29962D01*
X242921Y29933D01*
X242968Y29896D01*
X243059Y29856D01*
X243146Y29808D01*
X243205Y29793D01*
X243260Y29769D01*
X243358Y29754D01*
X243454Y29729D01*
X243554Y29723D01*
X243574Y29719D01*
X243587Y29721D01*
X243615Y29719D01*
X255789Y29719D01*
X260893Y24615D01*
X260916Y24597D01*
X260935Y24574D01*
X261041Y24499D01*
X261144Y24420D01*
X261171Y24408D01*
X261195Y24391D01*
X261317Y24345D01*
X261436Y24294D01*
X261465Y24289D01*
X261493Y24279D01*
X261622Y24264D01*
X261750Y24244D01*
X261779Y24247D01*
X261809Y24243D01*
X261937Y24261D01*
X262067Y24274D01*
X262094Y24284D01*
X262124Y24288D01*
X262276Y24340D01*
X264224Y25147D01*
X269176Y25147D01*
X273580Y23322D01*
X273628Y23309D01*
X273673Y23288D01*
X273781Y23267D01*
X273887Y23238D01*
X273937Y23238D01*
X273986Y23228D01*
X274095Y23235D01*
G37*
G36*
X152947Y53293D02*
X152947Y53293D01*
X152966Y53291D01*
X153127Y53307D01*
X153315Y53336D01*
X153368Y53352D01*
X153408Y53357D01*
X153454Y53375D01*
X153545Y53395D01*
X153601Y53419D01*
X153620Y53425D01*
X153638Y53435D01*
X153693Y53459D01*
X153862Y53545D01*
X153878Y53556D01*
X153896Y53563D01*
X154032Y53649D01*
X154416Y53929D01*
X154445Y53956D01*
X154478Y53977D01*
X154560Y54064D01*
X154648Y54146D01*
X154669Y54180D01*
X154696Y54208D01*
X154754Y54314D01*
X154818Y54415D01*
X154830Y54452D01*
X154849Y54487D01*
X154880Y54603D01*
X154917Y54717D01*
X154919Y54757D01*
X154929Y54795D01*
X154939Y54955D01*
X154939Y60961D01*
X164592Y60961D01*
X164710Y60976D01*
X164829Y60983D01*
X164867Y60996D01*
X164908Y61001D01*
X165018Y61044D01*
X165131Y61081D01*
X165166Y61103D01*
X165203Y61118D01*
X165299Y61188D01*
X165400Y61251D01*
X165428Y61281D01*
X165461Y61305D01*
X165537Y61396D01*
X165618Y61483D01*
X165638Y61518D01*
X165663Y61549D01*
X165714Y61657D01*
X165772Y61761D01*
X165782Y61801D01*
X165799Y61837D01*
X165821Y61954D01*
X165851Y62069D01*
X165855Y62130D01*
X165859Y62150D01*
X165857Y62170D01*
X165861Y62230D01*
X165861Y64770D01*
X165846Y64888D01*
X165839Y65007D01*
X165826Y65045D01*
X165821Y65085D01*
X165778Y65196D01*
X165741Y65309D01*
X165719Y65344D01*
X165704Y65381D01*
X165635Y65477D01*
X165571Y65578D01*
X165541Y65606D01*
X165518Y65638D01*
X165426Y65714D01*
X165339Y65796D01*
X165304Y65815D01*
X165273Y65841D01*
X165165Y65892D01*
X165061Y65949D01*
X165021Y65960D01*
X164985Y65977D01*
X164868Y65999D01*
X164753Y66029D01*
X164693Y66033D01*
X164673Y66037D01*
X164652Y66035D01*
X164592Y66039D01*
X154939Y66039D01*
X154939Y72045D01*
X154934Y72084D01*
X154937Y72123D01*
X154914Y72241D01*
X154899Y72360D01*
X154885Y72397D01*
X154877Y72435D01*
X154826Y72544D01*
X154782Y72656D01*
X154759Y72688D01*
X154742Y72723D01*
X154666Y72816D01*
X154595Y72913D01*
X154565Y72938D01*
X154540Y72969D01*
X154416Y73071D01*
X154032Y73351D01*
X154015Y73360D01*
X154000Y73373D01*
X153862Y73455D01*
X153693Y73541D01*
X153581Y73581D01*
X153472Y73628D01*
X153412Y73642D01*
X153393Y73649D01*
X153373Y73651D01*
X153315Y73664D01*
X153127Y73693D01*
X153107Y73694D01*
X153089Y73699D01*
X152928Y73709D01*
X151872Y73709D01*
X151853Y73707D01*
X151834Y73709D01*
X151673Y73693D01*
X151485Y73664D01*
X151371Y73631D01*
X151255Y73605D01*
X151200Y73581D01*
X151180Y73575D01*
X151163Y73565D01*
X151107Y73541D01*
X150938Y73455D01*
X150922Y73444D01*
X150904Y73437D01*
X150768Y73351D01*
X150384Y73071D01*
X150355Y73044D01*
X150322Y73023D01*
X150240Y72936D01*
X150152Y72854D01*
X150131Y72820D01*
X150104Y72792D01*
X150046Y72687D01*
X149982Y72585D01*
X149969Y72548D01*
X149950Y72513D01*
X149921Y72397D01*
X149883Y72283D01*
X149881Y72243D01*
X149871Y72205D01*
X149861Y72045D01*
X149861Y66039D01*
X140208Y66039D01*
X140090Y66024D01*
X139971Y66017D01*
X139933Y66004D01*
X139892Y65999D01*
X139782Y65955D01*
X139669Y65919D01*
X139634Y65897D01*
X139597Y65882D01*
X139501Y65812D01*
X139400Y65749D01*
X139372Y65719D01*
X139339Y65695D01*
X139263Y65604D01*
X139182Y65517D01*
X139162Y65482D01*
X139137Y65450D01*
X139086Y65343D01*
X139028Y65239D01*
X139018Y65199D01*
X139001Y65163D01*
X138979Y65046D01*
X138949Y64931D01*
X138945Y64870D01*
X138941Y64850D01*
X138943Y64830D01*
X138942Y64826D01*
X138941Y64821D01*
X138942Y64815D01*
X138939Y64770D01*
X138939Y62230D01*
X138954Y62112D01*
X138961Y61993D01*
X138974Y61955D01*
X138979Y61915D01*
X139022Y61804D01*
X139059Y61691D01*
X139081Y61656D01*
X139096Y61619D01*
X139165Y61523D01*
X139229Y61422D01*
X139259Y61394D01*
X139282Y61361D01*
X139374Y61286D01*
X139461Y61204D01*
X139496Y61184D01*
X139527Y61159D01*
X139635Y61108D01*
X139739Y61050D01*
X139779Y61040D01*
X139815Y61023D01*
X139932Y61001D01*
X140047Y60971D01*
X140107Y60967D01*
X140127Y60963D01*
X140148Y60965D01*
X140208Y60961D01*
X149861Y60961D01*
X149861Y54956D01*
X149866Y54916D01*
X149863Y54877D01*
X149886Y54759D01*
X149901Y54640D01*
X149915Y54603D01*
X149922Y54565D01*
X149974Y54456D01*
X150018Y54344D01*
X150041Y54312D01*
X150058Y54277D01*
X150134Y54184D01*
X150205Y54087D01*
X150235Y54062D01*
X150260Y54031D01*
X150384Y53929D01*
X150768Y53649D01*
X150785Y53640D01*
X150800Y53627D01*
X150938Y53545D01*
X151107Y53459D01*
X151213Y53421D01*
X151239Y53407D01*
X151260Y53401D01*
X151328Y53372D01*
X151388Y53358D01*
X151407Y53351D01*
X151427Y53349D01*
X151485Y53336D01*
X151673Y53307D01*
X151693Y53306D01*
X151711Y53301D01*
X151872Y53291D01*
X152928Y53291D01*
X152947Y53293D01*
G37*
%LPC*%
G36*
X23799Y55451D02*
X23799Y55451D01*
X20841Y56677D01*
X18577Y58941D01*
X17351Y61899D01*
X17351Y65101D01*
X18577Y68059D01*
X20841Y70323D01*
X23799Y71549D01*
X27001Y71549D01*
X29959Y70323D01*
X32223Y68059D01*
X33449Y65101D01*
X33449Y61899D01*
X32223Y58941D01*
X29959Y56677D01*
X27001Y55451D01*
X23799Y55451D01*
G37*
%LPD*%
G36*
X190609Y34054D02*
X190609Y34054D01*
X190748Y34067D01*
X190767Y34074D01*
X190787Y34077D01*
X190916Y34128D01*
X191047Y34175D01*
X191064Y34186D01*
X191083Y34194D01*
X191195Y34275D01*
X191310Y34353D01*
X191324Y34369D01*
X191340Y34380D01*
X191429Y34488D01*
X191521Y34592D01*
X191530Y34610D01*
X191543Y34625D01*
X191602Y34751D01*
X191665Y34875D01*
X191670Y34895D01*
X191678Y34913D01*
X191704Y35050D01*
X191735Y35185D01*
X191734Y35206D01*
X191738Y35225D01*
X191729Y35364D01*
X191725Y35503D01*
X191720Y35523D01*
X191718Y35543D01*
X191676Y35675D01*
X191637Y35809D01*
X191627Y35826D01*
X191620Y35845D01*
X191546Y35963D01*
X191475Y36083D01*
X191457Y36104D01*
X191450Y36114D01*
X191435Y36128D01*
X191369Y36203D01*
X190500Y37072D01*
X190500Y37073D01*
X186181Y41391D01*
X186181Y45945D01*
X186169Y46044D01*
X186166Y46143D01*
X186149Y46201D01*
X186141Y46261D01*
X186105Y46353D01*
X186077Y46448D01*
X186047Y46500D01*
X186024Y46557D01*
X185966Y46637D01*
X185916Y46722D01*
X185850Y46797D01*
X185838Y46814D01*
X185828Y46822D01*
X185810Y46843D01*
X181382Y51271D01*
X181288Y51344D01*
X181198Y51422D01*
X181162Y51441D01*
X181131Y51465D01*
X181021Y51513D01*
X180915Y51567D01*
X180876Y51576D01*
X180839Y51592D01*
X180721Y51610D01*
X180605Y51637D01*
X180564Y51635D01*
X180525Y51642D01*
X180406Y51630D01*
X180287Y51627D01*
X180248Y51616D01*
X180208Y51612D01*
X180096Y51572D01*
X180026Y51551D01*
X175697Y51551D01*
X175598Y51539D01*
X175499Y51536D01*
X175441Y51519D01*
X175381Y51511D01*
X175289Y51475D01*
X175193Y51447D01*
X175141Y51417D01*
X175085Y51394D01*
X175005Y51336D01*
X174919Y51285D01*
X174877Y51243D01*
X174828Y51208D01*
X174765Y51131D01*
X174694Y51061D01*
X174664Y51009D01*
X174625Y50963D01*
X174583Y50873D01*
X174532Y50787D01*
X174515Y50729D01*
X174490Y50675D01*
X174471Y50577D01*
X174443Y50482D01*
X174441Y50422D01*
X174430Y50363D01*
X174436Y50263D01*
X174433Y50164D01*
X174446Y50105D01*
X174450Y50045D01*
X174480Y49951D01*
X174502Y49854D01*
X174530Y49788D01*
X174455Y49557D01*
X174444Y49499D01*
X174424Y49443D01*
X174414Y49343D01*
X174395Y49245D01*
X174399Y49185D01*
X174393Y49126D01*
X174409Y48966D01*
X174516Y48289D01*
X174507Y48275D01*
X174438Y48149D01*
X174438Y48148D01*
X174396Y47984D01*
X174359Y47841D01*
X174359Y47840D01*
X174359Y47839D01*
X174349Y47681D01*
X174349Y40771D01*
X174361Y40673D01*
X174364Y40574D01*
X174381Y40515D01*
X174389Y40455D01*
X174425Y40363D01*
X174453Y40268D01*
X174483Y40216D01*
X174506Y40160D01*
X174564Y40080D01*
X174614Y39994D01*
X174680Y39919D01*
X174692Y39902D01*
X174702Y39894D01*
X174720Y39873D01*
X180185Y34408D01*
X180264Y34348D01*
X180336Y34280D01*
X180389Y34251D01*
X180437Y34214D01*
X180528Y34174D01*
X180614Y34126D01*
X180673Y34111D01*
X180728Y34087D01*
X180826Y34072D01*
X180922Y34047D01*
X181022Y34041D01*
X181042Y34037D01*
X181055Y34039D01*
X181083Y34037D01*
X190471Y34037D01*
X190609Y34054D01*
G37*
%LPC*%
G36*
X78699Y57989D02*
X78699Y57989D01*
X78699Y69011D01*
X83741Y69011D01*
X83741Y66110D01*
X83534Y65336D01*
X83133Y64643D01*
X82888Y64397D01*
X82815Y64303D01*
X82736Y64214D01*
X82718Y64178D01*
X82693Y64146D01*
X82645Y64037D01*
X82591Y63931D01*
X82583Y63891D01*
X82566Y63854D01*
X82548Y63737D01*
X82522Y63621D01*
X82523Y63580D01*
X82517Y63540D01*
X82528Y63421D01*
X82531Y63303D01*
X82543Y63264D01*
X82546Y63224D01*
X82587Y63112D01*
X82620Y62997D01*
X82640Y62962D01*
X82654Y62924D01*
X82721Y62826D01*
X82781Y62723D01*
X82821Y62678D01*
X82833Y62661D01*
X82848Y62648D01*
X82888Y62602D01*
X83133Y62357D01*
X83534Y61664D01*
X83741Y60890D01*
X83741Y57989D01*
X78699Y57989D01*
G37*
%LPD*%
%LPC*%
G36*
X104099Y57989D02*
X104099Y57989D01*
X104099Y69011D01*
X109141Y69011D01*
X109141Y66110D01*
X108934Y65336D01*
X108533Y64643D01*
X108288Y64397D01*
X108215Y64303D01*
X108136Y64214D01*
X108118Y64178D01*
X108093Y64146D01*
X108045Y64037D01*
X107991Y63931D01*
X107983Y63891D01*
X107966Y63854D01*
X107948Y63737D01*
X107922Y63621D01*
X107923Y63580D01*
X107917Y63540D01*
X107928Y63421D01*
X107931Y63303D01*
X107943Y63264D01*
X107946Y63224D01*
X107987Y63112D01*
X108020Y62997D01*
X108040Y62962D01*
X108054Y62924D01*
X108121Y62826D01*
X108181Y62723D01*
X108221Y62678D01*
X108233Y62661D01*
X108248Y62648D01*
X108288Y62602D01*
X108533Y62357D01*
X108934Y61664D01*
X109141Y60890D01*
X109141Y57989D01*
X104099Y57989D01*
G37*
%LPD*%
%LPC*%
G36*
X94059Y57989D02*
X94059Y57989D01*
X94059Y60890D01*
X94266Y61664D01*
X94667Y62357D01*
X94912Y62602D01*
X94985Y62697D01*
X95064Y62786D01*
X95082Y62822D01*
X95107Y62854D01*
X95154Y62963D01*
X95209Y63069D01*
X95217Y63109D01*
X95234Y63146D01*
X95252Y63263D01*
X95278Y63379D01*
X95277Y63420D01*
X95283Y63460D01*
X95272Y63578D01*
X95269Y63697D01*
X95257Y63736D01*
X95254Y63776D01*
X95213Y63889D01*
X95180Y64003D01*
X95160Y64037D01*
X95146Y64076D01*
X95079Y64174D01*
X95019Y64277D01*
X94979Y64322D01*
X94967Y64339D01*
X94952Y64352D01*
X94912Y64397D01*
X94667Y64643D01*
X94266Y65336D01*
X94059Y66110D01*
X94059Y69011D01*
X99101Y69011D01*
X99101Y57989D01*
X94059Y57989D01*
G37*
%LPD*%
%LPC*%
G36*
X68659Y57989D02*
X68659Y57989D01*
X68659Y60890D01*
X68866Y61664D01*
X69267Y62357D01*
X69512Y62602D01*
X69585Y62697D01*
X69664Y62786D01*
X69682Y62822D01*
X69707Y62854D01*
X69754Y62963D01*
X69809Y63069D01*
X69817Y63109D01*
X69834Y63146D01*
X69852Y63263D01*
X69878Y63379D01*
X69877Y63420D01*
X69883Y63460D01*
X69872Y63578D01*
X69869Y63697D01*
X69857Y63736D01*
X69854Y63776D01*
X69813Y63889D01*
X69780Y64003D01*
X69760Y64037D01*
X69746Y64076D01*
X69679Y64174D01*
X69619Y64277D01*
X69579Y64322D01*
X69567Y64339D01*
X69552Y64352D01*
X69512Y64397D01*
X69267Y64643D01*
X68866Y65336D01*
X68659Y66110D01*
X68659Y69011D01*
X73701Y69011D01*
X73701Y57989D01*
X68659Y57989D01*
G37*
%LPD*%
%LPC*%
G36*
X205699Y57989D02*
X205699Y57989D01*
X205699Y63531D01*
X208100Y63531D01*
X208874Y63324D01*
X209567Y62923D01*
X210133Y62357D01*
X210534Y61664D01*
X210741Y60890D01*
X210741Y57989D01*
X205699Y57989D01*
G37*
%LPD*%
%LPC*%
G36*
X195659Y57989D02*
X195659Y57989D01*
X195659Y60890D01*
X195866Y61664D01*
X196267Y62357D01*
X196833Y62923D01*
X197526Y63324D01*
X198300Y63531D01*
X200701Y63531D01*
X200701Y57989D01*
X195659Y57989D01*
G37*
%LPD*%
G36*
X140325Y76567D02*
X140325Y76567D01*
X140333Y76576D01*
X140340Y76572D01*
X140716Y76764D01*
X140721Y76774D01*
X140728Y76773D01*
X141027Y77072D01*
X141029Y77083D01*
X141036Y77084D01*
X141228Y77460D01*
X141226Y77468D01*
X141232Y77472D01*
X141231Y77474D01*
X141233Y77475D01*
X141299Y77892D01*
X141296Y77897D01*
X141299Y77900D01*
X141299Y84000D01*
X141263Y84047D01*
X141256Y84042D01*
X141250Y84049D01*
X138550Y84049D01*
X138503Y84013D01*
X138508Y84006D01*
X138501Y84000D01*
X138501Y77900D01*
X138504Y77895D01*
X138501Y77892D01*
X138567Y77475D01*
X138576Y77467D01*
X138572Y77460D01*
X138764Y77084D01*
X138774Y77079D01*
X138773Y77072D01*
X139072Y76773D01*
X139083Y76771D01*
X139084Y76764D01*
X139460Y76572D01*
X139472Y76574D01*
X139475Y76567D01*
X139892Y76501D01*
X139902Y76507D01*
X139908Y76501D01*
X140325Y76567D01*
G37*
G36*
X155325Y76567D02*
X155325Y76567D01*
X155333Y76576D01*
X155340Y76572D01*
X155716Y76764D01*
X155721Y76774D01*
X155728Y76773D01*
X156027Y77072D01*
X156029Y77083D01*
X156036Y77084D01*
X156228Y77460D01*
X156226Y77468D01*
X156232Y77472D01*
X156231Y77474D01*
X156233Y77475D01*
X156299Y77892D01*
X156296Y77897D01*
X156299Y77900D01*
X156299Y84000D01*
X156263Y84047D01*
X156256Y84042D01*
X156250Y84049D01*
X153550Y84049D01*
X153503Y84013D01*
X153508Y84006D01*
X153501Y84000D01*
X153501Y77900D01*
X153504Y77895D01*
X153501Y77892D01*
X153567Y77475D01*
X153576Y77467D01*
X153572Y77460D01*
X153764Y77084D01*
X153774Y77079D01*
X153773Y77072D01*
X154072Y76773D01*
X154083Y76771D01*
X154084Y76764D01*
X154460Y76572D01*
X154472Y76574D01*
X154475Y76567D01*
X154892Y76501D01*
X154902Y76507D01*
X154908Y76501D01*
X155325Y76567D01*
G37*
G36*
X135325Y76567D02*
X135325Y76567D01*
X135333Y76576D01*
X135340Y76572D01*
X135716Y76764D01*
X135721Y76774D01*
X135728Y76773D01*
X136027Y77072D01*
X136029Y77083D01*
X136036Y77084D01*
X136228Y77460D01*
X136226Y77468D01*
X136232Y77472D01*
X136231Y77474D01*
X136233Y77475D01*
X136299Y77892D01*
X136296Y77897D01*
X136299Y77900D01*
X136299Y84000D01*
X136263Y84047D01*
X136256Y84042D01*
X136250Y84049D01*
X133550Y84049D01*
X133503Y84013D01*
X133508Y84006D01*
X133501Y84000D01*
X133501Y77900D01*
X133504Y77895D01*
X133501Y77892D01*
X133567Y77475D01*
X133576Y77467D01*
X133572Y77460D01*
X133764Y77084D01*
X133774Y77079D01*
X133773Y77072D01*
X134072Y76773D01*
X134083Y76771D01*
X134084Y76764D01*
X134460Y76572D01*
X134472Y76574D01*
X134475Y76567D01*
X134892Y76501D01*
X134902Y76507D01*
X134908Y76501D01*
X135325Y76567D01*
G37*
G36*
X170325Y76567D02*
X170325Y76567D01*
X170333Y76576D01*
X170340Y76572D01*
X170716Y76764D01*
X170721Y76774D01*
X170728Y76773D01*
X171027Y77072D01*
X171029Y77083D01*
X171036Y77084D01*
X171228Y77460D01*
X171226Y77468D01*
X171232Y77472D01*
X171231Y77474D01*
X171233Y77475D01*
X171299Y77892D01*
X171296Y77897D01*
X171299Y77900D01*
X171299Y84000D01*
X171263Y84047D01*
X171256Y84042D01*
X171250Y84049D01*
X168550Y84049D01*
X168503Y84013D01*
X168508Y84006D01*
X168501Y84000D01*
X168501Y77900D01*
X168504Y77895D01*
X168501Y77892D01*
X168567Y77475D01*
X168576Y77467D01*
X168572Y77460D01*
X168764Y77084D01*
X168774Y77079D01*
X168773Y77072D01*
X169072Y76773D01*
X169083Y76771D01*
X169084Y76764D01*
X169460Y76572D01*
X169472Y76574D01*
X169475Y76567D01*
X169892Y76501D01*
X169902Y76507D01*
X169908Y76501D01*
X170325Y76567D01*
G37*
G36*
X150325Y76567D02*
X150325Y76567D01*
X150333Y76576D01*
X150340Y76572D01*
X150716Y76764D01*
X150721Y76774D01*
X150728Y76773D01*
X151027Y77072D01*
X151029Y77083D01*
X151036Y77084D01*
X151228Y77460D01*
X151226Y77468D01*
X151232Y77472D01*
X151231Y77474D01*
X151233Y77475D01*
X151299Y77892D01*
X151296Y77897D01*
X151299Y77900D01*
X151299Y84000D01*
X151263Y84047D01*
X151256Y84042D01*
X151250Y84049D01*
X148550Y84049D01*
X148503Y84013D01*
X148508Y84006D01*
X148501Y84000D01*
X148501Y77900D01*
X148504Y77895D01*
X148501Y77892D01*
X148567Y77475D01*
X148576Y77467D01*
X148572Y77460D01*
X148764Y77084D01*
X148774Y77079D01*
X148773Y77072D01*
X149072Y76773D01*
X149083Y76771D01*
X149084Y76764D01*
X149460Y76572D01*
X149472Y76574D01*
X149475Y76567D01*
X149892Y76501D01*
X149902Y76507D01*
X149908Y76501D01*
X150325Y76567D01*
G37*
G36*
X145325Y76567D02*
X145325Y76567D01*
X145333Y76576D01*
X145340Y76572D01*
X145716Y76764D01*
X145721Y76774D01*
X145728Y76773D01*
X146027Y77072D01*
X146029Y77083D01*
X146036Y77084D01*
X146228Y77460D01*
X146226Y77468D01*
X146232Y77472D01*
X146231Y77474D01*
X146233Y77475D01*
X146299Y77892D01*
X146296Y77897D01*
X146299Y77900D01*
X146299Y84000D01*
X146263Y84047D01*
X146256Y84042D01*
X146250Y84049D01*
X143550Y84049D01*
X143503Y84013D01*
X143508Y84006D01*
X143501Y84000D01*
X143501Y77900D01*
X143504Y77895D01*
X143501Y77892D01*
X143567Y77475D01*
X143576Y77467D01*
X143572Y77460D01*
X143764Y77084D01*
X143774Y77079D01*
X143773Y77072D01*
X144072Y76773D01*
X144083Y76771D01*
X144084Y76764D01*
X144460Y76572D01*
X144472Y76574D01*
X144475Y76567D01*
X144892Y76501D01*
X144902Y76507D01*
X144908Y76501D01*
X145325Y76567D01*
G37*
G36*
X160325Y76567D02*
X160325Y76567D01*
X160333Y76576D01*
X160340Y76572D01*
X160716Y76764D01*
X160721Y76774D01*
X160728Y76773D01*
X161027Y77072D01*
X161029Y77083D01*
X161036Y77084D01*
X161228Y77460D01*
X161226Y77468D01*
X161232Y77472D01*
X161231Y77474D01*
X161233Y77475D01*
X161299Y77892D01*
X161296Y77897D01*
X161299Y77900D01*
X161299Y84000D01*
X161263Y84047D01*
X161256Y84042D01*
X161250Y84049D01*
X158550Y84049D01*
X158503Y84013D01*
X158508Y84006D01*
X158501Y84000D01*
X158501Y77900D01*
X158504Y77895D01*
X158501Y77892D01*
X158567Y77475D01*
X158576Y77467D01*
X158572Y77460D01*
X158764Y77084D01*
X158774Y77079D01*
X158773Y77072D01*
X159072Y76773D01*
X159083Y76771D01*
X159084Y76764D01*
X159460Y76572D01*
X159472Y76574D01*
X159475Y76567D01*
X159892Y76501D01*
X159902Y76507D01*
X159908Y76501D01*
X160325Y76567D01*
G37*
G36*
X165325Y76567D02*
X165325Y76567D01*
X165333Y76576D01*
X165340Y76572D01*
X165716Y76764D01*
X165721Y76774D01*
X165728Y76773D01*
X166027Y77072D01*
X166029Y77083D01*
X166036Y77084D01*
X166228Y77460D01*
X166226Y77468D01*
X166232Y77472D01*
X166231Y77474D01*
X166233Y77475D01*
X166299Y77892D01*
X166296Y77897D01*
X166299Y77900D01*
X166299Y84000D01*
X166263Y84047D01*
X166256Y84042D01*
X166250Y84049D01*
X163550Y84049D01*
X163503Y84013D01*
X163508Y84006D01*
X163501Y84000D01*
X163501Y77900D01*
X163504Y77895D01*
X163501Y77892D01*
X163567Y77475D01*
X163576Y77467D01*
X163572Y77460D01*
X163764Y77084D01*
X163774Y77079D01*
X163773Y77072D01*
X164072Y76773D01*
X164083Y76771D01*
X164084Y76764D01*
X164460Y76572D01*
X164472Y76574D01*
X164475Y76567D01*
X164892Y76501D01*
X164902Y76507D01*
X164908Y76501D01*
X165325Y76567D01*
G37*
G36*
X133005Y69604D02*
X133005Y69604D01*
X133008Y69601D01*
X133425Y69667D01*
X133433Y69676D01*
X133440Y69672D01*
X133816Y69864D01*
X133821Y69874D01*
X133828Y69873D01*
X134127Y70172D01*
X134129Y70183D01*
X134136Y70184D01*
X134328Y70560D01*
X134326Y70568D01*
X134332Y70572D01*
X134331Y70574D01*
X134333Y70575D01*
X134399Y70992D01*
X134393Y71002D01*
X134399Y71008D01*
X134333Y71425D01*
X134324Y71433D01*
X134328Y71440D01*
X134136Y71816D01*
X134126Y71821D01*
X134127Y71828D01*
X133828Y72127D01*
X133817Y72129D01*
X133816Y72136D01*
X133440Y72328D01*
X133429Y72326D01*
X133425Y72333D01*
X133008Y72399D01*
X133003Y72396D01*
X133000Y72399D01*
X126900Y72399D01*
X126853Y72363D01*
X126858Y72356D01*
X126851Y72350D01*
X126851Y69650D01*
X126887Y69603D01*
X126894Y69608D01*
X126900Y69601D01*
X133000Y69601D01*
X133005Y69604D01*
G37*
G36*
X133005Y54604D02*
X133005Y54604D01*
X133008Y54601D01*
X133425Y54667D01*
X133433Y54676D01*
X133440Y54672D01*
X133816Y54864D01*
X133821Y54874D01*
X133828Y54873D01*
X134127Y55172D01*
X134129Y55183D01*
X134136Y55184D01*
X134328Y55560D01*
X134326Y55568D01*
X134332Y55572D01*
X134331Y55574D01*
X134333Y55575D01*
X134399Y55992D01*
X134393Y56002D01*
X134399Y56008D01*
X134333Y56425D01*
X134324Y56433D01*
X134328Y56440D01*
X134136Y56816D01*
X134126Y56821D01*
X134127Y56828D01*
X133828Y57127D01*
X133817Y57129D01*
X133816Y57136D01*
X133440Y57328D01*
X133429Y57326D01*
X133425Y57333D01*
X133008Y57399D01*
X133003Y57396D01*
X133000Y57399D01*
X126900Y57399D01*
X126853Y57363D01*
X126858Y57356D01*
X126851Y57350D01*
X126851Y54650D01*
X126887Y54603D01*
X126894Y54608D01*
X126900Y54601D01*
X133000Y54601D01*
X133005Y54604D01*
G37*
G36*
X177947Y54637D02*
X177947Y54637D01*
X177942Y54644D01*
X177949Y54650D01*
X177949Y57350D01*
X177913Y57397D01*
X177906Y57392D01*
X177900Y57399D01*
X171800Y57399D01*
X171795Y57396D01*
X171792Y57399D01*
X171375Y57333D01*
X171367Y57324D01*
X171360Y57328D01*
X170984Y57136D01*
X170979Y57126D01*
X170972Y57127D01*
X170673Y56828D01*
X170671Y56817D01*
X170664Y56816D01*
X170472Y56440D01*
X170473Y56437D01*
X170472Y56436D01*
X170473Y56434D01*
X170474Y56429D01*
X170467Y56425D01*
X170401Y56008D01*
X170407Y55998D01*
X170401Y55992D01*
X170467Y55575D01*
X170476Y55567D01*
X170472Y55560D01*
X170664Y55184D01*
X170674Y55179D01*
X170673Y55172D01*
X170972Y54873D01*
X170983Y54871D01*
X170984Y54864D01*
X171360Y54672D01*
X171372Y54674D01*
X171375Y54667D01*
X171792Y54601D01*
X171797Y54604D01*
X171800Y54601D01*
X177900Y54601D01*
X177947Y54637D01*
G37*
G36*
X171297Y42987D02*
X171297Y42987D01*
X171292Y42994D01*
X171299Y43000D01*
X171299Y49100D01*
X171296Y49105D01*
X171299Y49108D01*
X171233Y49525D01*
X171224Y49533D01*
X171228Y49540D01*
X171036Y49916D01*
X171026Y49921D01*
X171027Y49928D01*
X170728Y50227D01*
X170717Y50229D01*
X170716Y50236D01*
X170340Y50428D01*
X170329Y50426D01*
X170325Y50433D01*
X169908Y50499D01*
X169898Y50493D01*
X169892Y50499D01*
X169475Y50433D01*
X169467Y50424D01*
X169460Y50428D01*
X169084Y50236D01*
X169079Y50226D01*
X169072Y50227D01*
X168773Y49928D01*
X168771Y49917D01*
X168764Y49916D01*
X168572Y49540D01*
X168574Y49529D01*
X168567Y49525D01*
X168501Y49108D01*
X168504Y49103D01*
X168501Y49100D01*
X168501Y43000D01*
X168537Y42953D01*
X168544Y42958D01*
X168550Y42951D01*
X171250Y42951D01*
X171297Y42987D01*
G37*
G36*
X146297Y42987D02*
X146297Y42987D01*
X146292Y42994D01*
X146299Y43000D01*
X146299Y49100D01*
X146296Y49105D01*
X146299Y49108D01*
X146233Y49525D01*
X146224Y49533D01*
X146228Y49540D01*
X146036Y49916D01*
X146026Y49921D01*
X146027Y49928D01*
X145728Y50227D01*
X145717Y50229D01*
X145716Y50236D01*
X145340Y50428D01*
X145329Y50426D01*
X145325Y50433D01*
X144908Y50499D01*
X144898Y50493D01*
X144892Y50499D01*
X144475Y50433D01*
X144467Y50424D01*
X144460Y50428D01*
X144084Y50236D01*
X144079Y50226D01*
X144072Y50227D01*
X143773Y49928D01*
X143771Y49917D01*
X143764Y49916D01*
X143572Y49540D01*
X143574Y49529D01*
X143567Y49525D01*
X143501Y49108D01*
X143504Y49103D01*
X143501Y49100D01*
X143501Y43000D01*
X143537Y42953D01*
X143544Y42958D01*
X143550Y42951D01*
X146250Y42951D01*
X146297Y42987D01*
G37*
G36*
X136297Y42987D02*
X136297Y42987D01*
X136292Y42994D01*
X136299Y43000D01*
X136299Y49100D01*
X136296Y49105D01*
X136299Y49108D01*
X136233Y49525D01*
X136224Y49533D01*
X136228Y49540D01*
X136036Y49916D01*
X136026Y49921D01*
X136027Y49928D01*
X135728Y50227D01*
X135717Y50229D01*
X135716Y50236D01*
X135340Y50428D01*
X135329Y50426D01*
X135325Y50433D01*
X134908Y50499D01*
X134898Y50493D01*
X134892Y50499D01*
X134475Y50433D01*
X134467Y50424D01*
X134460Y50428D01*
X134084Y50236D01*
X134079Y50226D01*
X134072Y50227D01*
X133773Y49928D01*
X133771Y49917D01*
X133764Y49916D01*
X133572Y49540D01*
X133574Y49529D01*
X133567Y49525D01*
X133501Y49108D01*
X133504Y49103D01*
X133501Y49100D01*
X133501Y43000D01*
X133537Y42953D01*
X133544Y42958D01*
X133550Y42951D01*
X136250Y42951D01*
X136297Y42987D01*
G37*
G36*
X156297Y42987D02*
X156297Y42987D01*
X156292Y42994D01*
X156299Y43000D01*
X156299Y49100D01*
X156296Y49105D01*
X156299Y49108D01*
X156233Y49525D01*
X156224Y49533D01*
X156228Y49540D01*
X156036Y49916D01*
X156026Y49921D01*
X156027Y49928D01*
X155728Y50227D01*
X155717Y50229D01*
X155716Y50236D01*
X155340Y50428D01*
X155329Y50426D01*
X155325Y50433D01*
X154908Y50499D01*
X154898Y50493D01*
X154892Y50499D01*
X154475Y50433D01*
X154467Y50424D01*
X154460Y50428D01*
X154084Y50236D01*
X154079Y50226D01*
X154072Y50227D01*
X153773Y49928D01*
X153771Y49917D01*
X153764Y49916D01*
X153572Y49540D01*
X153574Y49529D01*
X153567Y49525D01*
X153501Y49108D01*
X153504Y49103D01*
X153501Y49100D01*
X153501Y43000D01*
X153537Y42953D01*
X153544Y42958D01*
X153550Y42951D01*
X156250Y42951D01*
X156297Y42987D01*
G37*
G36*
X161297Y42987D02*
X161297Y42987D01*
X161292Y42994D01*
X161299Y43000D01*
X161299Y49100D01*
X161296Y49105D01*
X161299Y49108D01*
X161233Y49525D01*
X161224Y49533D01*
X161228Y49540D01*
X161036Y49916D01*
X161026Y49921D01*
X161027Y49928D01*
X160728Y50227D01*
X160717Y50229D01*
X160716Y50236D01*
X160340Y50428D01*
X160329Y50426D01*
X160325Y50433D01*
X159908Y50499D01*
X159898Y50493D01*
X159892Y50499D01*
X159475Y50433D01*
X159467Y50424D01*
X159460Y50428D01*
X159084Y50236D01*
X159079Y50226D01*
X159072Y50227D01*
X158773Y49928D01*
X158771Y49917D01*
X158764Y49916D01*
X158572Y49540D01*
X158574Y49529D01*
X158567Y49525D01*
X158501Y49108D01*
X158504Y49103D01*
X158501Y49100D01*
X158501Y43000D01*
X158537Y42953D01*
X158544Y42958D01*
X158550Y42951D01*
X161250Y42951D01*
X161297Y42987D01*
G37*
G36*
X141297Y42987D02*
X141297Y42987D01*
X141292Y42994D01*
X141299Y43000D01*
X141299Y49100D01*
X141296Y49105D01*
X141299Y49108D01*
X141233Y49525D01*
X141224Y49533D01*
X141228Y49540D01*
X141036Y49916D01*
X141026Y49921D01*
X141027Y49928D01*
X140728Y50227D01*
X140717Y50229D01*
X140716Y50236D01*
X140340Y50428D01*
X140329Y50426D01*
X140325Y50433D01*
X139908Y50499D01*
X139898Y50493D01*
X139892Y50499D01*
X139475Y50433D01*
X139467Y50424D01*
X139460Y50428D01*
X139084Y50236D01*
X139079Y50226D01*
X139072Y50227D01*
X138773Y49928D01*
X138771Y49917D01*
X138764Y49916D01*
X138572Y49540D01*
X138574Y49529D01*
X138567Y49525D01*
X138501Y49108D01*
X138504Y49103D01*
X138501Y49100D01*
X138501Y43000D01*
X138537Y42953D01*
X138544Y42958D01*
X138550Y42951D01*
X141250Y42951D01*
X141297Y42987D01*
G37*
G36*
X151297Y42987D02*
X151297Y42987D01*
X151292Y42994D01*
X151299Y43000D01*
X151299Y49100D01*
X151296Y49105D01*
X151299Y49108D01*
X151233Y49525D01*
X151224Y49533D01*
X151228Y49540D01*
X151036Y49916D01*
X151026Y49921D01*
X151027Y49928D01*
X150728Y50227D01*
X150717Y50229D01*
X150716Y50236D01*
X150340Y50428D01*
X150329Y50426D01*
X150325Y50433D01*
X149908Y50499D01*
X149898Y50493D01*
X149892Y50499D01*
X149475Y50433D01*
X149467Y50424D01*
X149460Y50428D01*
X149084Y50236D01*
X149079Y50226D01*
X149072Y50227D01*
X148773Y49928D01*
X148771Y49917D01*
X148764Y49916D01*
X148572Y49540D01*
X148574Y49529D01*
X148567Y49525D01*
X148501Y49108D01*
X148504Y49103D01*
X148501Y49100D01*
X148501Y43000D01*
X148537Y42953D01*
X148544Y42958D01*
X148550Y42951D01*
X151250Y42951D01*
X151297Y42987D01*
G37*
G36*
X166297Y42987D02*
X166297Y42987D01*
X166292Y42994D01*
X166299Y43000D01*
X166299Y49100D01*
X166296Y49105D01*
X166299Y49108D01*
X166233Y49525D01*
X166224Y49533D01*
X166228Y49540D01*
X166036Y49916D01*
X166026Y49921D01*
X166027Y49928D01*
X165728Y50227D01*
X165717Y50229D01*
X165716Y50236D01*
X165340Y50428D01*
X165329Y50426D01*
X165325Y50433D01*
X164908Y50499D01*
X164898Y50493D01*
X164892Y50499D01*
X164475Y50433D01*
X164467Y50424D01*
X164460Y50428D01*
X164084Y50236D01*
X164079Y50226D01*
X164072Y50227D01*
X163773Y49928D01*
X163771Y49917D01*
X163764Y49916D01*
X163572Y49540D01*
X163574Y49529D01*
X163567Y49525D01*
X163501Y49108D01*
X163504Y49103D01*
X163501Y49100D01*
X163501Y43000D01*
X163537Y42953D01*
X163544Y42958D01*
X163550Y42951D01*
X166250Y42951D01*
X166297Y42987D01*
G37*
%LPC*%
G36*
X152399Y63499D02*
X152399Y63499D01*
X152399Y63501D01*
X152401Y63501D01*
X152401Y63499D01*
X152399Y63499D01*
G37*
%LPD*%
D10*
X106100Y43490D02*
X106100Y33490D01*
X97100Y33490D01*
X97100Y43490D01*
X106100Y43490D01*
X106100Y34440D02*
X97100Y34440D01*
X97100Y35390D02*
X106100Y35390D01*
X106100Y36340D02*
X97100Y36340D01*
X97100Y37290D02*
X106100Y37290D01*
X106100Y38240D02*
X97100Y38240D01*
X97100Y39190D02*
X106100Y39190D01*
X106100Y40140D02*
X97100Y40140D01*
X97100Y41090D02*
X106100Y41090D01*
X106100Y42040D02*
X97100Y42040D01*
X97100Y42990D02*
X106100Y42990D01*
X106100Y50490D02*
X106100Y60490D01*
X106100Y50490D02*
X97100Y50490D01*
X97100Y60490D01*
X106100Y60490D01*
X106100Y51440D02*
X97100Y51440D01*
X97100Y52390D02*
X106100Y52390D01*
X106100Y53340D02*
X97100Y53340D01*
X97100Y54290D02*
X106100Y54290D01*
X106100Y55240D02*
X97100Y55240D01*
X97100Y56190D02*
X106100Y56190D01*
X106100Y57140D02*
X97100Y57140D01*
X97100Y58090D02*
X106100Y58090D01*
X106100Y59040D02*
X97100Y59040D01*
X97100Y59990D02*
X106100Y59990D01*
X97100Y83510D02*
X97100Y93510D01*
X106100Y93510D01*
X106100Y83510D01*
X97100Y83510D01*
X97100Y84460D02*
X106100Y84460D01*
X106100Y85410D02*
X97100Y85410D01*
X97100Y86360D02*
X106100Y86360D01*
X106100Y87310D02*
X97100Y87310D01*
X97100Y88260D02*
X106100Y88260D01*
X106100Y89210D02*
X97100Y89210D01*
X97100Y90160D02*
X106100Y90160D01*
X106100Y91110D02*
X97100Y91110D01*
X97100Y92060D02*
X106100Y92060D01*
X106100Y93010D02*
X97100Y93010D01*
X97100Y76510D02*
X97100Y66510D01*
X97100Y76510D02*
X106100Y76510D01*
X106100Y66510D01*
X97100Y66510D01*
X97100Y67460D02*
X106100Y67460D01*
X106100Y68410D02*
X97100Y68410D01*
X97100Y69360D02*
X106100Y69360D01*
X106100Y70310D02*
X97100Y70310D01*
X97100Y71260D02*
X106100Y71260D01*
X106100Y72210D02*
X97100Y72210D01*
X97100Y73160D02*
X106100Y73160D01*
X106100Y74110D02*
X97100Y74110D01*
X97100Y75060D02*
X106100Y75060D01*
X106100Y76010D02*
X97100Y76010D01*
X198700Y60490D02*
X198700Y50490D01*
X198700Y60490D02*
X207700Y60490D01*
X207700Y50490D01*
X198700Y50490D01*
X198700Y51440D02*
X207700Y51440D01*
X207700Y52390D02*
X198700Y52390D01*
X198700Y53340D02*
X207700Y53340D01*
X207700Y54290D02*
X198700Y54290D01*
X198700Y55240D02*
X207700Y55240D01*
X207700Y56190D02*
X198700Y56190D01*
X198700Y57140D02*
X207700Y57140D01*
X207700Y58090D02*
X198700Y58090D01*
X198700Y59040D02*
X207700Y59040D01*
X207700Y59990D02*
X198700Y59990D01*
X198700Y43490D02*
X198700Y33490D01*
X198700Y43490D02*
X207700Y43490D01*
X207700Y33490D01*
X198700Y33490D01*
X198700Y34440D02*
X207700Y34440D01*
X207700Y35390D02*
X198700Y35390D01*
X198700Y36340D02*
X207700Y36340D01*
X207700Y37290D02*
X198700Y37290D01*
X198700Y38240D02*
X207700Y38240D01*
X207700Y39190D02*
X198700Y39190D01*
X198700Y40140D02*
X207700Y40140D01*
X207700Y41090D02*
X198700Y41090D01*
X198700Y42040D02*
X207700Y42040D01*
X207700Y42990D02*
X198700Y42990D01*
X80700Y43490D02*
X80700Y33490D01*
X71700Y33490D01*
X71700Y43490D01*
X80700Y43490D01*
X80700Y34440D02*
X71700Y34440D01*
X71700Y35390D02*
X80700Y35390D01*
X80700Y36340D02*
X71700Y36340D01*
X71700Y37290D02*
X80700Y37290D01*
X80700Y38240D02*
X71700Y38240D01*
X71700Y39190D02*
X80700Y39190D01*
X80700Y40140D02*
X71700Y40140D01*
X71700Y41090D02*
X80700Y41090D01*
X80700Y42040D02*
X71700Y42040D01*
X71700Y42990D02*
X80700Y42990D01*
X80700Y50490D02*
X80700Y60490D01*
X80700Y50490D02*
X71700Y50490D01*
X71700Y60490D01*
X80700Y60490D01*
X80700Y51440D02*
X71700Y51440D01*
X71700Y52390D02*
X80700Y52390D01*
X80700Y53340D02*
X71700Y53340D01*
X71700Y54290D02*
X80700Y54290D01*
X80700Y55240D02*
X71700Y55240D01*
X71700Y56190D02*
X80700Y56190D01*
X80700Y57140D02*
X71700Y57140D01*
X71700Y58090D02*
X80700Y58090D01*
X80700Y59040D02*
X71700Y59040D01*
X71700Y59990D02*
X80700Y59990D01*
X71700Y83510D02*
X71700Y93510D01*
X80700Y93510D01*
X80700Y83510D01*
X71700Y83510D01*
X71700Y84460D02*
X80700Y84460D01*
X80700Y85410D02*
X71700Y85410D01*
X71700Y86360D02*
X80700Y86360D01*
X80700Y87310D02*
X71700Y87310D01*
X71700Y88260D02*
X80700Y88260D01*
X80700Y89210D02*
X71700Y89210D01*
X71700Y90160D02*
X80700Y90160D01*
X80700Y91110D02*
X71700Y91110D01*
X71700Y92060D02*
X80700Y92060D01*
X80700Y93010D02*
X71700Y93010D01*
X71700Y76510D02*
X71700Y66510D01*
X71700Y76510D02*
X80700Y76510D01*
X80700Y66510D01*
X71700Y66510D01*
X71700Y67460D02*
X80700Y67460D01*
X80700Y68410D02*
X71700Y68410D01*
X71700Y69360D02*
X80700Y69360D01*
X80700Y70310D02*
X71700Y70310D01*
X71700Y71260D02*
X80700Y71260D01*
X80700Y72210D02*
X71700Y72210D01*
X71700Y73160D02*
X80700Y73160D01*
X80700Y74110D02*
X71700Y74110D01*
X71700Y75060D02*
X80700Y75060D01*
X80700Y76010D02*
X71700Y76010D01*
D11*
X266700Y114300D03*
X25400Y63500D03*
D12*
X126404Y55104D02*
X132396Y55104D01*
X126404Y55104D02*
X126404Y56896D01*
X132396Y56896D01*
X132396Y55104D01*
X132396Y56062D02*
X126404Y56062D01*
X135796Y48496D02*
X135796Y42504D01*
X134004Y42504D01*
X134004Y48496D01*
X135796Y48496D01*
X135796Y43462D02*
X134004Y43462D01*
X134004Y44420D02*
X135796Y44420D01*
X135796Y45378D02*
X134004Y45378D01*
X134004Y46336D02*
X135796Y46336D01*
X135796Y47294D02*
X134004Y47294D01*
X134004Y48252D02*
X135796Y48252D01*
X140796Y48496D02*
X140796Y42504D01*
X139004Y42504D01*
X139004Y48496D01*
X140796Y48496D01*
X140796Y43462D02*
X139004Y43462D01*
X139004Y44420D02*
X140796Y44420D01*
X140796Y45378D02*
X139004Y45378D01*
X139004Y46336D02*
X140796Y46336D01*
X140796Y47294D02*
X139004Y47294D01*
X139004Y48252D02*
X140796Y48252D01*
X145796Y48496D02*
X145796Y42504D01*
X144004Y42504D01*
X144004Y48496D01*
X145796Y48496D01*
X145796Y43462D02*
X144004Y43462D01*
X144004Y44420D02*
X145796Y44420D01*
X145796Y45378D02*
X144004Y45378D01*
X144004Y46336D02*
X145796Y46336D01*
X145796Y47294D02*
X144004Y47294D01*
X144004Y48252D02*
X145796Y48252D01*
X150796Y48496D02*
X150796Y42504D01*
X149004Y42504D01*
X149004Y48496D01*
X150796Y48496D01*
X150796Y43462D02*
X149004Y43462D01*
X149004Y44420D02*
X150796Y44420D01*
X150796Y45378D02*
X149004Y45378D01*
X149004Y46336D02*
X150796Y46336D01*
X150796Y47294D02*
X149004Y47294D01*
X149004Y48252D02*
X150796Y48252D01*
X155796Y48496D02*
X155796Y42504D01*
X154004Y42504D01*
X154004Y48496D01*
X155796Y48496D01*
X155796Y43462D02*
X154004Y43462D01*
X154004Y44420D02*
X155796Y44420D01*
X155796Y45378D02*
X154004Y45378D01*
X154004Y46336D02*
X155796Y46336D01*
X155796Y47294D02*
X154004Y47294D01*
X154004Y48252D02*
X155796Y48252D01*
X160796Y48496D02*
X160796Y42504D01*
X159004Y42504D01*
X159004Y48496D01*
X160796Y48496D01*
X160796Y43462D02*
X159004Y43462D01*
X159004Y44420D02*
X160796Y44420D01*
X160796Y45378D02*
X159004Y45378D01*
X159004Y46336D02*
X160796Y46336D01*
X160796Y47294D02*
X159004Y47294D01*
X159004Y48252D02*
X160796Y48252D01*
X165796Y48496D02*
X165796Y42504D01*
X164004Y42504D01*
X164004Y48496D01*
X165796Y48496D01*
X165796Y43462D02*
X164004Y43462D01*
X164004Y44420D02*
X165796Y44420D01*
X165796Y45378D02*
X164004Y45378D01*
X164004Y46336D02*
X165796Y46336D01*
X165796Y47294D02*
X164004Y47294D01*
X164004Y48252D02*
X165796Y48252D01*
X170796Y48496D02*
X170796Y42504D01*
X169004Y42504D01*
X169004Y48496D01*
X170796Y48496D01*
X170796Y43462D02*
X169004Y43462D01*
X169004Y44420D02*
X170796Y44420D01*
X170796Y45378D02*
X169004Y45378D01*
X169004Y46336D02*
X170796Y46336D01*
X170796Y47294D02*
X169004Y47294D01*
X169004Y48252D02*
X170796Y48252D01*
X172404Y56896D02*
X178396Y56896D01*
X178396Y55104D01*
X172404Y55104D01*
X172404Y56896D01*
X172404Y56062D02*
X178396Y56062D01*
X178396Y71896D02*
X172404Y71896D01*
X178396Y71896D02*
X178396Y70104D01*
X172404Y70104D01*
X172404Y71896D01*
X172404Y71062D02*
X178396Y71062D01*
X169004Y78504D02*
X169004Y84496D01*
X170796Y84496D01*
X170796Y78504D01*
X169004Y78504D01*
X169004Y79462D02*
X170796Y79462D01*
X170796Y80420D02*
X169004Y80420D01*
X169004Y81378D02*
X170796Y81378D01*
X170796Y82336D02*
X169004Y82336D01*
X169004Y83294D02*
X170796Y83294D01*
X170796Y84252D02*
X169004Y84252D01*
X164004Y84496D02*
X164004Y78504D01*
X164004Y84496D02*
X165796Y84496D01*
X165796Y78504D01*
X164004Y78504D01*
X164004Y79462D02*
X165796Y79462D01*
X165796Y80420D02*
X164004Y80420D01*
X164004Y81378D02*
X165796Y81378D01*
X165796Y82336D02*
X164004Y82336D01*
X164004Y83294D02*
X165796Y83294D01*
X165796Y84252D02*
X164004Y84252D01*
X159004Y84496D02*
X159004Y78504D01*
X159004Y84496D02*
X160796Y84496D01*
X160796Y78504D01*
X159004Y78504D01*
X159004Y79462D02*
X160796Y79462D01*
X160796Y80420D02*
X159004Y80420D01*
X159004Y81378D02*
X160796Y81378D01*
X160796Y82336D02*
X159004Y82336D01*
X159004Y83294D02*
X160796Y83294D01*
X160796Y84252D02*
X159004Y84252D01*
X154004Y84496D02*
X154004Y78504D01*
X154004Y84496D02*
X155796Y84496D01*
X155796Y78504D01*
X154004Y78504D01*
X154004Y79462D02*
X155796Y79462D01*
X155796Y80420D02*
X154004Y80420D01*
X154004Y81378D02*
X155796Y81378D01*
X155796Y82336D02*
X154004Y82336D01*
X154004Y83294D02*
X155796Y83294D01*
X155796Y84252D02*
X154004Y84252D01*
X149004Y84496D02*
X149004Y78504D01*
X149004Y84496D02*
X150796Y84496D01*
X150796Y78504D01*
X149004Y78504D01*
X149004Y79462D02*
X150796Y79462D01*
X150796Y80420D02*
X149004Y80420D01*
X149004Y81378D02*
X150796Y81378D01*
X150796Y82336D02*
X149004Y82336D01*
X149004Y83294D02*
X150796Y83294D01*
X150796Y84252D02*
X149004Y84252D01*
X144004Y84496D02*
X144004Y78504D01*
X144004Y84496D02*
X145796Y84496D01*
X145796Y78504D01*
X144004Y78504D01*
X144004Y79462D02*
X145796Y79462D01*
X145796Y80420D02*
X144004Y80420D01*
X144004Y81378D02*
X145796Y81378D01*
X145796Y82336D02*
X144004Y82336D01*
X144004Y83294D02*
X145796Y83294D01*
X145796Y84252D02*
X144004Y84252D01*
X139004Y84496D02*
X139004Y78504D01*
X139004Y84496D02*
X140796Y84496D01*
X140796Y78504D01*
X139004Y78504D01*
X139004Y79462D02*
X140796Y79462D01*
X140796Y80420D02*
X139004Y80420D01*
X139004Y81378D02*
X140796Y81378D01*
X140796Y82336D02*
X139004Y82336D01*
X139004Y83294D02*
X140796Y83294D01*
X140796Y84252D02*
X139004Y84252D01*
X134004Y84496D02*
X134004Y78504D01*
X134004Y84496D02*
X135796Y84496D01*
X135796Y78504D01*
X134004Y78504D01*
X134004Y79462D02*
X135796Y79462D01*
X135796Y80420D02*
X134004Y80420D01*
X134004Y81378D02*
X135796Y81378D01*
X135796Y82336D02*
X134004Y82336D01*
X134004Y83294D02*
X135796Y83294D01*
X135796Y84252D02*
X134004Y84252D01*
X132396Y70104D02*
X126404Y70104D01*
X126404Y71896D01*
X132396Y71896D01*
X132396Y70104D01*
X132396Y71062D02*
X126404Y71062D01*
D13*
X137662Y53762D02*
X167138Y53762D01*
X137662Y53762D02*
X137662Y73238D01*
X167138Y73238D01*
X167138Y53762D01*
X167138Y54736D02*
X137662Y54736D01*
X137662Y55710D02*
X167138Y55710D01*
X167138Y56684D02*
X137662Y56684D01*
X137662Y57658D02*
X167138Y57658D01*
X167138Y58632D02*
X137662Y58632D01*
X137662Y59606D02*
X167138Y59606D01*
X167138Y60580D02*
X137662Y60580D01*
X137662Y61554D02*
X167138Y61554D01*
X167138Y62528D02*
X137662Y62528D01*
X137662Y63502D02*
X167138Y63502D01*
X167138Y64476D02*
X137662Y64476D01*
X137662Y65450D02*
X167138Y65450D01*
X167138Y66424D02*
X137662Y66424D01*
X137662Y67398D02*
X167138Y67398D01*
X167138Y68372D02*
X137662Y68372D01*
X137662Y69346D02*
X167138Y69346D01*
X167138Y70320D02*
X137662Y70320D01*
X137662Y71294D02*
X167138Y71294D01*
X167138Y72268D02*
X137662Y72268D01*
D14*
X266700Y12700D03*
X241300Y12700D03*
X215900Y12700D03*
X190500Y12700D03*
X165100Y12700D03*
X139700Y12700D03*
X114300Y12700D03*
X88900Y12700D03*
X63500Y12700D03*
X38100Y12700D03*
X12700Y12700D03*
X241300Y114300D03*
X215900Y114300D03*
X190500Y114300D03*
X165100Y114300D03*
X139700Y114300D03*
X114300Y114300D03*
X88900Y114300D03*
X63500Y114300D03*
X38100Y114300D03*
X12700Y114300D03*
D15*
X114300Y63500D03*
X190500Y63500D03*
X254000Y101600D03*
X254000Y38100D03*
D16*
X165100Y63500D03*
X139700Y63500D03*
X152400Y55880D03*
X152400Y71120D03*
D15*
X180340Y41910D03*
X127000Y35560D03*
D17*
X130810Y35560D01*
X134900Y39650D01*
X134900Y45500D01*
X101600Y38490D02*
X76200Y38490D01*
X63890Y38490D01*
X38100Y12700D01*
D15*
X111760Y46990D03*
D17*
X109610Y38490D02*
X101600Y38490D01*
X109610Y38490D02*
X111760Y40640D01*
X111760Y46990D01*
X114300Y29718D02*
X80518Y29718D01*
X114300Y29718D02*
X119380Y34798D01*
X119380Y52070D01*
X123310Y56000D01*
X129400Y56000D01*
X80518Y29718D02*
X63500Y12700D01*
X101600Y25400D02*
X127000Y25400D01*
X139900Y38300D01*
X139900Y45500D01*
X101600Y25400D02*
X88900Y12700D01*
X114300Y12700D02*
X122682Y21082D01*
X128789Y21082D01*
X144900Y37193D01*
X144900Y45500D01*
X149900Y38100D02*
X149900Y34330D01*
X149900Y38100D02*
X149900Y45500D01*
X149900Y34330D02*
X149900Y22900D01*
X139700Y12700D01*
X154900Y22900D02*
X165100Y12700D01*
X154900Y22900D02*
X154900Y45500D01*
X182118Y21082D02*
X190500Y12700D01*
X182118Y21082D02*
X175191Y21082D01*
X159900Y36373D01*
X159900Y45500D01*
X176980Y25400D02*
X203200Y25400D01*
X164900Y37480D02*
X164900Y45500D01*
X164900Y37480D02*
X176980Y25400D01*
X203200Y25400D02*
X215900Y12700D01*
X178768Y29718D02*
X169900Y38586D01*
X178768Y29718D02*
X224282Y29718D01*
X169900Y38586D02*
X169900Y45500D01*
X224282Y29718D02*
X241300Y12700D01*
X182760Y56000D02*
X175400Y56000D01*
X182760Y56000D02*
X190500Y48260D01*
X190500Y43180D01*
X195190Y38490D01*
X203200Y38490D01*
X228210Y38490D01*
X241300Y25400D01*
X254000Y25400D01*
X266700Y12700D01*
X63679Y114300D02*
X63500Y114300D01*
X63679Y114300D02*
X80697Y97282D01*
X114300Y97282D01*
X123050Y71000D02*
X129400Y71000D01*
X123050Y71000D02*
X119380Y74670D01*
X119380Y92202D02*
X114300Y97282D01*
X119380Y92202D02*
X119380Y74670D01*
X127821Y101600D02*
X101600Y101600D01*
X139900Y89521D02*
X139900Y81500D01*
X139900Y89521D02*
X127821Y101600D01*
X101600Y101600D02*
X88900Y114300D01*
X114300Y114300D02*
X122682Y105918D01*
X129609Y105918D01*
X144900Y90627D01*
X144900Y81500D01*
X149900Y104100D02*
X139700Y114300D01*
X149900Y104100D02*
X149900Y81500D01*
X154900Y104100D02*
X165100Y114300D01*
X154900Y104100D02*
X154900Y81500D01*
X182118Y105918D02*
X190500Y114300D01*
X182118Y105918D02*
X175755Y105918D01*
X159900Y90063D01*
X159900Y81500D01*
X164900Y88957D02*
X177543Y101600D01*
X203200Y101600D01*
X164900Y88957D02*
X164900Y81500D01*
X203200Y101600D02*
X215900Y114300D01*
X179332Y97282D02*
X169900Y87850D01*
X169900Y81500D01*
X224282Y97282D02*
X241300Y114300D01*
X224282Y97282D02*
X179332Y97282D01*
D15*
X127000Y92710D03*
D17*
X129540Y92710D01*
X134900Y87350D01*
X134900Y81500D01*
X101600Y88510D02*
X76200Y88510D01*
X63890Y88510D01*
X38100Y114300D01*
D15*
X111760Y80010D03*
D17*
X109610Y88510D02*
X101600Y88510D01*
X109610Y88510D02*
X111760Y86360D01*
X111760Y80010D01*
M02*
