M48
;GenerationSoftware,Autodesk,EAGLE,9.6.2*%
;CreationDate,2022-03-31T18:02:31Z*%
FMAT,2
ICI,OFF
METRIC,TZ,000.000
T3C0.305
T2C0.381
T1C1.016
%
G90
M71
T1
X78486Y51054
X75946Y51054
X73406Y51054
X70866Y51054
X68326Y51054
X65786Y51054
X63246Y51054
X60706Y51054
X58166Y51054
X112014Y40894
X109474Y40894
X106934Y40894
X104394Y40894
X99314Y40894
X96774Y40894
X94234Y40894
X91694Y40894
X89154Y40894
X86614Y40894
X109474Y51054
X106934Y51054
X104394Y51054
X101854Y51054
X99314Y51054
X96774Y51054
X94234Y51054
X91694Y51054
X89154Y51054
X86614Y51054
X140462Y40894
X137922Y40894
X135382Y40894
X132842Y40894
X130302Y40894
X127762Y40894
X125222Y40894
X122682Y40894
X120142Y40894
X117602Y40894
X115062Y40894
X137922Y51054
X135382Y51054
X132842Y51054
X130302Y51054
X127762Y51054
X125222Y51054
X122682Y51054
X120142Y51054
X117602Y51054
X115062Y51054
X168910Y40894
X166370Y40894
X163830Y40894
X161290Y40894
X158750Y40894
X156210Y40894
X153670Y40894
X151130Y40894
X148590Y40894
X146050Y40894
X143510Y40894
X166370Y51054
X163830Y51054
X161290Y51054
X158750Y51054
X156210Y51054
X153670Y51054
X151130Y51054
X148590Y51054
X146050Y51054
X143510Y51054
X26670Y54102
X24130Y54102
X21590Y54102
X19050Y54102
X16510Y54102
X13970Y54102
X11430Y54102
X8890Y54102
X6350Y54102
X3810Y54102
X1270Y54102
X24130Y64262
X21590Y64262
X19050Y64262
X16510Y64262
X13970Y64262
X11430Y64262
X8890Y64262
X6350Y64262
X3810Y64262
X1270Y64262
X55118Y54102
X52578Y54102
X50038Y54102
X47498Y54102
X44958Y54102
X42418Y54102
X39878Y54102
X37338Y54102
X34798Y54102
X32258Y54102
X29718Y54102
X52578Y64262
X50038Y64262
X47498Y64262
X44958Y64262
X42418Y64262
X39878Y64262
X37338Y64262
X34798Y64262
X32258Y64262
X29718Y64262
X83566Y54102
X81026Y54102
X78486Y54102
X75946Y54102
X73406Y54102
X70866Y54102
X68326Y54102
X65786Y54102
X63246Y54102
X60706Y54102
X58166Y54102
X81026Y64262
X78486Y64262
X75946Y64262
X73406Y64262
X70866Y64262
X68326Y64262
X65786Y64262
X63246Y64262
X60706Y64262
X58166Y64262
X112014Y54102
X109474Y54102
X106934Y54102
X104394Y54102
X101854Y54102
X99314Y54102
X96774Y54102
X94234Y54102
X91694Y54102
X89154Y54102
X86614Y54102
X109474Y64262
X106934Y64262
X104394Y64262
X101854Y64262
X99314Y64262
X96774Y64262
X94234Y64262
X91694Y64262
X89154Y64262
X86614Y64262
X140462Y54102
X137922Y54102
X135382Y54102
X132842Y54102
X130302Y54102
X127762Y54102
X125222Y54102
X122682Y54102
X120142Y54102
X117602Y54102
X115062Y54102
X137922Y64262
X135382Y64262
X132842Y64262
X130302Y64262
X127762Y64262
X125222Y64262
X122682Y64262
X120142Y64262
X117602Y64262
X115062Y64262
X168910Y54102
X166370Y54102
X163830Y54102
X161290Y54102
X158750Y54102
X156210Y54102
X153670Y54102
X151130Y54102
X148590Y54102
X146050Y54102
X143510Y54102
X166370Y64262
X163830Y64262
X161290Y64262
X158750Y64262
X156210Y64262
X153670Y64262
X151130Y64262
X148590Y64262
X146050Y64262
X143510Y64262
X26670Y67310
X24130Y67310
X21590Y67310
X19050Y67310
X16510Y67310
X13970Y67310
X11430Y67310
X8890Y67310
X6350Y67310
X3810Y67310
X1270Y67310
X24130Y77470
X21590Y77470
X19050Y77470
X16510Y77470
X13970Y77470
X11430Y77470
X8890Y77470
X6350Y77470
X3810Y77470
X1270Y77470
X55118Y67310
X52578Y67310
X50038Y67310
X47498Y67310
X44958Y67310
X42418Y67310
X39878Y67310
X37338Y67310
X34798Y67310
X32258Y67310
X29718Y67310
X101854Y40894
X52578Y77470
X50038Y77470
X47498Y77470
X44958Y77470
X42418Y77470
X39878Y77470
X37338Y77470
X34798Y77470
X32258Y77470
X29718Y77470
X83566Y67310
X81026Y67310
X78486Y67310
X75946Y67310
X73406Y67310
X70866Y67310
X68326Y67310
X65786Y67310
X63246Y67310
X60706Y67310
X58166Y67310
X81026Y77470
X78486Y77470
X75946Y77470
X73406Y77470
X70866Y77470
X68326Y77470
X65786Y77470
X63246Y77470
X60706Y77470
X58166Y77470
X112014Y67310
X109474Y67310
X106934Y67310
X104394Y67310
X101854Y67310
X99314Y67310
X96774Y67310
X94234Y67310
X91694Y67310
X89154Y67310
X86614Y67310
X109474Y77470
X106934Y77470
X104394Y77470
X101854Y77470
X99314Y77470
X96774Y77470
X94234Y77470
X91694Y77470
X89154Y77470
X86614Y77470
X140462Y67310
X137922Y67310
X135382Y67310
X132842Y67310
X130302Y67310
X127762Y67310
X125222Y67310
X122682Y67310
X120142Y67310
X117602Y67310
X115062Y67310
X137922Y77470
X135382Y77470
X132842Y77470
X130302Y77470
X127762Y77470
X125222Y77470
X122682Y77470
X120142Y77470
X117602Y77470
X115062Y77470
X168910Y67310
X166370Y67310
X163830Y67310
X161290Y67310
X158750Y67310
X156210Y67310
X153670Y67310
X151130Y67310
X148590Y67310
X146050Y67310
X143510Y67310
X166370Y77470
X163830Y77470
X161290Y77470
X158750Y77470
X156210Y77470
X153670Y77470
X151130Y77470
X148590Y77470
X146050Y77470
X143510Y77470
X26670Y80518
X24130Y80518
X21590Y80518
X19050Y80518
X16510Y80518
X13970Y80518
X11430Y80518
X8890Y80518
X6350Y80518
X3810Y80518
X1270Y80518
X24130Y90678
X21590Y90678
X19050Y90678
X16510Y90678
X13970Y90678
X11430Y90678
X8890Y90678
X6350Y90678
X3810Y90678
X1270Y90678
X55118Y80518
X52578Y80518
X50038Y80518
X47498Y80518
X44958Y80518
X42418Y80518
X39878Y80518
X37338Y80518
X34798Y80518
X32258Y80518
X29718Y80518
X52578Y90678
X50038Y90678
X47498Y90678
X44958Y90678
X42418Y90678
X39878Y90678
X37338Y90678
X34798Y90678
X32258Y90678
X29718Y90678
X83566Y80518
X81026Y80518
X78486Y80518
X75946Y80518
X73406Y80518
X70866Y80518
X68326Y80518
X65786Y80518
X63246Y80518
X60706Y80518
X58166Y80518
X81026Y90678
X78486Y90678
X75946Y90678
X73406Y90678
X70866Y90678
X68326Y90678
X65786Y90678
X63246Y90678
X60706Y90678
X58166Y90678
X112014Y80518
X109474Y80518
X106934Y80518
X104394Y80518
X101854Y80518
X99314Y80518
X96774Y80518
X94234Y80518
X91694Y80518
X89154Y80518
X86614Y80518
X109474Y90678
X106934Y90678
X104394Y90678
X101854Y90678
X99314Y90678
X96774Y90678
X94234Y90678
X91694Y90678
X89154Y90678
X86614Y90678
X140462Y80518
X137922Y80518
X135382Y80518
X132842Y80518
X130302Y80518
X127762Y80518
X125222Y80518
X122682Y80518
X120142Y80518
X117602Y80518
X115062Y80518
X137922Y90678
X135382Y90678
X132842Y90678
X130302Y90678
X127762Y90678
X125222Y90678
X122682Y90678
X120142Y90678
X117602Y90678
X115062Y90678
X168910Y80518
X166370Y80518
X163830Y80518
X161290Y80518
X158750Y80518
X156210Y80518
X153670Y80518
X151130Y80518
X148590Y80518
X146050Y80518
X143510Y80518
X166370Y90678
X163830Y90678
X161290Y90678
X158750Y90678
X156210Y90678
X153670Y90678
X151130Y90678
X148590Y90678
X146050Y90678
X143510Y90678
X26670Y93726
X24130Y93726
X21590Y93726
X19050Y93726
X16510Y93726
X13970Y93726
X11430Y93726
X8890Y93726
X6350Y93726
X3810Y93726
X1270Y93726
X24130Y103886
X21590Y103886
X19050Y103886
X16510Y103886
X13970Y103886
X11430Y103886
X8890Y103886
X6350Y103886
X3810Y103886
X1270Y103886
X55118Y93726
X50038Y93726
X47498Y93726
X44958Y93726
X42418Y93726
X39878Y93726
X37338Y93726
X34798Y93726
X32258Y93726
X29718Y93726
X52578Y103886
X50038Y103886
X47498Y103886
X44958Y103886
X42418Y103886
X39878Y103886
X37338Y103886
X34798Y103886
X32258Y103886
X29718Y103886
X83566Y93726
X81026Y93726
X78486Y93726
X75946Y93726
X73406Y93726
X70866Y93726
X68326Y93726
X65786Y93726
X63246Y93726
X60706Y93726
X58166Y93726
X81026Y103886
X78486Y103886
X75946Y103886
X73406Y103886
X70866Y103886
X68326Y103886
X65786Y103886
X63246Y103886
X60706Y103886
X58166Y103886
X112014Y93726
X109474Y93726
X106934Y93726
X104394Y93726
X101854Y93726
X99314Y93726
X96774Y93726
X94234Y93726
X91694Y93726
X89154Y93726
X86614Y93726
X109474Y103886
X106934Y103886
X104394Y103886
X101854Y103886
X99314Y103886
X96774Y103886
X94234Y103886
X91694Y103886
X89154Y103886
X86614Y103886
X140462Y93726
X137922Y93726
X135382Y93726
X132842Y93726
X130302Y93726
X127762Y93726
X125222Y93726
X122682Y93726
X120142Y93726
X117602Y93726
X115062Y93726
X137922Y103886
X135382Y103886
X132842Y103886
X130302Y103886
X127762Y103886
X125222Y103886
X122682Y103886
X120142Y103886
X117602Y103886
X115062Y103886
X168910Y93726
X166370Y93726
X163830Y93726
X161290Y93726
X158750Y93726
X156210Y93726
X153670Y93726
X151130Y93726
X148590Y93726
X146050Y93726
X143510Y93726
X166370Y103886
X163830Y103886
X161290Y103886
X158750Y103886
X156210Y103886
X153670Y103886
X151130Y103886
X148590Y103886
X146050Y103886
X143510Y103886
X26670Y106934
X24130Y106934
X21590Y106934
X19050Y106934
X16510Y106934
X13970Y106934
X11430Y106934
X8890Y106934
X6350Y106934
X3810Y106934
X1270Y106934
X24130Y117094
X21590Y117094
X19050Y117094
X16510Y117094
X13970Y117094
X11430Y117094
X8890Y117094
X6350Y117094
X3810Y117094
X1270Y117094
X55118Y106934
X52578Y106934
X50038Y106934
X47498Y106934
X44958Y106934
X42418Y106934
X39878Y106934
X37338Y106934
X34798Y106934
X32258Y106934
X29718Y106934
X52578Y117094
X50038Y117094
X47498Y117094
X44958Y117094
X42418Y117094
X39878Y117094
X37338Y117094
X34798Y117094
X32258Y117094
X29718Y117094
X83566Y106934
X81026Y106934
X78486Y106934
X75946Y106934
X73406Y106934
X70866Y106934
X68326Y106934
X65786Y106934
X63246Y106934
X60706Y106934
X58166Y106934
X81026Y117094
X78486Y117094
X75946Y117094
X73406Y117094
X70866Y117094
X68326Y117094
X65786Y117094
X63246Y117094
X60706Y117094
X58166Y117094
X112014Y106934
X109474Y106934
X106934Y106934
X104394Y106934
X101854Y106934
X99314Y106934
X96774Y106934
X94234Y106934
X91694Y106934
X89154Y106934
X86614Y106934
X109474Y117094
X106934Y117094
X104394Y117094
X101854Y117094
X99314Y117094
X96774Y117094
X94234Y117094
X91694Y117094
X89154Y117094
X86614Y117094
X140462Y106934
X137922Y106934
X135382Y106934
X132842Y106934
X130302Y106934
X127762Y106934
X125222Y106934
X122682Y106934
X120142Y106934
X117602Y106934
X115062Y106934
X137922Y117094
X135382Y117094
X132842Y117094
X130302Y117094
X127762Y117094
X125222Y117094
X122682Y117094
X120142Y117094
X117602Y117094
X115062Y117094
X168910Y106934
X166370Y106934
X163830Y106934
X161290Y106934
X158750Y106934
X156210Y106934
X153670Y106934
X151130Y106934
X148590Y106934
X125222Y14478
X146050Y106934
X143510Y106934
X166370Y117094
X163830Y117094
X161290Y117094
X158750Y117094
X156210Y117094
X153670Y117094
X151130Y117094
X148590Y117094
X146050Y117094
X143510Y117094
X26670Y1270
X24130Y1270
X21590Y1270
X19050Y1270
X16510Y1270
X13970Y1270
X11430Y1270
X8890Y1270
X6350Y1270
X3810Y1270
X1270Y1270
X24130Y11430
X21590Y11430
X19050Y11430
X16510Y11430
X13970Y11430
X11430Y11430
X8890Y11430
X6350Y11430
X3810Y11430
X1270Y11430
X55118Y1270
X52578Y1270
X50038Y1270
X47498Y1270
X44958Y1270
X42418Y1270
X39878Y1270
X37338Y1270
X34798Y1270
X32258Y1270
X29718Y1270
X52578Y11430
X50038Y11430
X47498Y11430
X44958Y11430
X42418Y11430
X39878Y11430
X37338Y11430
X34798Y11430
X32258Y11430
X29718Y11430
X83566Y1270
X81026Y1270
X78486Y1270
X75946Y1270
X73406Y1270
X70866Y1270
X68326Y1270
X65786Y1270
X63246Y1270
X60706Y1270
X58166Y1270
X81026Y11430
X78486Y11430
X75946Y11430
X73406Y11430
X70866Y11430
X68326Y11430
X65786Y11430
X63246Y11430
X60706Y11430
X58166Y11430
X112014Y1270
X109474Y1270
X106934Y1270
X104394Y1270
X101854Y1270
X99314Y1270
X96774Y1270
X94234Y1270
X91694Y1270
X89154Y1270
X86614Y1270
X109474Y11430
X106934Y11430
X104394Y11430
X101854Y11430
X99314Y11430
X96774Y11430
X94234Y11430
X91694Y11430
X89154Y11430
X86614Y11430
X140462Y1270
X137922Y1270
X135382Y1270
X132842Y1270
X130302Y1270
X127762Y1270
X125222Y1270
X122682Y1270
X120142Y1270
X117602Y1270
X115062Y1270
X137922Y11430
X135382Y11430
X132842Y11430
X130302Y11430
X127762Y11430
X125222Y11430
X122682Y11430
X120142Y11430
X117602Y11430
X115062Y11430
X168910Y1270
X166370Y1270
X163830Y1270
X161290Y1270
X158750Y1270
X156210Y1270
X153670Y1270
X151130Y1270
X148590Y1270
X146050Y1270
X143510Y1270
X166370Y11430
X163830Y11430
X161290Y11430
X158750Y11430
X156210Y11430
X153670Y11430
X151130Y11430
X148590Y11430
X146050Y11430
X143510Y11430
X26670Y14478
X24130Y14478
X21590Y14478
X19050Y14478
X16510Y14478
X13970Y14478
X11430Y14478
X8890Y14478
X6350Y14478
X3810Y14478
X1270Y14478
X24130Y24638
X21590Y24638
X19050Y24638
X16510Y24638
X13970Y24638
X11430Y24638
X8890Y24638
X6350Y24638
X3810Y24638
X1270Y24638
X55118Y14478
X52578Y14478
X50038Y14478
X47498Y14478
X44958Y14478
X42418Y14478
X39878Y14478
X37338Y14478
X34798Y14478
X32258Y14478
X29718Y14478
X52578Y24638
X50038Y24638
X47498Y24638
X44958Y24638
X42418Y24638
X39878Y24638
X37338Y24638
X34798Y24638
X32258Y24638
X29718Y24638
X83566Y14478
X81026Y14478
X78486Y14478
X75946Y14478
X73406Y14478
X70866Y14478
X68326Y14478
X65786Y14478
X63246Y14478
X60706Y14478
X58166Y14478
X81026Y24638
X78486Y24638
X75946Y24638
X73406Y24638
X70866Y24638
X68326Y24638
X65786Y24638
X63246Y24638
X60706Y24638
X58166Y24638
X112014Y14478
X109474Y14478
X106934Y14478
X104394Y14478
X101854Y14478
X99314Y14478
X96774Y14478
X94234Y14478
X91694Y14478
X89154Y14478
X86614Y14478
X109474Y24638
X106934Y24638
X104394Y24638
X101854Y24638
X99314Y24638
X96774Y24638
X94234Y24638
X91694Y24638
X89154Y24638
X86614Y24638
X140462Y14478
X137922Y14478
X135382Y14478
X132842Y14478
X130302Y14478
X127762Y14478
X52578Y93726
X122682Y14478
X120142Y14478
X117602Y14478
X115062Y14478
X137922Y24638
X135382Y24638
X132842Y24638
X130302Y24638
X127762Y24638
X125222Y24638
X122682Y24638
X120142Y24638
X117602Y24638
X115062Y24638
X168910Y14478
X166370Y14478
X163830Y14478
X161290Y14478
X158750Y14478
X156210Y14478
X153670Y14478
X151130Y14478
X148590Y14478
X146050Y14478
X143510Y14478
X166370Y24638
X163830Y24638
X161290Y24638
X158750Y24638
X156210Y24638
X153670Y24638
X151130Y24638
X148590Y24638
X146050Y24638
X143510Y24638
X26670Y27686
X24130Y27686
X21590Y27686
X19050Y27686
X16510Y27686
X13970Y27686
X11430Y27686
X8890Y27686
X6350Y27686
X3810Y27686
X1270Y27686
X24130Y37846
X21590Y37846
X19050Y37846
X16510Y37846
X13970Y37846
X11430Y37846
X8890Y37846
X6350Y37846
X3810Y37846
X1270Y37846
X55118Y27686
X52578Y27686
X50038Y27686
X47498Y27686
X44958Y27686
X42418Y27686
X39878Y27686
X37338Y27686
X34798Y27686
X32258Y27686
X29718Y27686
X52578Y37846
X50038Y37846
X47498Y37846
X44958Y37846
X42418Y37846
X39878Y37846
X37338Y37846
X34798Y37846
X32258Y37846
X29718Y37846
X83566Y27686
X81026Y27686
X78486Y27686
X75946Y27686
X73406Y27686
X70866Y27686
X68326Y27686
X65786Y27686
X63246Y27686
X60706Y27686
X58166Y27686
X81026Y37846
X78486Y37846
X75946Y37846
X73406Y37846
X70866Y37846
X68326Y37846
X65786Y37846
X63246Y37846
X60706Y37846
X58166Y37846
X112014Y27686
X109474Y27686
X106934Y27686
X104394Y27686
X101854Y27686
X99314Y27686
X96774Y27686
X94234Y27686
X91694Y27686
X89154Y27686
X86614Y27686
X109474Y37846
X106934Y37846
X104394Y37846
X101854Y37846
X99314Y37846
X96774Y37846
X94234Y37846
X91694Y37846
X89154Y37846
X86614Y37846
X140462Y27686
X137922Y27686
X135382Y27686
X132842Y27686
X130302Y27686
X127762Y27686
X125222Y27686
X122682Y27686
X120142Y27686
X117602Y27686
X115062Y27686
X137922Y37846
X135382Y37846
X132842Y37846
X130302Y37846
X127762Y37846
X125222Y37846
X122682Y37846
X120142Y37846
X117602Y37846
X115062Y37846
X168910Y27686
X166370Y27686
X163830Y27686
X161290Y27686
X158750Y27686
X156210Y27686
X153670Y27686
X151130Y27686
X148590Y27686
X146050Y27686
X143510Y27686
X166370Y37846
X163830Y37846
X161290Y37846
X158750Y37846
X156210Y37846
X153670Y37846
X151130Y37846
X148590Y37846
X146050Y37846
X143510Y37846
X26670Y40894
X24130Y40894
X21590Y40894
X19050Y40894
X16510Y40894
X13970Y40894
X11430Y40894
X8890Y40894
X6350Y40894
X3810Y40894
X1270Y40894
X24130Y51054
X21590Y51054
X19050Y51054
X16510Y51054
X13970Y51054
X11430Y51054
X8890Y51054
X6350Y51054
X3810Y51054
X1270Y51054
X55118Y40894
X52578Y40894
X50038Y40894
X47498Y40894
X44958Y40894
X42418Y40894
X39878Y40894
X37338Y40894
X34798Y40894
X32258Y40894
X29718Y40894
X52578Y51054
X50038Y51054
X47498Y51054
X44958Y51054
X42418Y51054
X39878Y51054
X37338Y51054
X34798Y51054
X32258Y51054
X29718Y51054
X83566Y40894
X81026Y40894
X78486Y40894
X75946Y40894
X73406Y40894
X70866Y40894
X68326Y40894
X65786Y40894
X63246Y40894
X60706Y40894
X58166Y40894
X81026Y51054
T2
X11430Y6350
X19050Y6350
X25400Y10160
X25400Y3810
X25400Y102616
X25400Y96266
X18034Y96647
X12700Y96012
X18034Y4191
X12700Y3556
X11176Y4699
X12700Y9271
X11176Y8001
X39878Y6350
X47498Y6350
X53848Y10160
X53848Y3810
X11176Y97155
X12700Y101727
X11176Y100457
X39878Y98806
X46482Y4191
X41148Y3556
X39624Y4699
X41148Y9271
X39624Y8001
X68326Y6350
X75946Y6350
X82296Y10160
X82296Y3810
X47498Y98806
X53848Y102616
X53848Y96266
X46482Y96647
X74930Y4191
X69596Y3556
X68072Y4699
X69596Y9271
X68072Y8001
X96774Y6350
X104394Y6350
X110744Y10160
X110744Y3810
X41148Y96012
X39624Y97155
X41148Y101727
X39624Y100457
X103378Y4191
X98044Y3556
X96520Y4699
X98044Y9271
X96520Y8001
X125222Y6350
X132842Y6350
X139192Y10160
X139192Y3810
X68326Y98806
X75946Y98806
X82296Y102616
X82296Y96266
X131826Y4191
X126492Y3556
X124968Y4699
X126492Y9271
X124968Y8001
X153670Y6350
X161290Y6350
X167640Y10160
X167640Y3810
X74930Y96647
X69596Y96012
X68072Y97155
X69596Y101727
X160274Y4191
X154940Y3556
X153416Y4699
X154940Y9271
X153416Y8001
X11430Y19558
X19050Y19558
X25400Y23368
X25400Y17018
X68072Y100457
X96774Y98806
X104394Y98806
X110744Y102616
X18034Y17399
X12700Y16764
X11176Y17907
X12700Y22479
X11176Y21209
X39878Y19558
X47498Y19558
X53848Y23368
X53848Y17018
X110744Y96266
X103378Y96647
X98044Y96012
X96520Y97155
X46482Y17399
X41148Y16764
X39624Y17907
X41148Y22479
X39624Y21209
X68326Y19558
X75946Y19558
X82296Y23368
X82296Y17018
X98044Y101727
X96520Y100457
X125222Y98806
X132842Y98806
X74930Y17399
X69596Y16764
X68072Y17907
X69596Y22479
X68072Y21209
X96774Y19558
X104394Y19558
X110744Y23368
X110744Y17018
X139192Y102616
X139192Y96266
X131826Y96647
X126492Y96012
X103378Y17399
X98044Y16764
X96520Y17907
X98044Y22479
X96520Y21209
X125222Y19558
X132842Y19558
X139192Y23368
X139192Y17018
X124968Y97155
X126492Y101727
X124968Y100457
X153670Y98806
X131826Y17399
X126492Y16764
X124968Y17907
X126492Y22479
X124968Y21209
X153670Y19558
X161290Y19558
X167640Y23368
X167640Y17018
X161290Y98806
X167640Y102616
X167640Y96266
X153670Y112014
X160274Y17399
X154940Y16764
X153416Y17907
X154940Y22479
X153416Y21209
X11430Y32766
X19050Y32766
X25400Y36576
X25400Y30226
X160274Y96647
X154940Y96012
X153416Y97155
X154940Y101727
X18034Y30607
X12700Y29972
X11176Y31115
X12700Y35687
X11176Y34417
X39878Y32766
X47498Y32766
X53848Y36576
X53848Y30226
X153416Y100457
X11430Y112014
X19050Y112014
X25400Y115824
X46482Y30607
X41148Y29972
X39624Y31115
X41148Y35687
X39624Y34417
X68326Y32766
X75946Y32766
X82296Y36576
X82296Y30226
X25400Y109474
X18034Y109855
X12700Y109220
X11176Y110363
X74930Y30607
X69596Y29972
X68072Y31115
X69596Y35687
X68072Y34417
X96774Y32766
X104394Y32766
X110744Y36576
X110744Y30226
X12700Y114935
X11176Y113665
X39878Y112014
X47498Y112014
X103378Y30607
X98044Y29972
X96520Y31115
X98044Y35687
X96520Y34417
X125222Y32766
X132842Y32766
X139192Y36576
X139192Y30226
X53848Y115824
X53848Y109474
X46482Y109855
X41148Y109220
X131826Y30607
X126492Y29972
X124968Y31115
X126492Y35687
X124968Y34417
X153670Y32766
X161290Y32766
X167640Y36576
X167640Y30226
X39624Y110363
X41148Y114935
X39624Y113665
X68326Y112014
X154940Y29972
X153416Y31115
X154940Y35687
X153416Y34417
X11430Y45974
X19050Y45974
X25400Y49784
X25400Y43434
X75946Y112014
X82296Y115824
X82296Y109474
X74930Y109855
X18034Y43815
X12700Y43180
X11176Y44323
X12700Y48895
X11176Y47625
X39878Y45974
X47498Y45974
X53848Y49784
X53848Y43434
X69596Y109220
X68072Y110363
X69596Y114935
X68072Y113665
X46482Y43815
X41148Y43180
X39624Y44323
X41148Y48895
X39624Y47625
X68326Y45974
X75946Y45974
X82296Y49784
X82296Y43434
X96774Y112014
X104394Y59182
X104394Y112014
X110744Y115824
X74930Y43815
X69596Y43180
X68072Y44323
X69596Y48895
X68072Y47625
X96774Y45974
X104394Y45974
X110744Y49784
X110744Y43434
X110744Y109474
X103378Y109855
X98044Y109220
X96520Y110363
X103378Y43815
X98044Y43180
X96520Y44323
X98044Y48895
X96520Y47625
X125222Y45974
X132842Y45974
X139192Y49784
X139192Y43434
X98044Y114935
X96520Y113665
X125222Y112014
X132842Y112014
X131826Y43815
X126492Y43180
X124968Y44323
X126492Y48895
X124968Y47625
X153670Y45974
X161290Y45974
X167640Y49784
X167640Y43434
X139192Y115824
X139192Y109474
X131826Y109855
X126492Y109220
X160274Y43815
X154940Y43180
X153416Y44323
X154940Y48895
X153416Y47625
X11430Y59182
X19050Y59182
X25400Y62992
X25400Y56642
X124968Y110363
X126492Y114935
X124968Y113665
X161290Y112014
X18034Y57023
X12700Y56388
X11176Y57531
X12700Y62103
X11176Y60833
X39878Y59182
X47498Y59182
X53848Y62992
X53848Y56642
X167640Y115824
X167640Y109474
X160274Y109855
X154940Y109220
X46482Y57023
X41148Y56388
X39624Y57531
X41148Y62103
X39624Y60833
X68326Y59182
X75946Y59182
X82296Y62992
X82296Y56642
X153416Y110363
X154940Y114935
X153416Y113665
X160274Y30607
X74930Y57023
X69596Y56388
X68072Y57531
X69596Y62103
X68072Y60833
X96774Y59182
X96520Y70739
X110744Y62992
X110744Y56642
X103378Y57023
X98044Y56388
X96520Y57531
X98044Y62103
X96520Y60833
X125222Y59182
X132842Y59182
X139192Y62992
X139192Y56642
X131826Y57023
X126492Y56388
X124968Y57531
X126492Y62103
X124968Y60833
X153670Y59182
X161290Y59182
X167640Y62992
X167640Y56642
X160274Y57023
X154940Y56388
X153416Y57531
X154940Y62103
X153416Y60833
X11430Y72390
X19050Y72390
X25400Y76200
X25400Y69850
X18034Y70231
X12700Y69596
X11176Y70739
X12700Y75311
X11176Y74041
X39878Y72390
X47498Y72390
X53848Y76200
X53848Y69850
X46482Y70231
X41148Y69596
X39624Y70739
X41148Y75311
X39624Y74041
X68326Y72390
X75946Y72390
X82296Y76200
X82296Y69850
X74930Y70231
X69596Y69596
X68072Y70739
X69596Y75311
X68072Y74041
X96774Y72390
X104394Y72390
X110744Y76200
X110744Y69850
X103378Y70231
X98044Y69596
X98044Y75311
X96520Y74041
X125222Y72390
X132842Y72390
X139192Y76200
X139192Y69850
X131826Y70231
X126492Y69596
X124968Y70739
X126492Y75311
X124968Y74041
X153670Y72390
X161290Y72390
X167640Y76200
X167640Y69850
X160274Y70231
X154940Y69596
X153416Y70739
X154940Y75311
X153416Y74041
X11430Y85598
X19050Y85598
X25400Y89408
X25400Y83058
X18034Y83439
X12700Y82804
X11176Y83947
X12700Y88519
X11176Y87249
X39878Y85598
X47498Y85598
X53848Y89408
X53848Y83058
X46482Y83439
X41148Y82804
X39624Y83947
X41148Y88519
X39624Y87249
X68326Y85598
X75946Y85598
X82296Y89408
X82296Y83058
X74930Y83439
X69596Y82804
X68072Y83947
X69596Y88519
X68072Y87249
X96774Y85598
X104394Y85598
X110744Y89408
X110744Y83058
X103378Y83439
X98044Y82804
X96520Y83947
X98044Y88519
X96520Y87249
X125222Y85598
X132842Y85598
X139192Y89408
X139192Y83058
X131826Y83439
X126492Y82804
X124968Y83947
X126492Y88519
X124968Y87249
X153670Y85598
X161290Y85598
X167640Y89408
X167640Y83058
X160274Y83439
X154940Y82804
X153416Y83947
X154940Y88519
X153416Y87249
X11430Y98806
X19050Y98806
T3
X16510Y6350
X13970Y6350
X15240Y5588
X15240Y7112
X44958Y6350
X42418Y6350
X43688Y5588
X43688Y7112
X73406Y6350
X70866Y6350
X72136Y5588
X72136Y7112
X101854Y6350
X99314Y6350
X100584Y5588
X100584Y7112
X130302Y6350
X127762Y6350
X129032Y5588
X129032Y7112
X158750Y6350
X156210Y6350
X157480Y5588
X157480Y7112
X16510Y19558
X13970Y19558
X15240Y18796
X15240Y20320
X44958Y19558
X42418Y19558
X43688Y18796
X43688Y20320
X73406Y19558
X70866Y19558
X72136Y18796
X72136Y20320
X101854Y19558
X99314Y19558
X100584Y18796
X100584Y20320
X130302Y19558
X127762Y19558
X129032Y18796
X129032Y20320
X158750Y19558
X156210Y19558
X157480Y18796
X157480Y20320
X16510Y32766
X13970Y32766
X15240Y32004
X15240Y33528
X44958Y32766
X42418Y32766
X43688Y32004
X43688Y33528
X73406Y32766
X70866Y32766
X72136Y32004
X72136Y33528
X101854Y32766
X99314Y32766
X100584Y32004
X100584Y33528
X130302Y32766
X127762Y32766
X129032Y32004
X129032Y33528
X158750Y32766
X156210Y32766
X157480Y32004
X157480Y33528
X16510Y45974
X13970Y45974
X15240Y45212
X15240Y46736
X44958Y45974
X42418Y45974
X43688Y45212
X43688Y46736
X73406Y45974
X72136Y45212
X72136Y46736
X101854Y45974
X99314Y45974
X100584Y45212
X100584Y46736
X130302Y45974
X127762Y45974
X129032Y45212
X129032Y46736
X158750Y45974
X156210Y45974
X157480Y45212
X157480Y46736
X16510Y59182
X13970Y59182
X15240Y58420
X15240Y59944
X44958Y59182
X42418Y59182
X43688Y58420
X43688Y59944
X73406Y59182
X70866Y59182
X72136Y58420
X72136Y59944
X101854Y59182
X130302Y59182
X127762Y59182
X129032Y58420
X44958Y72390
X42418Y72390
X101854Y72390
X130302Y85598
X130302Y98806
X127762Y98806
X129032Y98044
X129032Y99568
X127762Y85598
X129032Y84836
X129032Y86360
X99314Y72390
X16510Y85598
X13970Y85598
X15240Y84836
X15240Y86360
X100584Y71628
X100584Y73152
X156210Y98806
X157480Y98044
X157480Y99568
X43688Y71628
X43688Y73152
X158750Y85598
X156210Y85598
X157480Y84836
X157480Y86360
X70866Y45974
X129032Y59944
X99314Y59182
X16510Y112014
X13970Y112014
X15240Y111252
X15240Y112776
X158750Y59182
X16510Y72390
X44958Y85598
X42418Y85598
X43688Y84836
X43688Y86360
X16510Y98806
X13970Y98806
X15240Y98044
X44958Y112014
X42418Y112014
X43688Y111252
X43688Y112776
X15240Y99568
X13970Y72390
X15240Y71628
X130302Y72390
X127762Y72390
X129032Y71628
X129032Y73152
X15240Y73152
X156210Y59182
X73406Y112014
X70866Y112014
X72136Y111252
X72136Y112776
X157480Y58420
X44958Y98806
X42418Y98806
X43688Y98044
X43688Y99568
X73406Y85598
X70866Y85598
X72136Y84836
X72136Y86360
X101854Y112014
X99314Y112014
X100584Y111252
X100584Y112776
X73406Y72390
X70866Y72390
X72136Y71628
X72136Y73152
X157480Y59944
X73406Y98806
X70866Y98806
X72136Y98044
X72136Y99568
X130302Y112014
X127762Y112014
X129032Y111252
X129032Y112776
X100584Y58420
X158750Y72390
X156210Y72390
X157480Y71628
X101854Y85598
X99314Y85598
X100584Y84836
X100584Y86360
X158750Y112014
X156210Y112014
X157480Y111252
X157480Y112776
X157480Y73152
X101854Y98806
X99314Y98806
X100584Y98044
X100584Y99568
X100584Y59944
X158750Y98806
M30